<svg width="24" height="24" viewBox="0 0 24 24" fill="none" xmlns="http://www.w3.org/2000/svg">
<path d="M12.0576 1.75C14.2479 1.74999 15.9683 1.75012 17.3115 1.93066C18.6882 2.11575 19.7805 2.50313 20.6387 3.36133C21.4969 4.21953 21.8842 5.31182 22.0693 6.68848C22.2499 8.03174 22.25 9.75212 22.25 11.9424V12.0576C22.25 14.2479 22.2499 15.9683 22.0693 17.3115C21.8842 18.6882 21.4969 19.7805 20.6387 20.6387C19.7805 21.4969 18.6882 21.8842 17.3115 22.0693C15.9683 22.2499 14.2479 22.25 12.0576 22.25H11.9424C9.75212 22.25 8.03174 22.2499 6.68848 22.0693C5.31182 21.8842 4.21953 21.4969 3.36133 20.6387C2.50313 19.7805 2.11575 18.6882 1.93066 17.3115C1.75012 15.9683 1.74999 14.2479 1.75 12.0576V11.9424C1.74999 9.75212 1.75012 8.03174 1.93066 6.68848C2.11575 5.31182 2.50313 4.21953 3.36133 3.36133C4.21953 2.50313 5.31182 2.11575 6.68848 1.93066C8.03174 1.75012 9.75213 1.74999 11.9424 1.75H12.0576ZM3.26172 9.75C3.25316 10.4215 3.25 11.1673 3.25 12C3.25 14.2604 3.25137 15.8804 3.41699 17.1123C3.57972 18.3225 3.88885 19.0451 4.42188 19.5781C4.9549 20.1111 5.67747 20.4203 6.8877 20.583C8.1196 20.7486 9.73963 20.75 12 20.75C14.2604 20.75 15.8804 20.7486 17.1123 20.583C18.3225 20.4203 19.0451 20.1111 19.5781 19.5781C20.1111 19.0451 20.4203 18.3225 20.583 17.1123C20.7486 15.8804 20.75 14.2604 20.75 12C20.75 11.1673 20.7468 10.4215 20.7383 9.75H3.26172ZM12 3.25C9.73963 3.25 8.1196 3.25137 6.8877 3.41699C5.67747 3.57972 4.9549 3.88885 4.42188 4.42188C3.88885 4.9549 3.57972 5.67747 3.41699 6.8877C3.3621 7.29601 3.3275 7.74725 3.30273 8.25H20.6973C20.6725 7.74725 20.6379 7.29601 20.583 6.8877C20.4203 5.67747 20.1111 4.9549 19.5781 4.42188C19.0451 3.88885 18.3225 3.57972 17.1123 3.41699C15.8804 3.25137 14.2604 3.25 12 3.25ZM7.00879 5C7.56107 5 8.00879 5.44772 8.00879 6C8.00879 6.55228 7.56107 7 7.00879 7H7C6.44772 7 6 6.55228 6 6C6 5.44772 6.44772 5 7 5H7.00879ZM11.0088 5C11.5611 5 12.0088 5.44772 12.0088 6C12.0088 6.55228 11.5611 7 11.0088 7H11C10.4477 7 10 6.55228 10 6C10 5.44772 10.4477 5 11 5H11.0088Z" fill="#067647"/>
</svg>
