<?xml version="1.0" encoding="utf-8"?>
<!-- Generator: Adobe Illustrator 16.0.0, SVG Export Plug-In . SVG Version: 6.00 Build 0)  -->
<!DOCTYPE svg PUBLIC "-//W3C//DTD SVG 1.1//EN" "http://www.w3.org/Graphics/SVG/1.1/DTD/svg11.dtd">
<svg version="1.1" id="Layer_1" xmlns="http://www.w3.org/2000/svg" xmlns:xlink="http://www.w3.org/1999/xlink" x="0px" y="0px"
	 width="102px" height="102px" viewBox="0 0 102 102" enable-background="new 0 0 102 102" xml:space="preserve">
<g>
	<path fill="#231F20" d="M76.581,44.023c-2.57,0-4.65,2.08-4.65,4.65c0,2.571,2.08,4.651,4.65,4.651h0.041
		c2.571,0,4.651-2.08,4.651-4.651c0-2.57-2.08-4.65-4.651-4.65H76.581z"/>
	<path fill="#231F20" d="M74.015,1h5.133c4.184,0,7.663,0,10.434,0.372c2.916,0.391,5.555,1.254,7.672,3.375
		c2.121,2.116,2.984,4.756,3.375,7.672C101,15.189,101,18.669,101,22.848v19.091c0,4.179,0,7.663-0.372,10.433
		c-0.391,2.917-1.254,5.556-3.375,7.672c-2.117,2.121-4.756,2.984-7.672,3.375c-2.771,0.373-6.25,0.373-10.434,0.373h-5.133
		c-4.183,0-7.662,0-10.433-0.373c-2.916-0.391-5.556-1.254-7.672-3.375c-2.121-2.116-2.984-4.755-3.375-7.672
		c-0.372-2.77-0.372-6.25-0.372-10.433V22.853c0-4.179,0-7.663,0.372-10.434c0.391-2.916,1.254-5.556,3.375-7.672
		c2.116-2.121,4.756-2.984,7.672-3.375C66.353,1,69.832,1,74.015,1z M64.513,8.285c-2.148,0.291-3.065,0.791-3.67,1.395
		c-0.604,0.604-1.104,1.521-1.395,3.67c-0.3,2.249-0.309,5.26-0.309,9.743v18.604c0,4.483,0.009,7.495,0.309,9.743
		c0.291,2.148,0.791,3.066,1.395,3.67c0.604,0.604,1.521,1.104,3.67,1.395c2.248,0.3,5.26,0.31,9.743,0.31h4.651
		c4.482,0,7.494-0.01,9.742-0.31c2.148-0.29,3.066-0.79,3.67-1.395c0.604-0.604,1.104-1.521,1.395-3.67
		c0.301-2.248,0.31-5.26,0.31-9.743V23.093c0-4.483-0.009-7.494-0.31-9.743c-0.29-2.148-0.79-3.065-1.395-3.67
		c-0.604-0.604-1.521-1.104-3.67-1.395c-2.248-0.299-5.26-0.309-9.742-0.309h-4.651C69.772,7.977,66.761,7.986,64.513,8.285z"/>
	<path fill="#231F20" d="M41.325,1h0.209c1.926,0,3.488,1.563,3.488,3.488s-1.563,3.488-3.488,3.488
		c-7.672,0-13.145,0.005-17.388,0.454c-4.183,0.445-6.759,1.286-8.766,2.698c-1.658,1.163-3.099,2.611-4.261,4.279
		c-1.408,2.021-2.253,4.614-2.689,8.82c-0.449,4.261-0.454,9.766-0.454,17.469c0,7.704,0.005,13.209,0.454,17.47
		c0.437,4.206,1.281,6.8,2.689,8.82c1.162,1.667,2.603,3.116,4.261,4.279c2.007,1.412,4.583,2.253,8.766,2.698
		c4.243,0.449,9.716,0.453,17.388,0.453h18.519c7.667,0,13.145-0.004,17.388-0.453c4.178-0.445,6.754-1.286,8.762-2.698
		c1.576-1.108,3.751-0.728,4.859,0.849s0.731,3.752-0.845,4.86c-3.375,2.376-7.285,3.421-12.046,3.929
		c-4.65,0.491-10.496,0.491-17.914,0.491h-5.769v11.628h15.116c1.926,0,3.488,1.563,3.488,3.488S71.53,101,69.604,101H32.396
		c-1.926,0-3.488-1.563-3.488-3.488s1.563-3.488,3.488-3.488h15.116V82.396h-6.187c-7.417,0-13.263,0-17.914-0.491
		c-4.761-0.508-8.667-1.553-12.046-3.929c-2.325-1.635-4.343-3.665-5.969-6C3.035,68.592,1.99,64.672,1.49,59.894
		C1,55.225,1,49.355,1,41.897v-0.399c0-7.459,0-13.327,0.49-17.996c0.5-4.778,1.545-8.698,3.906-12.082
		c1.626-2.335,3.644-4.365,5.969-6c3.379-2.376,7.285-3.421,12.046-3.93C28.063,1,33.908,1,41.325,1z"/>
</g>
</svg>
