<?xml version="1.0" encoding="utf-8"?>
<!-- Generator: Adobe Illustrator 16.0.0, SVG Export Plug-In . SVG Version: 6.00 Build 0)  -->
<!DOCTYPE svg PUBLIC "-//W3C//DTD SVG 1.1//EN" "http://www.w3.org/Graphics/SVG/1.1/DTD/svg11.dtd">
<svg version="1.1" id="Layer_1" xmlns="http://www.w3.org/2000/svg" xmlns:xlink="http://www.w3.org/1999/xlink" x="0px" y="0px"
	 width="102px" height="102px" viewBox="0 0 102 102" enable-background="new 0 0 102 102" xml:space="preserve">
<g>
	<path fill="#231F20" d="M53.717,11.317c7.514-5.642,19.95-9.03,33.818-0.526c9.361,5.741,14.73,17.597,13.209,31.287
		c-0.214,1.917-1.939,3.298-3.853,3.089c-1.912-0.218-3.293-1.939-3.079-3.853c1.281-11.551-3.298-20.513-9.926-24.582
		c-11.083-6.796-20.418-4.016-25.981,0.163l-0.096,0.072c-1.259,0.945-2.339,1.754-3.202,2.317c-0.449,0.299-0.945,0.6-1.463,0.826
		c-0.49,0.227-1.244,0.5-2.144,0.5s-1.654-0.273-2.144-0.5c-0.518-0.227-1.013-0.527-1.463-0.826
		c-0.863-0.563-1.944-1.372-3.202-2.317l-0.095-0.072c-5.564-4.179-14.899-6.959-25.982-0.163
		c-6.782,4.16-11.419,13.463-9.82,25.409c1.59,11.874,9.439,26.373,27.758,39.927c7.358,5.451,10.043,7.305,14.949,7.305
		c1.926,0,3.488,1.563,3.488,3.488s-1.563,3.488-3.488,3.488c-7.395,0-11.869-3.307-18.619-8.313
		c-0.159-0.118-0.323-0.236-0.481-0.354C12.459,73.293,3.279,57.249,1.376,43.068c-1.894-14.117,3.502-26.4,13.091-32.277
		c13.868-8.504,26.305-5.115,33.818,0.526c1.235,0.927,2.085,1.563,2.716,1.989C51.632,12.88,52.481,12.244,53.717,11.317z
		 M95.516,55.76c1.867-0.478,3.77,0.654,4.242,2.516c0.473,1.872-0.654,3.766-2.521,4.243c-1.803,0.454-4.02,1.676-6.531,3.634
		c-2.476,1.926-5.033,4.396-7.508,7.122c-4.951,5.442-9.367,11.615-11.893,15.599c-0.727,1.153-2.058,1.771-3.406,1.59
		c-1.35-0.178-2.476-1.127-2.875-2.426c-0.568-1.844-1.785-3.389-3.239-4.615c-1.468-1.235-2.989-1.98-3.788-2.262
		c-1.816-0.627-2.78-2.616-2.153-4.434c0.632-1.821,2.626-2.784,4.442-2.152c1.59,0.549,3.861,1.717,5.991,3.506
		c0.786,0.664,1.585,1.436,2.325,2.316c2.586-3.651,5.865-7.895,9.436-11.818c2.639-2.898,5.486-5.688,8.381-7.94
		C89.266,58.422,92.372,56.559,95.516,55.76z"/>
</g>
</svg>
