<?xml version="1.0" encoding="utf-8"?>
<!-- Generator: Adobe Illustrator 16.0.0, SVG Export Plug-In . SVG Version: 6.00 Build 0)  -->
<!DOCTYPE svg PUBLIC "-//W3C//DTD SVG 1.1//EN" "http://www.w3.org/Graphics/SVG/1.1/DTD/svg11.dtd">
<svg version="1.1" id="Layer_1" xmlns="http://www.w3.org/2000/svg" xmlns:xlink="http://www.w3.org/1999/xlink" x="0px" y="0px"
	 width="102px" height="102px" viewBox="0 0 102 102" enable-background="new 0 0 102 102" xml:space="preserve">
<g>
	<path fill="#231F20" d="M51,101c27.616,0,50-22.384,50-50S78.616,1,51,1S1,23.384,1,51S23.384,101,51,101z M51,94.023
		C27.24,94.023,7.977,74.76,7.977,51S27.235,7.977,51,7.977S94.023,27.24,94.023,51S74.76,94.023,51,94.023z M43.26,66.412
		c1.263-0.255,2.354-0.977,3.058-1.972l2.843-4.083c0.296-0.423,0.468-0.932,0.468-1.481v-6.005l5.474-1.121v10.823l17.564-3.615
		c0.827-1.78,1.381-3.711,1.59-5.737l-13.681,2.816v-5.414l12.091-2.489c0.827-1.78,1.381-3.711,1.59-5.736l-13.681,2.812V25.741
		c-2.099,1.14-3.961,2.657-5.474,4.442v16.151l-5.474,1.127V23.093c-2.099,1.136-3.956,2.653-5.469,4.442v21.049l-12.245,2.521
		c-0.827,1.78-1.381,3.711-1.59,5.737l13.835-2.844v6.817l-14.825,3.048c-0.827,1.78-1.381,3.716-1.59,5.741L43.26,66.412z
		 M72.712,70.663c0.808-1.771,1.34-3.692,1.544-5.71l-17.061,3.594c-0.809,1.771-1.34,3.692-1.544,5.709L72.712,70.663z"/>
</g>
</svg>
