<?xml version="1.0" encoding="utf-8"?>
<!-- Generator: Adobe Illustrator 16.0.0, SVG Export Plug-In . SVG Version: 6.00 Build 0)  -->
<!DOCTYPE svg PUBLIC "-//W3C//DTD SVG 1.1//EN" "http://www.w3.org/Graphics/SVG/1.1/DTD/svg11.dtd">
<svg version="1.1" id="Layer_1" xmlns="http://www.w3.org/2000/svg" xmlns:xlink="http://www.w3.org/1999/xlink" x="0px" y="0px"
	 width="102px" height="102px" viewBox="0 0 102 102" enable-background="new 0 0 102 102" xml:space="preserve">
<g>
	<path fill="#231F20" d="M59.639,8.223l8.801,17.743c1.193,2.472,4.398,4.837,7.101,5.291l15.944,2.671
		c10.195,1.713,12.599,9.18,5.25,16.532L84.332,62.959c-2.096,2.12-3.244,6.204-2.602,9.128l3.551,15.476
		c2.803,12.246-3.648,16.985-14.396,10.586l-14.945-8.926c-2.701-1.608-7.151-1.608-9.897,0l-14.944,8.926
		c-10.701,6.399-17.199,1.608-14.402-10.586l3.545-15.476c0.654-2.924-0.494-7.008-2.596-9.128L5.246,50.46
		c-7.301-7.353-4.951-14.819,5.25-16.532l15.945-2.671c2.647-0.454,5.848-2.819,7.049-5.291l8.801-17.743
		C47.088-1.405,54.889-1.405,59.639,8.223z"/>
</g>
</svg>
