<?xml version="1.0" encoding="utf-8"?>
<!-- Generator: Adobe Illustrator 16.0.0, SVG Export Plug-In . SVG Version: 6.00 Build 0)  -->
<!DOCTYPE svg PUBLIC "-//W3C//DTD SVG 1.1//EN" "http://www.w3.org/Graphics/SVG/1.1/DTD/svg11.dtd">
<svg version="1.1" id="Layer_1" xmlns="http://www.w3.org/2000/svg" xmlns:xlink="http://www.w3.org/1999/xlink" x="0px" y="0px"
	 width="102px" height="102px" viewBox="0 0 102 102" enable-background="new 0 0 102 102" xml:space="preserve">
<g>
	<path fill="#231F20" d="M54.488,32.396c0-1.926-1.563-3.488-3.488-3.488s-3.488,1.563-3.488,3.488V51
		c0,0.927,0.368,1.813,1.021,2.467l9.303,9.302c1.362,1.362,3.57,1.362,4.933,0s1.362-3.57,0-4.933l-8.28-8.28V32.396z"/>
	<path fill="#231F20" d="M51,1C23.384,1,1,23.384,1,51s22.384,50,50,50s50-22.384,50-50S78.616,1,51,1z M7.977,51
		C7.977,27.24,27.24,7.977,51,7.977S94.023,27.24,94.023,51S74.76,94.023,51,94.023S7.977,74.76,7.977,51z"/>
</g>
</svg>
