<?xml version="1.0" encoding="utf-8"?>
<!-- Generator: Adobe Illustrator 16.0.0, SVG Export Plug-In . SVG Version: 6.00 Build 0)  -->
<!DOCTYPE svg PUBLIC "-//W3C//DTD SVG 1.1//EN" "http://www.w3.org/Graphics/SVG/1.1/DTD/svg11.dtd">
<svg version="1.1" id="Layer_1" xmlns="http://www.w3.org/2000/svg" xmlns:xlink="http://www.w3.org/1999/xlink" x="0px" y="0px"
	 width="102px" height="102px" viewBox="0 0 102 102" enable-background="new 0 0 102 102" xml:space="preserve">
<path d="M51,93.5c-1.195,0-2.203-0.41-3.021-1.229l-29.749-29.75c-0.819-0.818-1.228-1.825-1.228-3.021
	c0-1.217,0.403-2.229,1.211-3.037c0.809-0.808,1.82-1.211,3.037-1.211c1.196,0,2.203,0.408,3.021,1.228L46.75,78.99V12.75
	c0-1.174,0.416-2.176,1.245-3.005S49.826,8.5,51,8.5s2.176,0.416,3.005,1.245s1.245,1.831,1.245,3.005v66.24l22.479-22.511
	c0.818-0.819,1.825-1.228,3.021-1.228c1.217,0,2.229,0.403,3.037,1.211c0.808,0.809,1.211,1.82,1.211,3.037
	c0,1.196-0.408,2.203-1.228,3.021l-29.749,29.75C53.203,93.09,52.195,93.5,51,93.5z"/>
</svg>
