<?xml version="1.0" encoding="utf-8"?>
<!-- Generator: Adobe Illustrator 16.0.0, SVG Export Plug-In . SVG Version: 6.00 Build 0)  -->
<!DOCTYPE svg PUBLIC "-//W3C//DTD SVG 1.1//EN" "http://www.w3.org/Graphics/SVG/1.1/DTD/svg11.dtd">
<svg version="1.1" id="Layer_1" xmlns="http://www.w3.org/2000/svg" xmlns:xlink="http://www.w3.org/1999/xlink" x="0px" y="0px"
	 width="102px" height="102px" viewBox="0 0 102 102" enable-background="new 0 0 102 102" xml:space="preserve">
<path fill="#231F20" d="M1,51c0,27.614,22.386,50,50,50s50-22.386,50-50S78.614,1,51,1S1,23.386,1,51z M53.649,36.989L71.3,54.64
	c0.748,0.748,1.1,1.699,1.1,2.649c0,0.947-0.352,1.897-1.1,2.649c-1.452,1.449-3.848,1.449-5.3,0l-15-15l-15,15
	c-1.452,1.449-3.848,1.449-5.3,0c-1.451-1.448-1.451-3.851,0-5.299l17.65-17.65C49.802,35.538,52.198,35.538,53.649,36.989z"/>
</svg>
