<?xml version="1.0" encoding="utf-8"?>
<!-- Generator: Adobe Illustrator 16.0.0, SVG Export Plug-In . SVG Version: 6.00 Build 0)  -->
<!DOCTYPE svg PUBLIC "-//W3C//DTD SVG 1.1//EN" "http://www.w3.org/Graphics/SVG/1.1/DTD/svg11.dtd">
<svg version="1.1" id="Layer_1" xmlns="http://www.w3.org/2000/svg" xmlns:xlink="http://www.w3.org/1999/xlink" x="0px" y="0px"
	 width="102px" height="102px" viewBox="0 0 102 102" enable-background="new 0 0 102 102" xml:space="preserve">
<path fill="#161616" d="M67.62,16.197c7.725,9.939,11.988,15.42,9.398,21.459c-2.712,6.184-9.477,6.184-21.732,6.184h-0.011v52.874
	c0,2.366-1.92,4.286-4.286,4.286s-4.286-1.92-4.286-4.286V43.84c-12.256,0-19.021,0-21.71-6.15
	c-2.612-6.072,1.651-11.547,9.37-21.481L38.66,10.7C43.332,4.655,46.161,1,51,1c4.833,0,7.668,3.65,12.346,9.705L67.62,16.197z
	 M69.3,34.195c0.553-1.306-4.157-7.361-8.304-12.696l-4.281-5.492c0,0,0-0.011-0.005-0.017c-2.127-2.751-4.783-6.178-5.721-6.435
	h-0.006c-0.91,0.257-3.555,3.684-5.682,6.435l-4.292,5.515c-4.151,5.329-8.851,11.379-8.281,12.729
	c1.06,1.027,7.925,1.033,13.991,1.033h8.572C61.348,35.268,68.223,35.272,69.3,34.195z"/>
</svg>
