<?xml version="1.0" encoding="utf-8"?>
<!-- Generator: Adobe Illustrator 16.0.0, SVG Export Plug-In . SVG Version: 6.00 Build 0)  -->
<!DOCTYPE svg PUBLIC "-//W3C//DTD SVG 1.1//EN" "http://www.w3.org/Graphics/SVG/1.1/DTD/svg11.dtd">
<svg version="1.1" id="Layer_1" xmlns="http://www.w3.org/2000/svg" xmlns:xlink="http://www.w3.org/1999/xlink" x="0px" y="0px"
	 width="102px" height="102px" viewBox="0 0 102 102" enable-background="new 0 0 102 102" xml:space="preserve">
<path fill="#231F20" d="M51,101c27.614,0,50-22.386,50-50S78.614,1,51,1S1,23.386,1,51S23.386,101,51,101z M36.989,48.351
	L54.64,30.7c0.748-0.748,1.699-1.1,2.649-1.1c0.947,0,1.897,0.352,2.649,1.1c1.449,1.452,1.449,3.848,0,5.3l-15,15l15,15
	c1.449,1.452,1.449,3.848,0,5.3c-1.448,1.451-3.851,1.451-5.299,0l-17.65-17.65C35.538,52.198,35.538,49.802,36.989,48.351z"/>
<path fill="#231F20" d="M51,101c27.614,0,50-22.386,50-50S78.614,1,51,1S1,23.386,1,51S23.386,101,51,101z M36.989,48.351
	L54.64,30.7c0.748-0.748,1.699-1.1,2.649-1.1c0.947,0,1.897,0.352,2.649,1.1c1.449,1.452,1.449,3.848,0,5.3l-15,15l15,15
	c1.449,1.452,1.449,3.848,0,5.3c-1.448,1.451-3.851,1.451-5.299,0l-17.65-17.65C35.538,52.198,35.538,49.802,36.989,48.351z"/>
</svg>
