<?xml version="1.0" encoding="utf-8"?>
<!-- Generator: Adobe Illustrator 16.0.0, SVG Export Plug-In . SVG Version: 6.00 Build 0)  -->
<!DOCTYPE svg PUBLIC "-//W3C//DTD SVG 1.1//EN" "http://www.w3.org/Graphics/SVG/1.1/DTD/svg11.dtd">
<svg version="1.1" id="Layer_1" xmlns="http://www.w3.org/2000/svg" xmlns:xlink="http://www.w3.org/1999/xlink" x="0px" y="0px"
	 width="102px" height="102px" viewBox="0 0 102 102" enable-background="new 0 0 102 102" xml:space="preserve">
<path fill="#231F20" d="M101,51c0-27.614-22.386-50-50-50S1,23.386,1,51s22.386,50,50,50S101,78.614,101,51z M48.351,65.011
	L30.7,47.36c-0.748-0.748-1.1-1.699-1.1-2.649c0-0.947,0.352-1.897,1.1-2.649c1.452-1.449,3.848-1.449,5.3,0l15,15l15-15
	c1.452-1.449,3.848-1.449,5.3,0c1.451,1.448,1.451,3.851,0,5.299l-17.65,17.65C52.198,66.462,49.802,66.462,48.351,65.011z"/>
</svg>
