<?xml version="1.0" encoding="utf-8"?>
<!-- Generator: Adobe Illustrator 16.0.0, SVG Export Plug-In . SVG Version: 6.00 Build 0)  -->
<!DOCTYPE svg PUBLIC "-//W3C//DTD SVG 1.1//EN" "http://www.w3.org/Graphics/SVG/1.1/DTD/svg11.dtd">
<svg version="1.1" id="Layer_1" xmlns="http://www.w3.org/2000/svg" xmlns:xlink="http://www.w3.org/1999/xlink" x="0px" y="0px"
	 width="102px" height="102px" viewBox="0 0 102 102" enable-background="new 0 0 102 102" xml:space="preserve">
<path fill="#161616" d="M23.093,1c1.926,0,3.488,1.563,3.488,3.488v1.699c5.287-0.536,11.787-0.536,19.718-0.536h9.402
	c7.931,0,14.431,0,19.718,0.536V4.488C75.419,2.563,76.981,1,78.907,1s3.488,1.563,3.488,3.488v2.953
	c3.742,1.063,6.899,2.784,9.529,5.623c3.615,3.916,5.224,8.857,5.995,15.053c0.755,6.068,0.755,13.844,0.755,23.765v2.889
	c0,9.92,0,17.696-0.755,23.765c-0.771,6.195-2.38,11.137-5.995,15.053c-3.656,3.947-8.33,5.741-14.189,6.59
	C72.075,101,64.835,101,55.701,101h-9.402c-9.134,0-16.374,0-22.034-0.822c-5.859-0.849-10.533-2.644-14.189-6.59
	C6.46,89.672,4.852,84.73,4.08,78.535C3.325,72.466,3.325,64.69,3.325,54.77v-2.889c0-9.92,0-17.696,0.755-23.765
	c0.771-6.195,2.38-11.137,5.995-15.053c2.63-2.839,5.787-4.561,9.529-5.623V4.488C19.604,2.563,21.167,1,23.093,1z M23.093,17.279
	c-1.594,0-2.938-1.072-3.352-2.53c-1.899,0.754-3.334,1.749-4.542,3.057c-2.199,2.371-3.498,5.627-4.188,11.101h79.979
	c-0.69-5.473-1.989-8.73-4.188-11.101c-1.208-1.308-2.643-2.303-4.542-3.057c-0.413,1.458-1.758,2.53-3.352,2.53
	c-1.926,0-3.488-1.563-3.488-3.489v-0.581c-4.933-0.572-11.314-0.582-19.999-0.582h-8.84c-8.685,0-15.066,0.009-19.999,0.582v0.581
	C26.581,15.717,25.019,17.279,23.093,17.279z M91.516,35.884H10.484c-0.182,4.451-0.182,9.77-0.182,16.247v2.389
	c0,10.225,0.009,17.564,0.699,23.156c0.69,5.514,1.989,8.789,4.197,11.169c2.171,2.348,5.092,3.707,10.064,4.424
	c5.105,0.745,11.837,0.754,21.316,0.754h8.84c9.479,0,16.211-0.009,21.316-0.754c4.973-0.717,7.894-2.076,10.064-4.424
	c2.208-2.38,3.507-5.655,4.197-11.169c0.69-5.592,0.699-12.932,0.699-23.156v-2.389C91.697,45.654,91.697,40.335,91.516,35.884z"/>
</svg>
