<?xml version="1.0" encoding="utf-8"?>
<!-- Generator: Adobe Illustrator 16.0.0, SVG Export Plug-In . SVG Version: 6.00 Build 0)  -->
<!DOCTYPE svg PUBLIC "-//W3C//DTD SVG 1.1//EN" "http://www.w3.org/Graphics/SVG/1.1/DTD/svg11.dtd">
<svg version="1.1" id="Layer_1" xmlns="http://www.w3.org/2000/svg" xmlns:xlink="http://www.w3.org/1999/xlink" x="0px" y="0px"
	 width="102px" height="102px" viewBox="0 0 102 102" enable-background="new 0 0 102 102" xml:space="preserve">
<path fill="#161616" d="M90.971,76.519c-0.902-1.198-3.594-4.774-5.207-6.823c-3.213-4.123-7.604-9.6-12.344-15.051
	c-4.766-5.486-9.773-10.833-14.219-14.756c-2.221-1.979-4.184-3.472-5.797-4.444c-1.52-0.92-2.414-1.111-2.414-1.111
	s-0.877,0.191-2.396,1.111c-1.613,0.972-3.566,2.465-5.807,4.444c-4.443,3.923-9.443,9.271-14.201,14.756
	c-4.738,5.451-9.131,10.928-12.352,15.051c-1.605,2.049-4.297,5.616-5.199,6.814c-1.822,2.474-5.295,3.003-7.777,1.189
	c-2.465-1.823-2.994-5.304-1.172-7.778l0.008-0.017c0.955-1.25,3.742-4.948,5.383-7.048c3.281-4.21,7.813-9.843,12.717-15.503
	c4.887-5.625,10.26-11.389,15.242-15.798c2.49-2.188,5.008-4.167,7.422-5.625c2.266-1.372,5.139-2.708,8.141-2.708
	c3.014,0,5.877,1.336,8.143,2.708c2.422,1.458,4.939,3.438,7.422,5.625c4.982,4.409,10.365,10.173,15.242,15.798
	c4.914,5.66,9.428,11.293,12.727,15.503c1.631,2.101,4.426,5.798,5.363,7.048l0.018,0.017c1.822,2.465,1.303,5.955-1.18,7.778
	C96.266,79.513,92.795,78.984,90.971,76.519z"/>
</svg>
