<?xml version="1.0" encoding="utf-8"?>
<!-- Generator: Adobe Illustrator 16.0.0, SVG Export Plug-In . SVG Version: 6.00 Build 0)  -->
<!DOCTYPE svg PUBLIC "-//W3C//DTD SVG 1.1//EN" "http://www.w3.org/Graphics/SVG/1.1/DTD/svg11.dtd">
<svg version="1.1" id="Layer_1" xmlns="http://www.w3.org/2000/svg" xmlns:xlink="http://www.w3.org/1999/xlink" x="0px" y="0px"
	 width="102px" height="102px" viewBox="0 0 102 102" enable-background="new 0 0 102 102" xml:space="preserve">
<path fill="#161616" d="M76.52,11.029c-1.198,0.902-4.774,3.594-6.823,5.207c-4.123,3.213-9.601,7.604-15.052,12.344
	c-5.485,4.766-10.832,9.773-14.756,14.219c-1.979,2.222-3.473,4.184-4.444,5.798c-0.921,1.519-1.111,2.413-1.111,2.413
	s0.19,0.877,1.111,2.396c0.972,1.613,2.465,3.566,4.444,5.807c3.924,4.444,9.271,9.443,14.756,14.201
	c5.451,4.738,10.929,9.131,15.052,12.352c2.049,1.605,5.616,4.297,6.813,5.199c2.475,1.823,3.004,5.295,1.189,7.777
	c-1.822,2.465-5.303,2.995-7.777,1.172l-0.018-0.008c-1.25-0.955-4.947-3.742-7.048-5.383c-4.21-3.281-9.843-7.812-15.503-12.716
	c-5.625-4.888-11.389-10.261-15.798-15.243c-2.188-2.49-4.167-5.008-5.625-7.421c-1.372-2.266-2.708-5.14-2.708-8.142
	c0-3.013,1.336-5.877,2.708-8.143c1.458-2.422,3.438-4.939,5.625-7.422c4.409-4.982,10.173-10.364,15.798-15.242
	c5.66-4.913,11.293-9.427,15.503-12.726c2.101-1.632,5.798-4.427,7.048-5.364l0.018-0.018c2.465-1.822,5.955-1.302,7.777,1.181
	C79.514,5.734,78.984,9.206,76.52,11.029z"/>
</svg>
