<?xml version="1.0" encoding="utf-8"?>
<!-- Generator: Adobe Illustrator 16.0.0, SVG Export Plug-In . SVG Version: 6.00 Build 0)  -->
<!DOCTYPE svg PUBLIC "-//W3C//DTD SVG 1.1//EN" "http://www.w3.org/Graphics/SVG/1.1/DTD/svg11.dtd">
<svg version="1.1" id="Layer_1" xmlns="http://www.w3.org/2000/svg" xmlns:xlink="http://www.w3.org/1999/xlink" x="0px" y="0px"
	 width="102px" height="102px" viewBox="0 0 102 102" enable-background="new 0 0 102 102" xml:space="preserve">
<path fill="#161616" d="M11.029,25.481c0.902,1.198,3.594,4.774,5.207,6.823c3.213,4.123,7.604,9.6,12.344,15.051
	c4.766,5.486,9.773,10.833,14.219,14.756c2.222,1.979,4.184,3.472,5.798,4.444c1.519,0.92,2.413,1.111,2.413,1.111
	s0.877-0.191,2.396-1.111c1.613-0.972,3.566-2.465,5.807-4.444c4.444-3.923,9.443-9.271,14.201-14.756
	c4.738-5.451,9.131-10.928,12.352-15.051c1.605-2.049,4.297-5.616,5.199-6.814c1.823-2.474,5.295-3.003,7.777-1.189
	c2.465,1.823,2.995,5.304,1.172,7.778l-0.008,0.017c-0.955,1.25-3.742,4.948-5.383,7.048c-3.281,4.21-7.812,9.843-12.716,15.503
	c-4.888,5.625-10.261,11.389-15.243,15.798c-2.49,2.188-5.008,4.167-7.421,5.625c-2.266,1.372-5.14,2.708-8.142,2.708
	c-3.013,0-5.877-1.336-8.143-2.708c-2.422-1.458-4.939-3.438-7.422-5.625c-4.982-4.409-10.364-10.173-15.242-15.798
	c-4.913-5.66-9.427-11.293-12.726-15.503c-1.632-2.101-4.427-5.798-5.364-7.048l-0.018-0.017c-1.822-2.465-1.302-5.955,1.181-7.778
	C5.734,22.487,9.206,23.016,11.029,25.481z"/>
</svg>
