<?xml version="1.0" encoding="utf-8"?>
<!-- Generator: Adobe Illustrator 16.0.0, SVG Export Plug-In . SVG Version: 6.00 Build 0)  -->
<!DOCTYPE svg PUBLIC "-//W3C//DTD SVG 1.1//EN" "http://www.w3.org/Graphics/SVG/1.1/DTD/svg11.dtd">
<svg version="1.1" id="Layer_1" xmlns="http://www.w3.org/2000/svg" xmlns:xlink="http://www.w3.org/1999/xlink" x="0px" y="0px"
	 width="102px" height="102px" viewBox="0 0 102 102" enable-background="new 0 0 102 102" xml:space="preserve">
<path fill="#161616" d="M25.481,90.971c1.197-0.902,4.773-3.594,6.822-5.207c4.123-3.213,9.601-7.604,15.052-12.344
	c5.485-4.766,10.833-9.773,14.756-14.219c1.979-2.222,3.473-4.184,4.444-5.798c0.921-1.519,1.111-2.413,1.111-2.413
	s-0.19-0.877-1.111-2.396c-0.972-1.613-2.465-3.566-4.444-5.807c-3.923-4.444-9.271-9.443-14.756-14.201
	c-5.451-4.738-10.929-9.131-15.052-12.352c-2.049-1.605-5.616-4.297-6.813-5.199c-2.475-1.823-3.004-5.295-1.189-7.777
	c1.822-2.465,5.304-2.995,7.777-1.172l0.018,0.008c1.25,0.955,4.947,3.742,7.048,5.383c4.21,3.281,9.844,7.812,15.503,12.716
	c5.625,4.888,11.389,10.261,15.798,15.243c2.188,2.49,4.167,5.008,5.625,7.421c1.372,2.266,2.708,5.14,2.708,8.142
	c0,3.013-1.336,5.877-2.708,8.143c-1.458,2.422-3.438,4.939-5.625,7.422c-4.409,4.982-10.173,10.364-15.798,15.242
	c-5.659,4.913-11.293,9.427-15.503,12.726c-2.101,1.632-5.798,4.427-7.048,5.364l-0.018,0.018c-2.465,1.822-5.955,1.302-7.777-1.181
	C22.486,96.266,23.016,92.794,25.481,90.971z"/>
</svg>
