<?xml version="1.0" encoding="utf-8"?>
<!-- Generator: Adobe Illustrator 16.0.0, SVG Export Plug-In . SVG Version: 6.00 Build 0)  -->
<!DOCTYPE svg PUBLIC "-//W3C//DTD SVG 1.1//EN" "http://www.w3.org/Graphics/SVG/1.1/DTD/svg11.dtd">
<svg version="1.1" id="Layer_1" xmlns="http://www.w3.org/2000/svg" xmlns:xlink="http://www.w3.org/1999/xlink" x="0px" y="0px"
	 width="102px" height="102px" viewBox="0 0 102 102" enable-background="new 0 0 102 102" xml:space="preserve">
<path fill="#161616" d="M39.513,34.58c-1.362-1.363-3.57-1.363-4.933,0s-1.362,3.57,0,4.933l11.487,11.49L34.58,62.487
	c-1.362,1.362-1.362,3.57,0,4.933s3.575,1.363,4.938,0L51,55.933L62.482,67.42c1.362,1.363,3.57,1.363,4.933,0
	c1.363-1.363,1.363-3.57,0-4.933L55.933,51.002l11.487-11.49c1.362-1.362,1.362-3.57,0-4.933s-3.57-1.363-4.933,0L51,46.067
	L39.513,34.58z"/>
<path fill="#161616" d="M51,101C23.389,101,1,78.616,1,51C1,23.386,23.389,1,51,1c27.616,0,50,22.386,50,50
	C101,78.616,78.616,101,51,101z M7.977,51C7.977,74.76,27.24,94.023,51,94.023S94.023,74.76,94.023,51S74.76,7.977,51,7.977
	S7.977,27.24,7.977,51z"/>
</svg>
