<?xml version="1.0" encoding="utf-8"?>
<!-- Generator: Adobe Illustrator 16.0.0, SVG Export Plug-In . SVG Version: 6.00 Build 0)  -->
<!DOCTYPE svg PUBLIC "-//W3C//DTD SVG 1.1//EN" "http://www.w3.org/Graphics/SVG/1.1/DTD/svg11.dtd">
<svg version="1.1" id="Layer_1" xmlns="http://www.w3.org/2000/svg" xmlns:xlink="http://www.w3.org/1999/xlink" x="0px" y="0px"
	 width="102px" height="102px" viewBox="0 0 102 102" enable-background="new 0 0 102 102" xml:space="preserve">
<g>
	<path fill="#161616" d="M80.057,40.78C79.57,25.15,66.748,12.628,51,12.628c-14.249,0-26.104,10.254-28.593,23.79
		C10.193,38.891,1,49.683,1,62.628c0,14.771,11.973,26.744,26.744,26.744h48.837C90.067,89.372,101,78.439,101,64.954
		C101,52.646,91.897,42.468,80.057,40.78z M76.581,82.396H27.744c-10.915,0-19.768-8.848-19.768-19.768
		c0-10.277,7.845-18.723,17.864-19.677c0.627-0.061,1.263-0.091,1.903-0.091c4.456,0,8.558,1.47,11.859,3.952
		c1.545,1.158,3.725,0.847,4.888-0.692c1.153-1.542,0.845-3.727-0.695-4.885c-3.992-3-8.853-4.908-14.135-5.283
		C32.191,26.536,40.785,19.604,51,19.604c12.2,0,22.093,9.891,22.093,22.093c0,0.679-0.031,1.351-0.091,2.012
		c-0.408,4.553-2.198,8.707-4.96,12.046c-1.227,1.485-1.018,3.684,0.473,4.91c1.48,1.227,3.684,1.018,4.91-0.468
		c2.921-3.538,5.028-7.79,6.014-12.452c8.271,1.363,14.585,8.551,14.585,17.208C94.023,74.587,86.215,82.396,76.581,82.396z"/>
</g>
</svg>
