<?xml version="1.0" encoding="utf-8"?>
<!-- Generator: Adobe Illustrator 16.0.0, SVG Export Plug-In . SVG Version: 6.00 Build 0)  -->
<!DOCTYPE svg PUBLIC "-//W3C//DTD SVG 1.1//EN" "http://www.w3.org/Graphics/SVG/1.1/DTD/svg11.dtd">
<svg version="1.1" id="Layer_1" xmlns="http://www.w3.org/2000/svg" xmlns:xlink="http://www.w3.org/1999/xlink" x="0px" y="0px"
	 width="102px" height="102px" viewBox="0 0 102 102" enable-background="new 0 0 102 102" xml:space="preserve">
<g>
	<path fill="#231F20" d="M100.454,49.18c-0.562-4.187-1.766-7.713-4.567-10.514c-2.796-2.797-6.322-4.007-10.508-4.563
		c-2.213-0.3-4.754-0.436-7.647-0.496c-0.027-5.249-0.147-9.609-0.638-13.233c-0.6-4.464-1.799-8.171-4.366-11.299
		c-0.921-1.112-1.946-2.143-3.063-3.063c-3.297-2.703-7.243-3.892-12.039-4.459C52.953,0.997,47.051,0.997,39.6,0.997h-0.458
		c-7.45,0-13.354,0-18.024,0.556C16.32,2.12,12.375,3.309,9.077,6.012C7.954,6.933,6.93,7.963,6.014,9.075
		c-2.703,3.303-3.892,7.249-4.459,12.045C1,25.786,1,31.694,1,39.146v0.452c0,7.456,0,13.359,0.555,18.03
		c0.567,4.796,1.756,8.742,4.459,12.04c0.916,1.117,1.94,2.142,3.063,3.058c3.123,2.567,6.835,3.771,11.294,4.371
		c3.624,0.491,7.984,0.61,13.232,0.638c0.066,2.895,0.197,5.435,0.496,7.647c0.563,4.186,1.767,7.707,4.563,10.509
		c2.802,2.801,6.328,4,10.514,4.567c4.033,0.545,9.157,0.545,15.523,0.545h5.156c6.366,0,11.489,0,15.523-0.545
		c4.186-0.567,7.712-1.767,10.508-4.567c2.802-2.802,4.006-6.323,4.567-10.509C101,81.349,101,76.22,101,69.858v-5.161
		C101,58.336,101,53.213,100.454,49.18z M34.1,49.18c-0.539,4.033-0.539,9.156-0.539,15.518v5.161c0,0.306,0,0.6,0,0.895
		c-5.167-0.027-9.097-0.142-12.253-0.567c-3.761-0.512-6.05-1.411-7.805-2.851c-0.763-0.627-1.466-1.33-2.093-2.093
		c-1.521-1.848-2.442-4.301-2.933-8.432c-0.496-4.219-0.501-9.708-0.501-17.441c0-7.729,0.005-13.218,0.501-17.432
		c0.49-4.137,1.411-6.584,2.933-8.437c0.627-0.764,1.33-1.461,2.093-2.093c1.848-1.516,4.295-2.437,8.432-2.928
		c4.214-0.496,9.708-0.507,17.437-0.507S52.594,7.984,56.807,8.48c4.137,0.491,6.584,1.412,8.432,2.928
		c0.77,0.632,1.467,1.329,2.1,2.093c1.438,1.755,2.338,4.05,2.844,7.805c0.426,3.161,0.546,7.086,0.572,12.253
		c-0.299,0-0.594,0-0.898,0h-5.156c-6.366,0-11.49,0-15.523,0.545c-4.186,0.556-7.712,1.766-10.514,4.563
		C35.866,41.467,34.662,44.993,34.1,49.18z M94.023,69.607c0,6.672-0.012,11.326-0.48,14.842c-0.457,3.412-1.297,5.222-2.584,6.508
		c-1.291,1.287-3.096,2.126-6.508,2.59c-3.516,0.469-8.176,0.479-14.847,0.479h-4.655c-6.671,0-11.331-0.011-14.841-0.479
		c-3.412-0.464-5.222-1.303-6.509-2.59c-1.285-1.286-2.125-3.096-2.583-6.508c-0.479-3.516-0.479-8.17-0.479-14.842v-4.654
		c0-6.677,0-11.331,0.479-14.847c0.458-3.412,1.298-5.222,2.583-6.508c1.287-1.287,3.097-2.126,6.509-2.584
		c3.51-0.469,8.17-0.479,14.841-0.479h4.655c6.671,0,11.331,0.011,14.847,0.479c3.412,0.458,5.217,1.297,6.508,2.584
		c1.287,1.286,2.127,3.096,2.584,6.508c0.469,3.516,0.48,8.17,0.48,14.847V69.607z"/>
</g>
</svg>
