<?xml version="1.0" encoding="utf-8"?>
<!-- Generator: Adobe Illustrator 16.0.0, SVG Export Plug-In . SVG Version: 6.00 Build 0)  -->
<!DOCTYPE svg PUBLIC "-//W3C//DTD SVG 1.1//EN" "http://www.w3.org/Graphics/SVG/1.1/DTD/svg11.dtd">
<svg version="1.1" id="Layer_1" xmlns="http://www.w3.org/2000/svg" xmlns:xlink="http://www.w3.org/1999/xlink" x="0px" y="0px"
	 width="102px" height="102px" viewBox="0 0 102 102" enable-background="new 0 0 102 102" xml:space="preserve">
<path fill="#161616" d="M100.455,49.174c-0.556-4.186-1.767-7.707-4.567-10.509c-2.791-2.802-6.324-4.006-10.51-4.568
	c-2.213-0.294-4.753-0.431-7.643-0.491c-0.032-5.249-0.152-9.609-0.643-13.234c-0.6-4.464-1.799-8.171-4.36-11.299
	c-0.927-1.118-1.952-2.142-3.063-3.063c-3.303-2.704-7.25-3.892-12.047-4.459c-4.666-0.556-10.574-0.556-18.031-0.556h-0.446
	c-7.456,0-13.354,0-18.031,0.556C16.316,2.117,12.37,3.306,9.078,6.009C7.955,6.931,6.931,7.955,6.015,9.073
	c-2.715,3.297-3.902,7.25-4.47,12.041C1,25.785,1,31.688,1,39.145v0.453c0,7.451,0,13.36,0.545,18.031
	c0.567,4.797,1.755,8.743,4.47,12.041c0.916,1.117,1.94,2.142,3.063,3.058c3.118,2.567,6.824,3.772,11.294,4.372
	c3.619,0.491,7.98,0.611,13.234,0.638c0.055,2.895,0.196,5.435,0.49,7.647c0.567,4.187,1.767,7.708,4.568,10.509
	c2.801,2.802,6.322,4.001,10.509,4.568c4.034,0.545,9.157,0.545,15.524,0.545h5.156c6.366,0,11.49,0,15.523-0.545
	c4.186-0.567,7.719-1.766,10.51-4.568c2.801-2.802,4.012-6.323,4.567-10.509C101,81.35,101,76.221,101,69.86v-5.162
	C101,58.337,101,53.208,100.455,49.174z M94.022,69.609c0,6.672-0.01,11.327-0.479,14.843c-0.459,3.412-1.298,5.222-2.584,6.508
	c-1.287,1.287-3.096,2.126-6.509,2.589c-3.511,0.469-8.176,0.479-14.848,0.479h-4.655c-6.672,0-11.326-0.011-14.848-0.479
	c-3.412-0.463-5.211-1.303-6.508-2.589c-1.287-1.286-2.127-3.096-2.584-6.508c-0.469-3.516-0.48-8.171-0.48-14.843v-4.655
	c0-6.677,0.012-11.333,0.48-14.848c0.457-3.412,1.297-5.222,2.584-6.508c1.297-1.286,3.096-2.125,6.508-2.583
	c3.521-0.474,8.176-0.479,14.848-0.479h4.655c6.672,0,11.337,0.005,14.848,0.479c3.413,0.458,5.222,1.297,6.509,2.583
	c1.286,1.287,2.125,3.096,2.584,6.508c0.469,3.516,0.479,8.171,0.479,14.848V69.609z"/>
</svg>
