<?xml version="1.0" encoding="utf-8"?>
<!-- Generator: Adobe Illustrator 16.0.0, SVG Export Plug-In . SVG Version: 6.00 Build 0)  -->
<!DOCTYPE svg PUBLIC "-//W3C//DTD SVG 1.1//EN" "http://www.w3.org/Graphics/SVG/1.1/DTD/svg11.dtd">
<svg version="1.1" id="Layer_1" xmlns="http://www.w3.org/2000/svg" xmlns:xlink="http://www.w3.org/1999/xlink" x="0px" y="0px"
	 width="102px" height="102px" viewBox="0 0 102 102" enable-background="new 0 0 102 102" xml:space="preserve">
<g>
	<path fill="#161616" d="M39.659,45.818c4.557,2.681,7.949,4.024,11.338,4.024c3.393,0,6.787-1.335,11.352-4.024l13.682-8.095
		c1.664-0.977,2.209-3.116,1.227-4.778c-0.971-1.663-3.115-2.208-4.773-1.227l-13.682,8.086c-6.855,4.033-8.754,4.033-15.6,0
		l-13.686-8.091c-1.658-0.98-3.793-0.432-4.775,1.227c-0.98,1.658-0.426,3.798,1.227,4.779L39.659,45.818z"/>
	<path fill="#161616" d="M37.415,93.841c4.57,0.113,9.076,0.172,13.582,0.172c4.512,0,9.018-0.059,13.586-0.172h0.006
		c15.059-0.382,23.352-0.596,29.611-6.846c6.242-6.292,6.414-14.368,6.723-29.031c0.102-4.688,0.102-9.239,0-13.918
		c-0.309-14.668-0.48-22.749-6.74-29.054C87.94,8.76,79.638,8.542,64.579,8.161c-9.145-0.231-18.023-0.231-27.164,0h-0.008
		C22.353,8.542,14.054,8.751,7.798,15.002c-6.24,6.295-6.414,14.372-6.727,29.035c-0.096,4.688-0.096,9.234,0,13.918
		c0.313,14.668,0.486,22.748,6.74,29.049C14.058,93.242,22.356,93.459,37.415,93.841z M12.749,82.076
		C8.472,77.76,8.335,71.505,8.044,57.81c-0.1-4.588-0.1-9.044,0-13.627c0.291-13.7,0.428-19.951,4.697-24.257
		c4.27-4.274,10.721-4.438,24.848-4.797c9.02-0.232,17.791-0.232,26.813,0c14.133,0.358,20.578,0.526,24.844,4.787
		c4.283,4.312,4.42,10.566,4.711,24.267c0.096,4.588,0.096,9.044,0,13.627c-0.291,13.695-0.428,19.95-4.697,24.257
		c-4.275,4.27-10.721,4.434-24.848,4.797h-0.004c-9.027,0.227-17.793,0.227-26.811,0C23.462,86.5,17.021,86.336,12.749,82.076z"/>
</g>
</svg>
