<?xml version="1.0" encoding="utf-8"?>
<!-- Generator: Adobe Illustrator 16.0.0, SVG Export Plug-In . SVG Version: 6.00 Build 0)  -->
<!DOCTYPE svg PUBLIC "-//W3C//DTD SVG 1.1//EN" "http://www.w3.org/Graphics/SVG/1.1/DTD/svg11.dtd">
<svg version="1.1" id="Layer_1" xmlns="http://www.w3.org/2000/svg" xmlns:xlink="http://www.w3.org/1999/xlink" x="0px" y="0px"
	 width="102px" height="102px" viewBox="0 0 102 102" enable-background="new 0 0 102 102" xml:space="preserve">
<g>
	<path fill="#231F20" d="M29.057,24.124c-0.022-0.022-0.045-0.045-0.068-0.068L11.605,6.673c-1.362-1.362-3.569-1.362-4.932,0
		c-1.363,1.363-1.363,3.57,0,4.934l14.534,14.534C13.082,32.404,7.091,39.876,3.771,44.532c-0.081,0.113-0.163,0.227-0.249,0.345
		C2.345,46.513,1,48.384,1,51s1.345,4.487,2.521,6.123c0.086,0.118,0.168,0.231,0.249,0.345c3.284,4.605,9.153,11.928,17.093,18.123
		C28.798,81.786,39.045,87.047,51,87.047c9.053,0,17.124-3.025,23.941-7.173l15.453,15.453c1.362,1.362,3.57,1.362,4.933,0
		c1.362-1.363,1.362-3.57,0-4.934L29.057,24.124z M41.693,46.626l13.676,13.676c-1.407,0.736-3.002,1.163-4.701,1.163
		c-5.596,0-10.133-4.537-10.133-10.134C40.535,49.628,40.953,48.029,41.693,46.626z M51,80.069c-9.856,0-18.623-4.342-25.845-9.979
		C17.942,64.458,12.52,57.723,9.448,53.417c-0.759-1.063-1.117-1.586-1.335-1.999c-0.137-0.264-0.137-0.336-0.137-0.409v-0.018
		c0-0.073,0-0.146,0.137-0.409c0.218-0.413,0.576-0.936,1.335-1.999c3.226-4.523,9.025-11.691,16.743-17.459l10.433,10.433
		c-1.931,2.771-3.065,6.142-3.065,9.774c0,9.453,7.658,17.111,17.109,17.111c3.63,0,7-1.141,9.771-3.071l9.407,9.407
		C64.186,77.962,57.858,80.069,51,80.069z"/>
	<path fill="#231F20" d="M98.479,44.877c-0.087-0.118-0.169-0.231-0.25-0.345c-3.284-4.605-9.152-11.928-17.093-18.123
		C73.202,20.214,62.955,14.954,51,14.954c-4.624,0-9.002,0.79-13.086,2.116c-1.83,0.595-2.834,2.562-2.239,4.396
		c0.595,1.831,2.562,2.835,4.397,2.239c3.461-1.122,7.107-1.775,10.928-1.775c9.856,0,18.623,4.342,25.845,9.979
		c7.213,5.633,12.637,12.368,15.707,16.674c0.759,1.063,1.117,1.586,1.335,1.999c0.137,0.264,0.137,0.336,0.137,0.409v0.018
		c0,0.073,0,0.146-0.137,0.409c-0.218,0.413-0.576,0.936-1.335,1.999c-2.089,2.925-5.287,7.004-9.411,11.101
		c-1.367,1.358-1.377,3.57-0.019,4.938s3.57,1.376,4.938,0.018c4.474-4.442,7.917-8.848,10.17-12.005
		c0.081-0.113,0.163-0.227,0.25-0.345C99.655,55.487,101,53.616,101,51S99.655,46.513,98.479,44.877z"/>
</g>
</svg>
