<?xml version="1.0" encoding="utf-8"?>
<!-- Generator: Adobe Illustrator 16.0.0, SVG Export Plug-In . SVG Version: 6.00 Build 0)  -->
<!DOCTYPE svg PUBLIC "-//W3C//DTD SVG 1.1//EN" "http://www.w3.org/Graphics/SVG/1.1/DTD/svg11.dtd">
<svg version="1.1" id="Layer_1" xmlns="http://www.w3.org/2000/svg" xmlns:xlink="http://www.w3.org/1999/xlink" x="0px" y="0px"
	 width="102px" height="102px" viewBox="0 0 102 102" enable-background="new 0 0 102 102" xml:space="preserve">
<g>
	<path fill="#161616" d="M51,68.438c-9.635,0-17.439-7.805-17.439-17.441c0-9.63,7.805-17.44,17.439-17.44
		c9.637,0,17.441,7.81,17.441,17.44C68.441,60.633,60.637,68.438,51,68.438z M40.537,50.997c0,5.777,4.688,10.464,10.463,10.464
		c5.777,0,10.465-4.687,10.465-10.464c0-5.78-4.688-10.464-10.465-10.464C45.225,40.533,40.537,45.217,40.537,50.997z"/>
	<path fill="#161616" d="M51,14.955c-11.957,0-22.203,5.26-30.139,11.454c-7.936,6.2-13.805,13.519-17.092,18.122l-0.24,0.346
		C2.352,46.515,1,48.384,1,50.997c0,2.616,1.352,4.486,2.529,6.126l0.24,0.338c3.287,4.605,9.156,11.925,17.092,18.127
		C28.797,81.78,39.043,87.045,51,87.045c11.959,0,22.205-5.265,30.141-11.457c7.936-6.202,13.805-13.522,17.086-18.127l0.246-0.338
		c1.176-1.64,2.527-3.51,2.527-6.126c0-2.613-1.352-4.482-2.527-6.12l-0.246-0.346c-3.281-4.603-9.15-11.922-17.086-18.122
		C73.205,20.215,62.959,14.955,51,14.955z M9.455,48.58c3.068-4.303,8.49-11.042,15.701-16.672
		c7.221-5.638,15.99-9.977,25.844-9.977c9.855,0,18.625,4.338,25.846,9.977c7.211,5.63,12.633,12.369,15.701,16.672
		c0.758,1.065,1.123,1.586,1.336,2c0.143,0.264,0.143,0.335,0.143,0.406v0.011v0.011c0,0.071,0,0.145-0.143,0.406
		c-0.213,0.415-0.578,0.935-1.336,2c-3.068,4.308-8.49,11.045-15.701,16.669c-7.221,5.641-15.99,9.984-25.846,9.984
		c-9.854,0-18.623-4.344-25.844-9.984c-7.211-5.625-12.633-12.361-15.701-16.669c-0.758-1.065-1.123-1.586-1.336-2
		c-0.143-0.261-0.143-0.335-0.143-0.406v-0.011v-0.011c0-0.071,0-0.142,0.143-0.406C8.332,50.166,8.697,49.646,9.455,48.58z"/>
</g>
</svg>
