<?xml version="1.0" encoding="utf-8"?>
<!-- Generator: Adobe Illustrator 16.0.0, SVG Export Plug-In . SVG Version: 6.00 Build 0)  -->
<!DOCTYPE svg PUBLIC "-//W3C//DTD SVG 1.1//EN" "http://www.w3.org/Graphics/SVG/1.1/DTD/svg11.dtd">
<svg version="1.1" id="Layer_1" xmlns="http://www.w3.org/2000/svg" xmlns:xlink="http://www.w3.org/1999/xlink" x="0px" y="0px"
	 width="102px" height="102px" viewBox="0 0 102 102" enable-background="new 0 0 102 102" xml:space="preserve">
<g>
	<path fill="#161616" d="M50.969,100.987c-0.306,0-0.607-0.036-0.914-0.108c-2.061-0.504-3.328-2.584-2.823-4.645
		c0.517-2.133,2.992-9.421,13.063-13.796c0.121-0.048,0.24-0.096,0.361-0.138c0.155-0.066,0.324-0.145,0.542-0.217
		c4.283-1.574,9.588-4.266,11.607-5.888c0.096-0.072,0.192-0.15,0.301-0.216l14.337-9.35c0.253-0.234,0.24-0.349,0.24-0.384
		c-0.024-0.373-0.438-1.142-1.316-1.719c-6.436-4.278-12.384-1.79-21.415,2.813c-0.619,0.318-1.243,0.636-1.861,0.943
		c-4.887,2.421-10.907,2.061-15.732-0.932c-4.579-2.842-7.313-7.571-7.313-12.655s2.734-9.854,7.692-13.213
		c6.958-4.717,17.402-6.207,24.407-3.509l11.087,3.239c1.04,0.307,2.109,0.186,3.022-0.331c0.896-0.499,1.526-1.315,1.778-2.289
		c0.487-1.797-0.517-3.66-2.331-4.345l-12.084-4.513c0,0-0.018-0.006-0.035-0.012l-4.563-1.4c-3.754-1.124-6.466-1.538-8.495-1.292
		c-3.414,0.426-12.564,4.471-17.528,6.91c-1.899,0.938-4.206,0.162-5.149-1.743c-0.938-1.905-0.162-4.212,1.748-5.156
		c1.43-0.703,14.163-6.922,19.998-7.643c3.13-0.384,6.831,0.12,11.663,1.563l4.662,1.436c0.05,0.019,0.108,0.03,0.156,0.048
		c0.037,0.018,0.084,0.03,0.126,0.048l0.074,0.024c0.936,0.342,1.939,0.294,2.836-0.126c0.93-0.433,1.628-1.226,1.964-2.218
		c0.661-1.905-0.276-3.972-2.133-4.735l-9.741-4.026l-0.829-0.307c-2.751-1.021-4.271-1.574-5.636-1.893
		c-1.706-0.391-3.594-0.571-5.595-0.523l-0.137,0.012c-0.505,0.036-0.789,0.054-1.888,0.276c-0.048,0.012-0.084,0.018-0.127,0.024
		c-1.093,0.18-1.707,0.384-3.046,0.841l-2.638,0.901c-8.773,2.98-12.403,4.218-16.182,6.964
		c-10.004,7.294-16.068,15.605-17.637,20.604c-1.664,5.33-1.664,11.886-1.664,24.949v33.89c0,2.127-1.725,3.845-3.845,3.845
		c-2.123,0-3.848-1.718-3.848-3.845v-33.89c0-13.845,0-20.791,2.014-27.244c2.886-9.188,12.451-18.688,20.454-24.528
		c4.723-3.425,9.241-4.963,18.23-8.022l2.657-0.901c1.448-0.492,2.499-0.847,4.157-1.136c1.46-0.288,2.049-0.348,2.848-0.396
		l0.205-0.018c0.055,0,0.107-0.006,0.162-0.006c2.68-0.072,5.24,0.168,7.607,0.709c1.844,0.432,3.521,1.045,6.561,2.163l0.902,0.336
		c0.048,0.019,0.097,0.037,0.145,0.054l9.801,4.05c5.629,2.313,8.478,8.623,6.482,14.355c-0.455,1.334-1.135,2.542-1.994,3.593
		l2.054,0.769c5.54,2.097,8.569,7.908,7.067,13.52c-0.787,2.993-2.715,5.486-5.444,7.019c-2.746,1.55-5.931,1.911-8.965,1.009
		L69.838,45.31c-0.121-0.036-0.235-0.072-0.35-0.12c-4.687-1.869-12.498-0.673-17.42,2.656c-2.867,1.941-4.314,4.249-4.314,6.85
		c0,2.44,1.334,4.669,3.677,6.117c2.578,1.604,5.74,1.827,8.239,0.589c0.595-0.3,1.201-0.601,1.809-0.913
		c8.256-4.206,18.531-9.439,29.148-2.379c2.813,1.839,4.603,4.741,4.759,7.745c0.133,2.638-1.003,5.078-3.196,6.856
		c-0.107,0.078-0.211,0.156-0.318,0.229l-14.38,9.386c-3.101,2.415-9.223,5.366-13.561,6.97l-0.073,0.036
		c-0.233,0.12-0.48,0.222-0.732,0.294c-1.466,0.679-7.216,3.617-8.389,8.442C54.311,99.822,52.734,101,51.005,101L50.969,100.987z
		 M63.689,89.354h-0.006H63.689z"/>
</g>
</svg>
