<?xml version="1.0" encoding="utf-8"?>
<!-- Generator: Adobe Illustrator 16.0.0, SVG Export Plug-In . SVG Version: 6.00 Build 0)  -->
<!DOCTYPE svg PUBLIC "-//W3C//DTD SVG 1.1//EN" "http://www.w3.org/Graphics/SVG/1.1/DTD/svg11.dtd">
<svg version="1.1" id="Layer_1" xmlns="http://www.w3.org/2000/svg" xmlns:xlink="http://www.w3.org/1999/xlink" x="0px" y="0px"
	 width="102px" height="102px" viewBox="0 0 102 102" enable-background="new 0 0 102 102" xml:space="preserve">
<g>
	<path fill="#161616" d="M48.284,11.32c-7.511-5.642-19.948-9.031-33.814-0.523C4.877,16.672-0.519,28.957,1.378,43.074
		C3.274,57.256,12.453,73.291,31.9,87.681l0.479,0.359c6.748,4.998,11.228,8.307,18.619,8.307c1.929,0,3.488-1.559,3.488-3.488
		c0-1.924-1.56-3.488-3.488-3.488c-4.905,0-7.587-1.853-14.945-7.293C17.729,68.517,9.881,54.019,8.289,42.147
		C6.687,30.2,11.33,20.902,18.11,16.738c11.087-6.792,20.418-4.018,25.978,0.163l0.098,0.071c1.265,0.942,2.344,1.76,3.205,2.321
		c0.447,0.294,0.948,0.595,1.461,0.829c0.49,0.223,1.242,0.495,2.147,0.495c0.904,0,1.656-0.272,2.147-0.495
		c0.512-0.234,1.014-0.535,1.46-0.829c0.861-0.562,1.94-1.379,3.205-2.321l0.087-0.071c5.571-4.181,14.902-6.955,25.988-0.163
		c6.616,4.065,11.206,13.025,9.92,24.581c-0.207,1.907,1.166,3.636,3.085,3.848c1.907,0.213,3.641-1.166,3.848-3.085
		c1.516-13.691-3.848-25.546-13.212-31.285C73.661,2.289,61.224,5.679,53.713,11.32c-1.231,0.926-2.082,1.564-2.714,1.994
		C50.366,12.885,49.517,12.246,48.284,11.32z"/>
	<path fill="#161616" d="M82.394,55.654c0-1.93-1.56-3.488-3.488-3.488c-1.93,0-3.488,1.559-3.488,3.488v15.113h-15.12
		c-1.918,0-3.488,1.564-3.488,3.488s1.57,3.488,3.488,3.488h15.12v15.114c0,1.93,1.559,3.488,3.488,3.488
		c1.929,0,3.488-1.559,3.488-3.488V77.744h15.119c1.919,0,3.488-1.564,3.488-3.488s-1.569-3.488-3.488-3.488H82.394V55.654z"/>
</g>
</svg>
