<?xml version="1.0" encoding="utf-8"?>
<!-- Generator: Adobe Illustrator 16.0.0, SVG Export Plug-In . SVG Version: 6.00 Build 0)  -->
<!DOCTYPE svg PUBLIC "-//W3C//DTD SVG 1.1//EN" "http://www.w3.org/Graphics/SVG/1.1/DTD/svg11.dtd">
<svg version="1.1" id="Layer_1" xmlns="http://www.w3.org/2000/svg" xmlns:xlink="http://www.w3.org/1999/xlink" x="0px" y="0px"
	 width="102px" height="102px" viewBox="0 0 102 102" enable-background="new 0 0 102 102" xml:space="preserve">
<g>
	<path fill="#161616" d="M67.605,68.979c3.14,0,6.111,2.656,5.672,6.276c-0.526,4.278-2.359,9.454-7.279,12.098
		c-0.414,3.767-1.346,7.147-3.55,9.634c-2.769,3.117-6.783,4.056-11.411,4.007c-5.047,0.086-9.093-1.104-11.785-4.372
		c-2.123-2.576-2.972-5.976-3.393-9.506c-2.059-1.299-3.628-2.828-4.755-4.665c-1.397-2.269-1.938-4.71-2.224-7.088
		c-0.428-3.557,2.438-6.385,5.732-6.385H67.605z M43.139,88.47c0.364,1.788,0.863,2.948,1.495,3.718
		c0.788,0.961,2.313,1.904,6.325,1.833c0.037,0,0.074,0,0.105,0c3.85,0.045,5.371-0.77,6.163-1.664
		c0.635-0.717,1.183-1.889,1.563-3.887H43.139z M36.025,75.955c0.232,1.19,0.555,2.088,1.021,2.839
		c0.533,0.864,1.389,1.773,2.989,2.697h22.048c2.111-0.871,3.396-2.794,4.004-5.536H36.025z M51,17.28
		c18.724,0,33.717,15.627,33.717,34.673c0,5.131-1.088,10.014-3.041,14.412c-0.781,1.758-2.848,2.55-4.605,1.769
		s-2.551-2.843-1.766-4.605c1.563-3.516,2.434-7.437,2.434-11.576c0-15.401-12.071-27.698-26.738-27.698
		S24.262,36.552,24.262,51.954c0,4.139,0.871,8.061,2.434,11.576c0.785,1.762-0.008,3.824-1.766,4.605s-3.824-0.011-4.605-1.769
		c-1.956-4.398-3.041-9.281-3.041-14.412C17.283,32.907,32.276,17.28,51,17.28z M9.144,47.507c1.927,0,3.489,1.563,3.489,3.489
		s-1.563,3.489-3.489,3.489H4.49c-1.924,0-3.486-1.564-3.486-3.489c0-1.927,1.563-3.487,3.486-3.489H9.144z M97.507,47.507
		c1.927,0.002,3.489,1.563,3.489,3.489c0,1.925-1.563,3.489-3.489,3.489h-4.653c-1.924,0-3.486-1.563-3.486-3.489
		s1.563-3.489,3.486-3.489H97.507z M15.652,15.648c1.363-1.361,3.568-1.361,4.932,0l3.291,3.29c1.363,1.362,1.363,3.57,0,4.932
		c-1.364,1.362-3.572,1.362-4.932,0l-3.291-3.29C14.293,19.218,14.293,17.012,15.652,15.648z M81.412,15.648
		c1.363-1.361,3.572-1.361,4.936,0c1.359,1.363,1.359,3.57,0,4.932l-3.287,3.29c-1.363,1.362-3.571,1.362-4.938,0
		c-1.36-1.361-1.36-3.57,0-4.932L81.412,15.648z M51,1c1.927,0,3.489,1.563,3.489,3.487v4.652c0,1.927-1.563,3.489-3.489,3.489
		s-3.489-1.563-3.489-3.489V4.487C47.511,2.563,49.073,1,51,1z"/>
</g>
</svg>
