<?xml version="1.0" encoding="utf-8"?>
<!-- Generator: Adobe Illustrator 16.0.0, SVG Export Plug-In . SVG Version: 6.00 Build 0)  -->
<!DOCTYPE svg PUBLIC "-//W3C//DTD SVG 1.1//EN" "http://www.w3.org/Graphics/SVG/1.1/DTD/svg11.dtd">
<svg version="1.1" id="Layer_1" xmlns="http://www.w3.org/2000/svg" xmlns:xlink="http://www.w3.org/1999/xlink" x="0px" y="0px"
	 width="102px" height="102px" viewBox="0 0 102 102" enable-background="new 0 0 102 102" xml:space="preserve">
<g>
	<g>
		<path fill="#231F20" d="M51,101C12.218,101,1,89.782,1,51S12.218,1,51,1s50,11.218,50,50S89.782,101,51,101z M51,11
			c-33.269,0-40,6.731-40,40s6.731,40,40,40s40-6.731,40-40S84.269,11,51,11z"/>
	</g>
	<g>
		<path fill="#231F20" d="M51,56c-2.761,0-5-2.239-5-5V31c0-2.761,2.239-5,5-5s5,2.239,5,5v20C56,53.761,53.761,56,51,56z"/>
	</g>
	<g>
		<path fill="#231F20" d="M51.046,76c-2.761,0-5.02-2.239-5.02-5s2.213-5,4.974-5h0.046c2.76,0,5,2.239,5,5S53.806,76,51.046,76z"/>
	</g>
</g>
</svg>
