<?xml version="1.0" encoding="utf-8"?>
<!-- Generator: Adobe Illustrator 16.0.0, SVG Export Plug-In . SVG Version: 6.00 Build 0)  -->
<!DOCTYPE svg PUBLIC "-//W3C//DTD SVG 1.1//EN" "http://www.w3.org/Graphics/SVG/1.1/DTD/svg11.dtd">
<svg version="1.1" id="Layer_1" xmlns="http://www.w3.org/2000/svg" xmlns:xlink="http://www.w3.org/1999/xlink" x="0px" y="0px"
	 width="102px" height="102px" viewBox="0 0 102 102" enable-background="new 0 0 102 102" xml:space="preserve">
<g>
	<path fill="#161616" d="M67.53,1c6.365,0,11.488-0.002,15.523,0.542c4.186,0.562,7.709,1.769,10.511,4.568
		c2.801,2.801,4.009,6.325,4.567,10.511c0.541,4.033,0.541,9.16,0.541,15.521v14.462c0,6.358,0,11.49-0.541,15.521
		c-0.559,4.186-1.767,7.71-4.567,10.511c-2.802,2.796-6.325,4.004-10.511,4.567c-4.035,0.542-9.158,0.537-15.523,0.537H54.489v3.835
		l21.559,12.943c1.652,0.99,2.189,3.134,1.199,4.785s-3.134,2.193-4.789,1.199L54.489,89.715v7.795c0,1.926-1.563,3.488-3.489,3.488
		s-3.489-1.562-3.489-3.488v-7.795l-17.973,10.787c-1.651,0.989-3.791,0.452-4.785-1.199c-0.985-1.651-0.453-3.795,1.199-4.785
		l21.559-12.943v-3.835H34.466c-6.357,0-11.488,0.004-15.52-0.537c-4.186-0.563-7.709-1.771-10.511-4.567
		c-2.796-2.801-4.004-6.326-4.567-10.511c-0.546-4.031-0.541-9.162-0.541-15.521V32.141c0-6.361-0.005-11.488,0.541-15.521
		C4.432,12.435,5.64,8.91,8.436,6.109c2.802-2.799,6.325-4.006,10.511-4.568C22.978,0.998,28.108,1,34.466,1H67.53z M34.723,7.976
		c-6.676,0-11.333,0.011-14.844,0.482c-3.413,0.459-5.22,1.298-6.507,2.585c-1.287,1.288-2.131,3.096-2.588,6.507
		c-0.471,3.514-0.484,8.17-0.484,14.844v13.954c0,6.676,0.014,11.328,0.484,14.844c0.457,3.413,1.301,5.22,2.588,6.507
		c1.287,1.287,3.094,2.126,6.507,2.583c3.511,0.475,8.168,0.483,14.844,0.483h32.56c6.672,0,11.328-0.009,14.839-0.483
		c3.413-0.458,5.225-1.296,6.512-2.583c1.287-1.288,2.122-3.094,2.583-6.507c0.471-3.516,0.48-8.168,0.48-14.844V32.394
		c0-6.674-0.01-11.33-0.48-14.844c-0.461-3.411-1.296-5.22-2.583-6.507c-1.287-1.287-3.099-2.126-6.512-2.585
		c-3.511-0.471-8.167-0.482-14.839-0.482H34.723z M43.485,28.93c3.99,0.235,7.688,2.483,10.041,6.276
		c1.216,1.962,2.876,2.848,4.381,2.985c1.491,0.133,3.178-0.433,4.572-2.082l4.465-5.273c1.243-1.469,3.445-1.656,4.91-0.413
		c1.473,1.245,1.655,3.449,0.412,4.918l-4.465,5.273c-2.779,3.285-6.641,4.876-10.521,4.525c-3.866-0.351-7.409-2.59-9.687-6.254
		c-1.256-2.028-2.982-2.903-4.527-2.994c-1.535-0.091-3.275,0.566-4.66,2.386l-3.236,4.25c-1.168,1.532-3.355,1.829-4.887,0.664
		c-1.531-1.167-1.829-3.355-0.666-4.887l3.24-4.257C35.558,30.501,39.481,28.692,43.485,28.93z"/>
</g>
</svg>
