<?xml version="1.0" encoding="utf-8"?>
<!-- Generator: Adobe Illustrator 16.0.0, SVG Export Plug-In . SVG Version: 6.00 Build 0)  -->
<!DOCTYPE svg PUBLIC "-//W3C//DTD SVG 1.1//EN" "http://www.w3.org/Graphics/SVG/1.1/DTD/svg11.dtd">
<svg version="1.1" id="Layer_1" xmlns="http://www.w3.org/2000/svg" xmlns:xlink="http://www.w3.org/1999/xlink" x="0px" y="0px"
	 width="102px" height="102px" viewBox="0 0 102 102" enable-background="new 0 0 102 102" xml:space="preserve">
<g>
	<path fill="#161616" d="M25.391,51.003c0-14.146,11.467-25.61,25.609-25.61s25.611,11.465,25.611,25.61
		c0,14.143-11.469,25.61-25.611,25.61S25.391,65.146,25.391,51.003z M51,32.71c-10.095,0-18.293,8.189-18.293,18.293
		c0,10.101,8.198,18.293,18.293,18.293c10.107,0,18.293-8.192,18.293-18.293C69.293,40.899,61.107,32.71,51,32.71z"/>
	<path fill="#161616" d="M77.869,29.051c2.697,0,4.881-2.184,4.881-4.879c0-2.692-2.184-4.879-4.881-4.879h-0.047
		c-2.688,0-4.87,2.187-4.87,4.879c0,2.696,2.183,4.879,4.87,4.879H77.869z"/>
	<path fill="#161616" d="M51.286,1c10.678,0,19.07,0,25.634,0.883c6.71,0.903,12.038,2.79,16.223,6.977
		c4.185,4.185,6.071,9.515,6.975,16.229c0.88,6.554,0.88,14.946,0.88,25.633v0.561c0,10.684,0,19.076-0.88,25.633
		c-0.903,6.717-2.79,12.044-6.975,16.229c-4.185,4.184-9.513,6.071-16.223,6.974C70.356,101,61.964,101,51.286,101h-0.561
		c-10.689,0-19.082,0-25.634-0.88c-6.71-0.903-12.038-2.79-16.234-6.974c-4.184-4.185-6.07-9.513-6.974-16.229
		c-0.881-6.557-0.881-14.949-0.881-25.633v-0.561c0-10.687,0-19.079,0.881-25.633c0.903-6.714,2.79-12.045,6.974-16.229
		c4.196-4.187,9.524-6.074,16.234-6.977C31.644,1,40.036,1,50.726,1H51.286z M26.064,9.135c-5.899,0.794-9.433,2.298-12.027,4.899
		c-2.607,2.601-4.105,6.128-4.904,12.031C8.332,32.075,8.32,39.976,8.32,51.003s0.012,18.928,0.813,24.936
		c0.799,5.905,2.297,9.433,4.904,12.034c2.595,2.601,6.128,4.104,12.027,4.899c6.014,0.812,13.915,0.812,24.936,0.812
		c11.033,0,18.934,0,24.936-0.812c5.911-0.795,9.433-2.298,12.04-4.899c2.595-2.601,4.104-6.128,4.894-12.034
		c0.811-6.008,0.811-13.908,0.811-24.936s0-18.928-0.811-24.938c-0.789-5.902-2.299-9.43-4.894-12.031
		c-2.607-2.601-6.129-4.104-12.04-4.899C69.934,8.326,62.033,8.317,51,8.317C39.979,8.317,32.078,8.326,26.064,9.135z"/>
</g>
</svg>
