<?xml version="1.0" encoding="utf-8"?>
<!-- Generator: Adobe Illustrator 16.0.0, SVG Export Plug-In . SVG Version: 6.00 Build 0)  -->
<!DOCTYPE svg PUBLIC "-//W3C//DTD SVG 1.1//EN" "http://www.w3.org/Graphics/SVG/1.1/DTD/svg11.dtd">
<svg version="1.1" id="Layer_1" xmlns="http://www.w3.org/2000/svg" xmlns:xlink="http://www.w3.org/1999/xlink" x="0px" y="0px"
	 width="102px" height="102px" viewBox="0 0 102 102" enable-background="new 0 0 102 102" xml:space="preserve">
<g>
	<path fill="#161616" d="M1,14.953C1,7.246,7.246,1,14.953,1c7.706,0,13.952,6.246,13.952,13.953s-6.246,13.952-13.952,13.952
		C7.246,28.905,1,22.659,1,14.953z M14.953,7.976c-3.859,0-6.977,3.128-6.977,6.977c0,3.853,3.117,6.976,6.977,6.976
		c3.848,0,6.976-3.123,6.976-6.976C21.929,11.104,18.801,7.976,14.953,7.976z"/>
	<path fill="#161616" d="M28.698,43.108c-0.218-1.657-0.741-3.401-2.181-4.839c-1.438-1.439-3.183-1.962-4.839-2.186
		c-1.494-0.202-3.347-0.202-5.353-0.202h-2.747c-2.006,0-3.858,0-5.362,0.202c-1.646,0.223-3.401,0.747-4.829,2.186
		c-1.439,1.438-1.962,3.183-2.191,4.839C1,44.607,1,46.455,1,48.46v39.95c0,2.017,0,3.859,0.196,5.363
		c0.229,1.657,0.752,3.401,2.191,4.84c1.428,1.439,3.183,1.962,4.829,2.18C9.721,101,11.573,101,13.579,101h2.747
		c2.006,0,3.858,0,5.353-0.207c1.656-0.218,3.4-0.741,4.839-2.18c1.439-1.439,1.963-3.183,2.181-4.84
		c0.207-1.504,0.207-3.346,0.207-5.363V48.46C28.905,46.455,28.905,44.607,28.698,43.108z M21.929,88.203
		c0,2.289-0.011,3.663-0.142,4.644c-0.055,0.447-0.131,0.676-0.174,0.774c-0.012,0.021-0.012,0.033-0.022,0.043v0.011l-0.011,0.011
		c-0.011,0-0.032,0.011-0.055,0.021c-0.098,0.044-0.327,0.109-0.773,0.174c-0.981,0.131-2.344,0.142-4.633,0.142h-2.333
		c-2.289,0-3.651-0.011-4.633-0.142c-0.446-0.065-0.676-0.13-0.773-0.174c-0.033-0.011-0.044-0.021-0.055-0.021l-0.011-0.011v-0.011
		c-0.011-0.011-0.021-0.022-0.021-0.043c-0.044-0.098-0.12-0.327-0.175-0.774c-0.131-0.981-0.142-2.354-0.142-4.644v-39.53
		c0-2.294,0.011-3.657,0.142-4.638c0.055-0.447,0.131-0.676,0.175-0.774c0-0.022,0.011-0.043,0.021-0.049v-0.017h0.011
		c0.011-0.011,0.021-0.011,0.055-0.022c0.098-0.043,0.327-0.114,0.773-0.174c0.981-0.131,2.344-0.142,4.633-0.142h2.333
		c2.289,0,3.651,0.011,4.633,0.142c0.446,0.06,0.676,0.131,0.773,0.174c0.022,0.011,0.044,0.011,0.055,0.022h0.011v0.017
		c0.011,0.005,0.011,0.027,0.022,0.049c0.043,0.098,0.119,0.327,0.174,0.774c0.131,0.981,0.142,2.344,0.142,4.638V88.203z"/>
	<path fill="#161616" d="M48.461,35.881c1.352,0,6.779,0,7.805,0.098c1.111,0.098,2.321,0.338,3.499,1.014
		c1.198,0.708,2.201,1.711,2.91,2.921l0.055,0.098c3.673-2.594,8.109-4.131,12.905-4.131C88.171,35.881,101,46.553,101,60.298
		l-0.011,25.791c0,2.017,0,3.859-0.207,5.363c-0.218,1.657-0.741,3.401-2.18,4.84c-1.439,1.428-3.184,1.951-4.84,2.18
		c-1.493,0.196-3.347,0.196-5.353,0.196h-2.735c-2.017,0-3.859,0-5.363-0.196c-1.657-0.229-3.401-0.752-4.84-2.18
		c-1.438-1.439-1.962-3.194-2.18-4.84c-0.208-1.504-0.208-3.346-0.196-5.363V64.953c0-2.126-1.581-3.488-3.085-3.488
		c-2.409,0-3.695,0.927-4.589,2.398c-1.047,1.733-1.636,4.48-1.636,8.066V88.41c0,2.017,0,3.859-0.196,5.363
		c-0.229,1.657-0.752,3.401-2.19,4.84c-1.428,1.439-3.183,1.962-4.829,2.18C55.066,101,53.213,101,51.207,101h-2.746
		c-2.006,0-3.859,0-5.363-0.207c-1.646-0.218-3.401-0.741-4.829-2.18c-1.438-1.439-1.962-3.183-2.19-4.84
		c-0.196-1.504-0.196-3.346-0.196-5.363V48.46c0-2.006,0-3.854,0.196-5.353c0.229-1.657,0.752-3.401,2.19-4.839
		c1.428-1.439,3.183-1.962,4.829-2.186C44.602,35.881,46.455,35.881,48.461,35.881z M48.668,42.857
		c-2.289,0-3.652,0.011-4.633,0.142c-0.316-0.011-0.971,0.174-1.036,1.036c-0.131,0.981-0.142,2.344-0.142,4.638v39.53
		c0,2.289,0.011,3.663,0.142,4.644c0.055,0.567,0.709,0.926,1.036,1.035c0.98,0.131,2.344,0.142,4.633,0.142H51
		c2.289,0,3.652-0.011,4.633-0.142c0.327-0.087,0.981-0.403,1.036-1.035c0.142-0.981,0.142-2.354,0.142-4.644V71.929
		c0-4.12,0.643-8.35,2.638-11.664c2.147-3.575,5.712-5.777,10.563-5.777c5.744,0,10.061,4.883,10.061,10.464v20.929
		c0,2.289,0,3.663,0.131,4.632c0,0.741,0.447,0.861,0.796,0.959c0.087,0.022,0.175,0.054,0.24,0.087
		c0.98,0.131,2.354,0.131,4.644,0.131h2.321c2.289,0,3.651,0,4.633-0.131c0.327-0.12,0.981-0.501,1.035-1.035
		c0.131-0.981,0.142-2.354,0.142-4.644l0.012-25.583c-0.012-9.369-9.168-17.44-18.39-17.44c-5.014,0-9.549,2.453-12.557,6.409
		c-0.905,1.194-2.475,1.673-3.892,1.194c-1.417-0.474-2.376-1.804-2.376-3.308c0-1.526,0-2.442-0.065-3.107
		c-0.033-0.708-0.764-1.041-1.112-1.123c-0.676-0.06-1.592-0.065-3.117-0.065H48.668z"/>
</g>
</svg>
