<?xml version="1.0" encoding="utf-8"?>
<!-- Generator: Adobe Illustrator 16.0.0, SVG Export Plug-In . SVG Version: 6.00 Build 0)  -->
<!DOCTYPE svg PUBLIC "-//W3C//DTD SVG 1.1//EN" "http://www.w3.org/Graphics/SVG/1.1/DTD/svg11.dtd">
<svg version="1.1" id="Layer_1" xmlns="http://www.w3.org/2000/svg" xmlns:xlink="http://www.w3.org/1999/xlink" x="0px" y="0px"
	 width="102px" height="102px" viewBox="0 0 102 102" enable-background="new 0 0 102 102" xml:space="preserve">
<g>
	<path fill="#231F20" d="M93.668,8.7C83.805-1.564,67.74-1.564,57.87,8.7l-4.071,4.245c-1.641,1.708-1.587,4.42,0.121,6.061
		c1.7,1.634,4.419,1.58,6.053-0.121l4.084-4.245c6.489-6.757,16.941-6.757,23.438,0c6.582,6.856,6.582,18.032,0,24.883
		L68.979,58.787c-1.023,1.071-2.143,1.962-3.32,2.686c-6.328,3.896-14.625,3.026-20.109-2.686c-0.896-0.931-1.667-1.936-2.316-3
		c-1.232-2.016-3.871-2.658-5.893-1.426c-2.022,1.232-2.658,3.87-1.42,5.893c0.965,1.587,2.116,3.094,3.441,4.473
		c8.317,8.651,21.053,10.031,30.783,4.051c1.801-1.104,3.488-2.457,5.016-4.051l18.508-19.265
		C103.443,35.291,103.443,18.871,93.668,8.7z"/>
	<path fill="#231F20" d="M42.027,83.114l-4.078,4.245c-6.488,6.757-16.948,6.757-23.437,0c-6.583-6.856-6.583-18.032,0-24.883
		l18.515-19.265c6.488-6.757,16.941-6.757,23.43,0c0.891,0.931,1.668,1.936,2.311,2.993c1.238,2.022,3.877,2.665,5.893,1.434
		c2.021-1.239,2.658-3.878,1.426-5.893c-0.971-1.594-2.123-3.094-3.448-4.474c-9.863-10.271-25.927-10.271-35.798,0L8.332,56.537
		c-9.776,10.172-9.776,26.591,0,36.762c9.863,10.266,25.928,10.266,35.797,0l4.078-4.245c1.641-1.708,1.588-4.419-0.12-6.06
		S43.668,81.406,42.027,83.114z"/>
</g>
</svg>
