<?xml version="1.0" encoding="utf-8"?>
<!-- Generator: Adobe Illustrator 16.0.0, SVG Export Plug-In . SVG Version: 6.00 Build 0)  -->
<!DOCTYPE svg PUBLIC "-//W3C//DTD SVG 1.1//EN" "http://www.w3.org/Graphics/SVG/1.1/DTD/svg11.dtd">
<svg version="1.1" id="Layer_1" xmlns="http://www.w3.org/2000/svg" xmlns:xlink="http://www.w3.org/1999/xlink" x="0px" y="0px"
	 width="102px" height="102px" viewBox="0 0 102 102" enable-background="new 0 0 102 102" xml:space="preserve">
<g>
	<path fill="#161616" d="M20.696,1.971c1.217-0.173,9.938-1.33,21.124-0.86c1.923,0.081,3.418,1.708,3.339,3.632
		s-1.702,3.414-3.632,3.335C30.416,7.615,21.688,8.88,21.582,8.897C21.5,8.91,21.414,8.92,21.327,8.923
		c-6.065,0.438-13.3,4.032-13.3,18.666c0,6.334-0.012,13.18-0.026,19.798C7.979,59.924,7.948,71.763,8.027,77.667
		c0,3.193,2.031,15.084,11.981,15.67c14.262,0.826,39.952,1.01,51.705,0c0.034,0,0.063,0,0.098-0.008
		c0.108-0.003,10.655-0.725,11.865-11.133c1.214-10.441,1.13-18.059,1.097-20.924c0-0.379-0.008-0.676-0.008-0.898
		c0-1.927,1.563-3.493,3.486-3.493c1.926,0.004,3.488,1.566,3.492,3.493c0,0.203-0.004,0.481,0.008,0.819
		c0.03,2.99,0.121,10.934-1.148,21.811c-1.496,12.895-12.621,16.936-18.342,17.281c-5.734,0.488-14.674,0.707-24.02,0.707
		L48.246,101c-10.279,0-21.06-0.259-28.639-0.699c-6.333-0.375-11.482-3.643-14.882-9.465c-2.7-4.631-3.666-9.814-3.666-13.124
		c-0.075-5.912-0.052-17.781-0.03-30.345c0.016-6.613,0.03-13.454,0.03-19.783C1.06,5.906,14.687,2.44,20.696,1.971z M64.855,70.843
		c1.927,0,3.489,1.563,3.489,3.489c0,1.923-1.563,3.485-3.489,3.485H27.652c-1.924,0-3.486-1.563-3.486-3.485
		c0-1.927,1.563-3.489,3.486-3.489H64.855z M46.256,52.241c1.927,0,3.489,1.561,3.489,3.488s-1.563,3.489-3.489,3.489H27.652
		c-1.924,0-3.486-1.563-3.486-3.489s1.563-3.488,3.486-3.488H46.256z M74.227,1.088c14.758,0,26.766,11.993,26.766,26.737
		c0,14.748-12.008,26.739-26.766,26.739c-14.754,0-26.758-11.991-26.758-26.739C47.469,13.08,59.473,1.088,74.227,1.088z
		 M74.227,8.063c-10.907,0-19.783,8.868-19.787,19.762c0,10.896,8.88,19.764,19.787,19.764c10.911,0,19.787-8.868,19.787-19.764
		C94.014,16.931,85.138,8.063,74.227,8.063z M82.299,17.563c1.813-0.641,3.805,0.308,4.45,2.12c0.639,1.814-0.308,3.809-2.122,4.451
		c-3.955,1.399-9.566,8.432-12.174,12.534c-0.642,1.009-1.758,1.619-2.943,1.619v0.003h-0.182c-1.254-0.065-2.381-0.802-2.937-1.927
		c-2.013-4.032-3.981-6.051-4.004-6.068c-1.36-1.363-1.36-3.57,0-4.933c1.36-1.362,3.575-1.362,4.936,0
		c0.169,0.171,1.149,1.179,2.448,3.041C72.799,24.483,77.539,19.25,82.299,17.563z"/>
</g>
</svg>
