<?xml version="1.0" encoding="utf-8"?>
<!-- Generator: Adobe Illustrator 16.0.0, SVG Export Plug-In . SVG Version: 6.00 Build 0)  -->
<!DOCTYPE svg PUBLIC "-//W3C//DTD SVG 1.1//EN" "http://www.w3.org/Graphics/SVG/1.1/DTD/svg11.dtd">
<svg version="1.1" id="Layer_1" xmlns="http://www.w3.org/2000/svg" xmlns:xlink="http://www.w3.org/1999/xlink" x="0px" y="0px"
	 width="102px" height="102px" viewBox="0 0 102 102" enable-background="new 0 0 102 102" xml:space="preserve">
<g>
	<path fill="#161616" d="M50.993,26.582c-10.914,0-19.766,8.85-19.766,19.768c0,10.919,8.852,19.767,19.766,19.767
		c10.921,0,19.768-8.848,19.768-19.767C70.761,35.432,61.914,26.582,50.993,26.582z M38.204,46.349
		c0-7.063,5.727-12.791,12.789-12.791c7.064,0,12.792,5.728,12.792,12.791s-5.728,12.79-12.792,12.79
		C43.931,59.139,38.204,53.412,38.204,46.349z"/>
	<path fill="#161616" d="M50.999,1C33.203,1,16.224,11.526,9.121,28.137c-6.614,15.462-3.035,28.618,4.418,39.888
		c6.108,9.233,15.025,17.478,23.071,24.913c1.533,1.422,3.032,2.812,4.479,4.17l0.009,0.004c2.669,2.507,6.228,3.888,9.901,3.888
		s7.227-1.381,9.905-3.888c1.364-1.276,2.78-2.58,4.226-3.911c8.13-7.49,17.169-15.82,23.342-25.172
		c7.443-11.278,11.014-24.451,4.411-39.892C85.772,11.526,68.794,1,50.999,1z M15.534,30.883
		C21.483,16.977,35.837,7.977,50.999,7.977c15.156,0,29.52,9,35.469,22.906c5.451,12.743,2.697,23.433-3.814,33.299
		c-5.67,8.58-13.963,16.233-22.115,23.755c-1.477,1.363-2.954,2.725-4.403,4.083c-1.362,1.276-3.201,2.003-5.136,2.003
		s-3.77-0.727-5.133-1.999c-1.545-1.458-3.116-2.912-4.692-4.369c-8.049-7.458-16.211-15.017-21.817-23.483
		C12.836,54.315,10.073,43.642,15.534,30.883z"/>
</g>
</svg>
