<?xml version="1.0" encoding="utf-8"?>
<!-- Generator: Adobe Illustrator 16.0.0, SVG Export Plug-In . SVG Version: 6.00 Build 0)  -->
<!DOCTYPE svg PUBLIC "-//W3C//DTD SVG 1.1//EN" "http://www.w3.org/Graphics/SVG/1.1/DTD/svg11.dtd">
<svg version="1.1" id="Layer_1" xmlns="http://www.w3.org/2000/svg" xmlns:xlink="http://www.w3.org/1999/xlink" x="0px" y="0px"
	 width="102px" height="102px" viewBox="0 0 102 102" enable-background="new 0 0 102 102" xml:space="preserve">
<g>
	<path fill="#161616" d="M51.001,1c13.486,0,24.42,10.935,24.42,24.42v9.113c7.859,1.881,13.9,8.553,15,16.723
		c0.688,5.118,1.281,10.498,1.281,16.025c0,5.521-0.594,10.901-1.281,16.021c-1.264,9.38-9.037,16.799-18.607,17.235
		C65.169,100.842,58.425,101,51.001,101c-7.418,0-14.166-0.158-20.811-0.463c-9.572-0.437-17.35-7.855-18.609-17.235
		C10.89,78.183,10.3,72.803,10.3,67.281c0-5.527,0.59-10.907,1.281-16.025c1.102-8.17,7.135-14.842,15.002-16.723V25.42
		C26.583,11.935,37.517,1,51.001,1z M51.001,40.534c-7.32,0-13.959,0.158-20.494,0.458c-6.088,0.283-11.186,5.042-12.014,11.196
		c-0.676,5.025-1.215,10.04-1.215,15.093s0.539,10.067,1.215,15.088c0.828,6.154,5.926,10.918,12.014,11.196
		c6.535,0.3,13.174,0.458,20.494,0.458s13.961-0.158,20.496-0.458c6.088-0.278,11.184-5.042,12.014-11.196
		c0.676-5.021,1.215-10.035,1.215-15.088s-0.539-10.067-1.215-15.093c-0.83-6.154-5.926-10.913-12.014-11.196
		C64.962,40.692,58.321,40.534,51.001,40.534z M32.397,62.594c2.568,0,4.65,2.082,4.65,4.649v0.049c0,2.567-2.082,4.649-4.65,4.649
		c-2.566,0-4.654-2.082-4.654-4.649v-0.049C27.743,64.671,29.825,62.594,32.397,62.594z M51.001,62.594
		c2.568,0,4.65,2.077,4.65,4.649v0.049c0,2.567-2.082,4.649-4.65,4.649c-2.566,0-4.648-2.082-4.648-4.649v-0.049
		C46.353,64.671,48.435,62.594,51.001,62.594z M69.604,62.594c2.568,0,4.656,2.077,4.656,4.649v0.049
		c-0.006,2.567-2.088,4.649-4.656,4.649c-2.566,0-4.648-2.082-4.648-4.649v-0.049C64.956,64.676,67.038,62.594,69.604,62.594z
		 M51.001,7.977c-9.631,0-17.441,7.812-17.441,17.443v8.465c5.564-0.213,11.271-0.327,17.441-0.327
		c6.172,0,11.879,0.114,17.443,0.327V25.42C68.444,15.788,60.64,7.977,51.001,7.977z"/>
</g>
</svg>
