<?xml version="1.0" encoding="utf-8"?>
<!-- Generator: Adobe Illustrator 16.0.0, SVG Export Plug-In . SVG Version: 6.00 Build 0)  -->
<!DOCTYPE svg PUBLIC "-//W3C//DTD SVG 1.1//EN" "http://www.w3.org/Graphics/SVG/1.1/DTD/svg11.dtd">
<svg version="1.1" id="Layer_1" xmlns="http://www.w3.org/2000/svg" xmlns:xlink="http://www.w3.org/1999/xlink" x="0px" y="0px"
	 width="102px" height="102px" viewBox="0 0 102 102" enable-background="new 0 0 102 102" xml:space="preserve">
<path fill="#161616" d="M51,1c27.613,0,50,22.387,50,50s-22.387,50-50,50C23.381,101,1,78.613,1,51S23.381,1,51,1z M43.564,70.77
	c-7.091,0-13.643,3.8-17.164,9.959l-2.229,3.897c7.358,5.881,16.68,9.397,26.829,9.397s19.47-3.521,26.823-9.397l-2.225-3.897
	c-3.516-6.159-10.067-9.959-17.164-9.959H43.564z M51,7.977C27.239,7.977,7.977,27.234,7.977,51
	c0,11.032,4.153,21.084,10.978,28.698l1.391-2.431c4.759-8.334,13.621-13.475,23.22-13.475h14.87
	c9.594,0,18.456,5.141,23.221,13.475l1.384,2.431C89.863,72.084,94.022,62.032,94.022,51C94.022,27.234,74.765,7.977,51,7.977z
	 M51,23.092c8.993,0,16.281,7.293,16.281,16.281S59.993,55.649,51,55.649c-8.988,0-16.282-7.288-16.282-16.276
	S42.012,23.092,51,23.092z M51,30.069c-5.141,0-9.305,4.164-9.305,9.304c0,5.141,4.164,9.3,9.305,9.3c5.135,0,9.304-4.159,9.304-9.3
	C60.304,34.233,56.135,30.069,51,30.069z"/>
</svg>
