<?xml version="1.0" encoding="utf-8"?>
<!-- Generator: Adobe Illustrator 16.0.0, SVG Export Plug-In . SVG Version: 6.00 Build 0)  -->
<!DOCTYPE svg PUBLIC "-//W3C//DTD SVG 1.1//EN" "http://www.w3.org/Graphics/SVG/1.1/DTD/svg11.dtd">
<svg version="1.1" id="Layer_1" xmlns="http://www.w3.org/2000/svg" xmlns:xlink="http://www.w3.org/1999/xlink" x="0px" y="0px"
	 width="102px" height="102px" viewBox="0 0 102 102" enable-background="new 0 0 102 102" xml:space="preserve">
<g>
	<path d="M50.984,68.327c-2.249,0-4.08,1.831-4.08,4.082v15.306c0,3.376-2.746,6.122-6.121,6.122H15.281
		c-3.375,0-6.121-2.746-6.121-6.122v-71.43c0-3.376,2.746-6.122,6.121-6.122h25.502c3.375,0,6.121,2.746,6.121,6.122v15.306
		c0,2.251,1.831,4.082,4.08,4.082s4.079-1.831,4.079-4.082V16.285C55.063,8.408,48.657,2,40.783,2H15.281C7.406,2,1,8.408,1,16.285
		v71.43C1,95.592,7.406,102,15.281,102h25.502c7.874,0,14.28-6.408,14.28-14.285V72.409C55.063,70.158,53.233,68.327,50.984,68.327z
		"/>
	<path d="M100.829,50.858c-0.048-0.145-0.072-0.262-0.097-0.38c-0.008-0.041-0.014-0.083-0.03-0.132
		c-0.083-0.134-0.163-0.266-0.226-0.429l-0.218-0.38c-0.091-0.129-0.216-0.305-0.284-0.356l-0.111-0.096l-20.4-20.408
		c-0.764-0.764-1.786-1.184-2.881-1.184s-2.117,0.42-2.881,1.184c-1.588,1.589-1.589,4.174,0,5.764l13.408,13.414H25.482
		c-2.25,0-4.08,1.831-4.08,4.081c0,2.251,1.83,4.081,4.08,4.081h61.564l-13.41,13.414c-0.763,0.763-1.183,1.786-1.183,2.881
		s0.42,2.118,1.183,2.882c0.775,0.775,1.756,1.168,2.913,1.168c1.091,0,2.105-0.412,2.937-1.191l20.379-20.385
		c0.101-0.134,0.226-0.291,0.384-0.448l0.007-0.007l0.156-0.313c0.063-0.161,0.139-0.287,0.191-0.374
		c0.072-0.169,0.11-0.266,0.149-0.361c0.024-0.063,0.051-0.125,0.075-0.201l0.096-0.325c0.102-0.508,0.102-1.067,0-1.576
		L100.829,50.858z"/>
</g>
</svg>
