<?xml version="1.0" encoding="utf-8"?>
<!-- Generator: Adobe Illustrator 16.0.0, SVG Export Plug-In . SVG Version: 6.00 Build 0)  -->
<!DOCTYPE svg PUBLIC "-//W3C//DTD SVG 1.1//EN" "http://www.w3.org/Graphics/SVG/1.1/DTD/svg11.dtd">
<svg version="1.1" id="Layer_1" xmlns="http://www.w3.org/2000/svg" xmlns:xlink="http://www.w3.org/1999/xlink" x="0px" y="0px"
	 width="102px" height="102px" viewBox="0 0 102 102" enable-background="new 0 0 102 102" xml:space="preserve">
<g>
	<path fill="#231F20" d="M64.932,50.98c0,2.567,2.107,4.652,4.676,4.652c2.566,0,4.652-2.085,4.652-4.652
		c0-2.566-2.086-4.652-4.652-4.652h-0.051C66.994,46.328,64.932,48.414,64.932,50.98z"/>
	<path fill="#231F20" d="M46.35,50.98c0,2.567,2.085,4.652,4.652,4.652c2.566,0,4.652-2.085,4.652-4.652
		c0-2.566-2.086-4.652-4.652-4.652C48.426,46.328,46.35,48.414,46.35,50.98z"/>
	<path fill="#231F20" d="M27.758,50.98c0,2.567,2.107,4.652,4.675,4.652c2.571,0,4.653-2.085,4.653-4.652
		c0-2.566-2.082-4.652-4.653-4.652h-0.046C29.816,46.328,27.758,48.414,27.758,50.98z"/>
	<path fill="#231F20" d="M13.695,98.668c0.255,0.01,0.505,0.01,0.755,0.01l-0.009,0.009c5.47,0,10.122-1.468,14.175-4.493l0.291-0.2
		c0.081-0.06,0.163-0.118,0.245-0.173c0.409-0.291,0.805-0.567,1.117-0.781c0.41,0.154,0.955,0.373,1.5,0.6
		c0.1,0.041,0.195,0.082,0.291,0.118l0.572,0.241c2.472,1.018,5.324,1.667,8.023,1.84c6.742,0.473,13.889,0.473,20.678,0
		c21.145-1.422,38.123-18.623,39.486-40.027c0.24-4.03,0.24-8.114,0-12.158C99.461,22.253,82.479,5.057,61.314,3.634
		c-6.77-0.427-13.906-0.427-20.641,0C19.521,5.052,2.547,22.253,1.184,43.661c-0.246,4.03-0.246,8.115,0,12.158
		c0.436,6.807,3.09,13.876,7.887,21.027c1.44,2.789-0.082,6.814-1.631,9.723l-0.082,0.163c-1.895,3.563-3.262,6.143-1.694,8.941
		c0.014,0.027,0.027,0.051,0.046,0.073c0.009,0.027,0.027,0.05,0.036,0.072c1.658,2.653,4.407,2.744,7.587,2.84L13.695,98.668z
		 M13.25,91.672c-0.199-0.005-0.399-0.01-0.595-0.023c0.269-0.522,0.573-1.108,0.868-1.658l0.082-0.149
		c3.461-6.502,3.971-12.054,1.508-16.502c-0.055-0.091-0.109-0.182-0.164-0.264c-4.152-6.156-6.451-12.112-6.805-17.701
		c-0.229-3.698-0.229-7.605,0-11.295c1.135-17.909,15.324-32.313,32.98-33.493c6.438-0.4,13.266-0.4,19.74,0
		c17.664,1.19,31.85,15.588,32.99,33.484c0.223,3.698,0.223,7.605,0,11.295C92.71,73.271,78.529,87.673,60.861,88.859h-0.01
		c-6.47,0.454-13.285,0.454-19.736,0c-1.945-0.127-4.063-0.604-5.815-1.327l-0.567-0.236c-2.604-1.072-3.912-1.612-5.43-1.381
		c-1.387,0.214-2.404,0.936-4.421,2.376l-0.014,0.005l-0.313,0.227c-0.014,0.005-0.027,0.014-0.037,0.019
		c-0.008,0.009-0.018,0.019-0.031,0.027c-3.03,2.263-6.32,3.217-10.6,3.121l-0.336-0.009C13.451,91.676,13.351,91.676,13.25,91.672z
		"/>
</g>
</svg>
