<?xml version="1.0" encoding="utf-8"?>
<!-- Generator: Adobe Illustrator 16.0.0, SVG Export Plug-In . SVG Version: 6.00 Build 0)  -->
<!DOCTYPE svg PUBLIC "-//W3C//DTD SVG 1.1//EN" "http://www.w3.org/Graphics/SVG/1.1/DTD/svg11.dtd">
<svg version="1.1" id="Layer_1" xmlns="http://www.w3.org/2000/svg" xmlns:xlink="http://www.w3.org/1999/xlink" x="0px" y="0px"
	 width="102px" height="102px" viewBox="0 0 102 102" enable-background="new 0 0 102 102" xml:space="preserve">
<g>
	<path fill="#161616" d="M51,73.095c14.77,0,26.738-11.979,26.738-26.75V27.75C77.738,12.979,65.77,1,51,1
		S24.262,12.979,24.262,27.75v18.596C24.262,61.116,36.23,73.095,51,73.095z M31.238,27.75c0-10.922,8.845-19.773,19.762-19.773
		c9.723,0,17.812,7.031,19.457,16.286H60.299c-1.925,0-3.489,1.558-3.489,3.488c0,1.924,1.564,3.488,3.489,3.488h10.463v11.62
		H60.299c-1.925,0-3.489,1.564-3.489,3.488c0,1.929,1.564,3.488,3.489,3.488h10.158C68.812,59.088,60.723,66.119,51,66.119
		c-10.917,0-19.762-8.851-19.762-19.773V27.75z"/>
	<path fill="#161616" d="M91.691,46.346c0-1.924-1.56-3.488-3.487-3.488c-1.925,0-3.489,1.564-3.489,3.488
		c0,18.629-15.091,33.726-33.715,33.726c-18.623,0-33.715-15.097-33.715-33.726c0-1.924-1.564-3.488-3.487-3.488
		c-1.93,0-3.489,1.564-3.489,3.488c0,21.305,16.362,38.784,37.204,40.549v7.129H37.047c-1.93,0-3.486,1.558-3.486,3.488
		c0,1.924,1.557,3.488,3.486,3.488h27.906c1.93,0,3.486-1.564,3.486-3.488c0-1.93-1.557-3.488-3.486-3.488H54.489v-7.129
		C75.33,85.129,91.691,67.65,91.691,46.346z"/>
</g>
</svg>
