<?xml version="1.0" encoding="utf-8"?>
<!-- Generator: Adobe Illustrator 16.0.0, SVG Export Plug-In . SVG Version: 6.00 Build 0)  -->
<!DOCTYPE svg PUBLIC "-//W3C//DTD SVG 1.1//EN" "http://www.w3.org/Graphics/SVG/1.1/DTD/svg11.dtd">
<svg version="1.1" id="Layer_1" xmlns="http://www.w3.org/2000/svg" xmlns:xlink="http://www.w3.org/1999/xlink" x="0px" y="0px"
	 width="102px" height="102px" viewBox="0 0 102 102" enable-background="new 0 0 102 102" xml:space="preserve">
<g>
	<path fill="#161616" d="M19.915,1.169c2.635,0.546,4.742,2.317,6.041,4.656l4.151,7.453c1.536,2.748,2.825,5.056,3.661,7.063
		c0.891,2.13,1.427,4.233,1.182,6.555c-0.246,2.32-1.19,4.27-2.508,6.168c-1.235,1.794-2.971,3.788-5.032,6.154L17.046,51.122
		c8.22,13.467,20.348,25.612,33.837,33.833l11.899-10.36c2.362-2.062,4.36-3.802,6.15-5.037c1.907-1.313,3.852-2.262,6.168-2.507
		c2.325-0.241,4.424,0.29,6.559,1.181c2.008,0.84,4.314,2.126,7.058,3.661l7.458,4.151c2.335,1.309,4.105,3.406,4.65,6.041
		c0.555,2.661-0.254,5.341-2.052,7.539c-6.505,7.985-16.933,13.063-27.87,10.86c-6.713-1.358-13.354-3.615-21.365-8.217
		c-16.124-9.243-30.566-23.7-39.806-39.801c-4.597-8.021-6.858-14.652-8.212-21.375c-2.208-10.938,2.87-21.36,10.855-27.865
		C14.574,1.433,17.255,0.62,19.915,1.169z M57.378,88.552c5.423,2.671,10.138,4.129,14.906,5.092
		c7.895,1.595,15.852-2.017,21.084-8.426c0.682-0.845,0.69-1.435,0.627-1.726c-0.063-0.318-0.327-0.857-1.218-1.353l-7.285-4.061
		c-2.962-1.649-4.923-2.744-6.532-3.416c-1.516-0.636-2.396-0.749-3.133-0.672c-0.735,0.077-1.571,0.372-2.925,1.308
		c-1.436,0.99-3.135,2.462-5.687,4.684L57.378,88.552z M13.448,44.622l8.574-9.837c2.217-2.553,3.688-4.252,4.679-5.687
		c0.936-1.354,1.235-2.189,1.309-2.926c0.081-0.74-0.037-1.617-0.673-3.134c-0.672-1.608-1.762-3.575-3.415-6.531L19.86,9.223
		c-0.49-0.891-1.035-1.153-1.354-1.218c-0.289-0.063-0.881-0.059-1.725,0.627C10.378,13.86,6.762,21.821,8.361,29.711
		C9.324,34.48,10.777,39.2,13.448,44.622z"/>
</g>
</svg>
