<?xml version="1.0" encoding="utf-8"?>
<!-- Generator: Adobe Illustrator 16.0.0, SVG Export Plug-In . SVG Version: 6.00 Build 0)  -->
<!DOCTYPE svg PUBLIC "-//W3C//DTD SVG 1.1//EN" "http://www.w3.org/Graphics/SVG/1.1/DTD/svg11.dtd">
<svg version="1.1" id="Layer_1" xmlns="http://www.w3.org/2000/svg" xmlns:xlink="http://www.w3.org/1999/xlink" x="0px" y="0px"
	 width="102px" height="102px" viewBox="0 0 102 102" enable-background="new 0 0 102 102" xml:space="preserve">
<g>
	<path fill="#231F20" d="M69.604,47.512H54.49v-15.12c0-1.924-1.559-3.488-3.488-3.488s-3.488,1.564-3.488,3.488v15.12H32.395
		c-1.924,0-3.488,1.559-3.488,3.488s1.564,3.488,3.488,3.488h15.119v15.119c0,1.925,1.559,3.488,3.488,3.488
		s3.488-1.563,3.488-3.488V54.488h15.114c1.925,0,3.488-1.559,3.488-3.488S71.529,47.512,69.604,47.512z"/>
	<path fill="#231F20" d="M51.002,0.997C23.391,0.997,1,23.388,1,51s22.391,50.003,50.002,50.003C78.614,101.003,101,78.612,101,51
		S78.614,0.997,51.002,0.997z M51.002,94.026C27.238,94.026,7.977,74.764,7.977,51S27.238,7.974,51.002,7.974
		c23.759,0,43.021,19.263,43.021,43.026S74.761,94.026,51.002,94.026z"/>
</g>
</svg>
