<?xml version="1.0" encoding="utf-8"?>
<!-- Generator: Adobe Illustrator 16.0.0, SVG Export Plug-In . SVG Version: 6.00 Build 0)  -->
<!DOCTYPE svg PUBLIC "-//W3C//DTD SVG 1.1//EN" "http://www.w3.org/Graphics/SVG/1.1/DTD/svg11.dtd">
<svg version="1.1" id="Layer_1" xmlns="http://www.w3.org/2000/svg" xmlns:xlink="http://www.w3.org/1999/xlink" x="0px" y="0px"
	 width="102px" height="102px" viewBox="0 0 102 102" enable-background="new 0 0 102 102" xml:space="preserve">
<g>
	<path fill="#161616" d="M51.283,1c10.683,0,19.071,0,25.629,0.881c6.715,0.902,12.044,2.792,16.229,6.978
		c4.186,4.188,6.074,9.515,6.976,16.232C101,31.643,101,40.035,101,50.719v0.563c0,10.684,0,19.073-0.884,25.63
		c-0.901,6.715-2.79,12.044-6.976,16.229c-4.185,4.186-9.514,6.074-16.229,6.976C70.354,101,61.966,101,51.283,101h-0.566
		c-10.682,0-19.076,0-25.623-0.884c-6.716-0.901-12.045-2.79-16.234-6.976c-4.186-4.185-6.078-9.514-6.98-16.229
		C1,70.354,1,61.965,1,51.281v-0.563c0-10.684,0-19.076,0.879-25.628c0.902-6.717,2.795-12.044,6.98-16.232
		c4.189-4.185,9.519-6.076,16.234-6.978C31.641,1,40.035,1,50.717,1H51.283z M51,8.317c-11.025,0-18.932,0.007-24.939,0.813
		c-5.901,0.795-9.426,2.302-12.025,4.901c-2.604,2.602-4.111,6.127-4.901,12.031C8.324,32.071,8.314,39.974,8.314,51
		s0.01,18.927,0.819,24.935c0.79,5.906,2.297,9.431,4.901,12.035c2.6,2.595,6.124,4.102,12.025,4.901
		c6.008,0.805,13.914,0.81,24.939,0.81s18.927-0.005,24.936-0.81c5.905-0.8,9.43-2.306,12.034-4.901
		c2.595-2.604,4.102-6.129,4.901-12.035c0.805-6.008,0.81-13.909,0.81-24.935s-0.005-18.929-0.81-24.937
		c-0.8-5.904-2.307-9.429-4.901-12.031c-2.604-2.599-6.129-4.106-12.034-4.901C69.927,8.324,62.025,8.317,51,8.317z M72.638,33.957
		c1.33-1.521,3.642-1.674,5.162-0.344c1.521,1.33,1.674,3.644,0.344,5.165L61.71,57.557c1.697,2.246,2.702,5.041,2.702,8.077
		c0,7.408-6.004,13.417-13.412,13.417s-13.416-6.008-13.416-13.417c0-7.408,6.008-13.416,13.416-13.416
		c1.716,0,3.357,0.326,4.864,0.912L72.638,33.957z M51,59.538c-3.367,0-6.097,2.729-6.097,6.096c0,3.367,2.729,6.097,6.097,6.097
		s6.097-2.729,6.097-6.097C57.097,62.268,54.367,59.538,51,59.538z M51,18.074c5.99,0,11.621,1.602,16.472,4.406
		c1.743,1.012,2.344,3.253,1.33,5.001c-1.015,1.749-3.256,2.346-5.004,1.335C60.04,26.64,55.669,25.391,51,25.391
		c-14.142,0-25.609,11.465-25.609,25.609c0,2.021-1.637,3.66-3.659,3.66c-2.023,0-3.66-1.639-3.66-3.66
		C18.071,32.815,32.813,18.074,51,18.074z"/>
</g>
</svg>
