<?xml version="1.0" encoding="utf-8"?>
<!-- Generator: Adobe Illustrator 16.0.0, SVG Export Plug-In . SVG Version: 6.00 Build 0)  -->
<!DOCTYPE svg PUBLIC "-//W3C//DTD SVG 1.1//EN" "http://www.w3.org/Graphics/SVG/1.1/DTD/svg11.dtd">
<svg version="1.1" id="Layer_1" xmlns="http://www.w3.org/2000/svg" xmlns:xlink="http://www.w3.org/1999/xlink" x="0px" y="0px"
	 width="102px" height="102px" viewBox="0 0 102 102" enable-background="new 0 0 102 102" xml:space="preserve">
<g>
	<path fill="#161616" d="M28.02,16.182c5.945,0,10.213,1.579,12.814,4.735c2.783,2.971,4.178,6.872,4.178,11.698v3.9
		c0,7.614-2.227,16.062-6.686,25.348c-4.455,9.101-10.677,17.084-18.663,23.955H1c5.572-5.942,10.031-11.515,13.371-16.712
		c3.528-5.386,6.035-11.327,7.523-17.828c-3.715-0.929-6.503-2.692-8.355-5.294c-1.676-2.597-2.508-5.755-2.508-9.469v-3.9
		c0-4.826,1.301-8.728,3.896-11.698C17.717,17.761,22.077,16.182,28.02,16.182z M84.008,16.182c5.941,0,10.213,1.579,12.814,4.735
		C99.605,23.888,101,27.789,101,32.615v3.9c0,7.614-2.227,16.062-6.686,25.348c-4.459,9.101-10.677,17.084-18.662,23.955H56.988
		c5.572-5.942,10.027-11.515,13.372-16.712c3.527-5.386,6.035-11.327,7.519-17.828c-3.711-0.929-6.498-2.692-8.355-5.294
		c-1.671-2.597-2.508-5.755-2.508-9.469v-3.9c0-4.826,1.301-8.728,3.901-11.698C73.701,17.761,78.066,16.182,84.008,16.182z"/>
</g>
</svg>
