<?xml version="1.0" encoding="utf-8"?>
<!-- Generator: Adobe Illustrator 16.0.0, SVG Export Plug-In . SVG Version: 6.00 Build 0)  -->
<!DOCTYPE svg PUBLIC "-//W3C//DTD SVG 1.1//EN" "http://www.w3.org/Graphics/SVG/1.1/DTD/svg11.dtd">
<svg version="1.1" id="Layer_1" xmlns="http://www.w3.org/2000/svg" xmlns:xlink="http://www.w3.org/1999/xlink" x="0px" y="0px"
	 width="102px" height="102px" viewBox="0 0 102 102" enable-background="new 0 0 102 102" xml:space="preserve">
<g>
	<path fill="#161616" d="M17.946,85.723c-5.926,0-10.279-1.479-13.057-4.442C2.298,78.131,1,74.151,1,69.336v-3.891
		c0-7.592,2.222-15.925,6.667-24.999c4.444-9.26,10.647-17.314,18.611-24.169H44.89c-5.557,5.928-10.094,11.576-13.611,16.946
		c-3.334,5.186-5.741,11.021-7.223,17.501c3.705,0.924,6.39,2.683,8.055,5.277c1.854,2.594,2.779,5.74,2.779,9.443v3.891
		c0,4.815-1.389,8.795-4.166,11.944C28.131,84.243,23.871,85.723,17.946,85.723z M74.056,85.723c-5.926,0-10.278-1.479-13.055-4.442
		c-2.594-3.149-3.891-7.129-3.891-11.944v-3.891c0-7.592,2.223-15.925,6.667-24.999c4.446-9.26,10.649-17.314,18.611-24.169H101
		c-5.557,5.928-10.092,11.576-13.61,16.946c-3.336,5.186-5.742,11.021-7.223,17.501c3.705,0.924,6.389,2.683,8.054,5.277
		c1.853,2.594,2.78,5.74,2.78,9.443v3.891c0,4.815-1.39,8.795-4.166,11.944C84.241,84.243,79.981,85.723,74.056,85.723z"/>
</g>
</svg>
