<?xml version="1.0" encoding="utf-8"?>
<!-- Generator: Adobe Illustrator 16.0.0, SVG Export Plug-In . SVG Version: 6.00 Build 0)  -->
<!DOCTYPE svg PUBLIC "-//W3C//DTD SVG 1.1//EN" "http://www.w3.org/Graphics/SVG/1.1/DTD/svg11.dtd">
<svg version="1.1" id="Layer_1" xmlns="http://www.w3.org/2000/svg" xmlns:xlink="http://www.w3.org/1999/xlink" x="0px" y="0px"
	 width="102px" height="102px" viewBox="0 0 102 102" enable-background="new 0 0 102 102" xml:space="preserve">
<g>
	<path d="M72.433,93.86H61.104L53.01,70.395H19.959L12.314,93.86H1L31.229,8.14h10.966L72.433,93.86z M49.825,60.708L37.838,25.07
		c-0.378-1.136-0.785-3.136-1.229-5.973h-0.257c-0.379,2.586-0.807,4.572-1.279,5.973L23.181,60.708H49.825z M75.897,61.322
		c3.537-2.122,7.623-3.179,12.244-3.179c8.571,0,12.858,4.314,12.858,12.95v21.959h-6.237V87.78h-0.156
		c-2.465,4.058-6.094,6.08-10.894,6.08c-3.458,0-6.193-0.894-8.229-2.686c-2.036-1.786-3.057-4.209-3.057-7.244
		c0-6.386,3.935-10.087,11.793-11.144l10.543-1.414c0-5.572-2.399-8.358-7.2-8.358c-4.265,0-8.15,1.372-11.665,4.13V61.322
		L75.897,61.322z M86.442,77.023c-2.916,0.371-4.922,1.063-6.029,2.101c-1.107,1.028-1.65,2.464-1.65,4.314
		c0,1.621,0.6,2.942,1.8,3.979c1.2,1.028,2.786,1.543,4.75,1.543c2.751,0,5.008-0.929,6.786-2.779
		c1.771-1.85,2.664-4.172,2.664-6.972v-3.271L86.442,77.023z"/>
</g>
</svg>
