<?xml version="1.0" encoding="utf-8"?>
<!-- Generator: Adobe Illustrator 16.0.0, SVG Export Plug-In . SVG Version: 6.00 Build 0)  -->
<!DOCTYPE svg PUBLIC "-//W3C//DTD SVG 1.1//EN" "http://www.w3.org/Graphics/SVG/1.1/DTD/svg11.dtd">
<svg version="1.1" id="Layer_1" xmlns="http://www.w3.org/2000/svg" xmlns:xlink="http://www.w3.org/1999/xlink" x="0px" y="0px"
	 width="102px" height="102px" viewBox="0 0 102 102" enable-background="new 0 0 102 102" xml:space="preserve">
<g>
	<path fill="#161616" d="M46.349,1C21.304,1,0.999,21.303,0.999,46.35c0,25.045,20.305,45.348,45.35,45.348
		c11.266,0,21.576-4.105,29.506-10.91l19.191,19.191c1.363,1.363,3.57,1.363,4.934,0c1.361-1.363,1.361-3.57,0-4.934L80.788,75.855
		c6.805-7.932,10.91-18.242,10.91-29.506C91.698,21.303,71.396,1,46.349,1z M7.976,46.35c0-21.195,17.18-38.373,38.373-38.373
		S84.722,25.154,84.722,46.35c0,21.193-17.18,38.371-38.373,38.371S7.976,67.543,7.976,46.35z"/>
</g>
</svg>
