<?xml version="1.0" encoding="utf-8"?>
<!-- Generator: Adobe Illustrator 16.0.0, SVG Export Plug-In . SVG Version: 6.00 Build 0)  -->
<!DOCTYPE svg PUBLIC "-//W3C//DTD SVG 1.1//EN" "http://www.w3.org/Graphics/SVG/1.1/DTD/svg11.dtd">
<svg version="1.1" id="Layer_1" xmlns="http://www.w3.org/2000/svg" xmlns:xlink="http://www.w3.org/1999/xlink" x="0px" y="0px"
	 width="102px" height="102px" viewBox="0 0 102 102" enable-background="new 0 0 102 102" xml:space="preserve">
<g>
	<path fill="#161616" d="M66.35,4.249c1.322-0.177,2.437,0.209,3.196,0.542c0.696,0.306,1.482,0.753,2.245,1.186l8.257,4.688
		c0.781,0.442,1.58,0.896,2.207,1.345c0.679,0.482,1.593,1.25,2.121,2.493c0.572,1.356,0.387,2.725,0.248,3.516
		c-0.146,0.856-0.421,1.911-0.715,3.038l-0.026,0.129c-1.846,7.098,2.65,14.731,9.935,16.697l0.129,0.036
		c1.105,0.297,2.139,0.575,2.947,0.868c0.76,0.275,2.02,0.792,2.907,1.953c0.817,1.068,1.039,2.237,1.118,3.065
		C101,44.565,101,45.48,101,46.37v9.26c0,0.893,0,1.802-0.081,2.57c-0.079,0.826-0.301,1.998-1.118,3.063
		c-0.888,1.163-2.147,1.678-2.907,1.953c-0.404,0.146-0.865,0.289-1.363,0.431l-1.713,0.475c-7.28,1.962-11.78,9.597-9.935,16.695
		l0.036,0.129c0.293,1.127,0.568,2.175,0.715,3.036c0.137,0.79,0.319,2.157-0.254,3.516c-0.523,1.243-1.438,2.015-2.117,2.495
		c-0.625,0.448-1.425,0.896-2.205,1.34L71.8,96.02c-0.763,0.435-1.553,0.884-2.25,1.19c-0.76,0.333-1.878,0.719-3.2,0.542
		c-1.435-0.196-2.499-1.021-3.116-1.536c-0.648-0.55-1.394-1.296-2.193-2.086l-0.094-0.098c-5.428-5.415-14.461-5.415-19.89,0.005
		l-0.093,0.093c-0.791,0.79-1.541,1.536-2.193,2.086c-0.613,0.515-1.679,1.34-3.116,1.536c-1.322,0.177-2.441-0.209-3.2-0.542
		c-0.697-0.306-1.487-0.755-2.251-1.19l-8.247-4.683c-0.782-0.439-1.581-0.896-2.211-1.345c-0.68-0.479-1.598-1.252-2.122-2.495
		c-0.573-1.358-0.386-2.726-0.248-3.516c0.146-0.861,0.417-1.909,0.71-3.036l0.035-0.129c1.842-7.098-2.654-14.733-9.938-16.695
		l-0.128-0.036c-1.102-0.302-2.141-0.577-2.948-0.87c-0.755-0.275-2.015-0.79-2.907-1.953c-0.817-1.065-1.035-2.237-1.123-3.063
		C0.995,57.432,1,56.522,1,55.63v-9.26c0-0.89-0.005-1.805,0.075-2.568c0.088-0.828,0.306-2.002,1.123-3.069
		c0.893-1.161,2.152-1.673,2.907-1.949c0.808-0.293,1.847-0.571,2.948-0.868l0.128-0.036c7.284-1.966,11.785-9.602,9.948-16.697
		c-0.014-0.044-0.027-0.088-0.036-0.133c-0.293-1.127-0.568-2.177-0.714-3.034c-0.139-0.791-0.32-2.157,0.253-3.516
		c0.523-1.243,1.442-2.011,2.121-2.493c0.631-0.448,1.43-0.903,2.211-1.345c0.036-0.022,0.071-0.042,0.11-0.064l8.021-4.554
		c0.035-0.022,0.08-0.047,0.115-0.069c0.764-0.433,1.554-0.879,2.251-1.186c0.759-0.333,1.877-0.719,3.2-0.542
		c1.438,0.196,2.504,1.021,3.116,1.536c0.647,0.548,1.394,1.292,2.192,2.084l0.094,0.095c5.429,5.414,14.453,5.414,19.878,0
		l0.097-0.095c0.791-0.792,1.541-1.538,2.193-2.084C63.846,5.27,64.911,4.445,66.35,4.249z M65.87,12.903
		c-8.149,8.13-21.587,8.13-29.732,0c-0.652-0.648-1.105-1.099-1.461-1.427c-0.012,0.009-0.025,0.016-0.043,0.024
		c-0.302,0.163-0.648,0.357-1.093,0.608l-8.017,4.554c-0.452,0.255-0.808,0.459-1.109,0.637c-0.018,0.011-0.04,0.024-0.063,0.035
		c0.115,0.495,0.28,1.154,0.524,2.095c2.841,10.927-4.021,22.257-14.88,25.187c-0.906,0.244-1.545,0.419-2.011,0.562
		c-0.005,0.021,0,0.04,0,0.06c-0.005,0.346-0.014,0.75-0.014,1.263v8.991c0,0.515,0.009,0.923,0.014,1.27
		c0,0.018-0.005,0.04,0,0.062c0.466,0.142,1.104,0.315,2.011,0.56c10.858,2.93,17.711,14.262,14.875,25.187
		c-0.244,0.941-0.413,1.598-0.52,2.095c0.018,0.009,0.036,0.026,0.059,0.035c0.297,0.178,0.652,0.377,1.104,0.63l8.017,4.555
		c0.444,0.252,0.791,0.452,1.092,0.617c0.019,0.005,0.031,0.013,0.045,0.022c0.354-0.328,0.809-0.781,1.461-1.429
		c8.153-8.137,21.591-8.137,29.744,0c0.652,0.648,1.105,1.101,1.461,1.429c0.014-0.009,0.035-0.017,0.049-0.022
		c0.297-0.165,0.644-0.364,1.088-0.617l8.025-4.555c0.443-0.253,0.799-0.457,1.101-0.635c0.018-0.013,0.04-0.022,0.062-0.031
		c-0.11-0.497-0.279-1.154-0.523-2.095c-2.84-10.924,4.009-22.257,14.866-25.187c0.905-0.244,1.54-0.417,2.011-0.56
		c0-0.022,0.004-0.044,0.004-0.062c0.01-0.346,0.005-0.754,0.005-1.27v-8.991c0-0.512,0.005-0.917-0.005-1.263
		c0-0.02-0.004-0.04-0.004-0.06c-0.471-0.142-1.101-0.317-2.011-0.562c-10.857-2.93-17.716-14.262-14.875-25.187
		c0.244-0.941,0.408-1.6,0.523-2.095c-0.021-0.011-0.044-0.024-0.062-0.035c-0.302-0.178-0.656-0.382-1.101-0.637l-8.026-4.55
		c-0.439-0.25-0.79-0.45-1.087-0.613c-0.014-0.008-0.031-0.015-0.049-0.024C66.979,11.804,66.519,12.255,65.87,12.903z M51,31.24
		c10.919,0,19.767,8.849,19.767,19.767c0,10.917-8.848,19.769-19.767,19.769c-10.916,0-19.767-8.851-19.767-19.769
		C31.233,40.089,40.084,31.24,51,31.24z M51,38.216c-7.063,0-12.789,5.727-12.789,12.791c0,7.064,5.727,12.791,12.789,12.791
		c7.065,0,12.793-5.727,12.793-12.791C63.793,43.942,58.065,38.216,51,38.216z"/>
</g>
</svg>
