<?xml version="1.0" encoding="utf-8"?>
<!-- Generator: Adobe Illustrator 16.0.0, SVG Export Plug-In . SVG Version: 6.00 Build 0)  -->
<!DOCTYPE svg PUBLIC "-//W3C//DTD SVG 1.1//EN" "http://www.w3.org/Graphics/SVG/1.1/DTD/svg11.dtd">
<svg version="1.1" id="Layer_1" xmlns="http://www.w3.org/2000/svg" xmlns:xlink="http://www.w3.org/1999/xlink" x="0px" y="0px"
	 width="102px" height="102px" viewBox="0 0 102 102" enable-background="new 0 0 102 102" xml:space="preserve">
<path d="M51,98.064c-6.628,0-10.583-2.84-14.091-5.291c-2.619-1.781-4.958-3.509-7.743-3.955c-6.404-0.334-8.298,0-11.751,0.613
	c-0.614,0-1.338-0.167-1.615-1.17c-1.004-4.177-1.282-5.347-2.007-5.458c-7.352-1.17-11.862-2.841-12.755-4.901
	c-0.166-1.281,0.223-1.838,0.837-1.838c5.959-1.059,11.25-4.178,15.706-9.413c3.51-4.01,5.181-7.908,5.348-8.3
	c0.891-1.781,1.058-3.341,0.557-4.566c-0.946-2.283-4.178-3.287-7.686-4.456c-1.895-0.725-4.958-2.283-4.569-4.455
	c0.335-1.561,2.396-2.674,5.292-2.451c1.949,0.891,3.621,1.336,5.125,1.336c1.838,0,2.674-0.668,2.896-0.891
	c-0.612-9.804-1.114-18.324,1.058-23.17C32.117,5.105,45.876,3.936,51,3.936s18.882,1.17,25.397,15.763
	c2.172,4.846,1.671,13.366,1.059,23.17c0.223,0.223,1.059,0.891,2.896,0.891c1.504,0,3.176-0.445,5.125-1.336
	c2.896-0.223,4.956,0.891,5.291,2.451c0.39,2.172-2.674,3.73-4.568,4.455c-3.508,1.169-6.74,2.173-7.686,4.456
	c-0.502,1.226-0.334,2.785,0.557,4.566c0.166,0.392,1.838,4.29,5.348,8.3c4.456,5.235,9.747,8.354,15.705,9.413
	c0.615,0,1.004,0.557,0.838,1.838c-0.893,2.061-5.404,3.731-12.755,4.901c-0.725,0.111-1.004,1.281-2.007,5.458
	c-0.277,1.003-1.001,1.17-1.615,1.17c-3.453-0.613-5.348-0.947-11.752-0.613c-2.784,0.446-5.124,2.174-7.742,3.955
	C61.583,95.225,57.628,98.064,51,98.064z"/>
</svg>
