<?xml version="1.0" encoding="utf-8"?>
<!-- Generator: Adobe Illustrator 16.0.0, SVG Export Plug-In . SVG Version: 6.00 Build 0)  -->
<!DOCTYPE svg PUBLIC "-//W3C//DTD SVG 1.1//EN" "http://www.w3.org/Graphics/SVG/1.1/DTD/svg11.dtd">
<svg version="1.1" id="Layer_1" xmlns="http://www.w3.org/2000/svg" xmlns:xlink="http://www.w3.org/1999/xlink" x="0px" y="0px"
	 width="102px" height="102px" viewBox="0 0 102 102" enable-background="new 0 0 102 102" xml:space="preserve">
<g>
	<path fill="#231F20" d="M4.846,8.692h82.053c2.123,0,3.846-1.724,3.846-3.847S89.021,1,86.898,1H4.846C2.723,1,1,2.723,1,4.846
		S2.723,8.692,4.846,8.692z"/>
	<path fill="#231F20" d="M61.257,31.77H4.846C2.723,31.77,1,33.492,1,35.615s1.723,3.846,3.846,3.846h56.411
		c2.123,0,3.846-1.723,3.846-3.846S63.38,31.77,61.257,31.77z"/>
	<path fill="#231F20" d="M40.744,62.538H4.846C2.723,62.538,1,64.262,1,66.385s1.723,3.846,3.846,3.846h35.898
		c2.123,0,3.846-1.723,3.846-3.846S42.867,62.538,40.744,62.538z"/>
	<path fill="#231F20" d="M99.834,81.579c-1.523-1.482-3.957-1.452-5.434,0.075c-0.813,0.826-1.844,2.148-2.835,3.4l-0.226,0.29
		c-0.992,1.263-2.049,2.609-3.13,3.887l-0.03,0.034v-53.65c0-2.123-1.723-3.846-3.846-3.846c-2.124,0-3.847,1.723-3.847,3.846v53.65
		l-0.03-0.034c-1.082-1.277-2.139-2.624-3.125-3.887l-0.23-0.29c-0.991-1.252-2.023-2.574-2.834-3.4
		c-1.478-1.527-3.912-1.558-5.434-0.075c-1.527,1.478-1.558,3.911-0.075,5.434c0.45,0.471,1.196,1.402,2.294,2.794l0.24,0.306
		c0.971,1.242,2.113,2.7,3.295,4.087c1.262,1.492,2.674,3.04,4.086,4.247c0.712,0.601,1.508,1.191,2.364,1.652
		c0.831,0.445,1.974,0.901,3.296,0.901s2.463-0.456,3.295-0.901c0.856-0.461,1.652-1.052,2.363-1.652
		c1.412-1.207,2.825-2.755,4.087-4.247c1.183-1.387,2.323-2.845,3.296-4.087l0.24-0.306c1.096-1.392,1.843-2.323,2.293-2.794
		C101.391,85.49,101.361,83.057,99.834,81.579z"/>
</g>
</svg>
