<?xml version="1.0" encoding="utf-8"?>
<!-- Generator: Adobe Illustrator 16.0.0, SVG Export Plug-In . SVG Version: 6.00 Build 0)  -->
<!DOCTYPE svg PUBLIC "-//W3C//DTD SVG 1.1//EN" "http://www.w3.org/Graphics/SVG/1.1/DTD/svg11.dtd">
<svg version="1.1" id="Layer_1" xmlns="http://www.w3.org/2000/svg" xmlns:xlink="http://www.w3.org/1999/xlink" x="0px" y="0px"
	 width="102px" height="102px" viewBox="0 0 102 102" enable-background="new 0 0 102 102" xml:space="preserve">
<g>
	<path fill-rule="evenodd" clip-rule="evenodd" d="M66.538,50.721c0,11.087,0.002,22.173-0.004,33.259
		c0,0.524-0.039,1.054-0.118,1.571c-0.196,1.277-0.881,2.233-2.104,2.67c-1.28,0.455-2.471,0.23-3.524-0.703
		c-2.018-1.786-4.067-3.536-6.095-5.311c-4.433-3.876-8.86-7.759-13.288-11.642c-1.66-1.455-3.275-2.968-4.998-4.346
		c-0.553-0.442-1.382-0.743-2.09-0.755c-4.382-0.073-8.766-0.061-13.148-0.044c-2.281,0.01-4.465-2.014-4.481-4.421
		c-0.046-6.701-0.038-13.4,0.012-20.102c0.015-1.9,1.649-4.18,4.057-4.245c3.364-0.092,6.732-0.107,10.098-0.123
		c5.579-0.023,4.115,0.625,8.718-3.412c4.661-4.087,9.289-8.213,13.947-12.304c2.369-2.081,4.773-4.122,7.16-6.184
		c1.979-1.712,4.266-1.369,5.566,0.892c0.226,0.392,0.25,0.939,0.25,1.414c0.014,11.263,0.011,22.524,0.011,33.784
		C66.517,50.721,66.527,50.721,66.538,50.721z"/>
	<path fill-rule="evenodd" clip-rule="evenodd" d="M85.343,51.16c-0.271,6.143-2.295,11.554-6.619,16.026
		c-1.707,1.764-4.555,1.137-5.123-1.254c-0.156-0.658,0.236-1.568,0.627-2.209c0.65-1.064,1.541-1.979,2.266-3.001
		c2.625-3.697,3.478-7.868,2.846-12.273c-0.476-3.333-1.841-6.367-4.14-8.913c-0.397-0.44-0.787-0.896-1.121-1.385
		c-0.811-1.186-0.728-2.265,0.208-3.337c0.943-1.08,2.259-1.472,3.375-0.662c1.136,0.825,2.178,1.864,3.025,2.988
		C83.803,41.273,85.219,46.008,85.343,51.16z"/>
</g>
</svg>
