<?xml version="1.0" encoding="utf-8"?>
<!-- Generator: Adobe Illustrator 16.0.0, SVG Export Plug-In . SVG Version: 6.00 Build 0)  -->
<!DOCTYPE svg PUBLIC "-//W3C//DTD SVG 1.1//EN" "http://www.w3.org/Graphics/SVG/1.1/DTD/svg11.dtd">
<svg version="1.1" id="Layer_1" xmlns="http://www.w3.org/2000/svg" xmlns:xlink="http://www.w3.org/1999/xlink" x="0px" y="0px"
	 width="102px" height="102px" viewBox="0 0 102 102" enable-background="new 0 0 102 102" xml:space="preserve">
<g>
	<path fill-rule="evenodd" clip-rule="evenodd" d="M60.656,50.547c0,10.387,0.013,20.772-0.013,31.159
		c-0.005,2.015-0.243,3.97-1.852,5.504c-2.346,2.241-5.632,2.494-8.09,0.4c-4.214-3.59-8.337-7.288-12.5-10.938
		c-3.217-2.818-6.413-5.663-9.679-8.424c-0.529-0.447-1.371-0.72-2.075-0.737c-3.892-0.091-7.792,0.031-11.681-0.132
		c-3.204-0.132-6.432-2.753-6.498-6.147c-0.132-6.769-0.145-13.543-0.053-20.313c0.049-3.575,3.451-6.246,6.476-6.275
		c3.858-0.038,7.719-0.079,11.577-0.061c0.982,0.005,1.745-0.284,2.47-0.925c4.411-3.9,8.842-7.777,13.268-11.658
		c2.767-2.427,5.592-4.788,8.289-7.289c3.485-3.231,8.431-1.745,10.04,2.393c0.186,0.475,0.224,1.03,0.229,1.549
		c0.029,4.034,0.041,8.07,0.045,12.104c0.005,6.598,0.001,13.194,0.001,19.792C60.625,50.547,60.639,50.547,60.656,50.547z
		 M54.788,50.98c-0.006,0-0.013,0-0.02,0c0-6.351-0.001-12.7,0.001-19.05c0.002-3.893,0.02-7.787-0.004-11.68
		c-0.002-0.37-0.254-0.74-0.391-1.11c-0.323,0.173-0.689,0.296-0.966,0.527c-1.151,0.969-2.28,1.966-3.411,2.959
		c-5.873,5.155-11.737,10.317-17.618,15.46c-1.17,1.023-2.203,2.223-4.026,2.19c-4.066-0.072-8.137-0.015-12.205-0.016
		c-1.621,0-2.278,0.542-2.291,2.176c-0.044,5.647-0.057,11.295-0.029,16.944c0.01,1.792,0.527,2.235,2.303,2.246
		c3.227,0.018,6.463,0.163,9.678-0.027c2.638-0.156,4.939,0.172,6.671,2.363c0.106,0.134,0.27,0.223,0.401,0.337
		c6.826,5.98,13.65,11.965,20.485,17.936c0.296,0.259,0.689,0.403,1.037,0.601c0.129-0.411,0.367-0.821,0.368-1.232
		C54.792,71.396,54.788,61.188,54.788,50.98z"/>
	<path fill-rule="evenodd" clip-rule="evenodd" d="M93.843,51.982c-0.081,5.98-1.792,11.507-4.481,16.748
		c-1.621,3.162-3.808,5.955-6.283,8.508c-1.486,1.531-3.078,1.637-4.422,0.325c-1.156-1.128-0.953-3.006,0.339-4.43
		c1.171-1.289,2.283-2.641,3.302-4.054c3.119-4.322,4.861-9.166,5.474-14.468c0.601-5.203-0.104-10.2-1.927-15.07
		c-1.52-4.057-3.801-7.633-6.81-10.756c-1.575-1.633-1.617-3.252-0.204-4.584c0.92-0.866,2.844-0.903,3.756,0.004
		c3.057,3.043,5.515,6.514,7.449,10.373c1.555,3.1,2.559,6.394,3.182,9.765C93.679,46.842,93.652,49.434,93.843,51.982z"/>
	<path fill-rule="evenodd" clip-rule="evenodd" d="M79.348,50.49c-0.193,6.717-2.219,12.245-6.73,16.725
		c-1.781,1.769-4.172,1.187-4.927-1.107c-0.408-1.243,0.234-2.141,0.934-3.061c0.991-1.303,2.084-2.563,2.841-3.998
		c2.063-3.916,2.688-8.021,1.507-12.403c-0.817-3.037-2.329-5.589-4.413-7.874c-1.301-1.427-1.27-3.24,0.042-4.377
		c1.168-1.018,3.281-0.642,4.413,0.682c1.719,2.004,3.318,4.08,4.27,6.568c0.536,1.401,1.083,2.82,1.408,4.278
		C79.056,47.559,79.178,49.247,79.348,50.49z"/>
</g>
</svg>
