<?xml version="1.0" encoding="utf-8"?>
<!-- Generator: Adobe Illustrator 16.0.0, SVG Export Plug-In . SVG Version: 6.00 Build 0)  -->
<!DOCTYPE svg PUBLIC "-//W3C//DTD SVG 1.1//EN" "http://www.w3.org/Graphics/SVG/1.1/DTD/svg11.dtd">
<svg version="1.1" id="Layer_1" xmlns="http://www.w3.org/2000/svg" xmlns:xlink="http://www.w3.org/1999/xlink" x="0px" y="0px"
	 width="102px" height="102px" viewBox="0 0 102 102" enable-background="new 0 0 102 102" xml:space="preserve">
<g>
	<path fill-rule="evenodd" clip-rule="evenodd" d="M53.325,50.598c-0.001,10.279,0.007,20.56-0.013,30.838
		c-0.002,1.012-0.11,2.029-0.262,3.03c-0.384,2.543-2.215,3.735-4.361,4.393c-1.902,0.583-3.636-0.025-5.125-1.416
		c-1.521-1.417-3.122-2.745-4.673-4.13c-2.38-2.123-4.749-4.264-7.121-6.396c-3.277-2.942-6.527-5.919-9.86-8.793
		c-0.537-0.462-1.455-0.638-2.199-0.649c-3.34-0.057-6.68,0.009-10.021-0.002c-2.277-0.005-4.445-0.486-5.931-2.396
		c-0.744-0.957-1.291-2.132-1.688-3.294c-0.281-0.83-0.21-1.801-0.214-2.711C1.83,53.635,1.83,48.197,1.813,42.76
		c-0.007-2.463,0.427-4.733,2.415-6.434c1.057-0.902,2.189-1.619,3.592-1.652c3.408-0.076,6.817-0.202,10.223-0.102
		c2.015,0.058,3.597-0.445,5.129-1.854c5.9-5.427,11.902-10.733,17.871-16.084c0.876-0.786,1.738-1.594,2.658-2.326
		c3.183-2.542,7.521-1.473,9.146,2.255c0.217,0.5,0.345,1.078,0.361,1.622c0.07,2.314,0.108,4.629,0.112,6.944
		C53.332,33.619,53.326,42.108,53.325,50.598z M47.676,51.007c0.011,0,0.02,0,0.028,0c0-8.632-0.002-17.261,0.002-25.894
		c0.001-1.683,0.046-3.363,0.031-5.047c-0.004-0.316-0.135-0.701-0.342-0.917c-0.098-0.101-0.591,0.036-0.786,0.208
		c-3.479,3.078-6.943,6.173-10.404,9.271c-4.006,3.587-7.986,7.205-12.035,10.742c-0.543,0.476-1.415,0.767-2.144,0.781
		c-3.992,0.09-7.988,0.044-11.981,0.086c-2.223,0.025-2.641,0.495-2.637,2.752c0.005,4.384,0.016,8.77,0.024,13.154
		c0.004,1.193-0.064,2.392,0.025,3.576c0.121,1.59,0.432,1.854,2.01,1.864c4.167,0.03,8.333,0.012,12.499,0.067
		c0.571,0.01,1.242,0.204,1.687,0.552c1.522,1.195,2.985,2.472,4.434,3.76c4.355,3.874,8.69,7.771,13.038,11.65
		c1.837,1.638,3.67,3.277,5.54,4.872c0.669,0.569,1.054,0.358,1.085-0.539c0.023-0.664-0.068-1.332-0.07-1.996
		C47.675,70.303,47.676,60.654,47.676,51.007z"/>
	<path fill-rule="evenodd" clip-rule="evenodd" d="M100.186,50.82c0.04,4.697-0.604,9.327-1.813,13.825
		c-2.095,7.775-5.8,14.726-10.985,20.835c-0.65,0.768-1.373,1.478-2.094,2.18c-1.3,1.264-3.033,1.323-4.167,0.173
		c-1.062-1.076-0.946-2.835,0.161-4.194c1.973-2.424,4.028-4.796,5.799-7.369c2.093-3.045,3.615-6.425,4.849-9.938
		c2.447-6.98,2.974-14.187,2.168-21.467c-0.506-4.564-1.871-8.948-3.751-13.161c-2.262-5.075-5.378-9.516-9.144-13.52
		c-1.248-1.328-1.184-3.011,0.092-4.332c0.856-0.887,2.863-0.724,3.933,0.355c2.673,2.7,4.95,5.702,6.984,8.938
		c2.549,4.055,4.425,8.396,5.799,12.968C99.453,40.898,100.142,45.815,100.186,50.82z"/>
	<path fill-rule="evenodd" clip-rule="evenodd" d="M85.91,50.368c-0.005,6.077-1.118,11.043-3.165,15.839
		c-1.711,4.009-4.06,7.548-7.021,10.683c-0.377,0.4-0.828,0.742-1.282,1.055c-1.192,0.818-2.523,0.622-3.514-0.48
		c-0.759-0.843-0.734-2.817-0.01-3.734c1.546-1.958,3.17-3.868,4.565-5.936c1.759-2.61,2.897-5.534,3.711-8.604
		c1.241-4.696,1.277-9.445,0.533-14.18c-0.338-2.152-1.104-4.264-1.895-6.307c-1.516-3.926-3.905-7.297-6.729-10.363
		c-1.009-1.096-0.979-3.038-0.017-4.024c1.011-1.035,2.819-1.105,3.926-0.034c2.715,2.632,4.982,5.648,6.593,9.085
		c1.224,2.61,2.278,5.33,3.106,8.097C85.656,44.614,86.114,47.889,85.91,50.368z"/>
	<path fill-rule="evenodd" clip-rule="evenodd" d="M71.629,49.151c0.283,7.537-1.956,13.23-6.433,18.039
		c-1.234,1.326-2.857,1.365-4.146,0.183c-1.014-0.927-1.038-2.913,0.055-4.085c2.858-3.065,4.492-6.704,4.861-10.886
		c0.455-5.173-1.228-9.635-4.603-13.485c-0.42-0.479-0.774-1.077-0.969-1.686c-0.352-1.101,0.119-2.421,0.899-2.915
		c1.291-0.821,2.642-0.795,3.622,0.155c2.22,2.154,3.918,4.658,5.034,7.594C70.929,44.64,71.687,47.236,71.629,49.151z"/>
</g>
</svg>
