<?xml version="1.0" encoding="utf-8"?>
<!-- Generator: Adobe Illustrator 16.0.0, SVG Export Plug-In . SVG Version: 6.00 Build 0)  -->
<!DOCTYPE svg PUBLIC "-//W3C//DTD SVG 1.1//EN" "http://www.w3.org/Graphics/SVG/1.1/DTD/svg11.dtd">
<svg version="1.1" id="Layer_1" xmlns="http://www.w3.org/2000/svg" xmlns:xlink="http://www.w3.org/1999/xlink" x="0px" y="0px"
	 width="102px" height="102px" viewBox="0 0 102 102" enable-background="new 0 0 102 102" xml:space="preserve">
<g>
	<path fill-rule="evenodd" clip-rule="evenodd" d="M52.003,51.049c0,10.596,0.004,21.19-0.006,31.786
		c0,0.874-0.146,1.754-0.105,2.625c0.076,1.53-0.984,2.186-2.082,2.733c-0.994,0.494-2.074,0.454-2.977-0.284
		c-1.574-1.284-3.125-2.595-4.656-3.931c-3.166-2.767-6.314-5.553-9.463-8.338c-3.02-2.668-6.033-5.347-9.051-8.02
		c-0.654-0.581-1.277-1.209-1.986-1.714c-0.367-0.262-0.889-0.425-1.344-0.428c-4.594-0.043-9.189-0.025-13.785-0.061
		c-2.434-0.02-4.297-1.936-4.322-4.645c-0.057-6.383-0.031-12.769,0.025-19.152c0.01-1.245,0.205-2.479,1.104-3.535
		c1.02-1.201,2.357-1.514,3.762-1.531c4.314-0.052,8.629,0.012,12.945-0.028c0.576-0.005,1.275-0.205,1.703-0.569
		c3.072-2.607,6.092-5.28,9.127-7.933c3.563-3.111,7.123-6.223,10.684-9.336c1.527-1.337,3.031-2.707,4.588-4.011
		c2.205-1.844,3.67-1.264,5.246,0.308c0.322,0.322,0.461,0.949,0.477,1.441c0.08,2.278,0.109,4.559,0.111,6.837
		C52.009,32.526,52.003,41.789,52.003,51.049z"/>
	<path fill-rule="evenodd" clip-rule="evenodd" d="M99.806,51.58c0.039,4.223-0.682,8.697-1.818,13.076
		c-1.012,3.894-2.539,7.617-4.484,11.171c-2.236,4.085-4.953,7.804-8.107,11.203c-0.707,0.759-1.406,1.686-2.678,1.654
		c-1.336-0.032-2.424-0.407-2.9-1.79c-0.426-1.225-0.041-2.246,0.762-3.193c1.699-2.003,3.506-3.932,5.025-6.065
		c2.484-3.486,4.563-7.235,5.77-11.371c0.881-3.02,1.814-6.071,2.219-9.177c0.74-5.697,0.572-11.428-0.85-17.037
		c-1.871-7.387-5.328-13.975-10.311-19.75c-0.574-0.662-1.148-1.323-1.764-1.946c-1.307-1.325-1.4-3.107-0.193-4.288
		c1.115-1.092,3.031-0.994,4.26,0.288c4.096,4.278,7.52,9.031,10.08,14.39C97.987,35.385,99.868,43.829,99.806,51.58z"/>
	<path fill-rule="evenodd" clip-rule="evenodd" d="M85.294,51.457c-0.051,4.355-0.865,8.543-2.371,12.638
		c-1.818,4.948-4.578,9.269-8.158,13.101c-1.188,1.268-2.582,1.614-3.871,0.92c-1.629-0.874-1.918-3.011-0.691-4.496
		c1.449-1.754,2.941-3.488,4.205-5.371c3.898-5.794,5.361-12.254,5.006-19.186c-0.305-5.939-2.227-11.325-5.553-16.205
		c-1.043-1.527-2.318-2.901-3.547-4.293c-0.996-1.13-1.15-3.133-0.221-4.125c1.146-1.227,2.783-1.26,4.113-0.016
		c2.479,2.315,4.414,5.034,6.113,7.969C83.743,38.305,85.308,44.668,85.294,51.457z"/>
	<path fill-rule="evenodd" clip-rule="evenodd" d="M71.04,50.944c-0.441,2.464-0.605,5.02-1.389,7.37
		c-1.154,3.466-2.943,6.671-5.727,9.171c-1.227,1.102-3.008,0.988-4.076-0.167c-0.947-1.022-0.873-2.919,0.182-4.01
		c5.535-5.731,6.496-14.016,2.855-20.69c-0.762-1.398-1.857-2.626-2.879-3.866c-1.014-1.229-1.117-3.178-0.111-4.126
		c1.314-1.24,2.844-1.211,4.207,0.116c2.188,2.13,3.752,4.668,4.967,7.458c1.211,2.782,1.674,5.687,1.688,8.689
		C70.851,50.907,70.946,50.927,71.04,50.944z"/>
</g>
</svg>
