<?xml version="1.0" encoding="utf-8"?>
<!-- Generator: Adobe Illustrator 16.0.0, SVG Export Plug-In . SVG Version: 6.00 Build 0)  -->
<!DOCTYPE svg PUBLIC "-//W3C//DTD SVG 1.1//EN" "http://www.w3.org/Graphics/SVG/1.1/DTD/svg11.dtd">
<svg version="1.1" id="Layer_1" xmlns="http://www.w3.org/2000/svg" xmlns:xlink="http://www.w3.org/1999/xlink" x="0px" y="0px"
	 width="102px" height="102px" viewBox="0 0 102 102" enable-background="new 0 0 102 102" xml:space="preserve">
<g>
	<path fill-rule="evenodd" clip-rule="evenodd" d="M59.314,50.798c0,11.123,0.002,22.244-0.002,33.365
		c-0.001,1.433-0.105,2.805-1.561,3.652c-1.586,0.926-2.836,0.862-4.231-0.355c-3.694-3.226-7.389-6.449-11.074-9.684
		c-4.264-3.741-8.523-7.487-12.773-11.246c-0.883-0.782-1.808-1.089-3.044-1.072c-4.452,0.06-8.907-0.035-13.359-0.118
		c-1.45-0.026-3.207-1.495-3.456-2.941c-0.22-1.268-0.309-2.574-0.313-3.863C9.48,52.712,9.554,46.888,9.495,41.066
		c-0.021-2.143,1.993-4.447,4.178-4.436c4.313,0.021,8.624-0.1,12.937-0.075c1.291,0.007,2.306-0.417,3.238-1.237
		c5.71-5.024,11.426-10.043,17.146-15.058c2.186-1.917,4.417-3.781,6.574-5.729c1.17-1.056,2.49-1.249,3.798-0.629
		c1.208,0.572,1.939,1.627,1.938,3.112c-0.021,11.26-0.011,22.523-0.011,33.783C59.299,50.798,59.308,50.798,59.314,50.798z"/>
	<path fill-rule="evenodd" clip-rule="evenodd" d="M92.505,50.615c-0.179,9.746-2.923,17.479-8.505,24.16
		c-0.851,1.017-1.742,2.019-2.726,2.9c-1.276,1.145-3.016,0.947-4.104-0.329c-0.908-1.064-0.758-2.837,0.362-3.919
		c2.962-2.861,5.21-6.256,6.748-10.022c2.364-5.783,3.148-11.813,1.987-18.034c-0.922-4.938-2.795-9.452-5.847-13.449
		c-0.911-1.19-1.824-2.417-2.933-3.41c-1.114-0.999-1.143-3.148-0.088-4.181c1.095-1.072,3.087-1.1,4.176,0.138
		c1.8,2.048,3.633,4.104,5.123,6.374c2.794,4.258,4.557,8.988,5.353,14.021C92.407,47.104,92.417,49.401,92.505,50.615z"/>
	<path fill-rule="evenodd" clip-rule="evenodd" d="M78.05,49.84c-0.048,5.775-1.21,10.084-3.792,13.948
		c-0.772,1.157-1.695,2.223-2.621,3.267c-1.079,1.216-2.761,1.482-4.02,0.734c-0.979-0.583-1.502-1.996-1.141-3.241
		c0.103-0.353,0.315-0.705,0.563-0.979c1.753-1.937,3.319-4.019,4.191-6.491c1.033-2.935,1.423-5.951,0.82-9.082
		c-0.689-3.591-2.388-6.596-4.784-9.302c-1.643-1.854-1.118-3.876,1.124-4.785c1.235-0.501,2.307,0.014,3.013,0.894
		c1.484,1.847,2.955,3.74,4.137,5.786C77.378,43.775,77.961,47.343,78.05,49.84z"/>
</g>
</svg>
