<?xml version="1.0" encoding="utf-8"?>
<!-- Generator: Adobe Illustrator 16.0.0, SVG Export Plug-In . SVG Version: 6.00 Build 0)  -->
<!DOCTYPE svg PUBLIC "-//W3C//DTD SVG 1.1//EN" "http://www.w3.org/Graphics/SVG/1.1/DTD/svg11.dtd">
<svg version="1.1" id="Layer_1" xmlns="http://www.w3.org/2000/svg" xmlns:xlink="http://www.w3.org/1999/xlink" x="0px" y="0px"
	 width="102px" height="102px" viewBox="0 0 102 102" enable-background="new 0 0 102 102" xml:space="preserve">
<g>
	<path fill-rule="evenodd" clip-rule="evenodd" d="M56.402,50.803c0,11.017-0.002,22.036,0.002,33.054
		c0,1.367-0.256,2.584-1.504,3.431c-1.994,1.352-2.967,0.729-4.656-0.639c-2.818-2.28-5.445-4.801-8.168-7.203
		c-4.645-4.097-9.328-8.153-13.939-12.286c-1.512-1.354-3.043-2.113-5.189-1.997c-3.662,0.198-7.344,0.056-11.016,0.046
		c-2.871-0.009-4.793-1.979-4.791-4.857c0.004-6.168,0-12.334-0.012-18.502c-0.004-3.171,1.889-5.146,5.068-5.16
		c3.949-0.018,7.898,0.004,11.848,0.047c1.371,0.015,2.402-0.514,3.42-1.431c3.572-3.221,7.238-6.335,10.852-9.507
		c3.537-3.104,7.055-6.23,10.584-9.341c0.65-0.57,1.324-1.113,1.988-1.666c0.99-0.822,2.143-1.064,3.309-0.594
		c1.264,0.512,2.072,1.524,2.15,2.929c0.082,1.483,0.051,2.978,0.053,4.466C56.404,31.329,56.402,41.065,56.402,50.803z"/>
	<path fill-rule="evenodd" clip-rule="evenodd" d="M67.467,66.006c-1.121,0.033-2.09-0.291-2.496-1.521
		c-0.422-1.269-0.363-2.438,0.662-3.451c3.051-3.02,6.064-6.075,9.143-9.066c0.729-0.71,0.709-1.267,0.053-1.921
		c-2.006-2.007-4.023-4.003-6.023-6.016c-1.172-1.176-2.359-2.34-3.467-3.574c-0.998-1.11-0.863-2.874,0.191-3.848
		c1.006-0.93,2.871-0.927,3.881,0.068c3.076,3.042,6.139,6.102,9.193,9.168c1.037,1.04,1.182,1.048,2.215,0.014
		c3.031-3.03,6.068-6.055,9.115-9.071c0.879-0.869,2.607-1.117,3.563-0.559c1.008,0.588,1.67,1.925,1.242,3.142
		c-0.291,0.833-0.939,1.597-1.576,2.245c-2.768,2.813-5.592,5.565-8.385,8.35c-0.971,0.966-0.957,1.118,0.023,2.093
		c3.043,3.022,6.09,6.044,9.135,9.067c1.055,1.049,1.205,2.846,0.33,3.872c-1.084,1.271-2.756,1.499-4.033,0.338
		c-1.992-1.816-3.871-3.759-5.787-5.659c-1.277-1.266-2.545-2.541-3.797-3.832c-0.627-0.648-1.217-0.561-1.795,0.019
		c-2.764,2.767-5.492,5.568-8.289,8.298C69.711,64.992,69.02,66.209,67.467,66.006z"/>
</g>
</svg>
