<?xml version="1.0" encoding="utf-8"?>
<!-- Generator: Adobe Illustrator 16.0.0, SVG Export Plug-In . SVG Version: 6.00 Build 0)  -->
<!DOCTYPE svg PUBLIC "-//W3C//DTD SVG 1.1//EN" "http://www.w3.org/Graphics/SVG/1.1/DTD/svg11.dtd">
<svg version="1.1" id="Layer_1" xmlns="http://www.w3.org/2000/svg" xmlns:xlink="http://www.w3.org/1999/xlink" x="0px" y="0px"
	 width="102px" height="102px" viewBox="0 0 102 102" enable-background="new 0 0 102 102" xml:space="preserve">
<g>
	<path fill-rule="evenodd" clip-rule="evenodd" d="M57.804,50.867c0,10.665-0.01,21.329,0.008,31.994
		c0.004,2.364-1.096,4.133-3.02,5.292c-2.492,1.5-4.945,1.072-7.096-0.792c-5.93-5.147-11.822-10.332-17.725-15.508
		c-1.238-1.085-2.471-2.178-3.684-3.292c-0.922-0.846-1.914-1.209-3.229-1.169c-3.609,0.115-7.23,0.154-10.836,0.021
		c-4.281-0.157-7.004-3.91-6.939-7.522c0.107-5.855,0.063-11.717-0.002-17.574c-0.018-1.645,0.289-3.226,1.146-4.516
		c1.4-2.103,3.465-3.283,6.102-3.271c3.611,0.017,7.225,0.057,10.836-0.038c0.844-0.021,1.852-0.332,2.48-0.868
		c4.402-3.744,8.723-7.587,13.072-11.391c2.953-2.584,5.904-5.173,8.875-7.739c2.719-2.352,6.645-2.007,8.816,0.865
		c0.582,0.771,0.947,1.817,1.088,2.786c0.195,1.342,0.102,2.729,0.104,4.096C57.808,31.782,57.804,41.326,57.804,50.867z
		 M51.931,50.554c0.002,0,0.004,0,0.008,0c0-8.069-0.004-16.141,0.004-24.212c0.002-1.929,0.066-3.855,0.047-5.782
		c-0.002-0.408-0.25-0.813-0.387-1.217c-0.428,0.153-0.949,0.2-1.27,0.478c-4.461,3.899-8.895,7.832-13.334,11.753
		c-2.654,2.341-5.309,4.682-7.969,7.017c-1.094,0.959-2.221,1.761-3.816,1.725c-3.998-0.085-7.996-0.108-11.994-0.089
		c-1.699,0.007-2.096,0.441-2.098,2.177c-0.004,5.789,0.02,11.577,0.059,17.366c0.012,1.513,0.301,1.808,1.793,1.818
		c3.824,0.025,7.654,0.108,11.473-0.041c1.811-0.07,3.199,0.47,4.467,1.65c1.309,1.217,2.648,2.401,3.992,3.582
		c4.656,4.094,9.322,8.181,13.984,12.27c1.213,1.063,2.41,2.141,3.656,3.161c0.291,0.238,0.748,0.274,1.129,0.405
		c0.123-0.408,0.326-0.81,0.346-1.222c0.035-0.662-0.086-1.328-0.086-1.993C51.929,69.784,51.931,60.17,51.931,50.554z"/>
	<path fill-rule="evenodd" clip-rule="evenodd" d="M93.536,66.359c-0.527-0.293-1.146-0.49-1.564-0.895
		c-3.168-3.081-6.299-6.198-9.432-9.315c-1.016-1.011-1.234-1.028-2.287,0.027c-2.803,2.802-5.58,5.628-8.416,8.396
		c-0.631,0.616-1.396,1.203-2.215,1.496c-1.252,0.453-2.459-0.118-3.08-1.179c-0.68-1.159-0.547-2.519,0.416-3.489
		c3.084-3.114,6.184-6.209,9.283-9.304c1.035-1.031,1.055-1.178,0.064-2.17c-3.045-3.056-6.094-6.106-9.137-9.163
		c-1.197-1.201-1.322-3.088-0.285-4.176c1.285-1.351,2.824-1.39,4.254,0.014c3.076,3.017,6.121,6.071,9.156,9.132
		c1.117,1.128,1.203,1.135,2.311,0.016c3.082-3.115,6.178-6.216,9.281-9.308c1.057-1.054,2.967-1.026,4,0.015
		c1.172,1.184,1.096,3.11-0.154,4.343c-3.07,3.025-6.137,6.057-9.197,9.094c-0.982,0.977-0.973,1.092,0.037,2.108
		c3.016,3.034,5.996,6.105,9.066,9.083c1.15,1.111,1.197,2.396,0.795,3.667C96.038,65.986,94.81,66.166,93.536,66.359z"/>
</g>
</svg>
