<?xml version="1.0" encoding="utf-8"?>
<!-- Generator: Adobe Illustrator 16.0.0, SVG Export Plug-In . SVG Version: 6.00 Build 0)  -->
<!DOCTYPE svg PUBLIC "-//W3C//DTD SVG 1.1//EN" "http://www.w3.org/Graphics/SVG/1.1/DTD/svg11.dtd">
<svg version="1.1" id="Layer_1" xmlns="http://www.w3.org/2000/svg" xmlns:xlink="http://www.w3.org/1999/xlink" x="0px" y="0px"
	 width="102px" height="102px" viewBox="0 0 102 102" enable-background="new 0 0 102 102" xml:space="preserve">
<g>
	<path fill="#161616" d="M54.525,27.74c0-1.926-1.559-3.488-3.484-3.488s-3.488,1.563-3.488,3.488v13.431
		c-4.07,1.435-6.977,5.314-6.977,9.865c0,5.782,4.684,10.465,10.465,10.465c1.607,0,3.131-0.363,4.492-1.008l7.023,7.022
		c1.361,1.363,3.568,1.363,4.932,0c1.363-1.362,1.363-3.57,0-4.933l-7.014-7.018c0.664-1.367,1.027-2.902,1.027-4.529
		c0-4.551-2.906-8.43-6.977-9.865V27.74z M54.525,51.036c0,0.972-0.391,1.844-1.027,2.476c-0.631,0.627-1.498,1.013-2.457,1.013
		c-1.926,0-3.488-1.563-3.488-3.489c0-1.926,1.563-3.488,3.488-3.488S54.525,49.11,54.525,51.036z"/>
	<path fill="#161616" d="M51,1C23.389,1,1,23.384,1,51s22.389,50,50,50c27.617,0,50-22.384,50-50S78.617,1,51,1z M7.977,51
		C7.977,27.24,27.24,7.977,51,7.977S94.023,27.24,94.023,51S74.76,94.023,51,94.023S7.977,74.76,7.977,51z"/>
</g>
</svg>
