<?xml version="1.0" encoding="utf-8"?>
<!-- Generator: Adobe Illustrator 16.0.0, SVG Export Plug-In . SVG Version: 6.00 Build 0)  -->
<!DOCTYPE svg PUBLIC "-//W3C//DTD SVG 1.1//EN" "http://www.w3.org/Graphics/SVG/1.1/DTD/svg11.dtd">
<svg version="1.1" id="Layer_1" xmlns="http://www.w3.org/2000/svg" xmlns:xlink="http://www.w3.org/1999/xlink" x="0px" y="0px"
	 width="102px" height="102px" viewBox="0 0 102 102" enable-background="new 0 0 102 102" xml:space="preserve">
<g>
	<g>
		<path fill="#161616" d="M51,101C23.43,101,1,78.57,1,51S23.43,1,51,1s50,22.43,50,50S78.57,101,51,101z M51,3.898
			C25.029,3.898,3.898,25.028,3.898,51S25.029,98.102,51,98.102S98.102,76.972,98.102,51S76.971,3.898,51,3.898z"/>
	</g>
	<g>
		<path fill="#161616" d="M66.427,35.706c-3.563-3.712-9.375-3.712-12.941,0l-1.475,1.534c-0.595,0.617-0.572,1.598,0.045,2.191
			c0.614,0.593,1.597,0.573,2.188-0.044l1.479-1.534c2.344-2.441,6.125-2.441,8.472,0c2.381,2.479,2.381,6.522,0,8.999l-6.691,6.965
			c-0.374,0.388-0.776,0.71-1.203,0.971c-2.29,1.405-5.29,1.095-7.272-0.971c-0.322-0.335-0.6-0.701-0.837-1.085
			c-0.444-0.73-1.398-0.959-2.129-0.514s-0.963,1.397-0.517,2.128c0.353,0.575,0.766,1.117,1.25,1.618
			c3.003,3.126,7.611,3.627,11.127,1.465c0.651-0.4,1.263-0.887,1.814-1.465l6.691-6.965C69.962,45.32,69.962,39.383,66.427,35.706z
			"/>
	</g>
	<g>
		<path fill="#161616" d="M55.208,46.037c-3.566-3.712-9.374-3.712-12.94,0l-6.697,6.965c-3.532,3.678-3.532,9.615,0,13.292
			c3.569,3.712,9.381,3.712,12.947,0l1.472-1.534c0.595-0.617,0.572-1.598-0.045-2.191c-0.614-0.593-1.597-0.573-2.188,0.042
			l-1.475,1.536c-2.35,2.441-6.125,2.441-8.475,0c-2.381-2.479-2.381-6.522,0-8.999l6.691-6.965c2.35-2.441,6.128-2.441,8.475,0
			c0.323,0.335,0.601,0.701,0.835,1.085c0.45,0.73,1.4,0.959,2.132,0.514c0.73-0.446,0.959-1.399,0.515-2.13
			C56.104,47.08,55.69,46.538,55.208,46.037z"/>
	</g>
</g>
</svg>
