<?xml version="1.0" encoding="utf-8"?>
<!-- Generator: Adobe Illustrator 16.0.0, SVG Export Plug-In . SVG Version: 6.00 Build 0)  -->
<!DOCTYPE svg PUBLIC "-//W3C//DTD SVG 1.1//EN" "http://www.w3.org/Graphics/SVG/1.1/DTD/svg11.dtd">
<svg version="1.1" id="Layer_1" xmlns="http://www.w3.org/2000/svg" xmlns:xlink="http://www.w3.org/1999/xlink" x="0px" y="0px"
	 width="102px" height="102px" viewBox="0 0 102 102" enable-background="new 0 0 102 102" xml:space="preserve">
<g>
	<path fill="#161616" d="M70.5,54.307c-0.541-1.299-1.813-2.144-3.221-2.144s-2.68,0.845-3.221,2.144L52.432,82.214
		c-0.74,1.78,0.1,3.824,1.875,4.564c1.781,0.74,3.824-0.1,4.564-1.876l2.984-7.158h10.848l2.984,7.158
		c0.74,1.776,2.783,2.616,4.564,1.876c1.775-0.74,2.615-2.784,1.875-4.564L70.5,54.307z M67.279,64.722l2.516,6.046h-5.031
		L67.279,64.722z"/>
	<path fill="#161616" d="M33.096,14.953c1.926,0,3.488,1.563,3.488,3.488v1H51c1.926,0,3.488,1.563,3.488,3.488
		c0,1.931-1.563,3.488-3.488,3.488h-5.596c-1.717,4.797-4.383,9.284-7.363,13.313l4.193,4.361c1.336,1.385,1.295,3.597-0.096,4.933
		c-1.385,1.335-3.594,1.294-4.928-0.096l-3.598-3.743c-2.799,3.171-5.678,5.996-8.275,8.386c-1.418,1.299-3.625,1.208-4.93-0.209
		c-1.303-1.418-1.213-3.625,0.205-4.934c2.658-2.438,5.561-5.305,8.313-8.479c-0.582-0.75-1.168-1.526-1.717-2.285
		c-1.09-1.517-2.217-3.197-2.789-4.429c-0.813-1.748-0.055-3.819,1.689-4.638c1.744-0.813,3.82-0.054,4.633,1.69
		c0.264,0.563,1.027,1.771,2.125,3.297c0.17,0.228,0.338,0.459,0.51,0.69c1.771-2.534,3.324-5.169,4.516-7.857H18.441
		c-1.926,0-3.488-1.558-3.488-3.488c0-1.926,1.563-3.488,3.488-3.488h11.166v-1C29.607,16.516,31.17,14.953,33.096,14.953z"/>
	<path fill="#161616" d="M39.145,1H39.6c7.453,0,13.354,0,18.027,0.554c4.793,0.563,8.744,1.754,12.041,4.461
		c1.117,0.917,2.145,1.944,3.063,3.062c3.279,3.997,4.359,9.012,4.76,15.434c6.422,0.4,11.438,1.481,15.434,4.761
		c1.117,0.917,2.145,1.944,3.063,3.062c2.707,3.297,3.896,7.249,4.459,12.041C101,49.047,101,54.947,101,62.4v0.455
		c0,7.448,0,13.354-0.555,18.027c-0.563,4.792-1.752,8.744-4.459,12.041c-0.918,1.117-1.945,2.145-3.063,3.062
		c-3.297,2.707-7.248,3.897-12.041,4.461C76.209,101,70.309,101,62.855,101H62.4c-7.449,0-13.354,0-18.027-0.554
		c-4.791-0.563-8.744-1.754-12.041-4.461c-1.117-0.917-2.145-1.944-3.061-3.062c-3.279-3.997-4.361-9.012-4.762-15.434
		c-6.422-0.4-11.436-1.481-15.434-4.761c-1.117-0.917-2.145-1.944-3.061-3.062c-2.707-3.297-3.898-7.249-4.461-12.041
		C1,52.953,1,47.053,1,39.6v-0.455c0-7.453,0-13.354,0.555-18.027c0.563-4.792,1.754-8.744,4.461-12.041
		c0.916-1.117,1.943-2.145,3.061-3.062c3.297-2.707,7.25-3.897,12.041-4.461C25.791,1,31.691,1,39.145,1z M31.393,75.546
		c0.316,6.981,1.234,10.465,3.273,12.954c0.627,0.763,1.326,1.463,2.09,2.09c1.854,1.517,4.297,2.443,8.439,2.93
		c4.211,0.499,9.703,0.504,17.434,0.504s13.221-0.005,17.432-0.504c4.143-0.486,6.586-1.413,8.439-2.93
		c0.764-0.627,1.463-1.327,2.09-2.09c1.518-1.854,2.443-4.297,2.93-8.439c0.5-4.211,0.504-9.702,0.504-17.433
		S94.02,49.405,93.52,45.195c-0.486-4.143-1.412-6.586-2.93-8.435c-0.627-0.768-1.326-1.468-2.09-2.095
		c-2.471-2.03-5.941-2.947-12.859-3.27L31.393,75.546z M70.613,26.559c-0.313-7.054-1.227-10.561-3.279-13.054
		c-0.627-0.768-1.326-1.468-2.09-2.095c-1.854-1.517-4.297-2.443-8.439-2.93c-4.211-0.499-9.701-0.504-17.432-0.504
		S26.15,7.981,21.939,8.48c-4.143,0.486-6.586,1.413-8.439,2.93c-0.762,0.627-1.463,1.327-2.09,2.095
		c-1.516,1.849-2.443,4.292-2.93,8.435c-0.494,4.211-0.504,9.702-0.504,17.433s0.01,13.223,0.504,17.433
		c0.486,4.143,1.414,6.586,2.93,8.439c0.627,0.763,1.328,1.463,2.09,2.09c2.49,2.044,5.979,2.957,12.963,3.274L70.613,26.559z"/>
</g>
</svg>
