<?xml version="1.0" encoding="utf-8"?>
<!-- Generator: Adobe Illustrator 16.0.0, SVG Export Plug-In . SVG Version: 6.00 Build 0)  -->
<!DOCTYPE svg PUBLIC "-//W3C//DTD SVG 1.1//EN" "http://www.w3.org/Graphics/SVG/1.1/DTD/svg11.dtd">
<svg version="1.1" id="Layer_1" xmlns="http://www.w3.org/2000/svg" xmlns:xlink="http://www.w3.org/1999/xlink" x="0px" y="0px"
	 width="102px" height="102px" viewBox="0 0 102 102" enable-background="new 0 0 102 102" xml:space="preserve">
<g>
	<path fill="#161616" d="M32.654,61.526c11.225-6.94,25.468-6.94,36.691,0c0.328,0.202,0.75,0.446,1.23,0.729
		c2.18,1.273,5.64,3.303,8.001,5.702c1.482,1.507,2.961,3.561,3.229,6.125c0.289,2.741-0.871,5.277-3.09,7.471
		c-3.666,3.627-8.213,6.682-14.167,6.682H37.451c-5.954,0-10.495-3.055-14.164-6.682c-2.219-2.194-3.383-4.729-3.094-7.471
		c0.269-2.56,1.748-4.618,3.229-6.125c2.361-2.399,5.825-4.429,8.005-5.702C31.908,61.972,32.327,61.728,32.654,61.526z
		 M65.983,66.953c-9.166-5.667-20.801-5.667-29.966,0c-0.552,0.342-1.145,0.69-1.752,1.046c-2.176,1.283-4.596,2.71-6.291,4.433
		c-1.039,1.057-1.381,1.834-1.438,2.319c-0.027,0.304-0.014,1.032,1.238,2.267c3.118,3.083,6.132,4.831,9.676,4.831H64.55
		c3.544,0,6.557-1.748,9.675-4.831c1.252-1.235,1.266-1.963,1.238-2.267c-0.057-0.485-0.391-1.262-1.434-2.319
		c-1.695-1.723-4.111-3.149-6.292-4.433C67.127,67.643,66.534,67.294,65.983,66.953z M20.926,52.074
		c1.754-0.157,3.311,1.137,3.467,2.895c0.156,1.751-1.137,3.307-2.891,3.463c-2.729,0.248-5.469,1.301-7.98,3.233
		c-0.404,0.313-0.826,0.621-1.248,0.931c-1.447,1.063-2.938,2.155-3.998,3.498c-0.627,0.795-0.85,1.395-0.889,1.82
		c-0.024,0.321,0.021,0.89,0.75,1.793c2.109,2.595,3.829,3.63,5.524,3.63c1.765,0,3.194,1.43,3.194,3.191
		c0,1.765-1.43,3.195-3.194,3.195c-4.674,0-8.028-2.979-10.478-5.992C1.587,71.762,0.84,69.6,1.029,67.378
		c0.181-2.124,1.175-3.889,2.238-5.238c1.671-2.11,4.144-3.913,5.594-4.966c0.308-0.223,0.565-0.412,0.761-0.565
		C13.047,53.972,16.933,52.435,20.926,52.074z M81.074,52.074c3.994,0.361,7.879,1.897,11.304,4.534
		c0.195,0.153,0.454,0.342,0.761,0.565c1.45,1.053,3.924,2.856,5.594,4.966c1.064,1.35,2.058,3.114,2.239,5.238
		c0.188,2.222-0.558,4.384-2.155,6.355c-2.449,3.013-5.804,5.992-10.477,5.992c-1.766,0-3.195-1.43-3.195-3.195
		c0-1.761,1.43-3.191,3.195-3.191c1.694,0,3.414-1.036,5.523-3.63c0.729-0.903,0.774-1.472,0.75-1.793
		c-0.038-0.425-0.262-1.025-0.889-1.82c-1.061-1.343-2.55-2.435-3.998-3.498c-0.422-0.311-0.844-0.618-1.248-0.931
		c-2.511-1.933-5.252-2.986-7.979-3.233c-1.755-0.157-3.048-1.712-2.892-3.463C77.765,53.211,79.32,51.917,81.074,52.074z
		 M23.343,22.275c1.761,0,3.188,1.428,3.188,3.191c0,1.761-1.428,3.191-3.188,3.191c-4.115,0-7.45,3.336-7.45,7.448
		s3.335,7.444,7.45,7.444c1.758,0.002,3.188,1.43,3.188,3.191c0,1.763-1.428,3.191-3.188,3.191c-7.638,0-13.832-6.189-13.832-13.827
		C9.511,28.468,15.705,22.275,23.343,22.275z M51,13.766c9.988,0,18.084,8.097,18.084,18.083c0,9.989-8.096,18.083-18.084,18.083
		s-18.084-8.095-18.084-18.083C32.916,21.862,41.012,13.766,51,13.766z M76.529,22.275c7.639,0,13.832,6.192,13.832,13.831
		c0,7.638-6.193,13.827-13.832,13.827c-1.758,0-3.188-1.428-3.188-3.191c0-1.761,1.43-3.191,3.188-3.191
		c4.116,0,7.45-3.333,7.45-7.444s-3.334-7.448-7.45-7.448c-1.758,0-3.188-1.428-3.188-3.191
		C73.342,23.704,74.771,22.275,76.529,22.275z M51,20.148c-6.463,0-11.701,5.239-11.701,11.701c0,6.463,5.238,11.701,11.701,11.701
		s11.701-5.238,11.701-11.701C62.701,25.387,57.463,20.148,51,20.148z"/>
</g>
</svg>
