<?xml version="1.0" encoding="utf-8"?>
<!-- Generator: Adobe Illustrator 16.0.0, SVG Export Plug-In . SVG Version: 6.00 Build 0)  -->
<!DOCTYPE svg PUBLIC "-//W3C//DTD SVG 1.1//EN" "http://www.w3.org/Graphics/SVG/1.1/DTD/svg11.dtd">
<svg version="1.1" id="Layer_1" xmlns="http://www.w3.org/2000/svg" xmlns:xlink="http://www.w3.org/1999/xlink" x="0px" y="0px"
	 width="102px" height="102px" viewBox="0 0 102 102" enable-background="new 0 0 102 102" xml:space="preserve">
<path fill="#161616" d="M61.256,57.41c16.256,0,29.487,13.231,29.487,29.487c0,7.792-6.31,14.103-14.103,14.103H25.359
	c-7.795,0-14.103-6.31-14.103-14.103c0-16.256,13.231-29.487,29.487-29.487H61.256z M40.744,65.103
	c-11.999,0-21.795,9.795-21.795,21.795c0,3.536,2.872,6.41,6.41,6.41h51.282c3.536,0,6.41-2.875,6.41-6.41
	c0-12-9.796-21.795-21.795-21.795H40.744z M51,1c13.437,0,24.359,10.922,24.359,24.359S64.437,49.718,51,49.718
	S26.641,38.795,26.641,25.359S37.563,1,51,1z M51,8.692c-9.18,0-16.667,7.487-16.667,16.667S41.82,42.025,51,42.025
	s16.667-7.487,16.667-16.667S60.18,8.692,51,8.692z"/>
</svg>
