<?xml version="1.0" encoding="utf-8"?>
<!-- Generator: Adobe Illustrator 16.0.0, SVG Export Plug-In . SVG Version: 6.00 Build 0)  -->
<!DOCTYPE svg PUBLIC "-//W3C//DTD SVG 1.1//EN" "http://www.w3.org/Graphics/SVG/1.1/DTD/svg11.dtd">
<svg version="1.1" id="Layer_1" xmlns="http://www.w3.org/2000/svg" xmlns:xlink="http://www.w3.org/1999/xlink" x="0px" y="0px"
	 width="102px" height="102px" viewBox="0 0 102 102" enable-background="new 0 0 102 102" xml:space="preserve">
<g>
	<path fill="#161616" d="M51,1C37.515,1,26.581,11.933,26.581,25.419c0,13.485,10.934,24.418,24.419,24.418
		s24.419-10.933,24.419-24.418C75.419,11.933,64.485,1,51,1z M33.558,25.419c0-9.634,7.809-17.442,17.442-17.442
		c9.629,0,17.441,7.809,17.441,17.442S60.629,42.86,51,42.86C41.366,42.86,33.558,35.053,33.558,25.419z"/>
	<path fill="#161616" d="M79.97,65.321c-0.754-0.427-1.426-0.804-1.962-1.122c-16.533-9.847-37.482-9.847-54.016,0
		c-0.536,0.318-1.208,0.695-1.962,1.122c-3.316,1.871-8.33,4.701-11.765,8.063c-2.144,2.099-4.188,4.869-4.556,8.262
		c-0.395,3.611,1.182,6.995,4.338,10.007C15.498,96.84,22.034,101,30.492,101h41.016c8.457,0,14.993-4.16,20.444-9.348
		c3.161-3.012,4.732-6.396,4.338-10.007c-0.368-3.393-2.412-6.163-4.556-8.262C88.3,70.022,83.285,67.192,79.97,65.321z
		 M27.563,70.19c14.335-8.534,32.54-8.534,46.875,0c0.781,0.468,1.635,0.949,2.534,1.458c3.312,1.881,7.182,4.079,9.88,6.718
		c1.676,1.64,2.389,2.993,2.502,4.038c0.091,0.827-0.118,2.198-2.216,4.192c-4.815,4.593-9.712,7.427-15.63,7.427H30.492
		c-5.919,0-10.814-2.834-15.63-7.427c-2.099-1.994-2.307-3.365-2.216-4.192c0.113-1.045,0.826-2.398,2.502-4.038
		c2.698-2.639,6.568-4.837,9.88-6.718C25.928,71.14,26.781,70.658,27.563,70.19z"/>
</g>
</svg>
