<?xml version="1.0" encoding="utf-8"?>
<!-- Generator: Adobe Illustrator 16.0.0, SVG Export Plug-In . SVG Version: 6.00 Build 0)  -->
<!DOCTYPE svg PUBLIC "-//W3C//DTD SVG 1.1//EN" "http://www.w3.org/Graphics/SVG/1.1/DTD/svg11.dtd">
<svg version="1.1" id="Layer_1" xmlns="http://www.w3.org/2000/svg" xmlns:xlink="http://www.w3.org/1999/xlink" x="0px" y="0px"
	 width="102px" height="102px" viewBox="0 0 102 102" enable-background="new 0 0 102 102" xml:space="preserve">
<g>
	<path fill="#161616" d="M78.455,1.005c2.614,0,4.943,1.553,5.943,3.962c1,2.41,0.452,5.163-1.4,7.02L69.787,25.245
		c-0.942,0.943-1.457,2.182-1.457,3.486c0,1.314,0.515,2.553,1.448,3.485c0.938,0.943,2.181,1.458,3.49,1.458
		s2.548-0.515,3.486-1.458l13.268-13.22c1.849-1.848,4.605-2.391,7.016-1.4c2.4,1,3.962,3.334,3.962,5.953l-0.005,7.601
		c-0.023,19.345-0.452,22.897-6.634,29.069c-6.396,6.4-16.754,6.63-32.26,6.63l-2.272-0.01L30.813,95.861
		c-3.314,3.314-7.696,5.134-12.358,5.134c-4.69-0.019-9.053-1.848-12.335-5.152C2.838,92.595,1.01,88.232,1,83.574
		c-0.01-4.677,1.81-9.077,5.134-12.392l29.018-29.021v-0.429c-0.01-16.525-0.015-27.45,6.634-34.099
		c6.152-6.152,9.696-6.591,28.821-6.629H78.455z M36.423,51.238L11.306,76.354c-1.934,1.934-2.995,4.486-2.99,7.211
		c0.005,2.686,1.066,5.21,2.972,7.114c1.924,1.934,4.447,2.991,7.144,3.001c2.729,0,5.281-1.067,7.21-2.991l25.111-25.116
		C44.052,63.249,38.737,57.934,36.423,51.238z M76.312,8.329l-5.167-0.01c-18.949,0.029-20.149,0.448-24.192,4.496
		c-4.501,4.496-4.496,14.201-4.491,28.897v2.105c0.076,8.677,7.158,15.706,15.85,15.706h2.086c14.635,0,24.293,0,28.778-4.486
		c4.329-4.333,4.496-5.4,4.491-28.517v-0.838L81.912,37.398c-2.314,2.306-5.391,3.591-8.657,3.591c-3.258,0-6.334-1.285-8.653-3.601
		c-2.319-2.314-3.596-5.391-3.596-8.657c0-3.258,1.276-6.334,3.596-8.648L76.312,8.329z M19.302,87.565h0.048
		c2.69,0,4.853-2.182,4.853-4.877c0-2.686-2.21-4.876-4.9-4.876s-4.877,2.19-4.877,4.876C14.425,85.384,16.611,87.565,19.302,87.565
		z"/>
</g>
</svg>
