<?xml version="1.0" encoding="utf-8"?>
<!-- Generator: Adobe Illustrator 16.0.0, SVG Export Plug-In . SVG Version: 6.00 Build 0)  -->
<!DOCTYPE svg PUBLIC "-//W3C//DTD SVG 1.1//EN" "http://www.w3.org/Graphics/SVG/1.1/DTD/svg11.dtd">
<svg version="1.1" id="Layer_1" xmlns="http://www.w3.org/2000/svg" xmlns:xlink="http://www.w3.org/1999/xlink" x="0px" y="0px"
	 width="102px" height="102px" viewBox="0 0 102 102" enable-background="new 0 0 102 102" xml:space="preserve">
<path fill="#161616" d="M1.421,3.092C2.083,1.806,3.405,1,4.847,1h25.637c1.238,0,2.398,0.589,3.125,1.599l25.313,35.048
	L94.437,2.13c1.504-1.502,3.932-1.502,5.434,0s1.502,3.93,0,5.433L63.476,43.957l36.797,50.949c0.848,1.166,0.961,2.716,0.307,4.002
	c-0.66,1.286-1.982,2.091-3.426,2.091H71.517c-1.238,0-2.396-0.589-3.125-1.599L43.079,64.353L7.563,99.87
	c-1.502,1.502-3.93,1.502-5.434,0c-1.502-1.502-1.502-3.93,0-5.433l36.395-36.394L1.728,7.094C0.88,5.928,0.767,4.378,1.421,3.092z
	 M12.37,8.693l61.105,84.614H89.63L28.524,8.693H12.37z"/>
</svg>
