<?xml version="1.0" encoding="utf-8"?>
<!-- Generator: Adobe Illustrator 16.0.0, SVG Export Plug-In . SVG Version: 6.00 Build 0)  -->
<!DOCTYPE svg PUBLIC "-//W3C//DTD SVG 1.1//EN" "http://www.w3.org/Graphics/SVG/1.1/DTD/svg11.dtd">
<svg version="1.1" id="Layer_1" xmlns="http://www.w3.org/2000/svg" xmlns:xlink="http://www.w3.org/1999/xlink" x="0px" y="0px"
	 width="102px" height="102px" viewBox="0 0 102 102" enable-background="new 0 0 102 102" xml:space="preserve">
<g>
	<path d="M100.977,40.631c0.225-6.503-1.197-12.955-4.133-18.761c-1.992-2.382-4.758-3.989-7.814-4.543
		c-12.639-1.146-25.33-1.617-38.021-1.408c-12.643-0.218-25.289,0.237-37.883,1.362c-2.492,0.453-4.797,1.622-6.633,3.362
		c-4.09,3.771-4.543,10.221-4.998,15.672c-0.658,9.801-0.658,19.636,0,29.436c0.131,3.068,0.588,6.114,1.363,9.085
		c0.547,2.295,1.656,4.418,3.225,6.179c1.85,1.833,4.209,3.067,6.77,3.543c9.793,1.209,19.66,1.71,29.525,1.499
		c15.9,0.228,29.846,0,46.336-1.271c2.621-0.446,5.047-1.684,6.949-3.543c1.271-1.272,2.221-2.83,2.771-4.543
		c1.625-4.985,2.422-10.203,2.361-15.445C100.977,58.711,100.977,43.356,100.977,40.631z M40.742,63.979V35.86l26.893,14.128
		C60.094,54.168,50.145,58.893,40.742,63.979z"/>
</g>
</svg>
