<?xml version="1.0" encoding="utf-8"?>
<!-- Generator: Adobe Illustrator 16.0.0, SVG Export Plug-In . SVG Version: 6.00 Build 0)  -->
<!DOCTYPE svg PUBLIC "-//W3C//DTD SVG 1.1//EN" "http://www.w3.org/Graphics/SVG/1.1/DTD/svg11.dtd">
<svg version="1.1" id="Layer_1" xmlns="http://www.w3.org/2000/svg" xmlns:xlink="http://www.w3.org/1999/xlink" x="0px" y="0px"
	 width="102px" height="102px" viewBox="0 0 102 102" enable-background="new 0 0 102 102" xml:space="preserve">
<g>
	<path fill="#161616" d="M23.429,7.959c1.918-0.188,3.324-1.894,3.135-3.81c-0.191-1.919-1.893-3.32-3.811-3.134
		C16.233,1.653,11.083,3.157,7.12,7.12c-3.969,3.965-5.473,9.119-6.104,15.635c-0.186,1.916,1.215,3.622,3.127,3.81
		c1.92,0.188,3.631-1.215,3.816-3.134c0.578-5.906,1.82-9.108,4.094-11.378C14.321,9.785,17.521,8.537,23.429,7.959z"/>
	<path fill="#161616" d="M79.243,1.015c-1.918-0.186-3.619,1.215-3.811,3.134c-0.186,1.916,1.217,3.622,3.135,3.81
		c5.908,0.578,9.107,1.826,11.381,4.094c2.268,2.27,3.51,5.472,4.088,11.378c0.191,1.919,1.896,3.322,3.814,3.134
		c1.92-0.188,3.32-1.894,3.129-3.81c-0.631-6.516-2.137-11.67-6.104-15.635C90.919,3.157,85.763,1.653,79.243,1.015z"/>
	<path fill="#161616" d="M41.698,0.999c-1.928,0-3.488,1.562-3.488,3.488s1.561,3.488,3.488,3.488h18.604
		c1.924,0,3.488-1.562,3.488-3.488s-1.564-3.488-3.488-3.488H41.698z"/>
	<path fill="#161616" d="M7.976,41.699c0-1.927-1.564-3.489-3.488-3.489s-3.488,1.562-3.488,3.489v18.6
		c0,1.93,1.564,3.488,3.488,3.488s3.488-1.559,3.488-3.488V41.699z"/>
	<path fill="#161616" d="M7.96,78.569c-0.186-1.918-1.896-3.325-3.816-3.134c-1.912,0.191-3.313,1.892-3.127,3.81
		c0.631,6.519,2.135,11.67,6.104,15.632c3.963,3.968,9.113,5.473,15.633,6.105c1.918,0.185,3.619-1.21,3.811-3.129
		c0.189-1.918-1.217-3.625-3.135-3.815c-5.908-0.578-9.107-1.82-11.375-4.088C9.78,87.677,8.538,84.478,7.96,78.569z"/>
	<path fill="#161616" d="M55.185,60.768c-1.93,0-3.488,1.559-3.488,3.488c0,1.93,1.559,3.489,3.488,3.489h18.139
		c1.93,0,3.488-1.559,3.488-3.489c0-1.929-1.559-3.488-3.488-3.488H55.185z"/>
	<path fill="#161616" d="M64.253,33.558c-16.951,0-30.697,13.744-30.697,30.698c0,16.952,13.746,30.698,30.697,30.698
		c7.223,0,13.855-2.497,19.1-6.661l11.691,11.686c1.363,1.363,3.57,1.363,4.934,0s1.363-3.576,0-4.933L88.292,83.355
		c4.168-5.244,6.66-11.882,6.66-19.099C94.952,47.302,81.206,33.558,64.253,33.558z M40.532,64.256
		c0-13.101,10.619-23.721,23.721-23.721c13.104,0,23.723,10.621,23.723,23.721c0,13.104-10.619,23.721-23.723,23.721
		C51.151,87.977,40.532,77.359,40.532,64.256z"/>
</g>
</svg>
