<?xml version="1.0" encoding="utf-8"?>
<!-- Generator: Adobe Illustrator 16.0.0, SVG Export Plug-In . SVG Version: 6.00 Build 0)  -->
<!DOCTYPE svg PUBLIC "-//W3C//DTD SVG 1.1//EN" "http://www.w3.org/Graphics/SVG/1.1/DTD/svg11.dtd">
<svg version="1.1" id="Layer_1" xmlns="http://www.w3.org/2000/svg" xmlns:xlink="http://www.w3.org/1999/xlink" x="0px" y="0px"
	 width="102px" height="102px" viewBox="0 0 102 102" enable-background="new 0 0 102 102" xml:space="preserve">
<g>
	<path fill="#161616" d="M23.43,7.965c1.92-0.19,3.326-1.896,3.135-3.814c-0.191-1.919-1.891-3.314-3.811-3.129
		C16.236,1.653,11.086,3.158,7.123,7.126C3.156,11.088,1.65,16.239,1.02,22.758c-0.186,1.918,1.215,3.619,3.127,3.81
		c1.92,0.19,3.631-1.216,3.816-3.134c0.578-5.908,1.82-9.107,4.094-11.381C14.322,9.786,17.521,8.543,23.43,7.965z"/>
	<path fill="#161616" d="M79.242,1.021c-1.918-0.186-3.619,1.21-3.811,3.129c-0.186,1.918,1.217,3.624,3.135,3.814
		c5.908,0.578,9.107,1.821,11.381,4.088c2.266,2.273,3.51,5.473,4.088,11.381c0.189,1.918,1.896,3.324,3.814,3.134
		s3.318-1.892,3.129-3.81c-0.633-6.519-2.137-11.67-6.105-15.632C90.916,3.158,85.76,1.653,79.242,1.021z"/>
	<path fill="#161616" d="M41.699,1c-1.928,0-3.488,1.564-3.488,3.488c0,1.929,1.561,3.488,3.488,3.488h18.604
		c1.924,0,3.488-1.56,3.488-3.488C63.791,2.564,62.227,1,60.303,1H41.699z"/>
	<path fill="#161616" d="M7.979,41.703c0-1.93-1.564-3.488-3.488-3.488s-3.488,1.559-3.488,3.488V60.3
		c0,1.929,1.564,3.487,3.488,3.487s3.488-1.559,3.488-3.487V41.703z"/>
	<path fill="#161616" d="M7.963,78.569c-0.186-1.919-1.896-3.325-3.816-3.135c-1.912,0.191-3.313,1.892-3.127,3.811
		c0.631,6.519,2.137,11.669,6.104,15.631c3.963,3.968,9.113,5.473,15.631,6.104c1.92,0.186,3.619-1.21,3.811-3.128
		c0.191-1.919-1.215-3.625-3.135-3.815c-5.908-0.578-9.107-1.82-11.373-4.088C9.783,87.677,8.541,84.477,7.963,78.569z"/>
	<path fill="#161616" d="M64.254,51.699c1.93,0,3.488,1.559,3.488,3.487v5.582h5.58c1.93,0,3.488,1.559,3.488,3.487
		c0,1.93-1.559,3.488-3.488,3.488h-5.58v5.582c0,1.929-1.559,3.487-3.488,3.487s-3.488-1.559-3.488-3.487v-5.582h-5.582
		c-1.93,0-3.488-1.559-3.488-3.488c0-1.929,1.559-3.487,3.488-3.487h5.582v-5.582C60.766,53.258,62.324,51.699,64.254,51.699z"/>
	<path fill="#161616" d="M33.557,64.256c0-16.95,13.746-30.695,30.697-30.695s30.695,13.745,30.695,30.695
		c0,6.317-1.906,12.188-5.178,17.071c-0.469,0.697-0.965,1.373-1.482,2.027l11.686,11.69c1.363,1.357,1.363,3.57,0,4.933
		c-1.361,1.363-3.57,1.363-4.932,0L83.352,88.292c-5.244,4.164-11.877,6.66-19.098,6.66C47.303,94.952,33.557,81.207,33.557,64.256z
		 M64.254,40.536c-13.104,0-23.721,10.617-23.721,23.72c0,13.104,10.617,23.721,23.721,23.721c13.102,0,23.719-10.617,23.719-23.721
		C87.973,51.153,77.355,40.536,64.254,40.536z"/>
</g>
</svg>
