<svg width="104" height="71" viewBox="0 0 104 71" fill="none" xmlns="http://www.w3.org/2000/svg">
<path d="M62.4374 1.28809H61.2673V2.47926H62.4374V1.28809Z" fill="white"/>
<path d="M86.7584 16.0979H85.5883V17.2891H86.7584V16.0979Z" fill="white"/>
<path d="M99.8055 14.8212C100.093 14.6816 100.325 14.4821 100.501 14.2171C100.677 13.9549 100.8 13.6358 100.872 13.2653C100.945 12.892 100.981 12.4731 100.981 12.0086V3.67041H99.8111V12.0086C99.8111 12.3449 99.7943 12.6298 99.7608 12.8635C99.7273 13.0972 99.6687 13.2853 99.5849 13.4306C99.5011 13.5731 99.3894 13.6785 99.2498 13.7441C99.1073 13.8096 98.9258 13.841 98.7024 13.841C98.5963 13.841 98.5013 13.8353 98.4259 13.8267C98.3478 13.8182 98.2416 13.7925 98.1048 13.7526L97.7976 14.8982C98.1188 14.9894 98.4371 15.0321 98.7471 15.0321C99.1632 15.0293 99.5179 14.9609 99.8055 14.8212Z" fill="white"/>
<path d="M95.7841 1.55878H94.1784V1.28236C94.1784 1.13133 94.2091 1.01449 94.2733 0.931848C94.3264 0.863456 94.452 0.829259 94.6336 0.829259H95.4378V0H94.614C94.1672 0 93.8181 0.119687 93.5835 0.356211C93.3462 0.592735 93.2261 0.980293 93.2261 1.50179V2.47353H95.7869L95.7841 1.55878Z" fill="white"/>
<path d="M84.4182 16.0979H83.248V17.2891H84.4182V16.0979Z" fill="white"/>
<path d="M64.7777 1.28809H63.6075V2.47926H64.7777V1.28809Z" fill="white"/>
<path d="M90.5145 10.8089C90.9585 11.1309 91.4724 11.3703 92.056 11.5242C92.6397 11.678 93.2596 11.755 93.9131 11.755H94.2231L94.6169 10.9143V12.0969C94.6169 12.721 94.4409 13.1684 94.0918 13.4363C93.74 13.7042 93.2485 13.8381 92.6145 13.8381C92.2543 13.8381 91.9304 13.8039 91.6427 13.7327C91.3551 13.6643 91.0255 13.5446 90.6569 13.3765L90.2911 14.522C90.7379 14.6902 91.1372 14.8184 91.4835 14.901C91.8298 14.9865 92.1789 15.0264 92.528 15.0264C93.6674 15.0264 94.4968 14.75 95.0134 14.2C95.53 13.6472 95.787 12.9063 95.787 11.9744V3.67041H93.9159C93.1954 3.67041 92.5364 3.77585 91.9415 3.98388C91.3467 4.19191 90.8384 4.47687 90.414 4.83878C89.9895 5.20069 89.66 5.63385 89.4282 6.13539C89.1936 6.63694 89.0763 7.18123 89.0763 7.76541C89.0763 8.46929 89.2048 9.07342 89.4645 9.57497C89.7186 10.0737 90.0705 10.4869 90.5145 10.8089ZM90.5145 6.58849C90.6932 6.23228 90.9334 5.92737 91.2294 5.67374C91.5254 5.42012 91.8661 5.22634 92.2459 5.08671C92.6145 4.95277 92.9971 4.88438 93.3937 4.88153V4.87868H95.2843L94.6169 5.21779V10.5667H93.4328C92.9943 10.5667 92.5838 10.504 92.1984 10.3786C91.8131 10.256 91.4752 10.0737 91.1819 9.83429C90.8887 9.59492 90.6597 9.30425 90.4949 8.95658C90.3302 8.60892 90.2464 8.21282 90.2464 7.76541C90.2436 7.33796 90.333 6.9447 90.5145 6.58849Z" fill="white"/>
<path d="M61.5857 14.864H64.0153V13.972C64.0376 14.0148 64.0628 14.0575 64.0879 14.0946C64.2638 14.3567 64.4956 14.5591 64.7833 14.6987C65.0709 14.8383 65.4228 14.9067 65.8417 14.9067H87.1633V3.67041H85.9932V13.7184H84.7784H65.8836C65.6601 13.7184 65.4758 13.6871 65.3362 13.6215C65.1966 13.556 65.0821 13.4534 65.0011 13.3081C64.9201 13.1627 64.8615 12.9746 64.8252 12.741C64.7916 12.5073 64.7749 12.2223 64.7749 11.8861V3.67041H61.6136C58.3798 3.67041 56.1792 6.28358 56.1792 9.2672V9.29855C56.182 12.2822 58.3519 14.864 61.5857 14.864ZM57.4275 9.23585C57.4275 6.77657 59.1589 4.79889 61.5857 4.79889H64.3225L63.6048 5.16365V11.8861C63.6048 12.3534 63.6411 12.7723 63.7137 13.1428C63.7556 13.3594 63.817 13.556 63.8952 13.7355H61.6136C59.1841 13.7355 57.4247 11.7265 57.4247 9.2672V9.23585H57.4275Z" fill="white"/>
<path d="M50.3314 11.9061L50.8424 13.2796L43.4141 3.65625H42.2551V14.8413H43.4615V6.4119L42.7746 4.78188L50.552 14.8413H51.5406V3.65625H50.3314V11.9061Z" fill="white"/>
<path d="M66.9866 32.7087L73.728 26.1516V21.6548H55.71V26.7757H64.948L68.3745 24.5301L59.8207 33.2929L60.7367 37.0944H63.1747C66.4504 37.0944 68.3941 38.3369 68.3941 40.5482V40.6252C68.3941 42.6427 66.833 43.9223 64.624 43.9223C61.9208 43.9223 60.0162 42.7596 58.1871 40.6622L54.1489 44.5805C56.4333 47.3362 59.7481 49.274 64.5486 49.274C70.4913 49.274 74.1469 45.5095 74.1469 40.3886V40.3117C74.1497 35.2706 70.6058 33.33 66.9866 32.7087Z" fill="white"/>
<path d="M34.6425 3.46533C31.3025 3.46533 29.0265 6.16399 29.0265 9.2502V9.28155C29.0265 12.3649 31.269 15.0322 34.6117 15.0322C37.9517 15.0322 40.2277 12.3336 40.2277 9.2502V9.21885C40.2249 6.13264 37.9824 3.46533 34.6425 3.46533ZM38.9403 9.28155C38.9403 11.8206 37.153 13.8667 34.6425 13.8667C32.1319 13.8667 30.3139 11.7893 30.3139 9.2502V9.21885C30.3139 6.67978 32.104 4.6337 34.6117 4.6337C37.1223 4.6337 38.9403 6.71113 38.9403 9.2502V9.28155Z" fill="white"/>
<path d="M89.8694 21.1875C81.6423 21.1875 75.6605 27.511 75.6605 35.2308V35.3077C75.6605 43.0275 81.5641 49.274 89.7912 49.274C98.0182 49.274 104 42.9506 104 35.2308V35.1538C104.003 27.434 98.0964 21.1875 89.8694 21.1875ZM97.8702 35.3077C97.8702 39.9641 94.5945 43.7656 89.8694 43.7656C85.1471 43.7656 81.7931 39.8872 81.7931 35.2308V35.1538C81.7931 30.4974 85.0689 26.6959 89.7912 26.6959C94.5135 26.6959 97.8674 30.5744 97.8674 35.2308L97.8702 35.3077Z" fill="white"/>
<path d="M26.8874 3.65625H25.6475V14.8384H26.8874V3.65625Z" fill="white"/>
<path d="M5.74162 45.7062L6.87262 44.8171L12.7008 40.2348C17.4231 36.5102 19.7103 34.2618 19.7103 29.7223V29.6453C19.7103 24.5615 16.0548 21.2644 10.531 21.2644C5.76954 21.2644 3.21708 23.2421 0.589227 26.8897L4.70275 30.2637C6.68272 27.7816 8.093 26.619 10.1512 26.619C12.2456 26.619 13.7313 27.8614 13.7313 30.1497C13.7313 32.3981 12.4355 33.8743 9.12348 36.667L0.248535 44.0762V48.8095H19.9812V43.6487H9.81325L5.74162 45.7062Z" fill="white"/>
<path d="M5.82262 14.9211L10.5422 3.65625H9.21007L5.47913 12.8237L5.59642 14.0548L5.28923 13.291L2.05817 5.32332L1.38236 3.65625H0.00280762L4.72512 14.9211H5.82262Z" fill="white"/>
<path d="M13.466 3.65625H12.2261V14.8384H13.466V3.65625Z" fill="white"/>
<path d="M20.0287 8.64035C17.6131 8.11316 17.049 7.52327 17.049 6.46889V6.43754C17.049 5.4316 17.9594 4.63369 19.3864 4.63369C20.5146 4.63369 21.5367 5.0013 22.556 5.84766L23.2765 4.87306C22.1623 3.96116 21.0173 3.49951 19.4171 3.49951C17.331 3.49951 15.809 4.79327 15.809 6.55153V6.58288C15.809 8.42092 16.9708 9.25019 19.4953 9.81157C21.802 10.3074 22.3494 10.8973 22.3494 11.9374V11.9688C22.3494 13.0716 21.3775 13.8695 19.903 13.8695C18.3811 13.8695 17.2836 13.3423 16.1386 12.288L15.3706 13.2141C16.6887 14.4138 18.1158 15.0037 19.8556 15.0037C22.0366 15.0037 23.6033 13.7584 23.6033 11.8406V11.8092C23.6033 10.0965 22.475 9.18464 20.0287 8.64035Z" fill="white"/>
<path d="M35.9131 19.4006L37.2647 20.72L35.9689 22.0964L34.6173 20.777L35.9131 19.4006Z" fill="white"/>
<path d="M39.0045 20.777L40.3534 22.0964L41.6491 20.72L40.3003 19.4006L39.0045 20.777Z" fill="white"/>
<path d="M37.1028 22.5097L38.1556 23.5385L39.1637 22.467L38.1109 21.4382L37.1028 22.5097Z" fill="white"/>
<path d="M40.9594 23.0967L42.0094 24.1254L43.0175 23.054L41.9675 22.0281L40.9594 23.0967Z" fill="white"/>
<path d="M35.3826 24.1453L36.4354 25.174L37.4435 24.1025L36.3935 23.0767L35.3826 24.1453Z" fill="white"/>
<path d="M38.9124 24.2707L39.9624 25.2994L40.9705 24.228L39.9205 23.1992L38.9124 24.2707Z" fill="white"/>
<path d="M37.5328 25.5018L38.2701 26.2257L38.9822 25.4733L38.2422 24.7495L37.5328 25.5018Z" fill="white"/>
<path d="M40.3226 26.0718L41.0599 26.7928L41.772 26.0405L41.032 25.3167L40.3226 26.0718Z" fill="white"/>
<path d="M48.7125 19.9116L46.4189 20.3406L46.8389 22.6782L49.1325 22.2492L48.7125 19.9116Z" fill="white"/>
<path d="M45.2682 20.9689L43.4279 21.3127L43.7643 23.1879L45.6047 22.8441L45.2682 20.9689Z" fill="white"/>
<path d="M48.8178 23.5931L46.9774 23.9375L47.3145 25.8127L49.1548 25.4682L48.8178 23.5931Z" fill="white"/>
<path d="M45.8793 23.9334L44.4454 24.2014L44.7076 25.6618L46.1415 25.3937L45.8793 23.9334Z" fill="white"/>
<path d="M48.6691 26.7061L47.2352 26.9741L47.4974 28.4345L48.9313 28.1664L48.6691 26.7061Z" fill="white"/>
<path d="M43.7318 24.5291L42.298 24.7971L42.5602 26.2575L43.994 25.9894L43.7318 24.5291Z" fill="white"/>
<path d="M46.3345 26.4409L44.9006 26.709L45.1628 28.1693L46.5967 27.9013L46.3345 26.4409Z" fill="white"/>
<path d="M44.0769 26.6979L43.0688 26.8865L43.2531 27.9124L44.2612 27.7238L44.0769 26.6979Z" fill="white"/>
<path d="M46.0145 28.8212L45.0063 29.0093L45.1901 30.0353L46.1983 29.8472L46.0145 28.8212Z" fill="white"/>
<path d="M53.2385 27.9954L52.236 30.1412L54.3416 31.1614L55.3442 29.0184L53.2385 27.9954Z" fill="white"/>
<path d="M50.2476 27.0037L49.4434 28.7249L51.1329 29.5456L51.9372 27.8244L50.2476 27.0037Z" fill="white"/>
<path d="M51.63 31.2439L50.8257 32.9651L52.518 33.783L53.3223 32.0646L51.63 31.2439Z" fill="white"/>
<path d="M49.4155 29.9531L48.7899 31.2953L50.1052 31.9308L50.7336 30.5915L49.4155 29.9531Z" fill="white"/>
<path d="M50.0856 33.8657L49.4573 35.2051L50.7726 35.8434L51.4009 34.5012L50.0856 33.8657Z" fill="white"/>
<path d="M47.3321 29.1553L46.7065 30.4975L48.0219 31.133L48.6502 29.7936L47.3321 29.1553Z" fill="white"/>
<path d="M48.3459 32.2556L47.7175 33.5978L49.0356 34.2333L49.6612 32.8939L48.3459 32.2556Z" fill="white"/>
<path d="M46.7624 31.3125L46.3212 32.2557L47.2483 32.7032L47.6868 31.7599L46.7624 31.3125Z" fill="white"/>
<path d="M47.1171 34.1954L46.6779 35.1372L47.6033 35.5866L48.0425 34.6448L47.1171 34.1954Z" fill="white"/>
<path d="M54.3723 38.2712L52.3281 39.4111L53.4508 41.4942L55.495 40.3544L54.3723 38.2712Z" fill="white"/>
<path d="M52.518 35.6838L50.876 36.6014L51.778 38.2714L53.4173 37.3538L52.518 35.6838Z" fill="white"/>
<path d="M51.2027 39.947L49.5635 40.8646L50.4627 42.5345L52.1048 41.6169L51.2027 39.947Z" fill="white"/>
<path d="M50.1499 37.5789L48.8708 38.2941L49.5718 39.5936L50.8508 38.8812L50.1499 37.5789Z" fill="white"/>
<path d="M48.4436 41.1494L47.1674 41.8647L47.8683 43.1641L49.1445 42.4517L48.4436 41.1494Z" fill="white"/>
<path d="M48.9183 35.6924L47.6421 36.4048L48.3402 37.7071L49.6193 36.9918L48.9183 35.6924Z" fill="white"/>
<path d="M47.9577 38.8098L46.6787 39.5222L47.3797 40.8245L48.6587 40.1093L47.9577 38.8098Z" fill="white"/>
<path d="M47.2176 37.1001L46.3184 37.6016L46.8127 38.5164L47.7091 38.0149L47.2176 37.1001Z" fill="white"/>
<path d="M45.8493 39.6421L44.9501 40.1436L45.4444 41.0584L46.3436 40.5568L45.8493 39.6421Z" fill="white"/>
<path d="M47.0856 46.991L46.8 49.3499L49.1144 49.6416L49.3999 47.2828L47.0856 46.991Z" fill="white"/>
<path d="M47.5095 43.8378L47.2797 45.7297L49.1365 45.9646L49.3663 44.0726L47.5095 43.8378Z" fill="white"/>
<path d="M43.9969 46.5138L43.7671 48.4058L45.6239 48.6406L45.8537 46.7487L43.9969 46.5138Z" fill="white"/>
<path d="M44.9073 44.0132L44.7288 45.4866L46.1754 45.6691L46.354 44.1957L44.9073 44.0132Z" fill="white"/>
<path d="M41.4737 45.8911L41.2952 47.3645L42.7418 47.547L42.9204 46.0736L41.4737 45.8911Z" fill="white"/>
<path d="M44.9977 41.7554L44.8187 43.2288L46.2654 43.4117L46.4444 41.9383L44.9977 41.7554Z" fill="white"/>
<path d="M42.4279 43.7082L42.2489 45.1816L43.6956 45.3646L43.8745 43.8912L42.4279 43.7082Z" fill="white"/>
<path d="M43.2378 41.9315L43.1123 42.9666L44.1294 43.095L44.2549 42.0599L43.2378 41.9315Z" fill="white"/>
<path d="M40.6711 43.1737L40.5457 44.2087L41.5628 44.3371L41.6882 43.302L40.6711 43.1737Z" fill="white"/>
<path d="M40.1775 51.6136L38.4684 49.9978L36.8794 51.739L38.5885 53.3547L40.1775 51.6136Z" fill="white"/>
<path d="M39.8619 18.335L38.1528 16.7192L36.5638 18.4604L38.2757 20.0762L39.8619 18.335Z" fill="white"/>
<path d="M42.0011 49.0061L40.6299 47.7095L39.3564 49.1058L40.7276 50.4024L42.0011 49.0061Z" fill="white"/>
<path d="M37.6166 49.0803L36.2427 47.7837L34.9692 49.18L36.3432 50.4766L37.6166 49.0803Z" fill="white"/>
<path d="M39.4876 47.3163L38.4208 46.3047L37.4294 47.3933L38.4962 48.4021L39.4876 47.3163Z" fill="white"/>
<path d="M35.6226 46.792L34.5558 45.7832L33.5645 46.8689L34.634 47.8806L35.6226 46.792Z" fill="white"/>
<path d="M40.8588 45.5295L39.792 44.5208L38.8007 45.6065L39.8674 46.6181L40.8588 45.5295Z" fill="white"/>
<path d="M37.6501 45.5837L36.5833 44.575L35.5919 45.6607L36.6587 46.6723L37.6501 45.5837Z" fill="white"/>
<path d="M39.0102 44.3299L38.2589 43.6174L37.5608 44.384L38.312 45.0936L39.0102 44.3299Z" fill="white"/>
<path d="M36.2119 43.8082L35.4607 43.0986L34.7626 43.8624L35.5138 44.5719L36.2119 43.8082Z" fill="white"/>
<path d="M29.7557 47.3105L27.4694 47.7781L27.927 50.1084L30.2134 49.6408L29.7557 47.3105Z" fill="white"/>
<path d="M32.8291 46.741L30.9945 47.116L31.3614 48.9852L33.196 48.6102L32.8291 46.741Z" fill="white"/>
<path d="M29.2198 44.1977L27.3853 44.5732L27.7527 46.4425L29.5873 46.0669L29.2198 44.1977Z" fill="white"/>
<path d="M31.8434 44.2845L30.4141 44.5767L30.6998 46.0324L32.1291 45.7402L31.8434 44.2845Z" fill="white"/>
<path d="M33.9821 43.6519L32.5527 43.9441L32.8385 45.3998L34.2678 45.1077L33.9821 43.6519Z" fill="white"/>
<path d="M31.3491 41.7884L29.9198 42.0806L30.2056 43.5363L31.6349 43.2441L31.3491 41.7884Z" fill="white"/>
<path d="M33.2415 42.0172L32.2365 42.2224L32.437 43.2452L33.442 43.04L33.2415 42.0172Z" fill="white"/>
<path d="M31.272 39.9254L30.2671 40.1311L30.4681 41.1537L31.473 40.948L31.272 39.9254Z" fill="white"/>
<path d="M23.2653 42.1014L24.2344 39.9385L22.1092 38.9553L21.1429 41.1154L23.2653 42.1014Z" fill="white"/>
<path d="M26.273 43.0417L27.0465 41.3091L25.3458 40.5168L24.5695 42.2523L26.273 43.0417Z" fill="white"/>
<path d="M24.8208 38.8271L25.5971 37.0916L23.8937 36.3022L23.1173 38.0377L24.8208 38.8271Z" fill="white"/>
<path d="M26.3415 38.1086L25.7378 39.4595L27.0642 40.0767L27.6679 38.7257L26.3415 38.1086Z" fill="white"/>
<path d="M28.831 43.4577L29.4342 42.107L28.1077 41.4915L27.5045 42.8422L28.831 43.4577Z" fill="white"/>
<path d="M25.6004 34.2198L24.9965 35.5706L26.3227 36.188L26.9267 34.8373L25.6004 34.2198Z" fill="white"/>
<path d="M28.4277 38.8804L27.8237 40.2312L29.15 40.8487L29.7539 39.4979L28.4277 38.8804Z" fill="white"/>
<path d="M27.3623 35.7843L26.7579 37.1348L28.0839 37.7527L28.6883 36.4022L27.3623 35.7843Z" fill="white"/>
<path d="M29.6855 38.676L30.1128 37.7271L29.1801 37.2939L28.7528 38.2457L29.6855 38.676Z" fill="white"/>
<path d="M29.2891 35.8093L29.7135 34.8575L28.7808 34.4243L28.3563 35.3761L29.2891 35.8093Z" fill="white"/>
<path d="M21.964 31.848L23.9914 30.6711L22.8353 28.6079L20.8079 29.7848L21.964 31.848Z" fill="white"/>
<path d="M23.8601 34.4014L25.4882 33.4582L24.5583 31.8025L22.933 32.7457L23.8601 34.4014Z" fill="white"/>
<path d="M25.1056 30.1184L26.7309 29.1752L25.8038 27.5195L24.1785 28.4628L25.1056 30.1184Z" fill="white"/>
<path d="M26.1976 32.4664L27.4626 31.7312L26.7421 30.4431L25.4771 31.1783L26.1976 32.4664Z" fill="white"/>
<path d="M27.8452 28.8701L29.1103 28.1349L28.3898 26.844L27.1219 27.5792L27.8452 28.8701Z" fill="white"/>
<path d="M27.4599 34.3331L28.7249 33.5979L28.0044 32.3098L26.7366 33.045L27.4599 34.3331Z" fill="white"/>
<path d="M28.3703 31.2012L29.6353 30.466L28.9148 29.175L27.647 29.9131L28.3703 31.2012Z" fill="white"/>
<path d="M29.1383 32.8968L30.0291 32.3811L29.5209 31.4749L28.63 31.9906L29.1383 32.8968Z" fill="white"/>
<path d="M30.4647 30.335L31.3555 29.8164L30.8473 28.9102L29.9564 29.4259L30.4647 30.335Z" fill="white"/>
<path d="M27.0434 20.3852L26.7958 22.7483L29.1143 23.0012L29.3619 20.6381L27.0434 20.3852Z" fill="white"/>
<path d="M27.0651 24.0575L26.8663 25.9531L28.7267 26.1563L28.9255 24.2607L27.0651 24.0575Z" fill="white"/>
<path d="M30.5384 21.3239L30.3396 23.2195L32.2 23.4226L32.3988 21.5271L30.5384 21.3239Z" fill="white"/>
<path d="M30.0234 24.3038L29.8684 25.78L31.3178 25.9385L31.4728 24.4622L30.0234 24.3038Z" fill="white"/>
<path d="M33.4415 22.3779L33.2871 23.8542L34.7367 24.0121L34.8911 22.5357L33.4415 22.3779Z" fill="white"/>
<path d="M29.9801 26.5704L29.8252 28.0466L31.2746 28.2051L31.4296 26.7288L29.9801 26.5704Z" fill="white"/>
<path d="M32.5185 24.5699L32.3635 26.0461L33.813 26.2046L33.9679 24.7283L32.5185 24.5699Z" fill="white"/>
<path d="M32.12 26.8428L32.0112 27.8799L33.0303 27.9912L33.139 26.9541L32.12 26.8428Z" fill="white"/>
<path d="M34.6671 25.561L34.559 26.5981L35.5781 26.7088L35.6862 25.6716L34.6671 25.561Z" fill="white"/>
<path d="M45.57 36.4961C45.3968 36.3963 45.0813 36.2282 44.6456 36.0886C44.0173 35.8834 43.1404 35.7295 42.1015 35.8976C41.7524 35.9546 41.3838 36.0487 41.0012 36.1883C40.9649 36.2026 40.9286 36.214 40.8923 36.2282C40.6968 36.3023 40.5041 36.3935 40.3087 36.4932C40.1411 36.5787 39.9763 36.6728 39.8116 36.7753C39.4346 37.0062 39.0632 37.2683 38.7029 37.5533C38.2924 35.0199 38.4935 32.6689 38.5884 31.5148C38.5884 31.5091 38.5968 31.5063 38.6024 31.5091C39.482 32.0734 39.2363 33.6492 39.0492 34.1023C39.0464 34.1109 39.0576 34.1166 39.0659 34.1109C40.1607 32.7915 39.6273 31.3324 39.4011 30.9648C39.3955 30.9563 39.4066 30.9477 39.415 30.9534C39.5742 31.0845 39.7027 31.2241 39.8116 31.3666C40.1495 31.8083 40.2752 32.2842 40.3087 32.706C40.3254 32.9283 40.3198 33.1334 40.3087 33.3101C40.3059 33.3586 40.3031 33.4013 40.2975 33.4441C40.2975 33.4498 40.3031 33.4526 40.3087 33.4498C40.3115 33.4498 40.3142 33.4498 40.3142 33.4469C40.6103 32.8542 40.7527 31.9594 40.3087 31.0902C40.1886 30.8537 40.0266 30.62 39.8116 30.3949C39.7501 30.3293 39.6831 30.2667 39.6133 30.2011C39.6077 30.1954 39.6133 30.184 39.6217 30.1869C39.6887 30.204 39.7501 30.2239 39.8116 30.2439C39.9987 30.3094 40.1634 30.4006 40.3087 30.5117C40.641 30.7625 40.8672 31.1045 41.0012 31.4635C41.1129 31.7599 41.1632 32.0648 41.1632 32.3355C41.1632 32.3469 41.1772 32.3469 41.18 32.3384C41.3866 31.5661 41.2609 30.9819 41.0012 30.5573C40.8169 30.2524 40.5628 30.0301 40.3087 29.8734C40.1355 29.768 39.9624 29.6939 39.8116 29.6483C39.7222 29.6198 39.644 29.6027 39.5742 29.5941C39.563 29.5941 39.5658 29.577 39.577 29.577C39.658 29.5685 39.7362 29.5656 39.8116 29.5628C39.9959 29.5599 40.1607 29.577 40.3087 29.6027C40.6019 29.6597 40.8309 29.7623 41.0012 29.8819C41.2805 30.0729 41.4201 30.298 41.4676 30.3892C41.4704 30.3977 41.4844 30.392 41.4844 30.3835C41.4453 29.976 41.2609 29.6568 41.004 29.4288C40.8057 29.2522 40.5628 29.1296 40.3115 29.0555C40.1467 29.0099 39.9791 28.9843 39.8144 28.9814C39.591 28.9786 39.3759 29.0156 39.1944 29.0954C39.186 29.0983 39.1804 29.0897 39.1832 29.0812C39.3452 28.8447 39.5742 28.7022 39.8144 28.6252C39.9819 28.5739 40.1523 28.554 40.3115 28.5654C40.465 28.5739 40.6047 28.6081 40.7192 28.6623C40.7276 28.6651 40.7331 28.6566 40.7276 28.648C40.6019 28.5027 40.4595 28.3887 40.3115 28.3032C40.1523 28.212 39.9847 28.1579 39.8144 28.1379C39.3703 28.0866 38.9179 28.2804 38.6163 28.7449C38.6135 28.7506 38.6052 28.7506 38.6024 28.7449C38.5437 28.6395 38.4879 28.5226 38.4376 28.4001C38.3175 28.1151 38.2198 27.796 38.1667 27.4768C38.1639 27.4654 38.1528 27.4654 38.1528 27.4768C38.0997 27.796 37.9992 28.118 37.8791 28.403C37.826 28.5255 37.773 28.6395 37.7143 28.7421C37.7115 28.7478 37.7031 28.7478 37.7004 28.7421C37.1753 27.9299 36.1895 27.947 35.5891 28.648C35.5835 28.6537 35.5891 28.6651 35.5975 28.6623C35.9969 28.4685 36.7537 28.5255 37.1334 29.0812C37.139 29.0897 37.1307 29.0983 37.1223 29.0954C36.5386 28.8447 35.6338 29.0071 35.1507 29.5941C34.9776 29.8022 34.8603 30.0672 34.8295 30.3835C34.8295 30.392 34.8407 30.3977 34.8463 30.3892C34.8826 30.318 34.9776 30.1641 35.1507 30.0073C35.4327 29.7537 35.9242 29.4972 36.7369 29.5742C36.7481 29.577 36.7481 29.5913 36.7397 29.5913C36.3236 29.6426 35.4663 30.0216 35.1507 30.8879C35.0111 31.2697 34.9748 31.7485 35.1311 32.3355C35.1339 32.3441 35.1479 32.3441 35.1479 32.3327C35.1479 32.3184 35.1479 32.307 35.1507 32.2928C35.1591 31.5063 35.6003 30.4519 36.6922 30.184C36.7006 30.1812 36.7062 30.1926 36.7006 30.1983C35.4802 31.2925 35.6003 32.6433 35.9996 33.4412C36.0052 33.4498 36.0164 33.4469 36.0164 33.4384C35.9633 32.8342 35.9215 31.7599 36.8989 30.9477C36.9072 30.942 36.9184 30.9506 36.9128 30.9591C36.6866 31.3296 36.1532 32.7858 37.2479 34.1052C37.2535 34.1137 37.2675 34.108 37.2647 34.0966C37.0804 33.6464 36.8346 32.0677 37.7115 31.5034C37.7171 31.5006 37.7255 31.5034 37.7255 31.5091C37.8204 32.6632 38.0215 35.0142 37.611 37.5476C36.9045 36.9948 36.1588 36.5103 35.4216 36.2254C35.3294 36.1912 35.2401 36.1598 35.1535 36.1285C34.3911 35.872 33.6929 35.8008 33.0841 35.8292C32.1067 35.872 31.3583 36.1712 30.9478 36.3792C30.864 36.422 30.7942 36.4619 30.7411 36.4932C30.7188 36.5075 30.7356 36.5388 30.7579 36.5303C30.8221 36.5103 30.8836 36.4904 30.9478 36.4733C31.699 36.2567 32.4111 36.1997 33.0841 36.2596C33.8186 36.3251 34.5084 36.5303 35.1535 36.8266C36.0583 37.2427 36.8765 37.8354 37.6166 38.4624C36.5721 39.3914 35.6897 40.2947 35.1535 40.611C35.1256 40.6253 35.1004 40.6424 35.0753 40.6566C34.9468 40.4771 34.7234 40.3745 34.4805 40.4286C34.2682 40.4771 34.0951 40.6509 34.0476 40.8646C34.0057 41.0556 34.0532 41.2636 34.1593 41.3719C34.4442 41.6626 34.7737 41.6825 35.1535 41.5201C35.8768 41.2095 36.776 40.2349 37.8791 39.2033C37.9712 39.1178 38.0634 39.0294 38.1583 38.944C38.2533 39.0294 38.3454 39.1149 38.4376 39.2004C38.9375 39.6678 39.3955 40.1237 39.8144 40.5113C39.9875 40.6709 40.1523 40.8191 40.3115 40.9501C40.5572 41.1553 40.789 41.3234 41.004 41.4403C41.4257 41.6683 41.7915 41.6968 42.1043 41.4146C42.1211 41.4004 42.1378 41.3861 42.1546 41.369C42.2272 41.295 42.311 41.0527 42.2663 40.8618C42.2412 40.7507 42.1825 40.6509 42.1015 40.574C42.0289 40.5027 41.934 40.4486 41.8334 40.4258C41.5905 40.3717 41.3671 40.4742 41.2386 40.6538C41.166 40.6167 41.0878 40.5654 41.0012 40.5056C40.803 40.366 40.5712 40.1693 40.3087 39.9356C40.1523 39.796 39.9875 39.6421 39.8116 39.4797C39.4709 39.1634 39.0967 38.8157 38.7001 38.4595C39.052 38.1603 39.4234 37.8696 39.8116 37.6018C39.9735 37.4906 40.1383 37.3823 40.3087 37.2797C40.5349 37.143 40.7639 37.0176 41.0012 36.9007C41.3559 36.7269 41.7217 36.5816 42.1015 36.4704C42.889 36.2396 43.7352 36.1627 44.6456 36.3108C44.9416 36.3593 45.2432 36.4305 45.5532 36.5274C45.5755 36.5417 45.5923 36.5103 45.57 36.4961Z" fill="white"/>
<path d="M6.10471 62.3738H5.41772V63.0748H6.10471V62.3738Z" fill="white"/>
<path d="M51.6719 61.5647V56.9368H51.0016V60.8807H48.4743V56.9368H47.8041V60.8807H45.1427V56.9368H44.0899C43.671 56.9368 43.2912 56.9938 42.9505 57.1106C42.6098 57.2274 42.3194 57.3899 42.0792 57.595C41.8391 57.8031 41.6547 58.0481 41.5235 58.3331C41.3922 58.6181 41.328 58.923 41.328 59.2536C41.328 59.6582 41.4034 60.003 41.5542 60.2937C41.705 60.5844 41.9061 60.8209 42.1574 61.009C42.4087 61.197 42.702 61.3367 43.0371 61.425C43.3722 61.5162 43.7241 61.5618 44.0927 61.5618L51.6719 61.5647ZM43.1069 60.7724C42.8863 60.6984 42.6936 60.5929 42.5288 60.4533C42.3641 60.3137 42.2356 60.1427 42.1407 59.9432C42.0457 59.7409 41.9982 59.5129 41.9982 59.2564C41.9982 59.0113 42.0513 58.7891 42.1546 58.5867C42.2579 58.3844 42.3948 58.2134 42.5651 58.0681C42.7355 57.9228 42.9282 57.8116 43.146 57.7347C43.3638 57.6577 43.5872 57.6207 43.8162 57.6207H44.4781V60.8836H43.8162C43.5649 60.8836 43.3275 60.8465 43.1069 60.7724Z" fill="white"/>
<path d="M38.0244 55.4492H37.3541V61.5647H38.0244V55.4492Z" fill="white"/>
<path d="M45.1427 55.4492H44.4557V56.1502H45.1427V55.4492Z" fill="white"/>
<path d="M51.6803 62.3652H50.9933V63.0663H51.6803V62.3652Z" fill="white"/>
<path d="M7.27757 62.3738H6.59058V63.0748H7.27757V62.3738Z" fill="white"/>
<path d="M34.7347 60.8835H33.64C33.249 60.8835 32.9418 60.8265 32.7184 60.7125C32.495 60.5985 32.3191 60.4275 32.1906 60.2024C32.2297 60.0257 32.2492 59.812 32.2492 59.5641V57.3641H31.579V59.6724C31.579 60.0656 31.4757 60.3791 31.269 60.6156C31.0624 60.8522 30.7496 60.969 30.3307 60.969C30.1352 60.969 29.9565 60.9376 29.7945 60.8749C29.6326 60.8123 29.4929 60.7268 29.3756 60.6185C29.2583 60.5102 29.1662 60.3848 29.0992 60.2395C29.0321 60.0941 28.9958 59.9402 28.9903 59.775V57.3641H28.32V59.7237C28.32 59.9346 28.2893 60.1112 28.2279 60.2566C28.1664 60.4019 28.0827 60.5216 27.9765 60.6156C27.8704 60.7097 27.7503 60.7781 27.6163 60.8208C27.4822 60.8636 27.3398 60.8835 27.189 60.8835H25.8932V57.3641H25.223V60.8835H21.7099L22.88 58.0281C22.7013 57.8685 22.5114 57.7203 22.3103 57.5807C22.1092 57.4411 21.9026 57.3185 21.6903 57.2131C21.4781 57.1077 21.2631 57.025 21.0452 56.9652C20.8274 56.9053 20.6124 56.8768 20.4001 56.8768C20.1823 56.8768 19.9645 56.9082 19.7467 56.9652C19.5289 57.025 19.3138 57.1048 19.0988 57.2074C18.8838 57.31 18.6771 57.4325 18.4788 57.575C18.2805 57.7175 18.0962 57.8657 17.9231 58.0253L19.1016 60.8806H16.7837V56.9367H15.7141C15.3008 56.9367 14.9238 56.9965 14.5831 57.1162C14.2424 57.2359 13.952 57.3983 13.709 57.6064C13.4661 57.8144 13.279 58.0623 13.1449 58.3473C13.0109 58.6351 12.9438 58.9457 12.9438 59.282C12.9438 59.6866 13.0165 60.0314 13.1645 60.3164C13.3125 60.6042 13.5135 60.8408 13.7677 61.0231C14.0218 61.2084 14.315 61.3451 14.6501 61.4306C14.9853 61.519 15.3399 61.5617 15.7141 61.5617H16.1163V61.7583C16.1163 62.1174 16.0157 62.371 15.8147 62.5249C15.6136 62.6788 15.3315 62.7557 14.9685 62.7557C14.7618 62.7557 14.5775 62.7358 14.4128 62.6959C14.248 62.656 14.0609 62.5876 13.8487 62.4907L13.6392 63.1461C13.8961 63.243 14.1223 63.3143 14.3206 63.3627C14.5189 63.4112 14.7172 63.4368 14.9182 63.4368C15.5717 63.4368 16.0437 63.2801 16.3397 62.9638C16.6357 62.6475 16.7837 62.2229 16.7837 61.69V61.5617H27.1834C27.5074 61.5617 27.795 61.4905 28.0491 61.348C28.3033 61.2055 28.5071 61.0146 28.6635 60.7781C28.8255 61.0516 29.0461 61.2654 29.3254 61.4164C29.6046 61.5703 29.937 61.6472 30.3223 61.6472C30.7245 61.6472 31.0652 61.576 31.3472 61.4335C31.6293 61.291 31.8443 61.0744 31.9951 60.7781C32.051 60.8749 32.118 60.969 32.199 61.063C32.28 61.1571 32.3833 61.2397 32.5117 61.3138C32.6402 61.3879 32.7966 61.4477 32.9753 61.4933C33.1122 61.5275 33.2769 61.5446 33.4557 61.5532V61.5617H35.3881V55.4463H34.7179V60.8835H34.7347ZM16.1246 60.8835H15.446C15.1947 60.8835 14.9601 60.8493 14.7395 60.7781C14.5189 60.7068 14.3262 60.6042 14.1586 60.4674C13.9911 60.3307 13.8598 60.1625 13.7649 59.9659C13.6699 59.7664 13.6225 59.5384 13.6225 59.2848C13.6225 59.0397 13.6727 58.8175 13.7761 58.6123C13.8794 58.4071 14.0162 58.2333 14.1866 58.0879C14.3569 57.9426 14.5496 57.8315 14.7674 57.7517C14.9853 57.6719 15.2115 57.632 15.446 57.632H16.1246V60.8835ZM19.8165 60.8835L18.772 58.2675C19.029 58.0452 19.2915 57.8828 19.5624 57.783C19.8332 57.6804 20.1153 57.6292 20.4113 57.6292C20.7129 57.6292 21.0117 57.689 21.3078 57.8115C21.6038 57.9341 21.8551 58.0851 22.0618 58.2675L21.0173 60.8835H19.8165Z" fill="white"/>
<path d="M3.81466 55.4492H3.12769V56.1502H3.81466V55.4492Z" fill="white"/>
<path d="M71.5162 55.4492H70.8292V56.1502H71.5162V55.4492Z" fill="white"/>
<path d="M65.5707 55.4492H64.9005V61.5647H65.5707V55.4492Z" fill="white"/>
<path d="M43.9698 55.4492H43.2828V56.1502H43.9698V55.4492Z" fill="white"/>
<path d="M11.8909 58.883C11.8909 58.6151 11.8574 58.3672 11.7848 58.1336C11.715 57.8999 11.6089 57.7032 11.4637 57.538C11.2849 57.3385 11.0867 57.1903 10.866 57.0906C10.6454 56.9908 10.3773 56.9424 10.059 56.9424H9.56469V57.6235H10.1511C10.3131 57.6235 10.4667 57.6605 10.6119 57.7289C10.7571 57.8001 10.8772 57.8913 10.9722 58.0053C11.0671 58.125 11.1313 58.2561 11.1677 58.3986C11.204 58.5411 11.2235 58.712 11.2235 58.9087V60.8863H8.08459V61.5674H11.8909V58.883Z" fill="white"/>
<path d="M100.981 55.4492H100.311V61.5647H100.981V55.4492Z" fill="white"/>
<path d="M72.6892 55.4492H72.0022V56.1502H72.6892V55.4492Z" fill="white"/>
<path d="M98.3617 55.4492H97.6915V60.8836H95.3903C95.53 60.5701 95.5998 60.2367 95.5998 59.8776C95.5998 59.5271 95.5356 59.1966 95.4127 58.8945C95.287 58.5896 95.1167 58.3274 94.8988 58.108C94.681 57.8857 94.4241 57.7119 94.1253 57.5836C93.8265 57.4554 93.5053 57.3927 93.159 57.3927C92.8239 57.3927 92.5112 57.4583 92.2207 57.5893C91.9303 57.7204 91.679 57.8971 91.4639 58.1222C91.2489 58.3474 91.0813 58.6095 90.9585 58.9116C90.8356 59.2137 90.7741 59.5357 90.7741 59.8833C90.7741 60.0657 90.7937 60.2395 90.83 60.4077C90.8663 60.5758 90.9138 60.7354 90.9752 60.8893H88.9003C89.0399 60.5758 89.1097 60.2424 89.1097 59.8833C89.1097 59.5328 89.0455 59.2023 88.9226 58.9002C88.797 58.5953 88.6266 58.3331 88.4088 58.1137C88.191 57.8914 87.934 57.7176 87.6352 57.5893C87.3364 57.4611 87.0153 57.3984 86.669 57.3984C86.3339 57.3984 86.0239 57.464 85.7335 57.595C85.443 57.7261 85.1917 57.9028 84.9767 58.1279C84.7616 58.3531 84.5941 58.6152 84.4712 58.9173C84.3483 59.2194 84.2869 59.5414 84.2869 59.889C84.2869 60.0714 84.3064 60.2452 84.3427 60.4134C84.379 60.5815 84.4265 60.7411 84.4879 60.895H82.3628V55.4606H81.6925V60.895H79.559V59.852C79.559 59.5898 79.5255 59.3419 79.4584 59.1054C79.3914 58.8688 79.2853 58.6694 79.1401 58.5041C78.9669 58.3046 78.7715 58.1564 78.5536 58.0595C78.3358 57.9626 78.0593 57.9142 77.7242 57.9142H74.7613L76.0207 55.4578H75.2918L74.0072 57.9057C74.0296 58.0538 74.0631 58.1821 74.1134 58.2904C74.1608 58.3987 74.2251 58.5012 74.3088 58.5981H77.7214C77.9337 58.5981 78.1152 58.6295 78.2688 58.6979C78.4224 58.7634 78.5453 58.8518 78.6402 58.9657C78.7352 59.0797 78.7994 59.2108 78.8329 59.359C78.8664 59.5072 78.8832 59.6725 78.8832 59.852V60.895H72.6919V56.951H71.6363C71.2174 56.951 70.8376 57.008 70.4997 57.1248C70.159 57.2417 69.8686 57.4041 69.6284 57.6093C69.3882 57.8173 69.2039 58.0624 69.0727 58.3474C68.9414 58.6323 68.8772 58.9372 68.8772 59.2678C68.8772 59.6725 68.9526 60.0173 69.1034 60.3079C69.2542 60.5986 69.4553 60.8351 69.7066 61.0232C69.9579 61.2113 70.2512 61.3509 70.5863 61.4393C70.9214 61.5305 71.2733 61.5761 71.6391 61.5761H84.918C85.1358 61.8154 85.3928 62.0035 85.6916 62.1431C85.9904 62.2828 86.3143 62.3512 86.6662 62.3512C87.0236 62.3512 87.356 62.2828 87.666 62.146C87.9759 62.0092 88.2412 61.8183 88.4646 61.5761H91.4109C91.6287 61.8154 91.8856 62.0035 92.1844 62.1431C92.4832 62.2828 92.8072 62.3512 93.159 62.3512C93.5165 62.3512 93.8488 62.2828 94.1588 62.146C94.4688 62.0092 94.7341 61.8183 94.9575 61.5761H98.3617V55.4492ZM72.0217 60.8836H71.3598C71.1085 60.8836 70.8739 60.8465 70.6533 60.7724C70.4327 60.6983 70.24 60.5929 70.0752 60.4533C69.9105 60.3136 69.782 60.1427 69.6871 59.9432C69.5921 59.7409 69.5446 59.5129 69.5446 59.2564C69.5446 59.0113 69.5949 58.7891 69.6982 58.5867C69.8016 58.3844 69.9384 58.2134 70.1087 58.0681C70.2791 57.9228 70.4718 57.8116 70.6896 57.7347C70.9074 57.6577 71.1308 57.6207 71.3598 57.6207H72.0217V60.8836ZM88.2999 60.5815C88.2077 60.8009 88.0821 60.989 87.9229 61.1486C87.7637 61.3082 87.5766 61.4307 87.3616 61.5191C87.1465 61.6074 86.9147 61.6501 86.6634 61.6501C86.4177 61.6501 86.1914 61.6017 85.982 61.5105C85.7726 61.4165 85.591 61.2882 85.4374 61.1258C85.2838 60.9634 85.1638 60.7753 85.0772 60.5587C84.9906 60.3421 84.9487 60.1113 84.9487 59.8691C84.9487 59.624 84.9934 59.3932 85.0772 59.1738C85.1638 58.9543 85.2838 58.7663 85.4347 58.6038C85.5855 58.4414 85.7642 58.3132 85.9736 58.2163C86.1831 58.1194 86.4121 58.0709 86.6634 58.0709C86.9203 58.0709 87.1549 58.1165 87.3699 58.2077C87.585 58.2989 87.7721 58.4243 87.9313 58.5839C88.0904 58.7435 88.2133 58.9315 88.3027 59.151C88.392 59.3704 88.4367 59.6098 88.4367 59.8719C88.4395 60.1256 88.392 60.3621 88.2999 60.5815ZM94.7927 60.5815C94.7006 60.8009 94.5749 60.989 94.4157 61.1486C94.2565 61.3082 94.0694 61.4307 93.8544 61.5191C93.6394 61.6074 93.4076 61.6501 93.1562 61.6501C92.9105 61.6501 92.6843 61.6017 92.4748 61.5105C92.2654 61.4165 92.0839 61.2882 91.9303 61.1258C91.7767 60.9634 91.6566 60.7753 91.57 60.5587C91.4835 60.3421 91.4388 60.1113 91.4388 59.8691C91.4388 59.624 91.4835 59.3932 91.57 59.1738C91.6566 58.9543 91.7739 58.7663 91.9247 58.6038C92.0755 58.4414 92.2542 58.3132 92.4637 58.2163C92.6731 58.1194 92.9021 58.0709 93.1535 58.0709C93.4104 58.0709 93.645 58.1165 93.86 58.2077C94.075 58.2989 94.2621 58.4243 94.4213 58.5839C94.5805 58.7435 94.7034 58.9315 94.7927 59.151C94.8821 59.3704 94.9268 59.6098 94.9268 59.8719C94.9324 60.1256 94.8849 60.3621 94.7927 60.5815Z" fill="white"/>
<path d="M1.70908 61.4279C2.0442 61.5191 2.39607 61.5647 2.76191 61.5647H7.14632V56.9368H6.47608V60.8807H3.81471V56.9368H2.75911C2.34022 56.9368 1.96321 56.9938 1.62251 57.1106C1.28181 57.2274 0.991381 57.3899 0.751216 57.595C0.51105 57.8031 0.32674 58.0481 0.195487 58.3331C0.0642337 58.6181 0 58.923 0 59.2536C0 59.6582 0.0754001 60.003 0.226202 60.2937C0.377003 60.5844 0.578064 60.8209 0.8294 61.009C1.08074 61.1999 1.37397 61.3395 1.70908 61.4279ZM0.670219 59.2564C0.670219 59.0113 0.723278 58.7891 0.826605 58.5867C0.929932 58.3844 1.06678 58.2134 1.23713 58.0681C1.40748 57.9228 1.60017 57.8116 1.818 57.7347C2.03582 57.6577 2.25922 57.6207 2.48822 57.6207H3.15007V60.8836H2.48822C2.23688 60.8836 2.00231 60.8465 1.78169 60.7724C1.56108 60.6984 1.36838 60.5929 1.20362 60.4533C1.03885 60.3137 0.91039 60.1427 0.815441 59.9432C0.717699 59.7409 0.670219 59.5129 0.670219 59.2564Z" fill="white"/>
<path d="M49.2339 62.3738H48.5469V63.0748H49.2339V62.3738Z" fill="white"/>
<path d="M48.061 62.3738H47.374V63.0748H48.061V62.3738Z" fill="white"/>
<path d="M54.2774 62.431C54.3193 62.2172 54.3416 61.9779 54.3416 61.71V61.5647H62.9513V55.4492H62.281V60.8836H59.4353L60.6055 58.0282C60.4267 57.8686 60.2368 57.7204 60.0358 57.5808C59.8347 57.4412 59.628 57.3186 59.4158 57.2132C59.2036 57.1077 58.9885 57.0251 58.7707 56.9653C58.5529 56.9054 58.3378 56.8769 58.1256 56.8769C57.9078 56.8769 57.69 56.9083 57.4721 56.9653C57.2543 57.0251 57.0393 57.1049 56.8242 57.2075C56.6092 57.3101 56.4026 57.4326 56.2043 57.5751C56.006 57.7176 55.8217 57.8658 55.6485 58.0253L56.827 60.8807H54.3332V56.9368H53.663V61.71C53.663 61.9038 53.6546 62.0662 53.6351 62.2001C53.6155 62.3341 53.582 62.4424 53.5345 62.525C53.4871 62.6076 53.4228 62.6675 53.3418 62.7045C53.2609 62.7416 53.1575 62.7615 53.0291 62.7615C52.9676 62.7615 52.9146 62.7587 52.8699 62.753C52.8252 62.7473 52.7638 62.733 52.6856 62.7102L52.5096 63.3657C52.694 63.417 52.8755 63.4426 53.0542 63.4426C53.2944 63.4426 53.4954 63.4027 53.6602 63.3229C53.825 63.2431 53.9562 63.1291 54.0567 62.9781C54.1657 62.8271 54.2355 62.6447 54.2774 62.431ZM56.4919 58.2676C56.7488 58.0453 57.0113 57.8829 57.2822 57.7831C57.5531 57.6805 57.8352 57.6292 58.1312 57.6292C58.4328 57.6292 58.7316 57.6891 59.0276 57.8116C59.3236 57.9341 59.575 58.0852 59.7816 58.2676L58.7372 60.8836H57.5419L56.4919 58.2676Z" fill="white"/>
<path d="M2.64181 55.4492H1.95483V56.1502H2.64181V55.4492Z" fill="white"/>
<path d="M4.80329 66.0442H3.77282L1.49683 68.4949V66.0442H0.65625V70.9143H1.49683V69.5037L2.24246 68.7229L3.87336 70.9143H4.89266L2.81494 68.1387L4.80329 66.0442Z" fill="white"/>
<path d="M6.49842 66.0442H5.65784V70.9143H6.49842V66.0442Z" fill="white"/>
<path d="M11.1314 69.4125L8.57052 66.0442H7.79138V70.9143H8.618V67.4491L11.2542 70.9143H11.958V66.0442H11.1314V69.4125Z" fill="white"/>
<path d="M15.4376 68.9396H16.6608V69.8515C16.3675 70.0738 15.957 70.2191 15.5074 70.2191C14.53 70.2191 13.8821 69.481 13.8821 68.4808V68.4665C13.8821 67.5347 14.5495 66.7482 15.432 66.7482C16.0408 66.7482 16.401 66.9505 16.7697 67.2697L17.3031 66.6228C16.8116 66.1982 16.2977 65.9617 15.4655 65.9617C14.0245 65.9617 12.9996 67.1158 12.9996 68.4808V68.495C12.9996 69.9142 13.9826 70.9999 15.4795 70.9999C16.3256 70.9999 17.0043 70.6523 17.4734 70.2419V68.1958H15.4376V68.9396Z" fill="white"/>
<path d="M20.414 66.0442H18.6323V70.9143H20.414C21.9164 70.9143 22.9553 69.8514 22.9553 68.4778V68.4636C22.9553 67.0957 21.9164 66.0442 20.414 66.0442ZM22.0756 68.4949C22.0756 69.4467 21.4194 70.1363 20.4168 70.1363H19.4757V66.825H20.4168C21.4222 66.825 22.0756 67.5289 22.0756 68.4807V68.4949Z" fill="white"/>
<path d="M26.2506 65.9617C24.7817 65.9617 23.7456 67.1101 23.7456 68.4808V68.495C23.7456 69.8657 24.7705 70.9999 26.2394 70.9999C27.7083 70.9999 28.7472 69.8515 28.7472 68.4808V68.4665C28.7416 67.0958 27.7167 65.9617 26.2506 65.9617ZM27.8619 68.495C27.8619 69.4411 27.2001 70.2134 26.2506 70.2134C25.3011 70.2134 24.6253 69.4269 24.6253 68.4808V68.4665C24.6253 67.5205 25.2871 66.7482 26.2366 66.7482C27.1861 66.7482 27.8619 67.5347 27.8619 68.4808V68.495Z" fill="white"/>
<path d="M32.1347 68.3467L30.6798 66.0442H29.7861V70.9143H30.6128V67.4377L32.1096 69.7174H32.1347L33.6455 67.4234V70.9143H34.4861V66.0442H33.5897L32.1347 68.3467Z" fill="white"/>
<path d="M40.0602 65.9617C38.5912 65.9617 37.5552 67.1101 37.5552 68.4808V68.495C37.5552 69.8657 38.5801 70.9999 40.049 70.9999C41.5179 70.9999 42.5568 69.8515 42.5568 68.4808V68.4665C42.554 67.0958 41.5291 65.9617 40.0602 65.9617ZM41.6715 68.495C41.6715 69.4411 41.0096 70.2134 40.0602 70.2134C39.1107 70.2134 38.4348 69.4269 38.4348 68.4808V68.4665C38.4348 67.5205 39.0967 66.7482 40.0462 66.7482C40.9957 66.7482 41.6715 67.5347 41.6715 68.4808V68.495Z" fill="white"/>
<path d="M43.5984 70.9143H44.439V68.9309H46.849V68.153H44.439V66.825H47.1562V66.0442H43.5984V70.9143Z" fill="white"/>
<path d="M51.9735 68.0903C51.0575 67.868 50.8397 67.6999 50.8397 67.3266V67.3123C50.8397 66.9932 51.1273 66.7338 51.6188 66.7338C52.0573 66.7338 52.4873 66.9077 52.9174 67.2354L53.367 66.5885C52.8811 66.1924 52.3281 65.9758 51.6328 65.9758C50.6833 65.9758 49.9991 66.5543 49.9991 67.3864V67.4007C49.9991 68.2983 50.5744 68.6032 51.5909 68.854C52.4789 69.062 52.6688 69.2501 52.6688 69.5978V69.6149C52.6688 69.9853 52.3421 70.2276 51.8227 70.2276C51.2278 70.2276 50.7698 69.9967 50.3119 69.5949L49.8064 70.2076C50.3817 70.7291 51.0687 70.9856 51.8003 70.9856C52.8057 70.9856 53.5066 70.4441 53.5066 69.5322V69.518C53.5094 68.7087 52.9844 68.3411 51.9735 68.0903Z" fill="white"/>
<path d="M56.0842 66.01L53.9813 70.9143H54.8414L55.333 69.7374H57.595L58.0809 70.9143H58.9689L56.8661 66.01H56.0842ZM55.6401 68.9822L56.4612 67.033L57.2878 68.9822H55.6401Z" fill="white"/>
<path d="M62.7111 68.8483C62.7111 69.7459 62.2531 70.2047 61.5074 70.2047C60.7562 70.2047 60.2982 69.7174 60.2982 68.8141V66.0442H59.4576V68.8483C59.4576 70.2589 60.2507 70.9912 61.4935 70.9912C62.7446 70.9912 63.5488 70.2617 63.5488 68.8084V66.047H62.7083V68.8483H62.7111Z" fill="white"/>
<path d="M66.5649 66.0442H64.7832V70.9143H66.5649C68.0673 70.9143 69.1062 69.8514 69.1062 68.4778V68.4636C69.1062 67.0957 68.0673 66.0442 66.5649 66.0442ZM68.2237 68.4949C68.2237 69.4467 67.5674 70.1363 66.5649 70.1363H65.6238V66.825H66.5649C67.5702 66.825 68.2237 67.5289 68.2237 68.4807V68.4949Z" fill="white"/>
<path d="M71.0107 66.0442H70.1702V70.9143H71.0107V66.0442Z" fill="white"/>
<path d="M76.0291 66.01L73.9263 70.9143H74.7864L75.2779 69.7374H77.5399L78.0258 70.9143H78.9139L76.8111 66.01H76.0291ZM75.5851 68.9822L76.4061 67.033L77.2327 68.9822H75.5851Z" fill="white"/>
<path d="M83.6139 67.5973V67.583C83.6139 67.1584 83.4715 66.7965 83.2174 66.5315C82.9102 66.2266 82.4382 66.0442 81.8378 66.0442H79.707V70.9143H80.5476V69.2159H81.5865H81.6004L82.7761 70.9143H83.7675L82.4773 69.0706C83.142 68.8768 83.6139 68.3952 83.6139 67.5973ZM80.5476 68.4579V66.8222H81.7708C82.3935 66.8222 82.7622 67.1071 82.7622 67.6286V67.6429C82.7622 68.1359 82.3796 68.4579 81.7792 68.4579H80.5476Z" fill="white"/>
<path d="M86.4847 66.01L84.3818 70.9143H85.242L85.7335 69.7374H87.9955L88.4814 70.9143H89.3695L87.2666 66.01H86.4847ZM86.0407 68.9822L86.8617 67.033L87.6883 68.9822H86.0407Z" fill="white"/>
<path d="M93.1926 68.3839C93.5472 68.1958 93.8768 67.8823 93.8768 67.2981V67.2839C93.8768 66.9562 93.7679 66.694 93.5556 66.4774C93.2819 66.1981 92.8519 66.0471 92.3045 66.0471H90.1598V70.9172H92.3715C93.4383 70.9172 94.1393 70.4527 94.1393 69.5807V69.5665C94.1421 68.9054 93.7539 68.5776 93.1926 68.3839ZM90.9864 66.8023H92.1956C92.7346 66.8023 93.0362 67.0388 93.0362 67.4207V67.4349C93.0362 67.8795 92.6731 68.096 92.1342 68.096H90.9864V66.8023ZM93.3015 69.4895C93.3015 69.9284 92.9524 70.1564 92.3799 70.1564H90.9864V68.8199H92.3185C92.9803 68.8199 93.3015 69.0649 93.3015 69.4753V69.4895Z" fill="white"/>
<path d="M96.0243 66.0442H95.1837V70.9143H96.0243V66.0442Z" fill="white"/>
<path d="M99.7078 66.01H98.9287L96.8258 70.9143H97.6859L98.1774 69.7374H100.439L100.925 70.9143H101.813L99.7078 66.01ZM98.4846 68.9822L99.3057 67.033L100.132 68.9822H98.4846Z" fill="white"/>
</svg>
