<svg width="18" height="10" viewBox="0 0 18 10" fill="none" xmlns="http://www.w3.org/2000/svg">
<path d="M2.91113 2.08999C4.65027 0.737924 5.6093 -0.00816059 6.66602 0.445464C7.74826 0.919865 7.74805 2.10309 7.74805 4.2482V4.25015H17C17.4142 4.25015 17.75 4.58594 17.75 5.00015C17.75 5.41436 17.4142 5.75015 17 5.75015H7.74805C7.74805 7.89456 7.74792 9.07762 6.67188 9.54898C5.60933 10.0053 4.6518 9.25959 2.91309 7.90933L1.94922 7.15738C0.890985 6.34049 0.251953 5.84474 0.251953 4.9982C0.252164 4.15191 0.890634 3.65628 1.9502 2.83804L2.91113 2.08999ZM6.06055 1.79605C5.83208 1.69969 4.77229 2.52276 3.83887 3.24917L2.87793 3.9982C2.87769 3.99821 2.87632 3.99792 2.875 3.99917C2.39398 4.3713 1.79412 4.83559 1.74902 5.00015V5.00113C1.79412 5.15976 2.39398 5.62315 2.875 5.99527L3.83984 6.74624C4.77281 7.47231 5.83063 8.29523 6.06738 8.19546C6.24776 8.01014 6.24805 6.80874 6.24805 5.74722V4.24722C6.24805 3.18733 6.24837 1.98458 6.06055 1.79605Z" fill="#161616"/>
</svg>
