<svg width="12" height="8" viewBox="0 0 12 8" fill="none" xmlns="http://www.w3.org/2000/svg">
<path d="M1.87419 1.1294C1.97576 1.26388 2.27902 1.66534 2.45963 1.89676C2.82135 2.36027 3.31561 2.97618 3.84878 3.59026C4.38465 4.20744 4.94758 4.80852 5.44767 5.25039C5.69843 5.47195 5.91871 5.64031 6.10049 5.74989C6.27145 5.85296 6.37243 5.87439 6.37243 5.87439C6.37243 5.87439 6.47046 5.85295 6.64141 5.7499C6.82318 5.64032 7.04346 5.47196 7.29422 5.25039C7.79431 4.80852 8.35724 4.20744 8.89311 3.59025C9.42628 2.97616 9.92054 2.36025 10.2823 1.89673C10.4629 1.66531 10.7657 1.26442 10.8673 1.12994C11.072 0.852004 11.4636 0.792058 11.7416 0.996751C12.0195 1.20145 12.0789 1.59269 11.8742 1.87063L11.8726 1.87273C11.7661 2.01376 11.452 2.42963 11.2677 2.66577C10.8978 3.13975 10.3891 3.77384 9.83698 4.40976C9.28755 5.04257 8.68282 5.69149 8.12189 6.18712C7.84214 6.4343 7.55857 6.65656 7.28676 6.82042C7.03211 6.97393 6.7097 7.125 6.37094 7.125C6.03218 7.125 5.70978 6.97393 5.45513 6.82041C5.18333 6.65656 4.89975 6.4343 4.62 6.18712C4.05907 5.69149 3.45435 5.04258 2.90491 4.40977C2.35278 3.77386 1.84409 3.13978 1.47419 2.6658C1.2898 2.42953 0.975733 2.01371 0.869394 1.87292L0.867993 1.87107C0.663298 1.59313 0.722377 1.20149 1.00031 0.996793C1.27824 0.792105 1.66949 0.851493 1.87419 1.1294Z" fill="#161616"/>
</svg>
