<svg width="16" height="20" viewBox="0 0 16 20" fill="none" xmlns="http://www.w3.org/2000/svg">
<path d="M10 11.25C13.17 11.25 15.75 13.83 15.75 17C15.75 18.52 14.52 19.75 13 19.75H3C1.48 19.75 0.25 18.52 0.25 17C0.25 13.83 2.83 11.25 6 11.25H10ZM6 12.75C3.66 12.75 1.75 14.66 1.75 17C1.75 17.69 2.31 18.25 3 18.25H13C13.69 18.25 14.25 17.69 14.25 17C14.25 14.66 12.34 12.75 10 12.75H6ZM8 0.25C10.62 0.25 12.75 2.38 12.75 5C12.75 7.62 10.62 9.75 8 9.75C5.38 9.75 3.25 7.62 3.25 5C3.25 2.38 5.38 0.25 8 0.25ZM8 1.75C6.21 1.75 4.75 3.21 4.75 5C4.75 6.79 6.21 8.25 8 8.25C9.79 8.25 11.25 6.79 11.25 5C11.25 3.21 9.79 1.75 8 1.75Z" fill="#1B8354"/>
</svg>
