<?xml version="1.0" encoding="utf-8"?>
<!-- Generator: Adobe Illustrator 16.0.0, SVG Export Plug-In . SVG Version: 6.00 Build 0)  -->
<!DOCTYPE svg PUBLIC "-//W3C//DTD SVG 1.1//EN" "http://www.w3.org/Graphics/SVG/1.1/DTD/svg11.dtd">
<svg version="1.1" id="Layer_1" xmlns="http://www.w3.org/2000/svg" xmlns:xlink="http://www.w3.org/1999/xlink" x="0px" y="0px"
	 width="102px" height="102px" viewBox="0 0 102 102" enable-background="new 0 0 102 102" xml:space="preserve">
<g>
	<path fill="#231F20" d="M7.25,19.75c0-3.457,2.793-6.25,6.25-6.25h75c3.457,0,6.25,2.793,6.25,6.25S91.957,26,88.5,26h-75
		C10.043,26,7.25,23.207,7.25,19.75z M7.25,51c0-3.457,2.793-6.25,6.25-6.25h75c3.457,0,6.25,2.793,6.25,6.25s-2.793,6.25-6.25,6.25
		h-75C10.043,57.25,7.25,54.457,7.25,51z M94.75,82.25c0,3.457-2.793,6.25-6.25,6.25h-75c-3.457,0-6.25-2.793-6.25-6.25
		S10.043,76,13.5,76h75C91.957,76,94.75,78.793,94.75,82.25z"/>
</g>
</svg>
