<svg width="24" height="24" viewBox="0 0 24 24" fill="none" xmlns="http://www.w3.org/2000/svg">
<path fill-rule="evenodd" clip-rule="evenodd" d="M6 1.25C6.41421 1.25 6.75 1.58579 6.75 2V2.36589C7.88606 2.24997 9.28402 2.24998 10.9892 2.25H13.0108C14.716 2.24998 16.1139 2.24997 17.25 2.36589V2C17.25 1.58579 17.5858 1.25 18 1.25C18.4142 1.25 18.75 1.58579 18.75 2V2.63479C19.5548 2.86288 20.2335 3.2336 20.7985 3.84436C21.5764 4.68535 21.9222 5.74792 22.0878 7.07951C22.25 8.38431 22.25 10.0565 22.25 12.1901V12.8099C22.25 14.9435 22.25 16.6157 22.0878 17.9205C21.9222 19.2521 21.5764 20.3147 20.7985 21.1556C20.0129 22.0049 19.0072 22.3901 17.7487 22.573C16.5307 22.75 14.9745 22.75 13.0108 22.75H10.9892C9.02555 22.75 7.46932 22.75 6.25129 22.573C4.99276 22.3901 3.98714 22.0049 3.20154 21.1556C2.42363 20.3147 2.07785 19.2521 1.91225 17.9205C1.74998 16.6157 1.74999 14.9435 1.75 12.81V12.19C1.74999 10.0565 1.74998 8.3843 1.91225 7.07951C2.07785 5.74792 2.42363 4.68535 3.20154 3.84436C3.7665 3.2336 4.44524 2.86288 5.25 2.63479V2C5.25 1.58579 5.58579 1.25 6 1.25ZM6 4.75C5.65717 4.75 5.36806 4.51998 5.2786 4.20584C4.87129 4.36791 4.56203 4.58256 4.30269 4.86292C3.83044 5.37347 3.55052 6.07336 3.40261 7.25H20.5974C20.4495 6.07336 20.1696 5.37347 19.6973 4.86292C19.438 4.58256 19.1287 4.36791 18.7214 4.20585C18.6319 4.51998 18.3428 4.75 18 4.75C17.5858 4.75 17.25 4.41421 17.25 4V3.87459C16.189 3.75156 14.8176 3.75 12.95 3.75H11.05C9.18237 3.75 7.81101 3.75156 6.75 3.87459V4C6.75 4.41421 6.41421 4.75 6 4.75ZM20.7111 8.75H3.28892C3.25055 9.70689 3.25 10.8508 3.25 12.2432V12.7568C3.25 14.9551 3.25137 16.5339 3.40078 17.7354C3.54821 18.9208 3.82849 19.6244 4.30269 20.1371C4.76921 20.6414 5.39728 20.9331 6.46704 21.0886C7.56476 21.2481 9.01188 21.25 11.05 21.25H12.95C14.9881 21.25 16.4352 21.2481 17.533 21.0886C18.6027 20.9331 19.2308 20.6414 19.6973 20.1371C20.1715 19.6244 20.4518 18.9208 20.5992 17.7354C20.7486 16.5339 20.75 14.9551 20.75 12.7568V12.2432C20.75 10.8508 20.7495 9.70689 20.7111 8.75Z" fill="#384250"/>
</svg>
