<svg width="24" height="24" viewBox="0 0 24 24" fill="none" xmlns="http://www.w3.org/2000/svg">
<path d="M9.53036 8.4697C9.23748 8.17679 8.76261 8.17676 8.4697 8.46964C8.17679 8.76252 8.17676 9.23739 8.46964 9.5303L10.9394 12.0003L8.47028 14.4697C8.1774 14.7626 8.17743 15.2375 8.47034 15.5304C8.76325 15.8232 9.23812 15.8232 9.531 15.5303L12 13.061L14.469 15.5303C14.7619 15.8232 15.2368 15.8232 15.5297 15.5304C15.8226 15.2375 15.8226 14.7626 15.5297 14.4697L13.0606 12.0003L15.5304 9.5303C15.8232 9.23739 15.8232 8.76252 15.5303 8.46964C15.2374 8.17676 14.7625 8.17679 14.4696 8.4697L12 10.9396L9.53036 8.4697Z" fill="#161616"/>
<path fill-rule="evenodd" clip-rule="evenodd" d="M12 22.75C6.06294 22.75 1.25 17.9371 1.25 12C1.25 6.06294 6.06294 1.25 12 1.25C17.9371 1.25 22.75 6.06294 22.75 12C22.75 17.9371 17.9371 22.75 12 22.75ZM2.75 12C2.75 17.1086 6.89137 21.25 12 21.25C17.1086 21.25 21.25 17.1086 21.25 12C21.25 6.89137 17.1086 2.75 12 2.75C6.89137 2.75 2.75 6.89137 2.75 12Z" fill="#161616"/>
</svg>
