<?xml version="1.0" encoding="utf-8"?>
<!-- Generator: Adobe Illustrator 16.0.0, SVG Export Plug-In . SVG Version: 6.00 Build 0)  -->
<!DOCTYPE svg PUBLIC "-//W3C//DTD SVG 1.1//EN" "http://www.w3.org/Graphics/SVG/1.1/DTD/svg11.dtd">
<svg version="1.1" id="Layer_1" xmlns="http://www.w3.org/2000/svg" xmlns:xlink="http://www.w3.org/1999/xlink" x="0px" y="0px"
	 width="102px" height="102px" viewBox="0 0 102 102" enable-background="new 0 0 102 102" xml:space="preserve">
<path fill="#231F20" d="M98.446,85.941L63.489,50.979l34.957-34.959c1.647-1.647,2.554-3.863,2.554-6.242
	c0-2.378-0.906-4.594-2.554-6.239c-1.647-1.648-3.862-2.556-6.241-2.556c-2.378,0-4.595,0.907-6.242,2.554L51.004,38.495
	L16.044,3.537c-1.647-1.646-3.861-2.554-6.237-2.554c-2.378,0-4.597,0.907-6.246,2.556C1.909,5.186,1,7.401,1,9.778
	c0,2.378,0.909,4.594,2.559,6.24l34.96,34.961L3.561,85.939C1.909,87.588,1,89.804,1,92.181c0,2.379,0.909,4.594,2.559,6.24
	c1.669,1.677,3.883,2.596,6.244,2.596c2.36,0,4.575-0.919,6.237-2.59l34.964-34.961l34.959,34.957
	c2.136,2.145,4.573,2.594,6.242,2.594c1.664,0,4.097-0.449,6.241-2.594c1.647-1.647,2.554-3.862,2.554-6.242
	C101,89.803,100.094,87.587,98.446,85.941z"/>
</svg>
