<svg width="24" height="24" viewBox="0 0 24 24" fill="none" xmlns="http://www.w3.org/2000/svg">
<path fill-rule="evenodd" clip-rule="evenodd" d="M5.853 8.36454C3.22664 8.89643 1.25 11.217 1.25 14C1.25 17.1756 3.82436 19.75 7 19.75H17.5C20.3995 19.75 22.75 17.3995 22.75 14.5C22.75 11.8541 20.7927 9.66534 18.2469 9.30273C18.1428 5.94224 15.3858 3.25 12 3.25C8.93585 3.25 6.38731 5.45456 5.853 8.36454ZM7.41211 8.26457C8.54729 8.34508 9.59274 8.75556 10.451 9.40038C10.7822 9.64919 10.8489 10.1193 10.6001 10.4505C10.3513 10.7817 9.88114 10.8484 9.54998 10.5996C8.83967 10.0659 7.95781 9.75 7 9.75C6.86199 9.75 6.72573 9.75655 6.59147 9.76933C4.4363 9.97442 2.75 11.7907 2.75 14C2.75 16.3472 4.65279 18.25 7 18.25H17.5C19.5711 18.25 21.25 16.5711 21.25 14.5C21.25 12.6382 19.8932 11.0933 18.1144 10.8001C17.9022 11.8026 17.4499 12.7163 16.8211 13.4776C16.5574 13.797 16.0846 13.842 15.7653 13.5783C15.4459 13.3145 15.4008 12.8418 15.6646 12.5224C16.2572 11.8048 16.6424 10.9117 16.7306 9.93273C16.7434 9.79039 16.75 9.64606 16.75 9.5C16.75 6.87665 14.6234 4.75 12 4.75C9.80411 4.75 7.95572 6.24047 7.41211 8.26457Z" fill="#384250"/>
</svg>
