<svg width="20" height="20" viewBox="0 0 20 20" fill="none" xmlns="http://www.w3.org/2000/svg">
<path fill-rule="evenodd" clip-rule="evenodd" d="M7.95775 1.04166H7.87623C6.54101 1.04165 5.48322 1.04164 4.64637 1.14056C3.78723 1.24211 3.07998 1.45531 2.48919 1.94016C2.28876 2.10464 2.10498 2.28842 1.94049 2.48885C1.45565 3.07964 1.24245 3.78689 1.14089 4.64603C1.04197 5.48288 1.04198 6.54068 1.04199 7.8759V7.95742C1.04198 9.29263 1.04197 10.3504 1.14089 11.1873C1.24245 12.0464 1.45564 12.7537 1.94049 13.3445C2.10498 13.5449 2.28876 13.7287 2.48919 13.8932C3.04908 14.3526 3.71357 14.5682 4.51319 14.6759C5.16224 14.7634 5.94353 14.7846 6.88425 14.7899C6.8951 15.3083 6.91915 15.7635 6.97243 16.1598C7.07328 16.9099 7.28902 17.5414 7.79062 18.043C8.29221 18.5446 8.92378 18.7604 9.67387 18.8612C10.3963 18.9584 11.3149 18.9583 12.4546 18.9583H13.3794C14.519 18.9583 15.4376 18.9584 16.1601 18.8612C16.9102 18.7604 17.5418 18.5446 18.0434 18.043C18.545 17.5414 18.7607 16.9099 18.8616 16.1598C18.9587 15.4373 18.9587 14.5187 18.9587 13.379V12.4543C18.9587 11.3146 18.9587 10.396 18.8616 9.67353C18.7607 8.92344 18.545 8.29188 18.0434 7.79028C17.5418 7.28869 16.9102 7.07294 16.1601 6.97209C15.7639 6.91882 15.3086 6.89477 14.7902 6.88391C14.7849 5.94319 14.7637 5.16191 14.6763 4.51285C14.5685 3.71323 14.353 3.04874 13.8935 2.48885C13.729 2.28842 13.5452 2.10464 13.3448 1.94016C12.754 1.45531 12.0468 1.24211 11.1876 1.14056C10.3508 1.04164 9.29297 1.04165 7.95775 1.04166ZM13.5401 6.875C13.5345 5.94985 13.5137 5.24569 13.4375 4.67979C13.3468 4.00665 13.185 3.59594 12.9272 3.28184C12.8147 3.14471 12.6889 3.01896 12.5518 2.90642C12.2206 2.63464 11.782 2.46952 11.0409 2.38192C10.286 2.29268 9.30209 2.29166 7.91699 2.29166C6.5319 2.29166 5.54803 2.29268 4.7931 2.38191C4.05197 2.46952 3.61335 2.63464 3.28218 2.90642C3.14504 3.01896 3.0193 3.14471 2.90676 3.28184C2.63497 3.61301 2.46986 4.05163 2.38225 4.79276C2.29302 5.54769 2.29199 6.53156 2.29199 7.91666C2.29199 9.30175 2.29302 10.2856 2.38225 11.0405C2.46985 11.7817 2.63497 12.2203 2.90676 12.5515C3.0193 12.6886 3.14504 12.8143 3.28218 12.9269C3.59627 13.1847 4.00698 13.3464 4.68012 13.4371C5.24603 13.5134 5.95018 13.5342 6.87533 13.5397C6.87532 13.4867 6.87533 13.4331 6.87533 13.3791V12.4543C6.87531 11.3146 6.8753 10.396 6.97243 9.67353C7.07328 8.92344 7.28902 8.29188 7.79062 7.79028C8.29222 7.28868 8.92378 7.07294 9.67387 6.97209C10.3963 6.87496 11.3149 6.87497 12.4546 6.87499H13.3794C13.4334 6.87499 13.487 6.87499 13.5401 6.875ZM8.6745 8.67417C8.90514 8.44353 9.22895 8.29316 9.84043 8.21095C10.4699 8.12632 11.3041 8.12499 12.5003 8.12499H13.3337C14.5298 8.12499 15.3641 8.12632 15.9936 8.21095C16.605 8.29316 16.9288 8.44353 17.1595 8.67417C17.3901 8.9048 17.5405 9.22861 17.6227 9.84009C17.7073 10.4696 17.7087 11.3038 17.7087 12.5V13.3333C17.7087 14.5295 17.7073 15.3638 17.6227 15.9932C17.5405 16.6047 17.3901 16.9285 17.1595 17.1591C16.9288 17.3898 16.605 17.5402 15.9936 17.6224C15.3641 17.707 14.5298 17.7083 13.3337 17.7083H12.5003C11.3041 17.7083 10.4699 17.707 9.84043 17.6224C9.22895 17.5402 8.90514 17.3898 8.6745 17.1591C8.44386 16.9285 8.29349 16.6047 8.21128 15.9932C8.12665 15.3638 8.12533 14.5295 8.12533 13.3333V12.5C8.12533 11.3038 8.12665 10.4695 8.21128 9.84009C8.29349 9.22861 8.44387 8.9048 8.6745 8.67417Z" fill="#1B8354"/>
</svg>
