<svg width="16" height="20" viewBox="0 0 16 20" fill="none" xmlns="http://www.w3.org/2000/svg">
<path d="M10 11.2821C13.2513 11.2821 15.8974 13.9282 15.8974 17.1795C15.8974 18.7385 14.6359 20 13.0769 20H2.82051C1.26154 20 0 18.7385 0 17.1795C0 13.9282 2.64615 11.2821 5.89744 11.2821H10ZM5.89744 12.8205C3.49744 12.8205 1.53846 14.7795 1.53846 17.1795C1.53846 17.8872 2.11282 18.4615 2.82051 18.4615H13.0769C13.7846 18.4615 14.359 17.8872 14.359 17.1795C14.359 14.7795 12.4 12.8205 10 12.8205H5.89744ZM7.94872 0C10.6359 0 12.8205 2.18462 12.8205 4.87179C12.8205 7.55897 10.6359 9.74359 7.94872 9.74359C5.26154 9.74359 3.07692 7.55897 3.07692 4.87179C3.07692 2.18462 5.26154 0 7.94872 0ZM7.94872 1.53846C6.11282 1.53846 4.61538 3.0359 4.61538 4.87179C4.61538 6.70769 6.11282 8.20513 7.94872 8.20513C9.78462 8.20513 11.2821 6.70769 11.2821 4.87179C11.2821 3.0359 9.78462 1.53846 7.94872 1.53846Z" fill="#1B8354"/>
</svg>
