<svg width="22" height="22" viewBox="0 0 22 22" fill="none" xmlns="http://www.w3.org/2000/svg">
<path d="M19.186 22C20.7402 22 22 20.7402 22 19.186C22 17.6319 20.7402 16.3721 19.186 16.3721C18.6573 16.3721 18.1647 16.5212 17.7421 16.7748L14.9851 14.8042C15.5361 14.0161 15.8605 13.0578 15.8605 12.0233C15.8605 9.60007 14.0871 7.59174 11.7674 7.22375V5.51899C12.9481 5.18467 13.814 4.10172 13.814 2.81395C13.814 1.25985 12.5541 0 11 0C9.4459 0 8.18605 1.25985 8.18605 2.81395C8.18605 4.10172 9.05186 5.18467 10.2326 5.51899V7.22375C7.9129 7.59174 6.13953 9.60007 6.13953 12.0233C6.13953 13.0576 6.4631 14.0162 7.0139 14.8042L4.2569 16.7748C3.83449 16.5215 3.34235 16.3721 2.81395 16.3721C1.25985 16.3721 0 17.6319 0 19.186C0 20.7402 1.25985 22 2.81395 22C4.36806 22 5.62791 20.7402 5.62791 19.186C5.62791 18.7237 5.51371 18.2888 5.31613 17.904L8.09311 15.9194C8.90381 16.5252 9.91011 16.8837 11 16.8837C12.0896 16.8837 13.0953 16.525 13.9059 15.9194L16.6829 17.904C16.4854 18.2887 16.3721 18.7239 16.3721 19.186C16.3721 20.7402 17.6319 22 19.186 22ZM11 4.09302C10.2936 4.09302 9.72093 3.52036 9.72093 2.81395C9.72093 2.10754 10.2936 1.53488 11 1.53488C11.7064 1.53488 12.2791 2.10754 12.2791 2.81395C12.2791 3.52036 11.7064 4.09302 11 4.09302ZM11 15.3488C9.16333 15.3488 7.67442 13.8599 7.67442 12.0233C7.67442 10.1866 9.16333 8.69767 11 8.69767C12.8367 8.69767 14.3256 10.1866 14.3256 12.0233C14.3256 13.8599 12.8367 15.3488 11 15.3488ZM2.81395 20.4651C2.10754 20.4651 1.53488 19.8925 1.53488 19.186C1.53488 18.4796 2.10754 17.907 2.81395 17.907C3.52036 17.907 4.09302 18.4796 4.09302 19.186C4.09302 19.8925 3.52036 20.4651 2.81395 20.4651ZM19.186 20.4651C18.4796 20.4651 17.907 19.8925 17.907 19.186C17.907 18.4796 18.4796 17.907 19.186 17.907C19.8925 17.907 20.4651 18.4796 20.4651 19.186C20.4651 19.8925 19.8925 20.4651 19.186 20.4651Z" fill="#161616"/>
</svg>
