<svg width="26" height="26" viewBox="0 0 26 26" fill="none" xmlns="http://www.w3.org/2000/svg">
<path d="M17.3167 17.675C18.1326 17.675 18.9055 18.3656 18.7904 19.3066C18.6541 20.4192 18.178 21.7647 16.8987 22.4523C16.7914 23.4323 16.5485 24.3101 15.9756 24.9564C15.2561 25.7677 14.2117 26.0111 13.009 25.9989C11.6962 26.0208 10.6443 25.712 9.94428 24.8622C9.39277 24.1926 9.17216 23.3084 9.06271 22.3906C8.52736 22.0522 8.11978 21.6552 7.82587 21.178C7.46278 20.5885 7.32227 19.953 7.24794 19.3349C7.13696 18.4106 7.8818 17.675 8.73781 17.675H17.3167ZM10.9544 22.7418C11.0498 23.2069 11.179 23.509 11.3441 23.7094C11.5494 23.9585 11.9456 24.2043 12.9888 24.1851C12.9978 24.1849 13.0071 24.185 13.0161 24.1851C14.0167 24.1969 14.412 23.9856 14.6183 23.7529C14.7832 23.5668 14.926 23.2624 15.0242 22.7418H10.9544ZM9.10522 19.4888C9.16546 19.7977 9.24977 20.0307 9.3704 20.2266C9.50911 20.4518 9.73273 20.6873 10.1487 20.928H15.8815C16.43 20.7016 16.764 20.2011 16.922 19.4888H9.10522ZM12.9989 4.23277C17.867 4.23277 21.7651 8.29568 21.7651 13.2479C21.7651 14.5825 21.4829 15.8521 20.9746 16.9949C20.771 17.4524 20.2348 17.6589 19.7772 17.4554C19.3196 17.2518 19.1141 16.7156 19.3177 16.258C19.7244 15.3438 19.9513 14.3248 19.9513 13.2479C19.9513 9.24365 16.8124 6.04653 12.9989 6.04653C9.18549 6.04653 6.04653 9.24365 6.04653 13.2479C6.04653 14.3248 6.27343 15.3438 6.68013 16.258C6.88371 16.7156 6.67823 17.2518 6.22062 17.4554C5.76303 17.6589 5.22682 17.4524 5.02325 16.9949C4.51489 15.8521 4.23278 14.5825 4.23277 13.2479C4.23277 8.29567 8.13088 4.23277 12.9989 4.23277ZM2.11639 12.092C2.61724 12.092 3.02326 12.4981 3.02326 12.9989C3.02326 13.4998 2.61724 13.9058 2.11639 13.9058H0.906878C0.406178 13.9056 1.66833e-08 13.4997 0 12.9989C0 12.4982 0.406178 12.0922 0.906878 12.092H2.11639ZM25.091 12.092C25.5917 12.0922 25.9978 12.4982 25.9978 12.9989C25.9978 13.4997 25.5917 13.9056 25.091 13.9058H23.8815C23.3806 13.9058 22.9746 13.4998 22.9746 12.9989C22.9746 12.4981 23.3806 12.092 23.8815 12.092H25.091ZM3.80869 3.80869C4.16284 3.45453 4.73691 3.45453 5.09107 3.80869L5.94633 4.66394C6.30008 5.01814 6.30035 5.59231 5.94633 5.94633C5.59231 6.30035 5.01814 6.30008 4.66394 5.94633L3.80869 5.09107C3.45453 4.73691 3.45453 4.16284 3.80869 3.80869ZM20.9068 3.80869C21.2609 3.45454 21.835 3.45457 22.1892 3.80869C22.5433 4.16284 22.5433 4.73691 22.1892 5.09107L21.3349 5.94633C20.9808 6.30049 20.4057 6.30048 20.0515 5.94633C19.6976 5.59232 19.6978 5.01812 20.0515 4.66394L20.9068 3.80869ZM12.9989 0C13.4997 1.66835e-08 13.9056 0.406178 13.9058 0.906878V2.11639C13.9058 2.61724 13.4998 3.02326 12.9989 3.02326C12.4981 3.02326 12.092 2.61724 12.092 2.11639V0.906878C12.0922 0.406178 12.4982 0 12.9989 0Z" fill="#067647"/>
</svg>
