<svg width="21" height="22" viewBox="0 0 21 22" fill="none" xmlns="http://www.w3.org/2000/svg">
<path d="M14.1255 7.47253e-07C15.5248 -2.03539e-05 16.6529 -0.000334821 17.54 0.118913C18.461 0.242742 19.2364 0.508268 19.8523 1.12417C20.4682 1.74007 20.7337 2.51543 20.8575 3.43645C20.9768 4.32354 20.9765 5.45164 20.9764 6.85092V10.0326C20.9765 11.4318 20.9768 12.5599 20.8575 13.447C20.7337 14.3681 20.4682 15.1434 19.8523 15.7593C19.2364 16.3752 18.461 16.6407 17.54 16.7646C16.6529 16.8838 15.5248 16.8835 14.1255 16.8835H11.2557V17.7269L15.9991 20.5737C16.3625 20.7918 16.4808 21.2636 16.2629 21.627C16.0449 21.9903 15.5731 22.1087 15.2097 21.8908L11.2557 19.5175V21.2323C11.2557 21.6561 10.9121 21.9997 10.4882 21.9997C10.0644 21.9997 9.72079 21.6561 9.72079 21.2323V19.5175L5.76673 21.8908C5.40337 22.1085 4.93252 21.9902 4.71451 21.627C4.49644 21.2635 4.61387 20.7918 4.97731 20.5737L9.72079 17.7269V16.8835H6.85092C5.45164 16.8835 4.32354 16.8838 3.43645 16.7646C2.51543 16.6407 1.74007 16.3752 1.12417 15.7593C0.508268 15.1434 0.242742 14.3681 0.118913 13.447C-0.00033495 12.5599 -2.03539e-05 11.4318 7.4735e-07 10.0326V6.85092C-2.03536e-05 5.45165 -0.000331347 4.32354 0.118913 3.43645C0.242742 2.51542 0.508261 1.74007 1.12417 1.12417C1.74007 0.508261 2.51542 0.242742 3.43645 0.118913C4.32354 -0.000331347 5.45165 -2.03537e-05 6.85092 7.47253e-07H14.1255ZM6.90688 1.53486C5.43837 1.53486 4.41416 1.53693 3.6413 1.64078C2.89047 1.74173 2.49256 1.92617 2.20936 2.20936C1.92617 2.49256 1.74173 2.89047 1.64078 3.6413C1.53693 4.41416 1.53486 5.43837 1.53486 6.90688V9.9766C1.53486 11.4451 1.53692 12.4693 1.64078 13.2422C1.74173 13.993 1.92616 14.3909 2.20936 14.6741C2.49256 14.9573 2.89048 15.1418 3.6413 15.2427C4.41416 15.3466 5.43837 15.3486 6.90688 15.3486H14.0696C15.5381 15.3486 16.5623 15.3466 17.3351 15.2427C18.086 15.1418 18.4839 14.9573 18.7671 14.6741C19.0503 14.3909 19.2347 13.993 19.3357 13.2422C19.4395 12.4693 19.4416 11.4451 19.4416 9.9766V6.90688C19.4416 5.43837 19.4395 4.41416 19.3357 3.6413C19.2347 2.89048 19.0503 2.49256 18.7671 2.20936C18.4839 1.92616 18.086 1.74173 17.3351 1.64078C16.5623 1.53692 15.5381 1.53486 14.0696 1.53486H6.90688ZM8.83445 6.14445C9.7128 6.19644 10.526 6.69107 11.0438 7.52542C11.3116 7.95684 11.6769 8.15198 12.0081 8.18193C12.3364 8.2116 12.7066 8.08675 13.0134 7.72427L13.9956 6.56413C14.2693 6.24071 14.7533 6.1997 15.0768 6.4732C15.4004 6.74701 15.4406 7.23187 15.1668 7.5554L14.1845 8.71554C13.573 9.43806 12.7238 9.78788 11.8702 9.7108C11.0194 9.63392 10.2401 9.14092 9.73978 8.33482C9.46286 7.88859 9.08357 7.69643 8.74352 7.67631C8.40569 7.65639 8.02303 7.80081 7.71828 8.20092L7.00581 9.13623C6.74904 9.47333 6.26777 9.53875 5.9306 9.28212C5.59351 9.02537 5.52812 8.54408 5.78471 8.20692L6.49718 7.27061C7.09145 6.49038 7.95388 6.09234 8.83445 6.14445Z" fill="#161616"/>
</svg>
