<svg width="22" height="21" viewBox="0 0 22 21" fill="none" xmlns="http://www.w3.org/2000/svg">
<path d="M14.3766 0.00991633C14.6674 -0.0291942 14.9131 0.0555264 15.08 0.12883C15.2335 0.196237 15.4068 0.294252 15.5747 0.38964L17.3904 1.42089C17.5619 1.51826 17.7378 1.61831 17.876 1.71668C18.0252 1.82288 18.227 1.99178 18.3427 2.26528C18.4689 2.56371 18.4277 2.86453 18.3976 3.03871C18.3651 3.22711 18.3052 3.45903 18.2407 3.70723L18.2337 3.73521C17.8281 5.29684 18.8176 6.97621 20.4202 7.40854L20.4481 7.41653C20.6907 7.48193 20.9189 7.5429 21.0967 7.60739C21.263 7.66775 21.5405 7.7816 21.7362 8.03708C21.916 8.27196 21.9643 8.52942 21.983 8.71159C22.0003 8.87962 22.0001 9.08068 22 9.27618V11.3137C22.0001 11.5092 22.0003 11.7102 21.983 11.8783C21.9642 12.0605 21.9161 12.3179 21.7362 12.5528C21.5405 12.8083 21.263 12.9221 21.0967 12.9825C21.0078 13.0147 20.9062 13.0459 20.7969 13.0774L20.4202 13.1813C18.8182 13.6136 17.8288 15.2929 18.2347 16.8547L18.2427 16.8826C18.3072 17.1307 18.3671 17.3618 18.3996 17.5502C18.4297 17.7243 18.4699 18.025 18.3437 18.3236C18.228 18.5971 18.0272 18.767 17.878 18.8732C17.7399 18.9715 17.5638 19.0707 17.3924 19.168L15.5757 20.1992C15.4077 20.2947 15.2345 20.3937 15.081 20.461C14.914 20.5343 14.6684 20.6192 14.3776 20.58C14.0614 20.5373 13.8269 20.3556 13.692 20.2422C13.5489 20.1218 13.3843 19.9571 13.2094 19.7825L13.1884 19.7616C11.994 18.5702 10.0069 18.5708 8.8126 19.7626L8.79261 19.7825C8.61772 19.9571 8.45312 20.1218 8.30996 20.2422C8.17512 20.3556 7.93983 20.5373 7.62346 20.58C7.33262 20.619 7.08693 20.5343 6.91997 20.461C6.76649 20.3936 6.59328 20.2946 6.42533 20.1992L4.60965 19.169C4.43807 19.0716 4.26222 18.9716 4.12401 18.8732C3.97484 18.767 3.77308 18.598 3.65735 18.3246C3.53103 18.0259 3.57236 17.7243 3.60239 17.5502C3.63489 17.3618 3.69481 17.1307 3.75927 16.8826L3.76627 16.8547C4.17195 15.293 3.18241 13.6137 1.57986 13.1813L1.55188 13.1733C1.3093 13.1079 1.08111 13.047 0.90335 12.9825C0.737023 12.9221 0.459544 12.8083 0.263815 12.5528C0.0838856 12.3179 0.0357674 12.0605 0.0169943 11.8783C-0.000311155 11.7102 -3.74111e-05 11.5092 6.60582e-06 11.3137L6.60582e-06 9.27618C-3.73971e-05 9.08069 -0.000287869 8.87961 0.0169943 8.71159C0.0357711 8.52935 0.0838243 8.27103 0.263815 8.03608C0.459488 7.78089 0.737074 7.66772 0.90335 7.60739C1.08112 7.54291 1.3093 7.48191 1.55188 7.41653L1.57986 7.40854C3.18296 6.97618 4.1735 5.2966 3.76827 3.73521C3.76581 3.72576 3.76271 3.71563 3.76027 3.70623C3.69585 3.45821 3.63584 3.22697 3.60339 3.03871C3.57338 2.86457 3.53309 2.56375 3.65935 2.26528C3.77506 1.99172 3.9768 1.82287 4.12601 1.71668C4.26419 1.61834 4.44012 1.51823 4.61165 1.42089C4.61996 1.41617 4.62835 1.41161 4.63663 1.4069L6.40135 0.404629C6.40983 0.399818 6.41883 0.394471 6.42733 0.38964C6.59527 0.294239 6.76852 0.196209 6.92197 0.12883C7.08899 0.0555024 7.33445 -0.0292882 7.62546 0.00991633C7.94176 0.0525538 8.17613 0.234263 8.31096 0.347671C8.45407 0.468039 8.61875 0.63186 8.79361 0.806337L8.8146 0.827322C10.0083 2.018 11.9938 2.01803 13.1874 0.827322L13.2084 0.806337C13.3832 0.631944 13.548 0.467986 13.691 0.347671C13.8259 0.234242 14.0604 0.0525055 14.3766 0.00991633ZM14.2716 1.91353C12.4789 3.70199 9.52311 3.702 7.73038 1.91353C7.58762 1.7711 7.48682 1.67177 7.40962 1.59976C7.4064 1.60149 7.40296 1.60295 7.39963 1.60476C7.3335 1.64063 7.25674 1.68362 7.1598 1.73866L5.39508 2.74093C5.29616 2.7971 5.21744 2.84155 5.15126 2.88083C5.14683 2.88346 5.14248 2.8863 5.13827 2.88882C5.16242 2.99744 5.19945 3.14253 5.25319 3.34949C5.87725 5.75332 4.36815 8.24624 1.97957 8.89046C1.78005 8.94425 1.64009 8.98271 1.53689 9.01437C1.53679 9.01861 1.53697 9.02294 1.53689 9.02736C1.53542 9.10355 1.53489 9.19238 1.53489 9.30516L1.53489 11.2837C1.53489 11.3967 1.53541 11.4862 1.53689 11.5625C1.53697 11.5669 1.53679 11.5713 1.53689 11.5755C1.64009 11.6072 1.78008 11.6456 1.97957 11.6994C4.36811 12.3438 5.87654 14.8368 5.25219 17.2404C5.19844 17.4473 5.16143 17.5925 5.13727 17.7011C5.14144 17.7035 5.14588 17.7064 5.15026 17.709C5.21633 17.7483 5.2944 17.7919 5.39308 17.8479L7.1578 18.8502C7.25493 18.9054 7.33141 18.9492 7.39763 18.9851C7.40096 18.9869 7.4044 18.9884 7.40762 18.9901C7.48487 18.9181 7.58538 18.818 7.72839 18.6753C9.52183 16.8858 12.479 16.8859 14.2726 18.6753C14.4155 18.8179 14.5162 18.9181 14.5934 18.9901C14.5967 18.9883 14.6009 18.987 14.6044 18.9851C14.6705 18.9492 14.7463 18.9053 14.8432 18.8502L16.6089 17.8479C16.7076 17.7919 16.7857 17.7473 16.8518 17.708C16.8561 17.7055 16.8606 17.7035 16.8647 17.7011C16.8406 17.5925 16.8036 17.4472 16.7498 17.2404C16.1252 14.8371 17.6319 12.3439 20.0204 11.6994C20.2199 11.6456 20.3599 11.6072 20.4631 11.5755C20.4632 11.5713 20.464 11.5669 20.4641 11.5625C20.4656 11.4862 20.4651 11.3967 20.4651 11.2837V9.30516C20.4651 9.19239 20.4656 9.10355 20.4641 9.02736C20.464 9.02293 20.4632 9.01861 20.4631 9.01437C20.3599 8.98271 20.22 8.94427 20.0204 8.89046C17.632 8.24615 16.1236 5.75298 16.7478 3.34949C16.8016 3.14261 16.8386 2.99742 16.8627 2.88882C16.8585 2.88631 16.8542 2.88345 16.8498 2.88083C16.7836 2.84158 16.7058 2.79705 16.6069 2.74093L14.8422 1.73966C14.7451 1.68451 14.6686 1.64067 14.6024 1.60476C14.5991 1.60295 14.5956 1.6015 14.5924 1.59976C14.5152 1.67175 14.4144 1.77108 14.2716 1.91353ZM11 5.9476C13.4018 5.9476 15.3488 7.89464 15.3488 10.2964C15.3488 12.6982 13.4018 14.6453 11 14.6453C8.59821 14.6453 6.65117 12.6982 6.65117 10.2964C6.65117 7.89464 8.59821 5.9476 11 5.9476ZM11 7.48248C9.4459 7.48248 8.18605 8.74233 8.18605 10.2964C8.18605 11.8505 9.4459 13.1104 11 13.1104C12.5541 13.1104 13.814 11.8505 13.814 10.2964C13.814 8.74233 12.5541 7.48248 11 7.48248Z" fill="#161616"/>
</svg>
