<svg width="26" height="26" viewBox="0 0 26 26" fill="none" xmlns="http://www.w3.org/2000/svg">
<path d="M5.11955 0.252608C5.4362 0.207732 7.70288 -0.0931445 10.6111 0.0289381C11.1116 0.049587 11.5 0.472703 11.4795 0.97321C11.4588 1.47351 11.0367 1.86089 10.5352 1.84056C7.64645 1.71975 5.3767 2.04898 5.35031 2.0531C5.32855 2.05673 5.30546 2.05898 5.2825 2.06019C3.70584 2.17384 1.82525 3.10815 1.82523 6.91312C1.82523 8.55991 1.82177 10.34 1.81814 12.0606C1.8121 15.3199 1.80468 18.3979 1.82523 19.9335C1.82523 20.7642 2.35415 23.856 4.94041 24.0072C8.64862 24.2224 15.3284 24.2705 18.3839 24.0082C18.3922 24.0082 18.4009 24.0074 18.4092 24.0062C18.437 24.005 21.1797 23.8176 21.494 21.1116C21.8096 18.3972 21.7879 16.4167 21.7794 15.6707C21.7794 15.5728 21.7774 15.4949 21.7774 15.4369C21.7777 14.9365 22.1838 14.53 22.6842 14.53C23.1844 14.5303 23.5908 14.9367 23.5911 15.4369C23.5911 15.4901 23.5907 15.5622 23.5931 15.6504C23.6015 16.4281 23.6256 18.4933 23.2955 21.3211C22.9061 24.6737 20.0138 25.7253 18.5266 25.8148C17.0346 25.9417 14.711 25.9979 12.281 25.9979L12.2821 26C9.60994 26 6.807 25.9327 4.83617 25.8178C3.18952 25.721 1.85081 24.871 0.966981 23.3574C0.264494 22.1532 0.0136003 20.8056 0.0136003 19.9447C-0.00574224 18.4078 -0.000541609 15.3224 0.00550363 12.0555C0.00913084 10.3362 0.0136001 8.55766 0.0136003 6.91211C0.0136003 1.27528 3.55619 0.374727 5.11955 0.252608ZM16.6006 18.1594C17.1012 18.1594 17.5074 18.5656 17.5074 19.0662C17.5073 19.5667 17.1011 19.973 16.6006 19.973H6.92814C6.42764 19.973 6.02142 19.5667 6.02132 19.0662C6.02132 18.5656 6.42758 18.1594 6.92814 18.1594H16.6006ZM11.7649 13.3226C12.2652 13.3228 12.6716 13.7291 12.6717 14.2295C12.6717 14.7299 12.2653 15.1361 11.7649 15.1363H6.92814C6.42758 15.1363 6.02132 14.73 6.02132 14.2295C6.0214 13.729 6.42763 13.3226 6.92814 13.3226H11.7649ZM19.0377 0.0228656C22.8741 0.0229012 25.9957 3.14089 25.9958 6.97486C25.9958 10.8089 22.8741 13.9268 19.0377 13.9268C15.2012 13.9268 12.0796 10.8089 12.0796 6.97486C12.0797 3.14087 15.2013 0.0228656 19.0377 0.0228656ZM19.0377 1.83652C16.2012 1.83652 13.8934 4.142 13.8933 6.97486C13.8933 9.80778 16.2012 12.1132 19.0377 12.1132C21.8742 12.1132 24.1821 9.80775 24.1821 6.97486C24.182 4.14202 21.8742 1.83655 19.0377 1.83652ZM21.1357 4.306C21.6071 4.13949 22.1257 4.38626 22.2926 4.85758C22.4594 5.32913 22.2125 5.84753 21.741 6.01439C20.7133 6.3783 19.2546 8.20683 18.5762 9.27329C18.4093 9.53567 18.1196 9.69432 17.81 9.69432V9.69533H17.7635C17.437 9.6784 17.1445 9.48695 16.9994 9.19435C16.4759 8.1462 15.965 7.62135 15.9589 7.61651C15.6051 7.26229 15.605 6.68838 15.9589 6.33421C16.3132 5.97994 16.888 5.97994 17.2423 6.33421C17.2863 6.37822 17.5408 6.64059 17.8789 7.12464C18.666 6.10537 19.8988 4.7449 21.1357 4.306Z" fill="#067647"/>
</svg>
