<svg width="21" height="21" viewBox="0 0 21 21" fill="none" xmlns="http://www.w3.org/2000/svg">
<path d="M10.559 2.11129e-07C12.8027 -1.37065e-05 14.565 0.000120167 15.9411 0.185071C17.3513 0.374672 18.4702 0.7715 19.3494 1.65063C20.2285 2.52976 20.6253 3.64869 20.8149 5.05893C20.9999 6.43495 21 8.1973 21 10.441V10.559C21 12.8027 20.9999 14.565 20.8149 15.9411C20.6253 17.3513 20.2285 18.4702 19.3494 19.3494C18.4702 20.2285 17.3513 20.6253 15.9411 20.8149C14.565 20.9999 12.8027 21 10.559 21H10.441C8.1973 21 6.43495 20.9999 5.05893 20.8149C3.64869 20.6253 2.52976 20.2285 1.65063 19.3494C0.7715 18.4702 0.374672 17.3513 0.185071 15.9411C0.000120167 14.565 -1.37065e-05 12.8027 2.11129e-07 10.559V10.441C-1.37065e-05 8.1973 0.000120167 6.43495 0.185071 5.05893C0.374672 3.64869 0.771499 2.52976 1.65063 1.65063C2.52976 0.771499 3.64869 0.374672 5.05893 0.185071C6.43495 0.000120167 8.1973 -1.37065e-05 10.441 2.11129e-07H10.559ZM10.5 1.53659C8.18449 1.53659 6.52495 1.53799 5.263 1.70765C4.02326 1.87435 3.28306 2.19102 2.73704 2.73704C2.19102 3.28306 1.87435 4.02326 1.70765 5.263C1.53799 6.52495 1.53659 8.18449 1.53659 10.5C1.53659 12.8155 1.53799 14.475 1.70765 15.737C1.87435 16.9767 2.19102 17.7169 2.73704 18.263C3.28306 18.809 4.02326 19.1257 5.263 19.2923C6.52495 19.462 8.18449 19.4634 10.5 19.4634C12.8155 19.4634 14.475 19.462 15.737 19.2923C16.9767 19.1257 17.7169 18.809 18.263 18.263C18.809 17.7169 19.1257 16.9767 19.2923 15.737C19.462 14.475 19.4634 12.8155 19.4634 10.5C19.4634 8.18449 19.462 6.52495 19.2923 5.263C19.1257 4.02326 18.809 3.28306 18.263 2.73704C17.7169 2.19102 16.9767 1.87435 15.737 1.70765C14.475 1.53799 12.8155 1.53659 10.5 1.53659ZM15.0437 6.92064C15.3232 6.60144 15.8089 6.56924 16.1281 6.84861C16.4473 7.12804 16.4795 7.61374 16.2002 7.93302L12.7489 11.8765C13.1053 12.3484 13.3171 12.9362 13.3171 13.5732C13.3171 15.129 12.0558 16.3902 10.5 16.3902C8.94417 16.3902 7.68293 15.129 7.68293 13.5732C7.68293 12.0173 8.94418 10.7561 10.5 10.7561C10.8601 10.7561 11.2048 10.824 11.5214 10.9472L15.0437 6.92064ZM10.5 12.2927C9.79281 12.2927 9.21952 12.866 9.21951 13.5732C9.21951 14.2804 9.79281 14.8537 10.5 14.8537C11.2072 14.8537 11.7805 14.2804 11.7805 13.5732C11.7805 12.866 11.2072 12.2927 10.5 12.2927ZM10.5 3.58537C11.7582 3.58537 12.9405 3.92193 13.9583 4.51072C14.3254 4.72326 14.4508 5.19391 14.2384 5.56112C14.0259 5.9282 13.5552 6.05364 13.188 5.84123C12.3978 5.38417 11.4808 5.12195 10.5 5.12195C7.52979 5.12195 5.12195 7.52979 5.12195 10.5C5.12195 10.9243 4.77797 11.2683 4.35366 11.2683C3.92934 11.2683 3.58537 10.9243 3.58537 10.5C3.58537 6.68115 6.68115 3.58537 10.5 3.58537Z" fill="#161616"/>
</svg>
