<svg width="28" height="21" viewBox="0 0 28 21" fill="none" xmlns="http://www.w3.org/2000/svg">
<path d="M8.86357 13.3727C12.0065 11.4292 15.9935 11.4292 19.1364 13.3727C19.2291 13.4299 19.3467 13.4982 19.4815 13.5771C20.0919 13.9343 21.0605 14.5019 21.7216 15.1739C22.1368 15.596 22.5507 16.1711 22.6262 16.8884C22.707 17.6557 22.3817 18.3661 21.7605 18.9808C20.7338 19.9965 19.4615 20.8509 17.794 20.8509H10.206C8.53856 20.8509 7.26714 19.9965 6.2405 18.9808C5.61905 18.366 5.29301 17.6559 5.37379 16.8884C5.44932 16.1712 5.86325 15.596 6.2784 15.1739C6.93958 14.5018 7.9091 13.9343 8.51948 13.5771C8.65399 13.4984 8.77105 13.4299 8.86357 13.3727ZM18.1959 14.8926C15.6291 13.3056 12.3709 13.3055 9.80409 14.8926C9.65004 14.9879 9.4848 15.0854 9.31438 15.1859C8.70463 15.5454 8.0275 15.9445 7.55304 16.4266C7.26112 16.7233 7.16534 16.9405 7.1511 17.0759C7.14217 17.1613 7.14697 17.3647 7.49718 17.7112C8.3699 18.5745 9.2139 19.0636 10.206 19.0636H17.794C18.786 19.0636 19.6301 18.5744 20.5028 17.7112C20.8531 17.3647 20.8578 17.1613 20.8489 17.0759C20.8347 16.9405 20.7399 16.7233 20.448 16.4266C19.9736 15.9444 19.2964 15.5454 18.6866 15.1859C18.5161 15.0853 18.35 14.9879 18.1959 14.8926ZM5.57925 10.7267C6.07063 10.6824 6.50523 11.0451 6.54969 11.5365C6.5941 12.028 6.23133 12.4625 5.73983 12.5069C4.97696 12.576 4.20911 12.8709 3.50573 13.4126C3.39243 13.4998 3.27426 13.5857 3.15566 13.6729C2.75105 13.9702 2.33458 14.2764 2.03761 14.6523C1.86132 14.8754 1.79829 15.0435 1.78827 15.1619C1.78064 15.2522 1.79382 15.411 1.99871 15.6636C2.58898 16.3909 3.0696 16.6809 3.54563 16.6809C4.03916 16.6809 4.43926 17.081 4.43926 17.5746C4.43926 18.0681 4.03916 18.4682 3.54563 18.4682C2.23619 18.4682 1.29631 17.6344 0.611381 16.7906C0.163898 16.2393 -0.0446497 15.634 0.00797576 15.0113C0.0582517 14.4171 0.336994 13.9229 0.635318 13.5452C1.10237 12.954 1.79523 12.4492 2.20118 12.1539C2.28659 12.0917 2.3594 12.0388 2.41462 11.9963C3.37294 11.2583 4.46098 10.8278 5.57925 10.7267ZM22.4207 10.7267C23.539 10.8278 24.627 11.2583 25.5854 11.9963C25.6406 12.0388 25.7134 12.0917 25.7988 12.1539C26.2048 12.4492 26.8976 12.954 27.3647 13.5452C27.663 13.9229 27.9417 14.4171 27.992 15.0113C28.0446 15.634 27.8361 16.2393 27.3886 16.7906C26.7037 17.6344 25.7638 18.4682 24.4544 18.4682C23.9608 18.4682 23.5607 18.0681 23.5607 17.5746C23.5607 17.081 23.9608 16.6809 24.4544 16.6809C24.9304 16.6809 25.411 16.3909 26.0013 15.6636C26.2062 15.411 26.2194 15.2522 26.2117 15.1619C26.2017 15.0435 26.1387 14.8754 25.9624 14.6523C25.6654 14.2764 25.2489 13.9702 24.8443 13.6729C24.7257 13.5857 24.6076 13.4998 24.4943 13.4126C23.7909 12.8709 23.023 12.576 22.2602 12.5069C21.7687 12.4625 21.4059 12.028 21.4503 11.5365C21.4948 11.0451 21.9294 10.6824 22.4207 10.7267ZM6.25546 2.3827C6.74887 2.38287 7.1491 2.7829 7.1491 3.27634C7.1491 3.76978 6.74887 4.16982 6.25546 4.16998C5.10387 4.16998 4.16998 5.10387 4.16998 6.25547C4.17016 7.40691 5.10398 8.33996 6.25546 8.33996C6.74876 8.34012 7.14892 8.74031 7.1491 9.2336C7.1491 9.72704 6.74887 10.1271 6.25546 10.1272C4.11689 10.1272 2.38288 8.394 2.3827 6.25547C2.3827 4.11678 4.11678 2.3827 6.25546 2.3827ZM14 0C16.7967 1.06932e-05 19.0636 2.26688 19.0636 5.06362C19.0636 7.86035 16.7967 10.1272 14 10.1272C11.2033 10.1272 8.93638 7.86036 8.93638 5.06362C8.93638 2.26688 11.2033 0 14 0ZM21.1491 2.3827C23.2878 2.38271 25.0219 4.11679 25.0219 6.25547C25.0217 8.39399 23.2877 10.1272 21.1491 10.1272C20.6556 10.1272 20.2555 9.72714 20.2555 9.2336C20.2556 8.74021 20.6557 8.33996 21.1491 8.33996C22.3006 8.33995 23.2344 7.40691 23.2346 6.25547C23.2346 5.10387 22.3007 4.16999 21.1491 4.16998C20.6556 4.16998 20.2555 3.76988 20.2555 3.27634C20.2555 2.7828 20.6556 2.3827 21.1491 2.3827ZM14 1.78728C12.1903 1.78728 10.7237 3.25396 10.7237 5.06362C10.7237 6.87327 12.1903 8.33996 14 8.33996C15.8096 8.33995 17.2763 6.87327 17.2763 5.06362C17.2763 3.25397 15.8096 1.78729 14 1.78728Z" fill="#067647"/>
</svg>
