<svg width="20" height="20" viewBox="0 0 20 20" fill="none" xmlns="http://www.w3.org/2000/svg">
<path fill-rule="evenodd" clip-rule="evenodd" d="M10 13.9583C12.6464 13.9583 14.7917 11.813 14.7917 9.16667V5.83333C14.7917 3.18697 12.6464 1.04167 10 1.04167C7.35368 1.04167 5.20837 3.18697 5.20837 5.83333V9.16667C5.20837 11.813 7.35368 13.9583 10 13.9583ZM10 2.29167C8.04403 2.29167 6.45837 3.87733 6.45837 5.83333V9.16667C6.45837 11.1227 8.04403 12.7083 10 12.7083C11.7428 12.7083 13.1915 11.4496 13.4867 9.79167H11.6667C11.3215 9.79167 11.0417 9.51185 11.0417 9.16667C11.0417 8.82149 11.3215 8.54167 11.6667 8.54167H13.5417V6.45833H11.6667C11.3215 6.45833 11.0417 6.17851 11.0417 5.83333C11.0417 5.48816 11.3215 5.20833 11.6667 5.20833H13.4867C13.1915 3.55041 11.7428 2.29167 10 2.29167Z" fill="#161616"/>
<path d="M3.95837 9.16667C3.95837 8.82149 3.67855 8.54167 3.33337 8.54167C2.9882 8.54167 2.70837 8.82149 2.70837 9.16667C2.70837 12.9832 5.64054 16.1149 9.37504 16.4319V17.7083H7.50004C7.15486 17.7083 6.87504 17.9882 6.87504 18.3333C6.87504 18.6785 7.15486 18.9583 7.50004 18.9583H12.5C12.8452 18.9583 13.125 18.6785 13.125 18.3333C13.125 17.9882 12.8452 17.7083 12.5 17.7083H10.625V16.4319C14.3595 16.1149 17.2917 12.9832 17.2917 9.16667C17.2917 8.82149 17.0119 8.54167 16.6667 8.54167C16.3215 8.54167 16.0417 8.82149 16.0417 9.16667C16.0417 12.5034 13.3368 15.2083 10 15.2083C6.66332 15.2083 3.95837 12.5034 3.95837 9.16667Z" fill="#161616"/>
</svg>
