<svg width="20" height="20" viewBox="0 0 20 20" fill="none" xmlns="http://www.w3.org/2000/svg">
<path d="M5.06091 2.28871C5.40445 2.25514 5.65573 1.94943 5.62216 1.60589C5.58859 1.26235 5.28289 1.01107 4.93934 1.04464C3.77198 1.15871 2.84852 1.42815 2.13839 2.13828C1.42827 2.8484 1.15883 3.77186 1.04476 4.93923C1.01119 5.28277 1.26247 5.58848 1.60601 5.62205C1.94955 5.65561 2.25526 5.40433 2.28883 5.06079C2.39226 4.00233 2.61566 3.42878 3.02228 3.02216C3.4289 2.61554 4.00245 2.39214 5.06091 2.28871Z" fill="#161616"/>
<path d="M15.0609 1.04464C14.7174 1.01107 14.4117 1.26235 14.3781 1.60589C14.3445 1.94943 14.5958 2.25514 14.9393 2.28871C15.9978 2.39214 16.5714 2.61554 16.978 3.02216C17.3846 3.42878 17.608 4.00233 17.7114 5.06079C17.745 5.40433 18.0507 5.65561 18.3942 5.62205C18.7378 5.58848 18.9891 5.28277 18.9555 4.93923C18.8414 3.77186 18.572 2.8484 17.8619 2.13828C17.1517 1.42815 16.2283 1.15871 15.0609 1.04464Z" fill="#161616"/>
<path d="M8.33346 1.04167C7.98828 1.04167 7.70846 1.3215 7.70846 1.66667C7.70846 2.01185 7.98828 2.29167 8.33346 2.29167H11.6668C12.012 2.29167 12.2918 2.01185 12.2918 1.66667C12.2918 1.3215 12.012 1.04167 11.6668 1.04167L8.33346 1.04167Z" fill="#161616"/>
<path d="M2.29179 8.33334C2.29179 7.98816 2.01197 7.70834 1.66679 7.70834C1.32162 7.70834 1.04179 7.98816 1.04179 8.33334L1.04179 11.6667C1.04179 12.0119 1.32162 12.2917 1.66679 12.2917C2.01197 12.2917 2.29179 12.0119 2.29179 11.6667L2.29179 8.33334Z" fill="#161616"/>
<path d="M2.28883 14.9392C2.25526 14.5957 1.94955 14.3444 1.60601 14.378C1.26247 14.4115 1.01119 14.7172 1.04476 15.0608C1.15883 16.2282 1.42827 17.1516 2.13839 17.8617C2.84852 18.5719 3.77198 18.8413 4.93934 18.9554C5.28289 18.9889 5.58859 18.7377 5.62216 18.3941C5.65573 18.0506 5.40445 17.7449 5.06091 17.7113C4.00245 17.6079 3.4289 17.3845 3.02228 16.9779C2.61566 16.5712 2.39226 15.9977 2.28883 14.9392Z" fill="#161616"/>
<path d="M12.3752 10.125C12.7204 10.125 13.0002 10.4048 13.0002 10.75V11.75H14.0002C14.3454 11.75 14.6252 12.0298 14.6252 12.375C14.6252 12.7201 14.3454 13 14.0002 13H13.0002V14C13.0002 14.3451 12.7204 14.625 12.3752 14.625C12.03 14.625 11.7502 14.3451 11.7502 14V13H10.7502C10.405 13 10.1252 12.7201 10.1252 12.375C10.1252 12.0298 10.405 11.75 10.7502 11.75H11.7502V10.75C11.7502 10.4048 12.03 10.125 12.3752 10.125Z" fill="#161616"/>
<path fill-rule="evenodd" clip-rule="evenodd" d="M6.87518 12.375C6.87518 9.3374 9.33762 6.87496 12.3752 6.87496C15.4128 6.87496 17.8752 9.3374 17.8752 12.375C17.8752 13.5069 17.5333 14.5589 16.9471 15.4334C16.8633 15.5584 16.7746 15.6797 16.6812 15.7971L18.7755 17.8914C19.0195 18.1354 19.0195 18.5312 18.7755 18.7752C18.5314 19.0193 18.1357 19.0193 17.8916 18.7752L15.7973 16.681C14.8581 17.4284 13.6688 17.875 12.3752 17.875C9.33762 17.875 6.87518 15.4125 6.87518 12.375ZM12.3752 8.12496C10.028 8.12496 8.12518 10.0278 8.12518 12.375C8.12518 14.7222 10.028 16.625 12.3752 16.625C14.7224 16.625 16.6252 14.7222 16.6252 12.375C16.6252 10.0278 14.7224 8.12496 12.3752 8.12496Z" fill="#161616"/>
</svg>
