<svg width="20" height="20" viewBox="0 0 20 20" fill="none" xmlns="http://www.w3.org/2000/svg">
<path fill-rule="evenodd" clip-rule="evenodd" d="M9.99996 13.1251C8.27407 13.1251 6.87496 11.726 6.87496 10.0001C6.87496 8.27419 8.27407 6.87508 9.99996 6.87508C11.7259 6.87508 13.125 8.27419 13.125 10.0001C13.125 11.726 11.7259 13.1251 9.99996 13.1251ZM8.12496 10.0001C8.12496 11.0356 8.96443 11.8751 9.99996 11.8751C11.0355 11.8751 11.875 11.0356 11.875 10.0001C11.875 8.96455 11.0355 8.12508 9.99996 8.12508C8.96443 8.12508 8.12496 8.96455 8.12496 10.0001Z" fill="white"/>
<path fill-rule="evenodd" clip-rule="evenodd" d="M9.99996 3.54175C7.85783 3.54175 6.02159 4.48459 4.60021 5.59424C3.17757 6.70488 2.12601 8.01653 1.5378 8.84135L1.49345 8.90319C1.28249 9.19659 1.04163 9.53158 1.04163 10.0001C1.04163 10.4686 1.28249 10.8036 1.49345 11.097L1.5378 11.1588C2.12601 11.9836 3.17757 13.2953 4.60022 14.4059C6.02159 15.5156 7.85783 16.4584 9.99996 16.4584C12.1421 16.4584 13.9783 15.5156 15.3997 14.4059C16.8224 13.2953 17.8739 11.9836 18.4621 11.1588L18.5065 11.097C18.7174 10.8036 18.9583 10.4686 18.9583 10.0001C18.9583 9.53158 18.7174 9.19659 18.5065 8.90319L18.4621 8.84135C17.8739 8.01653 16.8224 6.70488 15.3997 5.59423C13.9783 4.48459 12.1421 3.54175 9.99996 3.54175ZM2.55552 9.56712C3.10569 8.79565 4.07694 7.58856 5.36943 6.57953C6.66319 5.56951 8.23441 4.79175 9.99996 4.79175C11.7655 4.79175 13.3367 5.56951 14.6305 6.57953C15.923 7.58856 16.8942 8.79565 17.4444 9.56712C17.5805 9.75797 17.6453 9.85117 17.6839 9.92535C17.7084 9.97251 17.7084 9.98543 17.7083 9.99809L17.7083 10.0001L17.7083 10.0021C17.7084 10.0147 17.7084 10.0277 17.6839 10.0748C17.6453 10.149 17.5805 10.2422 17.4444 10.433C16.8942 11.2045 15.923 12.4116 14.6305 13.4206C13.3367 14.4307 11.7655 15.2084 9.99996 15.2084C8.23441 15.2084 6.66319 14.4307 5.36943 13.4206C4.07694 12.4116 3.10569 11.2045 2.55552 10.433C2.41942 10.2422 2.35464 10.149 2.31603 10.0748C2.29148 10.0277 2.29155 10.0147 2.29162 10.0021L2.29163 10.0001L2.29162 9.99809C2.29155 9.98543 2.29148 9.97251 2.31603 9.92535C2.35464 9.85117 2.41942 9.75797 2.55552 9.56712Z" fill="white"/>
</svg>
