<svg width="20" height="20" viewBox="0 0 20 20" fill="none" xmlns="http://www.w3.org/2000/svg">
<path fill-rule="evenodd" clip-rule="evenodd" d="M1.94353 2.21547C2.05038 2.00649 2.2653 1.875 2.5 1.875H6.66667C6.86736 1.875 7.05584 1.97137 7.17334 2.13407L11.2867 7.82945L17.0581 2.05806C17.3021 1.81398 17.6979 1.81398 17.9419 2.05806C18.186 2.30214 18.186 2.69786 17.9419 2.94194L12.028 8.85589L18.0067 17.1341C18.1441 17.3243 18.1633 17.5756 18.0565 17.7845C17.9496 17.9935 17.7347 18.125 17.5 18.125H13.3333C13.1326 18.125 12.9442 18.0286 12.8267 17.8659L8.71333 12.1706L2.94194 17.9419C2.69787 18.186 2.30214 18.186 2.05806 17.9419C1.81398 17.6979 1.81398 17.3021 2.05806 17.0581L7.97201 11.1441L1.99333 2.86593C1.85591 2.67566 1.83668 2.42444 1.94353 2.21547ZM3.72235 3.125L13.6529 16.875H16.2777L6.3471 3.125H3.72235Z" fill="white"/>
</svg>
