<svg width="20" height="20" viewBox="0 0 20 20" fill="none" xmlns="http://www.w3.org/2000/svg">
<path d="M9.79163 6.25008C9.79163 5.9049 9.5118 5.62508 9.16663 5.62508C8.82145 5.62508 8.54163 5.9049 8.54163 6.25008V8.54175H6.24996C5.90478 8.54175 5.62496 8.82157 5.62496 9.16675C5.62496 9.51193 5.90478 9.79175 6.24996 9.79175H8.54163V12.0834C8.54163 12.4286 8.82145 12.7084 9.16663 12.7084C9.5118 12.7084 9.79163 12.4286 9.79163 12.0834V9.79175H12.0833C12.4285 9.79175 12.7083 9.51193 12.7083 9.16675C12.7083 8.82157 12.4285 8.54175 12.0833 8.54175H9.79163V6.25008Z" fill="white"/>
<path fill-rule="evenodd" clip-rule="evenodd" d="M1.04163 9.16675C1.04163 4.67943 4.67931 1.04175 9.16663 1.04175C13.6539 1.04175 17.2916 4.67943 17.2916 9.16675C17.2916 11.1854 16.5554 13.0322 15.3369 14.4531L18.7752 17.8915C19.0193 18.1356 19.0193 18.5313 18.7752 18.7754C18.5312 19.0194 18.1354 19.0194 17.8914 18.7754L14.453 15.337C13.032 16.5556 11.1853 17.2917 9.16663 17.2917C4.67931 17.2917 1.04163 13.6541 1.04163 9.16675ZM9.16663 2.29175C5.36967 2.29175 2.29163 5.36979 2.29163 9.16675C2.29163 12.9637 5.36967 16.0417 9.16663 16.0417C12.9636 16.0417 16.0416 12.9637 16.0416 9.16675C16.0416 5.36979 12.9636 2.29175 9.16663 2.29175Z" fill="white"/>
</svg>
