<svg width="24" height="24" viewBox="0 0 24 24" fill="none" xmlns="http://www.w3.org/2000/svg">
<path fill-rule="evenodd" clip-rule="evenodd" d="M16.1923 12.7115C16.0758 12.4321 15.8027 12.25 15.5 12.25C15.1972 12.25 14.9241 12.4321 14.8076 12.7115L12.3076 18.7115C12.1483 19.0939 12.3291 19.533 12.7115 19.6923C13.0938 19.8516 13.5329 19.6708 13.6923 19.2885L14.3333 17.75H16.6666L17.3076 19.2885C17.467 19.6708 17.9061 19.8516 18.2884 19.6923C18.6708 19.533 18.8516 19.0939 18.6923 18.7115L16.1923 12.7115ZM15.5 14.95L16.0416 16.25H14.9583L15.5 14.95Z" fill="#161616"/>
<path d="M8.15 4.25C8.56421 4.25 8.9 4.58579 8.9 5V5.21552H12C12.4142 5.21552 12.75 5.5513 12.75 5.96552C12.75 6.37973 12.4142 6.71552 12 6.71552H10.7973C10.4274 7.74664 9.85464 8.71119 9.21395 9.57728L10.1155 10.5145C10.4027 10.8131 10.3935 11.2879 10.0949 11.575C9.79642 11.8622 9.32163 11.8529 9.03448 11.5544L8.26126 10.7506C7.65985 11.4317 7.04053 12.0391 6.48266 12.5521C6.17775 12.8324 5.7033 12.8126 5.42293 12.5077C5.14256 12.2028 5.16244 11.7283 5.46735 11.4479C6.0382 10.923 6.66238 10.3072 7.2537 9.62414C7.12848 9.4632 7.00289 9.29589 6.88542 9.13299C6.64973 8.80615 6.40843 8.44486 6.28521 8.18047C6.11023 7.80503 6.27273 7.35883 6.64817 7.18384C7.02361 7.00886 7.46981 7.17137 7.64479 7.5468C7.70157 7.66862 7.86527 7.92724 8.10208 8.25565C8.13755 8.30483 8.1738 8.35441 8.21052 8.40399C8.59222 7.85898 8.92551 7.29315 9.18194 6.71552H5C4.58579 6.71552 4.25 6.37973 4.25 5.96552C4.25 5.5513 4.58579 5.21552 5 5.21552H7.4V5C7.4 4.58579 7.73579 4.25 8.15 4.25Z" fill="#161616"/>
<path fill-rule="evenodd" clip-rule="evenodd" d="M9.45109 1.25H9.54891C11.1512 1.24999 12.4205 1.24998 13.4248 1.36868C14.4557 1.49055 15.3044 1.74638 16.0134 2.3282C16.2539 2.52558 16.4744 2.74612 16.6718 2.98663C17.3772 3.8462 17.6099 4.92342 17.6958 6.30423C19.0763 6.39008 20.1536 6.62257 21.0134 7.3282C21.2539 7.52558 21.4744 7.74612 21.6718 7.98663C22.2536 8.69558 22.5095 9.54428 22.6313 10.5752C22.75 11.5795 22.75 12.8488 22.75 14.451V14.5489C22.75 16.1511 22.75 17.4205 22.6313 18.4248C22.5095 19.4557 22.2536 20.3044 21.6718 21.0134C21.4744 21.2539 21.2539 21.4744 21.0134 21.6718C20.3044 22.2536 19.4557 22.5095 18.4248 22.6313C17.4205 22.75 16.1512 22.75 14.549 22.75H14.4511C12.8489 22.75 11.5795 22.75 10.5752 22.6313C9.54428 22.5095 8.69558 22.2536 7.98663 21.6718C7.74612 21.4744 7.52558 21.2539 7.3282 21.0134C6.62278 20.1538 6.39007 19.0766 6.30421 17.6958C4.92341 17.6099 3.8462 17.3772 2.98663 16.6718C2.74612 16.4744 2.52558 16.2539 2.3282 16.0134C1.74638 15.3044 1.49055 14.4557 1.36868 13.4248C1.24998 12.4205 1.24999 11.1512 1.25 9.54891V9.45109C1.24999 7.84883 1.24998 6.57947 1.36868 5.57525C1.49055 4.54428 1.74638 3.69558 2.3282 2.98663C2.52558 2.74612 2.74612 2.52558 2.98663 2.3282C3.69558 1.74638 4.54428 1.49055 5.57525 1.36868C6.57947 1.24998 7.84883 1.24999 9.45109 1.25ZM7.78429 17.2769C7.8525 18.7782 8.04964 19.528 8.48772 20.0618C8.62277 20.2263 8.77366 20.3772 8.93822 20.5123C9.33563 20.8384 9.86197 21.0366 10.7513 21.1417C11.6572 21.2488 12.8379 21.25 14.5 21.25C16.1621 21.25 17.3428 21.2488 18.2487 21.1417C19.138 21.0366 19.6644 20.8384 20.0618 20.5123C20.2263 20.3772 20.3772 20.2263 20.5123 20.0618C20.8384 19.6644 21.0366 19.138 21.1417 18.2487C21.2488 17.3428 21.25 16.1621 21.25 14.5C21.25 12.8379 21.2488 11.6572 21.1417 10.7513C21.0366 9.86197 20.8384 9.33563 20.5123 8.93822C20.3772 8.77366 20.2263 8.62277 20.0618 8.48772C19.5307 8.05189 18.7855 7.85431 17.2979 7.78524L7.78429 17.2769ZM16.2167 6.74509C16.1494 5.22909 15.9525 4.47463 15.5123 3.93822C15.3772 3.77366 15.2263 3.62277 15.0618 3.48772C14.6644 3.16158 14.138 2.96344 13.2487 2.85831C12.3428 2.75123 11.1621 2.75 9.5 2.75C7.83789 2.75 6.65724 2.75123 5.75133 2.85831C4.86197 2.96344 4.33563 3.16158 3.93822 3.48772C3.77366 3.62277 3.62277 3.77366 3.48772 3.93822C3.16158 4.33563 2.96344 4.86197 2.85831 5.75133C2.75123 6.65724 2.75 7.83789 2.75 9.5C2.75 11.1621 2.75123 12.3428 2.85831 13.2487C2.96344 14.138 3.16158 14.6644 3.48772 15.0618C3.62277 15.2263 3.77366 15.3772 3.93822 15.5123C4.47215 15.9505 5.22213 16.1476 6.72412 16.2158L16.2167 6.74509Z" fill="#161616"/>
</svg>
