<svg width="20" height="20" viewBox="0 0 20 20" fill="none" xmlns="http://www.w3.org/2000/svg">
<path d="M9.93929 18.1248C9.89012 18.1248 9.84093 18.1189 9.79093 18.1073C9.45593 18.0256 9.25012 17.6873 9.33179 17.3523C9.41595 17.0065 9.81841 15.8214 11.4551 15.1106C11.4742 15.1023 11.4942 15.0947 11.5142 15.0881C11.5384 15.0772 11.5667 15.0647 11.6009 15.0531C12.2976 14.7964 13.1601 14.3598 13.4876 14.0964C13.5035 14.084 13.5201 14.0715 13.5376 14.0606L15.8668 12.5406C15.9076 12.5031 15.9068 12.4848 15.9059 12.4781C15.9026 12.4181 15.8351 12.2923 15.6926 12.1998C14.6468 11.504 13.6801 11.9081 12.2118 12.6564C12.1109 12.7081 12.0101 12.7597 11.9093 12.8097C11.1151 13.2031 10.1368 13.1448 9.35262 12.6581C8.60845 12.1965 8.16431 11.4272 8.16431 10.6014C8.16431 9.77558 8.60847 9.00062 9.41431 8.45395C10.5443 7.68812 12.2418 7.44563 13.3809 7.88397L15.1826 8.40976C15.3509 8.45976 15.5251 8.44063 15.6742 8.35646C15.8192 8.27479 15.9218 8.14313 15.9635 7.9848C16.0418 7.6923 15.8784 7.38976 15.5842 7.27809L13.6201 6.54559C13.6201 6.54559 13.6168 6.5439 13.6143 6.54306L12.8726 6.31561C12.2626 6.13311 11.8218 6.06556 11.4926 6.10556C10.9368 6.17473 9.45014 6.83144 8.64347 7.22894C8.33431 7.38144 7.9593 7.25476 7.8068 6.94476C7.6543 6.63559 7.7809 6.26059 8.0909 6.10809C8.3234 5.99309 10.3926 4.98309 11.3409 4.86476C11.8492 4.80309 12.4509 4.88481 13.2359 5.11981L13.9943 5.35231C14.0026 5.35481 14.011 5.35728 14.0193 5.36061C14.026 5.36311 14.0335 5.3656 14.0401 5.3681L14.0518 5.37225C14.2043 5.42725 14.3676 5.41975 14.5126 5.35141C14.6643 5.28058 14.7776 5.1523 14.8326 4.99147C14.9401 4.6823 14.7876 4.34562 14.4851 4.22145L12.9026 3.56723L12.7676 3.51727C12.3201 3.35227 12.0734 3.26223 11.8509 3.20973C11.5742 3.1464 11.2676 3.11725 10.9426 3.12558L10.9193 3.12729C10.8376 3.13229 10.7918 3.13563 10.6126 3.1723C10.606 3.17396 10.5993 3.1748 10.5926 3.17563C10.4151 3.20563 10.3159 3.23892 10.0976 3.31308L9.66927 3.45892C8.24344 3.94392 7.65264 4.14476 7.03931 4.59059C5.41347 5.77642 4.42759 7.1264 4.17342 7.9389C3.90259 8.80556 3.90259 9.87058 3.90259 11.9939L3.90259 17.5023C3.90259 17.8473 3.62259 18.1273 3.27759 18.1273C2.93259 18.1273 2.65259 17.8473 2.65259 17.5023L2.65259 11.9939C2.65259 9.74474 2.65256 8.61559 2.98006 7.56642C3.4484 6.07309 5.00347 4.52891 6.30347 3.58058C7.0718 3.02308 7.8051 2.77313 9.26676 2.27646L9.69759 2.12974C9.93342 2.04974 10.1051 1.99224 10.3735 1.94557C10.611 1.89807 10.7076 1.88896 10.8368 1.88063L10.8701 1.87811C10.8793 1.87811 10.8876 1.87723 10.8967 1.8764C11.3326 1.86473 11.7485 1.90395 12.1335 1.99228C12.4326 2.06228 12.7051 2.16226 13.1993 2.34393L13.3459 2.39813C13.3534 2.40146 13.3618 2.40391 13.3693 2.40724L14.9618 3.06561C15.8768 3.44144 16.3401 4.46644 16.0151 5.39894C15.9418 5.61477 15.8309 5.81144 15.6909 5.98227L16.026 6.10727C16.926 6.44811 17.4184 7.39228 17.1734 8.30478C17.0459 8.79062 16.7318 9.1964 16.2893 9.44557C15.8426 9.69724 15.3251 9.75557 14.8318 9.6089L13.0059 9.07643C12.9868 9.0706 12.9676 9.06397 12.9493 9.05731C12.1876 8.75314 10.9176 8.94728 10.1176 9.48895C9.65259 9.80395 9.41675 10.1789 9.41675 10.6014C9.41675 10.9981 9.63424 11.3606 10.0142 11.5964C10.4334 11.8565 10.9467 11.8931 11.3542 11.6914C11.4501 11.6431 11.5485 11.5931 11.6476 11.5431C12.9893 10.8597 14.6593 10.0089 16.3843 11.1564C16.8418 11.4548 17.1326 11.9265 17.1576 12.4148C17.1801 12.844 16.9951 13.2397 16.6384 13.5289C16.6218 13.5422 16.6043 13.5548 16.5868 13.5664L14.2493 15.0923C13.7468 15.4848 12.7509 15.964 12.0459 16.224L12.0343 16.2306C11.9959 16.2506 11.956 16.2664 11.9151 16.2781C11.6768 16.3881 10.7426 16.8664 10.5518 17.6498C10.4826 17.9356 10.2267 18.1273 9.94507 18.1273L9.93929 18.1248ZM12.0068 16.2348C12.0068 16.2348 12.0068 16.2348 12.0059 16.2348C12.0059 16.2348 12.0059 16.2348 12.0068 16.2348Z" fill="white"/>
</svg>
