<svg width="24" height="24" viewBox="0 0 24 24" fill="none" xmlns="http://www.w3.org/2000/svg">
<path fill-rule="evenodd" clip-rule="evenodd" d="M11.9999 1.25C9.10038 1.25 6.74988 3.6005 6.74988 6.5C6.74988 9.39949 9.10038 11.75 11.9999 11.75C14.8994 11.75 17.2499 9.39949 17.2499 6.5C17.2499 3.6005 14.8994 1.25 11.9999 1.25ZM8.24988 6.5C8.24988 4.42893 9.92881 2.75 11.9999 2.75C14.0709 2.75 15.7499 4.42893 15.7499 6.5C15.7499 8.57107 14.0709 10.25 11.9999 10.25C9.92881 10.25 8.24988 8.57107 8.24988 6.5Z" fill="#161616"/>
<path fill-rule="evenodd" clip-rule="evenodd" d="M18.2287 15.0792C18.0661 14.9874 17.9225 14.9064 17.8062 14.8372C14.2521 12.7209 9.74797 12.7209 6.19392 14.8372C6.0776 14.9064 5.93393 14.9875 5.77126 15.0793C5.05845 15.4814 3.98094 16.0893 3.24277 16.8118C2.78111 17.2637 2.34245 17.8592 2.26271 18.5888C2.1779 19.3646 2.51636 20.0927 3.19538 20.7396C4.36683 21.8556 5.77261 22.75 7.59092 22.75H16.4092C18.2275 22.75 19.6333 21.8556 20.8047 20.7396C21.4837 20.0927 21.8222 19.3646 21.7374 18.5888C21.6577 17.8592 21.219 17.2637 20.7573 16.8118C20.0192 16.0893 18.9415 15.4813 18.2287 15.0792ZM6.96134 16.126C10.0425 14.2913 13.9576 14.2913 17.0388 16.126C17.2067 16.226 17.3906 16.3303 17.5833 16.4397C18.2959 16.8439 19.128 17.316 19.7081 17.8838C20.0682 18.2363 20.2217 18.5271 20.2463 18.7517C20.2658 18.9301 20.2207 19.2242 19.7701 19.6535C18.7342 20.6404 17.6816 21.25 16.4092 21.25H7.59092C6.31848 21.25 5.2659 20.6404 4.23005 19.6535C3.77942 19.2242 3.73433 18.9301 3.75382 18.7517C3.77838 18.5271 3.93189 18.2363 4.29202 17.8838C4.87211 17.316 5.70413 16.844 6.41674 16.4397C6.60941 16.3304 6.79348 16.226 6.96134 16.126Z" fill="#161616"/>
</svg>
