<svg width="20" height="20" viewBox="0 0 20 20" fill="none" xmlns="http://www.w3.org/2000/svg">
<path fill-rule="evenodd" clip-rule="evenodd" d="M1.04163 3.54175C1.04163 2.16104 2.16091 1.04175 3.54163 1.04175C4.92234 1.04175 6.04163 2.16104 6.04163 3.54175C6.04163 4.92246 4.92234 6.04175 3.54163 6.04175C2.16091 6.04175 1.04163 4.92246 1.04163 3.54175ZM3.54163 2.29175C2.85127 2.29175 2.29163 2.85139 2.29163 3.54175C2.29163 4.2321 2.85127 4.79175 3.54163 4.79175C4.23198 4.79175 4.79163 4.2321 4.79163 3.54175C4.79163 2.85139 4.23198 2.29175 3.54163 2.29175Z" fill="white"/>
<path fill-rule="evenodd" clip-rule="evenodd" d="M3.29601 7.29175H3.78726C4.14794 7.29171 4.47863 7.29167 4.74764 7.32784C5.04387 7.36766 5.35698 7.46137 5.6145 7.71889C5.87202 7.97641 5.96572 8.28951 6.00555 8.58575C6.04172 8.85476 6.04168 9.18545 6.04164 9.54612L6.04164 16.704C6.04168 17.0647 6.04172 17.3954 6.00555 17.6644C5.96572 17.9607 5.87202 18.2738 5.6145 18.5313C5.35698 18.7888 5.04387 18.8825 4.74764 18.9223C4.47863 18.9585 4.14793 18.9585 3.78725 18.9584H3.29601C2.93533 18.9585 2.60464 18.9585 2.33563 18.9223C2.03939 18.8825 1.72629 18.7888 1.46877 18.5313C1.21125 18.2738 1.11754 17.9607 1.07771 17.6644C1.04155 17.3954 1.04159 17.0647 1.04163 16.704L1.04163 9.54613C1.04159 9.18545 1.04155 8.85476 1.07771 8.58575C1.11754 8.28951 1.21125 7.97641 1.46877 7.71889C1.72629 7.46137 2.03939 7.36766 2.33563 7.32784C2.60464 7.29167 2.93533 7.29171 3.29601 7.29175ZM2.35266 8.60278L2.35469 8.60164C2.3563 8.6008 2.35906 8.59945 2.36327 8.59772C2.38142 8.59025 2.42172 8.57751 2.50219 8.56669C2.67779 8.54308 2.92279 8.54175 3.3333 8.54175H3.74997C4.16047 8.54175 4.40548 8.54308 4.58108 8.56669C4.66154 8.57751 4.70184 8.59025 4.71999 8.59772C4.7242 8.59945 4.72696 8.6008 4.72857 8.60164L4.7306 8.60278L4.73175 8.60481C4.73259 8.60642 4.73394 8.60919 4.73567 8.61339C4.74313 8.63154 4.75588 8.67184 4.7667 8.75231C4.7903 8.92791 4.79163 9.17291 4.79163 9.58342L4.79163 16.6668C4.79163 17.0773 4.7903 17.3223 4.7667 17.4979C4.75588 17.5783 4.74313 17.6186 4.73567 17.6368C4.73394 17.641 4.73259 17.6437 4.73175 17.6454L4.7306 17.6474L4.72857 17.6485C4.72696 17.6494 4.7242 17.6507 4.71999 17.6525C4.70184 17.6599 4.66154 17.6727 4.58108 17.6835C4.40548 17.7071 4.16047 17.7084 3.74997 17.7084H3.3333C2.92279 17.7084 2.67779 17.7071 2.50219 17.6835C2.42172 17.6727 2.38142 17.6599 2.36327 17.6525C2.35906 17.6507 2.3563 17.6494 2.35469 17.6485L2.35266 17.6474L2.35152 17.6454C2.35067 17.6437 2.34933 17.641 2.3476 17.6368C2.34013 17.6186 2.32739 17.5783 2.31657 17.4979C2.29296 17.3223 2.29163 17.0773 2.29163 16.6668L2.29163 9.58342C2.29163 9.17291 2.29296 8.92791 2.31657 8.75231C2.32739 8.67184 2.34013 8.63154 2.3476 8.61339C2.34933 8.60919 2.35067 8.60642 2.35152 8.60481L2.35266 8.60278Z" fill="white"/>
<path fill-rule="evenodd" clip-rule="evenodd" d="M9.54601 7.29175C9.78733 7.29173 10.7592 7.29172 10.9437 7.30862C11.1432 7.32689 11.3605 7.3689 11.5697 7.49135C11.7858 7.61774 11.9656 7.7976 12.092 8.01362L12.102 8.03103C12.7601 7.56633 13.5545 7.29195 14.4139 7.29195C16.6599 7.29195 18.9583 9.2038 18.9583 11.667L18.9572 16.288C18.9572 16.6486 18.9571 16.9793 18.9209 17.2482C18.881 17.5444 18.7873 17.8574 18.5298 18.1148C18.2723 18.3723 17.9592 18.466 17.663 18.5058C17.3941 18.5419 17.0634 18.5419 16.7029 18.5419H16.2126C15.852 18.5419 15.5213 18.5419 15.2523 18.5058C14.956 18.4659 14.6429 18.3722 14.3854 18.1147C14.1279 17.8572 14.0342 17.5441 13.9944 17.2479C13.9582 16.9789 13.9582 16.6482 13.9583 16.2875L13.9583 12.5002C13.9583 12.1189 13.6762 11.8752 13.4065 11.8752C12.9755 11.8752 12.7438 12.0405 12.5846 12.3049C12.3973 12.6157 12.2917 13.1074 12.2917 13.7502L12.2917 16.7041C12.2917 17.0647 12.2917 17.3954 12.2556 17.6644C12.2157 17.9607 12.122 18.2738 11.8645 18.5313C11.607 18.7888 11.2939 18.8825 10.9976 18.9223C10.7286 18.9585 10.3979 18.9585 10.0373 18.9584H9.54599C9.18532 18.9585 8.85463 18.9585 8.58563 18.9223C8.28939 18.8825 7.97629 18.7888 7.71877 18.5313C7.46125 18.2738 7.36754 17.9607 7.32771 17.6644C7.29155 17.3954 7.29159 17.0647 7.29163 16.704L7.29163 9.54613C7.29159 9.18545 7.29155 8.85476 7.32771 8.58575C7.36754 8.28951 7.46125 7.97641 7.71877 7.71889C7.97629 7.46137 8.28939 7.36766 8.58563 7.32784C8.85463 7.29167 9.18533 7.29171 9.54601 7.29175ZM9.58329 8.54175C9.17279 8.54175 8.92778 8.54308 8.75218 8.56668C8.6958 8.56449 8.57973 8.59854 8.56656 8.7523C8.54295 8.9279 8.54163 9.17291 8.54163 9.58341L8.54163 16.6667C8.54163 17.0773 8.54295 17.3223 8.56656 17.4979C8.57662 17.5995 8.6945 17.6639 8.75218 17.6835C8.92778 17.7071 9.17279 17.7084 9.58329 17.7084H9.99998C10.4105 17.7084 10.6555 17.7071 10.8311 17.6835C10.8884 17.669 11.0058 17.6116 11.0167 17.4979C11.0403 17.3223 11.0416 17.0773 11.0416 16.6668L11.0417 13.7502C11.0417 13.0122 11.156 12.2539 11.5138 11.6599C11.8995 11.0195 12.5378 10.6252 13.4065 10.6252C14.4366 10.6252 15.2083 11.5007 15.2083 12.5002V16.2502C15.2083 16.6607 15.2096 16.9057 15.2332 17.0813C15.2332 17.213 15.3128 17.2351 15.375 17.2523C15.3914 17.2569 15.4066 17.2611 15.4188 17.2669C15.5944 17.2905 15.8394 17.2918 16.2499 17.2918L16.6656 17.2918C17.076 17.2918 17.3209 17.2905 17.4965 17.2669C17.5543 17.2455 17.6724 17.1783 17.6821 17.0814C17.7057 16.9058 17.7071 16.6608 17.7072 16.2504L17.7083 11.6668C17.7082 9.98788 16.0672 8.54195 14.4139 8.54195C13.516 8.54195 12.7036 8.98097 12.1641 9.69011C12.0017 9.90359 11.7212 9.98965 11.467 9.90396C11.2128 9.81827 11.0417 9.57996 11.0417 9.31173C11.0417 9.03759 11.041 8.87423 11.03 8.75374C11.0232 8.6277 10.8936 8.56766 10.8297 8.5534C10.7092 8.54236 10.5458 8.54175 10.2717 8.54175L9.58329 8.54175Z" fill="white"/>
</svg>
