<svg width="20" height="20" viewBox="0 0 20 20" fill="none" xmlns="http://www.w3.org/2000/svg">
<path fill-rule="evenodd" clip-rule="evenodd" d="M5.62504 9.99992C5.62504 7.58367 7.5838 5.62492 10 5.62492C12.4163 5.62492 14.375 7.58367 14.375 9.99992C14.375 12.4162 12.4163 14.3749 10 14.3749C7.5838 14.3749 5.62504 12.4162 5.62504 9.99992ZM10 6.87492C8.27415 6.87492 6.87504 8.27403 6.87504 9.99992C6.87504 11.7258 8.27415 13.1249 10 13.1249C11.7259 13.1249 13.125 11.7258 13.125 9.99992C13.125 8.27403 11.7259 6.87492 10 6.87492Z" fill="white"/>
<path d="M14.5899 6.24992C15.0501 6.24992 15.4232 5.87682 15.4232 5.41658C15.4232 4.95635 15.0501 4.58325 14.5899 4.58325H14.5824C14.1222 4.58325 13.7491 4.95635 13.7491 5.41658C13.7491 5.87682 14.1222 6.24992 14.5824 6.24992H14.5899Z" fill="white"/>
<path fill-rule="evenodd" clip-rule="evenodd" d="M10.0477 1.45825C11.8733 1.45824 13.3072 1.45823 14.4267 1.60875C15.5739 1.76299 16.4841 2.08551 17.1993 2.80068C17.9144 3.51584 18.237 4.42606 18.3912 5.57327C18.5417 6.69278 18.5417 8.12667 18.5417 9.95225V10.0476C18.5417 11.8731 18.5417 13.3071 18.3912 14.4266C18.237 15.5738 17.9144 16.484 17.1993 17.1992C16.4841 17.9143 15.5739 18.2368 14.4267 18.3911C13.3072 18.5416 11.8733 18.5416 10.0477 18.5416H9.9524C8.12682 18.5416 6.6929 18.5416 5.57339 18.3911C4.42618 18.2368 3.51597 17.9143 2.8008 17.1992C2.08564 16.484 1.76311 15.5738 1.60887 14.4266C1.45835 13.307 1.45836 11.8732 1.45837 10.0476V9.95227C1.45836 8.12668 1.45835 6.69279 1.60887 5.57327C1.76311 4.42606 2.08564 3.51584 2.8008 2.80068C3.51597 2.08551 4.42618 1.76299 5.57339 1.60875C6.6929 1.45823 8.12679 1.45824 9.95237 1.45825H10.0477ZM5.73995 2.8476C4.73135 2.9832 4.12889 3.24036 3.68469 3.68456C3.24048 4.12877 2.98333 4.73123 2.84772 5.73983C2.7097 6.76641 2.70837 8.11627 2.70837 9.99992C2.70837 11.8836 2.7097 13.2334 2.84772 14.26C2.98333 15.2686 3.24048 15.8711 3.68469 16.3153C4.12889 16.7595 4.73135 17.0166 5.73995 17.1522C6.76654 17.2903 8.1164 17.2916 10 17.2916C11.8837 17.2916 13.2335 17.2903 14.2601 17.1522C15.2687 17.0166 15.8712 16.7595 16.3154 16.3153C16.7596 15.8711 17.0168 15.2686 17.1524 14.26C17.2904 13.2334 17.2917 11.8836 17.2917 9.99992C17.2917 8.11627 17.2904 6.76641 17.1524 5.73983C17.0168 4.73123 16.7596 4.12877 16.3154 3.68456C15.8712 3.24036 15.2687 2.9832 14.2601 2.8476C13.2335 2.70958 11.8837 2.70825 10 2.70825C8.1164 2.70825 6.76654 2.70958 5.73995 2.8476Z" fill="white"/>
</svg>
