<svg width="24" height="24" viewBox="0 0 24 24" fill="none" xmlns="http://www.w3.org/2000/svg">
<path fill-rule="evenodd" clip-rule="evenodd" d="M12 6.75C9.65279 6.75 7.75 8.65279 7.75 11C7.75 13.3472 9.65279 15.25 12 15.25C14.3472 15.25 16.25 13.3472 16.25 11C16.25 8.65279 14.3472 6.75 12 6.75ZM9.25 11C9.25 9.48122 10.4812 8.25 12 8.25C13.5188 8.25 14.75 9.48122 14.75 11C14.75 12.5188 13.5188 13.75 12 13.75C10.4812 13.75 9.25 12.5188 9.25 11Z" fill="#384250"/>
<path fill-rule="evenodd" clip-rule="evenodd" d="M12.001 1.25C8.17489 1.25 4.52456 3.51303 2.99665 7.08468C1.57469 10.4086 2.34447 13.2373 3.94723 15.6595C5.26128 17.6454 7.17786 19.4178 8.90693 21.0168C9.2366 21.3217 9.55961 21.6204 9.87017 21.9129L9.87182 21.9145C10.4468 22.4528 11.2107 22.75 12.001 22.75C12.7914 22.75 13.5553 22.4528 14.1303 21.9145C14.4238 21.6396 14.7281 21.3592 15.0385 21.0732C16.7864 19.4628 18.7299 17.672 20.0577 15.6609C21.6586 13.2362 22.4256 10.4045 21.0055 7.08468C19.4775 3.51303 15.8272 1.25 12.001 1.25ZM4.37575 7.67465C5.65457 4.68528 8.74166 2.75 12.001 2.75C15.2604 2.75 18.3475 4.68528 19.6263 7.67465C20.7984 10.4144 20.207 12.7124 18.806 14.8344C17.5884 16.6786 15.8049 18.3242 14.0516 19.9418C13.7339 20.235 13.4172 20.5272 13.1051 20.8195C12.8127 21.0932 12.4172 21.25 12.001 21.25C11.5852 21.25 11.19 21.0934 10.8977 20.8201C10.5652 20.5069 10.2275 20.1942 9.88891 19.8806C8.15804 18.2778 6.40275 16.6523 5.19817 14.8318C3.7958 12.7124 3.2022 10.4179 4.37575 7.67465Z" fill="#384250"/>
</svg>
