<svg width="48" height="48" viewBox="0 0 48 48" fill="none" xmlns="http://www.w3.org/2000/svg">
<path d="M0 24C0 10.7452 10.7452 0 24 0C37.2548 0 48 10.7452 48 24C48 37.2548 37.2548 48 24 48C10.7452 48 0 37.2548 0 24Z" fill="#F3FCF6"/>
<path d="M21.561 22.8844C22.541 23.4614 23.27 23.7504 23.999 23.7504C24.729 23.7504 25.458 23.4624 26.439 22.8844L29.381 21.1444C29.738 20.9344 29.856 20.4744 29.645 20.1174C29.435 19.7604 28.975 19.6424 28.618 19.8534L25.677 21.5924C24.203 22.4594 23.795 22.4594 22.323 21.5924L19.381 19.8524C19.025 19.6414 18.5649 19.7603 18.3539 20.1163C18.1429 20.4723 18.262 20.9324 18.618 21.1434L21.561 22.8844Z" fill="#1B8354"/>
<path fill-rule="evenodd" clip-rule="evenodd" d="M21.0797 33.2084C22.0617 33.2334 23.0307 33.2465 23.9997 33.2465C24.9687 33.2465 25.9378 33.2334 26.9198 33.2084L26.9211 33.2084C30.1583 33.1264 31.9419 33.0812 33.2867 31.7374C34.6287 30.3844 34.6657 28.6484 34.7327 25.4954C34.7537 24.4884 34.7537 23.5104 34.7327 22.5034C34.6657 19.3504 34.6287 17.6134 33.2837 16.2584C31.9407 14.9174 30.1568 14.8715 26.9188 14.7895C24.9538 14.7395 23.0437 14.7395 21.0787 14.7895L21.0774 14.7895C17.8402 14.8715 16.0566 14.9166 14.7117 16.2604C13.3697 17.6134 13.3328 19.3494 13.2658 22.5024C13.2448 23.5094 13.2448 24.4874 13.2658 25.4944C13.3328 28.6474 13.3698 30.3845 14.7148 31.7395C16.0578 33.0805 17.8417 33.1264 21.0797 33.2084ZM15.7768 30.6794C14.8558 29.7524 14.8268 28.4074 14.7648 25.4624C14.7438 24.4764 14.7438 23.5184 14.7648 22.5334C14.8268 19.5884 14.8558 18.2445 15.7738 17.3185C16.6927 16.3995 18.0785 16.3644 21.116 16.2874C23.056 16.2374 24.9418 16.2374 26.8808 16.2874C29.9188 16.3644 31.3048 16.4004 32.2218 17.3164C33.1428 18.2434 33.1717 19.5884 33.2337 22.5334C33.2547 23.5194 33.2547 24.4774 33.2337 25.4624C33.1717 28.4074 33.1427 29.7514 32.2247 30.6774C31.3059 31.5963 29.9203 31.6314 26.8835 31.7084L26.8818 31.7084C24.9418 31.7584 23.0568 31.7584 21.1178 31.7084C18.0798 31.6314 16.6938 31.5954 15.7768 30.6794Z" fill="#1B8354"/>
</svg>
