<svg width="16" height="18" viewBox="0 0 16 18" fill="none" xmlns="http://www.w3.org/2000/svg">
<path d="M8 0.0419922C10.4162 0.0419922 12.375 2.00075 12.375 4.41699V6.0498C13.7839 6.3863 14.8654 7.58206 15.0625 9.0459C15.186 9.96288 15.292 10.9269 15.292 11.917C15.292 12.9069 15.1859 13.8703 15.0625 14.7871C14.8362 16.468 13.4436 17.7962 11.7285 17.875C10.5383 17.9297 9.32969 17.958 8 17.958C6.67031 17.958 5.46169 17.9297 4.27148 17.875C2.55644 17.7962 1.16381 16.468 0.9375 14.7871C0.814061 13.8703 0.708031 12.9069 0.708008 11.917C0.708008 10.9269 0.814037 9.96288 0.9375 9.0459C1.13465 7.58206 2.2161 6.3863 3.625 6.0498V4.41699C3.625 2.00075 5.58375 0.0419922 8 0.0419922ZM8 7.125C6.6887 7.125 5.49879 7.15321 4.32812 7.20703C3.23742 7.25732 2.32426 8.11011 2.17578 9.21289C2.05464 10.1126 1.95801 11.0111 1.95801 11.917C1.95803 12.8226 2.05468 13.7206 2.17578 14.6201C2.32426 15.7229 3.23743 16.5757 4.32812 16.626C5.49879 16.6798 6.6887 16.708 8 16.708C9.3113 16.708 10.5012 16.6798 11.6719 16.626C12.7626 16.5757 13.6757 15.7229 13.8242 14.6201C13.9453 13.7206 14.042 12.8226 14.042 11.917C14.042 11.0111 13.9454 10.1126 13.8242 9.21289C13.6757 8.11011 12.7626 7.25732 11.6719 7.20703C10.5012 7.15321 9.3113 7.125 8 7.125ZM4.66699 11.0771C5.12708 11.0773 5.5 11.45 5.5 11.9102V11.9189C5.49975 12.3789 5.12693 12.7518 4.66699 12.752C4.20691 12.752 3.83325 12.379 3.83301 11.9189V11.9102C3.83301 11.4499 4.20675 11.0771 4.66699 11.0771ZM8 11.0771C8.46024 11.0771 8.83301 11.4499 8.83301 11.9102V11.9189C8.83276 12.379 8.46008 12.752 8 12.752C7.53992 12.752 7.16724 12.379 7.16699 11.9189V11.9102C7.16699 11.4499 7.53976 11.0771 8 11.0771ZM11.333 11.0771C11.7932 11.0771 12.167 11.4499 12.167 11.9102V11.9189C12.1667 12.379 11.7931 12.752 11.333 12.752C10.8731 12.7518 10.5002 12.3789 10.5 11.9189V11.9102C10.5 11.45 10.8729 11.0773 11.333 11.0771ZM8 1.29199C6.27411 1.29199 4.875 2.6911 4.875 4.41699V5.93359C5.87231 5.89549 6.89428 5.875 8 5.875C9.10572 5.875 10.1277 5.89549 11.125 5.93359V4.41699C11.125 2.6911 9.72589 1.29199 8 1.29199Z" fill="#161616"/>
</svg>
