<svg width="24" height="28" viewBox="0 0 24 28" fill="none" xmlns="http://www.w3.org/2000/svg">
<path fill-rule="evenodd" clip-rule="evenodd" d="M5.31629 3.28635C5.88297 3.40348 6.33427 3.78422 6.61466 4.28725L7.50787 5.88969C7.83688 6.47989 8.11375 6.97658 8.29457 7.40835C8.48637 7.86637 8.60029 8.31803 8.54821 8.81739C8.49614 9.31675 8.29148 9.73519 8.00931 10.1438C7.7433 10.529 7.36991 10.9578 6.92621 11.4675L4.69835 14.0265C6.46519 16.9225 9.07413 19.5326 11.9731 21.3012L14.5321 19.0734C15.0417 18.6297 15.4706 18.2563 15.8558 17.9903C16.2644 17.7081 16.6828 17.5034 17.1822 17.4514C17.6815 17.3993 18.1332 17.5132 18.5912 17.705C19.023 17.8858 19.5197 18.1627 20.1099 18.4917L21.7123 19.3849C22.2153 19.6653 22.5961 20.1166 22.7132 20.6833C22.8316 21.2559 22.657 21.8314 22.2714 22.3045C20.8725 24.0208 18.6313 25.1137 16.28 24.6394C14.8348 24.3478 13.4088 23.8621 11.6841 22.873C8.21872 20.8856 5.11165 17.7768 3.12658 14.3155C2.13746 12.5908 1.65174 11.1648 1.3602 9.71953C0.885904 7.3683 1.97874 5.12703 3.6951 3.72812C4.16814 3.34258 4.74368 3.16801 5.31629 3.28635ZM13.3702 22.0737C14.5366 22.6484 15.5511 22.9621 16.5766 23.169C18.2727 23.5111 19.985 22.7356 21.1087 21.3568C21.2563 21.1758 21.2572 21.0494 21.2443 20.9869C21.2301 20.9185 21.1728 20.8015 20.982 20.6951L19.4155 19.8219C18.7798 19.4676 18.3567 19.233 18.0118 19.0886C17.6844 18.9515 17.4966 18.9267 17.3378 18.9433C17.1789 18.9598 17.0002 19.0228 16.7082 19.2245C16.4005 19.437 16.0349 19.7539 15.486 20.2317L13.3702 22.0737ZM3.92588 12.6293L5.76786 10.5136C6.24569 9.96469 6.56257 9.59903 6.77504 9.29138C6.97672 8.99934 7.03974 8.82065 7.0563 8.66181C7.07287 8.50297 7.04808 8.31512 6.91099 7.98776C6.76657 7.64289 6.53194 7.21972 6.17763 6.58407L5.30445 5.01756C5.19807 4.82672 5.08109 4.76945 5.01268 4.75531C4.95018 4.74239 4.8238 4.7433 4.64277 4.89084C3.26399 6.0146 2.48845 7.72687 2.83058 9.42292C3.03747 10.4485 3.35115 11.463 3.92588 12.6293Z" fill="#1B8354"/>
</svg>
