<svg width="46" height="32" viewBox="0 0 46 32" fill="none" xmlns="http://www.w3.org/2000/svg">
<path d="M12.423 -7.62939e-06C15.1537 -7.62939e-06 17.1163 0.725327 18.311 2.17599C19.591 3.54133 20.231 5.33333 20.231 7.55199V9.34399C20.231 12.8427 19.207 16.7253 17.159 20.992C15.111 25.1733 12.2523 28.8427 8.583 32H0.00700045C2.567 29.2693 4.615 26.7093 6.151 24.32C7.77233 21.8453 8.92433 19.1147 9.607 16.128C7.90033 15.7013 6.62033 14.8907 5.767 13.696C4.999 12.5013 4.615 11.0507 4.615 9.34399V7.55199C4.615 5.33333 5.21233 3.54133 6.407 2.17599C7.687 0.725327 9.69233 -7.62939e-06 12.423 -7.62939e-06ZM38.151 -7.62939e-06C40.8817 -7.62939e-06 42.8443 0.725327 44.039 2.17599C45.319 3.54133 45.959 5.33333 45.959 7.55199V9.34399C45.959 12.8427 44.935 16.7253 42.887 20.992C40.839 25.1733 37.9803 28.8427 34.311 32H25.735C28.295 29.2693 30.343 26.7093 31.879 24.32C33.5003 21.8453 34.6523 19.1147 35.335 16.128C33.6283 15.7013 32.3483 14.8907 31.495 13.696C30.727 12.5013 30.343 11.0507 30.343 9.34399V7.55199C30.343 5.33333 30.9403 3.54133 32.135 2.17599C33.415 0.725327 35.4203 -7.62939e-06 38.151 -7.62939e-06Z" fill="#14573A"/>
</svg>
