<svg width="47" height="33" viewBox="0 0 47 33" fill="none" xmlns="http://www.w3.org/2000/svg">
<path d="M8.146 32.28C5.41533 32.28 3.41 31.5973 2.13 30.232C0.935334 28.7813 0.338 26.9467 0.338 24.728V22.936C0.338 19.4373 1.362 15.5973 3.41 11.416C5.458 7.14933 8.31667 3.43733 11.986 0.279999H20.562C18.002 3.01067 15.9113 5.61333 14.29 8.088C12.754 10.4773 11.6447 13.1653 10.962 16.152C12.6687 16.5787 13.906 17.3893 14.674 18.584C15.5273 19.7787 15.954 21.2293 15.954 22.936V24.728C15.954 26.9467 15.314 28.7813 14.034 30.232C12.8393 31.5973 10.8767 32.28 8.146 32.28ZM34.002 32.28C31.2713 32.28 29.266 31.5973 27.986 30.232C26.7913 28.7813 26.194 26.9467 26.194 24.728V22.936C26.194 19.4373 27.218 15.5973 29.266 11.416C31.314 7.14933 34.1727 3.43733 37.842 0.279999H46.418C43.858 3.01067 41.7673 5.61333 40.146 8.088C38.61 10.4773 37.5007 13.1653 36.818 16.152C38.5247 16.5787 39.762 17.3893 40.53 18.584C41.3833 19.7787 41.81 21.2293 41.81 22.936V24.728C41.81 26.9467 41.17 28.7813 39.89 30.232C38.6953 31.5973 36.7327 32.28 34.002 32.28Z" fill="#14573A"/>
</svg>
