<svg width="24" height="24" viewBox="0 0 24 24" fill="none" xmlns="http://www.w3.org/2000/svg">
<path fill-rule="evenodd" clip-rule="evenodd" d="M12.7583 6.99915C12.7583 6.58493 12.4225 6.24915 12.0083 6.24915C11.5941 6.24915 11.2583 6.58493 11.2583 6.99915V9.88633C10.3844 10.1952 9.7583 11.0286 9.7583 12.0083C9.7583 13.2509 10.7657 14.2583 12.0083 14.2583C12.3544 14.2583 12.6822 14.1802 12.9751 14.0406L14.4849 15.5503C14.7778 15.8432 15.2526 15.8432 15.5455 15.5503C15.8384 15.2574 15.8384 14.7825 15.5455 14.4896L14.0375 12.9816C14.179 12.687 14.2583 12.3569 14.2583 12.0083C14.2583 11.0286 13.6322 10.1952 12.7583 9.88633V6.99915ZM12.7583 12.0083C12.7583 12.2162 12.6737 12.4043 12.5372 12.5401C12.4016 12.675 12.2147 12.7583 12.0083 12.7583C11.5941 12.7583 11.2583 12.4225 11.2583 12.0083C11.2583 11.5941 11.5941 11.2583 12.0083 11.2583C12.4225 11.2583 12.7583 11.5941 12.7583 12.0083Z" fill="#384250"/>
<path fill-rule="evenodd" clip-rule="evenodd" d="M12 1.25C6.06294 1.25 1.25 6.06294 1.25 12C1.25 17.9371 6.06294 22.75 12 22.75C17.9371 22.75 22.75 17.9371 22.75 12C22.75 6.06294 17.9371 1.25 12 1.25ZM2.75 12C2.75 6.89137 6.89137 2.75 12 2.75C17.1086 2.75 21.25 6.89137 21.25 12C21.25 17.1086 17.1086 21.25 12 21.25C6.89137 21.25 2.75 17.1086 2.75 12Z" fill="#384250"/>
</svg>
