<svg width="20" height="20" viewBox="0 0 20 20" fill="none" xmlns="http://www.w3.org/2000/svg">
<path d="M10 1.04199C14.9476 1.04199 18.958 5.05245 18.958 10C18.958 14.9476 14.9476 18.958 10 18.958C5.05245 18.958 1.04199 14.9476 1.04199 10C1.04199 5.05245 5.05245 1.04199 10 1.04199ZM8.66797 13.542C7.39707 13.542 6.22332 14.2227 5.59277 15.3262L5.19336 16.0244C6.51148 17.0775 8.1817 17.708 10 17.708C11.818 17.708 13.4876 17.0772 14.8057 16.0244L14.4072 15.3262C13.7767 14.2227 12.603 13.542 11.332 13.542H8.66797ZM10 2.29199C5.74281 2.29199 2.29199 5.74281 2.29199 10C2.29199 11.976 3.03625 13.7774 4.25879 15.1416L4.50781 14.7061C5.36091 13.2131 6.9485 12.292 8.66797 12.292H11.332C13.0515 12.292 14.6391 13.2131 15.4922 14.7061L15.7402 15.1416C16.963 13.7774 17.708 11.9762 17.708 10C17.708 5.74281 14.2572 2.29199 10 2.29199ZM10 5C11.6108 5 12.917 6.30616 12.917 7.91699C12.9168 9.52767 11.6107 10.833 10 10.833C8.38928 10.833 7.08318 9.52767 7.08301 7.91699C7.08301 6.30616 8.38917 5 10 5ZM10 6.25C9.07952 6.25 8.33301 6.99652 8.33301 7.91699C8.33318 8.83732 9.07963 9.58301 10 9.58301C10.9204 9.58301 11.6668 8.83732 11.667 7.91699C11.667 6.99652 10.9205 6.25 10 6.25Z" fill="#161616"/>
</svg>
