<svg width="24" height="24" viewBox="0 0 24 24" fill="none" xmlns="http://www.w3.org/2000/svg">
<path fill-rule="evenodd" clip-rule="evenodd" d="M17.1331 1.75C17.6691 1.75 18.1471 2.06901 18.3521 2.56201C18.5571 3.05601 18.4441 3.62098 18.0641 4.00098L15.355 6.72002C15.162 6.91302 15.0561 7.16704 15.0561 7.43604C15.0561 7.70504 15.162 7.95898 15.354 8.15098C15.546 8.34298 15.8001 8.44902 16.0691 8.44902C16.3381 8.44902 16.592 8.34298 16.784 8.15098L19.505 5.44004C19.884 5.06104 20.4491 4.94803 20.9431 5.15303C21.4361 5.35703 21.7552 5.83597 21.7552 6.37197L21.7551 7.9323C21.7504 11.8973 21.6621 12.626 20.3951 13.892C19.0831 15.204 16.959 15.252 13.78 15.252L13.3137 15.25L7.36301 21.2007C6.68401 21.8797 5.78503 22.2528 4.82903 22.2528C3.86702 22.2497 2.97202 21.8748 2.30002 21.1978C1.62702 20.5308 1.25202 19.6358 1.25001 18.6818C1.24802 17.7228 1.62107 16.8198 2.30207 16.1398L8.25309 10.1887V10.102C8.25109 6.71195 8.25005 4.47296 9.61302 3.10996C10.8748 1.84821 11.6019 1.75794 15.5239 1.75069L17.1331 1.75ZM8.51301 12.0507L3.36301 17.2007C2.96701 17.5967 2.74902 18.1217 2.75001 18.6787C2.75102 19.2307 2.96808 19.7487 3.36008 20.1377C3.75408 20.5347 4.27205 20.7518 4.82405 20.7528C5.38403 20.7528 5.90707 20.5358 6.30207 20.1398L11.4519 14.9899C10.0783 14.514 8.9888 13.4243 8.51301 12.0507ZM16.6931 3.25098L15.6338 3.25041C11.7474 3.25652 11.5017 3.34147 10.6731 4.171C9.75042 5.09365 9.75112 7.08449 9.75205 10.0976L9.75222 10.5287C9.76772 12.3076 11.2197 13.75 13.0021 13.75H13.4302C16.4309 13.75 18.4111 13.75 19.3311 12.83C20.2191 11.942 20.2531 11.723 20.2521 6.98301V6.80996L17.8411 9.21201C17.3671 9.68601 16.736 9.94805 16.067 9.94805C15.398 9.94805 14.767 9.68604 14.292 9.21104C13.817 8.73604 13.555 8.10504 13.555 7.43604C13.555 6.76704 13.817 6.13604 14.292 5.66104L16.6931 3.25098ZM5.00294 19.5H5.0129C5.5649 19.5 6.00792 19.052 6.00792 18.5C6.00792 17.948 5.55494 17.5 5.00294 17.5C4.45094 17.5 4.00294 17.948 4.00294 18.5C4.00294 19.052 4.45094 19.5 5.00294 19.5Z" fill="#161616"/>
</svg>
