<svg width="21" height="31" viewBox="0 0 21 31" fill="none" xmlns="http://www.w3.org/2000/svg">
<g id="DGA logo">
<path id="Vector" d="M11.3686 15.0182C11.213 15.1314 11.114 15.3152 11.114 15.5132V20.5334C11.114 20.8728 11.3827 21.1415 11.7221 21.1415C12.0615 21.1415 12.3302 20.8728 12.3302 20.5334V15.8243L17.6615 12.091C17.8454 12.1899 18.0433 12.2324 18.2696 12.2324C18.9908 12.2324 19.5848 11.6526 19.5848 10.9172C19.5848 10.196 19.005 9.60205 18.2696 9.60205C17.5484 9.60205 16.9544 10.1819 16.9544 10.9172C16.9544 10.9738 16.9544 11.0303 16.9686 11.0728L11.3686 15.0182Z" fill="url(#paint0_linear_51_98)"/>
<path id="Vector_2" d="M7.59282 13.6889V18.695C7.16857 18.9213 6.88574 19.3455 6.88574 19.8546C6.88574 20.5758 7.46554 21.1697 8.2009 21.1697C8.92211 21.1697 9.51605 20.5899 9.51605 19.8546C9.51605 19.3455 9.23322 18.9071 8.80898 18.695V14.0142L16.6999 8.49898C16.8555 8.38585 16.9545 8.20201 16.9545 8.00403V4.27068C16.9545 3.93129 16.6858 3.6626 16.3464 3.6626C16.007 3.6626 15.7383 3.93129 15.7383 4.27068V7.67878L7.84736 13.194C7.67766 13.2929 7.57867 13.4768 7.59282 13.6889Z" fill="url(#paint1_linear_51_98)"/>
<path id="Vector_3" d="M17.0393 15.3576L15.0312 16.7718C14.7484 16.9697 14.6918 17.3374 14.8898 17.6203C15.0029 17.79 15.2009 17.8748 15.3847 17.8748C15.512 17.8748 15.6251 17.8465 15.7383 17.7617L17.7464 16.3475C18.0292 16.1495 18.0858 15.7819 17.8878 15.499C17.7039 15.2303 17.3221 15.1596 17.0393 15.3576Z" fill="url(#paint2_linear_51_98)"/>
<path id="Vector_4" d="M20.8858 18.9071C20.6878 18.6243 20.306 18.5536 20.0231 18.7516L10.5059 25.4122L0.988723 18.7516C0.705894 18.5536 0.324069 18.6243 0.126088 18.9071C-0.0718928 19.19 -0.00118027 19.5718 0.281649 19.7698L9.43119 26.1759L6.75844 28.0567C6.5746 27.9577 6.36248 27.9153 6.15036 27.9153C5.41501 27.9153 4.82106 28.5092 4.82106 29.2446C4.82106 29.9799 5.41501 30.5738 6.15036 30.5738C6.88572 30.5738 7.47966 29.9799 7.47966 29.2446C7.47966 29.188 7.47966 29.1314 7.46552 29.0749L10.5201 26.9395L13.5746 29.0749C13.5746 29.1314 13.5605 29.188 13.5605 29.2446C13.5605 29.9799 14.1544 30.5738 14.8898 30.5738C15.6251 30.5738 16.2191 29.9799 16.2191 29.2446C16.2191 28.5092 15.6251 27.9153 14.8898 27.9153C14.6635 27.9153 14.4655 27.9718 14.2817 28.0567L11.609 26.1759L20.7585 19.7698C21.0131 19.5718 21.0838 19.19 20.8858 18.9071Z" fill="url(#paint3_linear_51_98)"/>
<path id="Vector_5" d="M3.97253 4.46872L5.98062 3.05457C6.26345 2.85659 6.32002 2.48891 6.12204 2.20608C6.00891 2.03639 5.81093 1.95154 5.62709 1.95154C5.49981 1.95154 5.38668 1.97982 5.27355 2.06467L3.26546 3.47882C2.98263 3.6768 2.92606 4.04447 3.12404 4.3273C3.30788 4.59599 3.6897 4.6667 3.97253 4.46872Z" fill="url(#paint4_linear_51_98)"/>
<path id="Vector_6" d="M12.2029 2.47476V5.82629L4.31192 11.3415C4.15636 11.4546 4.05737 11.6384 4.05737 11.8364V15.5698C4.05737 15.9092 4.32606 16.1778 4.66545 16.1778C5.00485 16.1778 5.27354 15.9092 5.27354 15.5698V12.1617L13.1645 6.64649C13.32 6.53336 13.419 6.34952 13.419 6.15154V2.47476C13.8433 2.24849 14.1261 1.82425 14.1261 1.31516C14.1261 0.593945 13.5463 0 12.8109 0C12.0897 0 11.4958 0.579803 11.4958 1.31516C11.5099 1.81011 11.7928 2.24849 12.2029 2.47476Z" fill="url(#paint5_linear_51_98)"/>
<path id="Vector_7" d="M2.72812 10.196C3.44933 10.196 4.04327 9.61623 4.04327 8.88087C4.04327 8.8243 4.04328 8.76774 4.02914 8.72531L9.62916 4.80812C9.78471 4.69499 9.8837 4.51115 9.8837 4.31317V0.622242C9.8837 0.282846 9.61502 0.0141602 9.27562 0.0141602C8.93623 0.0141602 8.66754 0.282846 8.66754 0.622242V4.00206L3.3362 7.72127C3.15236 7.62228 2.95438 7.57985 2.72812 7.57985C2.0069 7.57985 1.41296 8.15965 1.41296 8.89501C1.42711 9.61622 2.0069 10.196 2.72812 10.196Z" fill="url(#paint6_linear_51_98)"/>
</g>
<defs>
<linearGradient id="paint0_linear_51_98" x1="15.3524" y1="3.95793" x2="15.3524" y2="27.7715" gradientUnits="userSpaceOnUse">
<stop stop-color="#00ABAF"/>
<stop offset="0.24" stop-color="#0093B4"/>
<stop offset="0.48" stop-color="#0080BA"/>
<stop offset="1" stop-color="#774896"/>
</linearGradient>
<linearGradient id="paint1_linear_51_98" x1="11.9192" y1="3.9579" x2="11.9192" y2="27.7715" gradientUnits="userSpaceOnUse">
<stop stop-color="#00ABAF"/>
<stop offset="0.24" stop-color="#0093B4"/>
<stop offset="0.48" stop-color="#0080BA"/>
<stop offset="1" stop-color="#774896"/>
</linearGradient>
<linearGradient id="paint2_linear_51_98" x1="16.387" y1="3.95793" x2="16.387" y2="27.7715" gradientUnits="userSpaceOnUse">
<stop stop-color="#00ABAF"/>
<stop offset="0.24" stop-color="#0093B4"/>
<stop offset="0.48" stop-color="#0080BA"/>
<stop offset="1" stop-color="#774896"/>
</linearGradient>
<linearGradient id="paint3_linear_51_98" x1="10.5052" y1="3.95793" x2="10.5052" y2="27.7715" gradientUnits="userSpaceOnUse">
<stop stop-color="#29B2B2"/>
<stop offset="0.27" stop-color="#1091B3"/>
<stop offset="0.48" stop-color="#017EB5"/>
<stop offset="1" stop-color="#704B98"/>
</linearGradient>
<linearGradient id="paint4_linear_51_98" x1="4.62328" y1="3.95796" x2="4.62328" y2="27.7715" gradientUnits="userSpaceOnUse">
<stop stop-color="#00ABAF"/>
<stop offset="0.24" stop-color="#0093B4"/>
<stop offset="0.48" stop-color="#0080BA"/>
<stop offset="1" stop-color="#774896"/>
</linearGradient>
<linearGradient id="paint5_linear_51_98" x1="9.09284" y1="3.95794" x2="9.09284" y2="27.7715" gradientUnits="userSpaceOnUse">
<stop stop-color="#00ABAF"/>
<stop offset="0.24" stop-color="#0093B4"/>
<stop offset="0.48" stop-color="#0080BA"/>
<stop offset="1" stop-color="#774896"/>
</linearGradient>
<linearGradient id="paint6_linear_51_98" x1="5.65795" y1="3.95796" x2="5.65795" y2="27.7715" gradientUnits="userSpaceOnUse">
<stop stop-color="#00ABAF"/>
<stop offset="0.24" stop-color="#0093B4"/>
<stop offset="0.48" stop-color="#0080BA"/>
<stop offset="1" stop-color="#774896"/>
</linearGradient>
</defs>
</svg>
