<svg width="20" height="20" viewBox="0 0 20 20" fill="none" xmlns="http://www.w3.org/2000/svg">
<path d="M14.4082 14.7979C14.5197 14.4713 14.8755 14.2968 15.2021 14.4082C15.754 14.5964 16.2428 14.8286 16.6064 15.1123C16.9618 15.3896 17.292 15.7946 17.292 16.3271C17.2919 16.9062 16.904 17.3332 16.5049 17.6172C16.09 17.9124 15.5301 18.1524 14.8945 18.3438C13.615 18.7288 11.8844 18.958 10 18.958C8.11561 18.958 6.38504 18.7288 5.10547 18.3438C4.4699 18.1524 3.91005 17.9124 3.49512 17.6172C3.09601 17.3332 2.70806 16.9062 2.70801 16.3271C2.70801 15.7946 3.03824 15.3896 3.39355 15.1123C3.7572 14.8286 4.24601 14.5964 4.79785 14.4082C5.12446 14.2968 5.48029 14.4713 5.5918 14.7979C5.70316 15.1245 5.52865 15.4803 5.20215 15.5918C4.71715 15.7572 4.37238 15.9336 4.16211 16.0977C3.99398 16.2289 3.96391 16.3085 3.95898 16.3271C3.9644 16.347 4.00036 16.4425 4.21973 16.5986C4.47937 16.7833 4.89534 16.9758 5.46582 17.1475C6.59911 17.4885 8.2025 17.708 10 17.708C11.7975 17.708 13.4009 17.4885 14.5342 17.1475C15.1047 16.9758 15.5206 16.7833 15.7803 16.5986C15.9996 16.4425 16.0356 16.347 16.041 16.3271C16.0361 16.3085 16.006 16.2288 15.8379 16.0977C15.6276 15.9336 15.2828 15.7572 14.7979 15.5918C14.4713 15.4803 14.2968 15.1245 14.4082 14.7979ZM10 1.04199C13.7315 1.04199 16.875 4.18232 16.875 7.98926C16.8749 11.8762 13.668 14.5103 10.9746 16.1914L10.9648 16.1973L10.9561 16.2021C10.6653 16.3696 10.3355 16.458 10 16.458C9.66448 16.458 9.3347 16.3696 9.04395 16.2021L9.0332 16.1963L9.02246 16.1895C6.33956 14.4954 3.1251 11.8893 3.125 7.98926C3.125 4.18232 6.26854 1.04199 10 1.04199ZM10 2.29199C6.9668 2.29199 4.375 4.86475 4.375 7.98926C4.3751 11.1503 6.99136 13.4268 9.67773 15.125C9.77688 15.1799 9.88774 15.208 10 15.208C10.1129 15.208 10.2247 15.1795 10.3242 15.124C13.0106 13.4455 15.6249 11.1396 15.625 7.98926C15.625 4.86475 13.0332 2.29199 10 2.29199ZM10 4.79199C11.7259 4.79199 13.125 6.1911 13.125 7.91699C13.1248 9.64273 11.7258 11.042 10 11.042C8.27422 11.042 6.87518 9.64273 6.875 7.91699C6.875 6.1911 8.27411 4.79199 10 4.79199ZM10 6.04199C8.96447 6.04199 8.125 6.88146 8.125 7.91699C8.12518 8.95238 8.96457 9.79199 10 9.79199C11.0354 9.79199 11.8748 8.95238 11.875 7.91699C11.875 6.88146 11.0355 6.04199 10 6.04199Z" fill="#067647"/>
</svg>
