<svg width="95" height="59" viewBox="0 0 95 59" fill="none" xmlns="http://www.w3.org/2000/svg">
<path d="M42.6472 27.5558L42.6152 20.0319L47.4307 18.2591V33.9667C47.4307 35.8382 46.7826 37.3988 45.4923 38.6485C44.5333 39.6278 43.397 40.241 42.0805 40.488H37.8347L35.7626 35.8412H40.8454C41.3801 35.8412 41.8161 35.661 42.1503 35.3064C42.4845 34.9286 42.653 34.4811 42.653 33.9696V27.5587L42.6472 27.5558Z" fill="#074D31"/>
<path d="M60.5054 35.5069C59.991 35.5069 59.558 35.318 59.2006 34.9373C58.8664 34.6031 58.6978 34.1905 58.6978 33.6993L56.5967 12.0953L51.8481 12.1243L50.395 33.6325C50.395 35.4837 51.0402 37.0501 52.3334 38.3317C53.6266 39.6133 55.1872 40.2555 57.0152 40.2555H61.4121L63.4464 35.5069H60.5054ZM53.6528 21.235H52.4526V20.1568C52.4526 19.8284 52.7228 19.5582 53.0541 19.5582C53.3854 19.5582 53.6528 19.8284 53.6528 20.1568V21.235ZM56.6025 23.0019V24.6933H54.7193V23.0019C54.7193 22.4846 55.1407 22.0603 55.6609 22.0603C56.1811 22.0603 56.6025 22.4846 56.6025 23.0019ZM54.7135 16.5852C54.7135 16.2568 54.9838 15.9866 55.3122 15.9866C55.6406 15.9866 55.9138 16.2568 55.9138 16.5852V17.6634H54.7135V16.5852Z" fill="#074D31"/>
<path d="M60.7408 40.2526V35.504H65.0215C65.533 35.504 65.9689 35.3151 66.3264 34.9344C66.6838 34.577 66.8611 34.144 66.8611 33.6296V25.5041L71.6097 23.6994V33.6296C71.6097 34.298 71.5429 34.9228 71.4092 35.5011H75.0535V40.2497H60.7408V40.2526ZM68.968 23.7023L65.3906 20.058L68.968 16.4138L72.5804 20.058L68.968 23.7023Z" fill="#074D31"/>
<path d="M76.4918 35.504V23.7343H86.5906C87.9942 23.7343 89.2933 24.0743 90.4877 24.7543C91.6792 25.4343 92.644 26.3876 93.3793 27.6139C94.1145 28.8403 94.4836 30.2788 94.4836 31.9266C94.4836 33.6645 94.1145 35.1524 93.3793 36.3904C92.644 37.6284 91.6792 38.5816 90.4877 39.25C89.2962 39.9184 87.9971 40.2526 86.5906 40.2526L84.2831 40.2178L81.2724 35.4372L81.3392 40.2526H74.3849V35.504H76.4918ZM81.2724 35.4372H86.5877C87.5234 35.4372 88.2761 35.1204 88.8457 34.484C89.4153 33.8476 89.6972 32.9961 89.6972 31.9266C89.6972 30.9443 89.4124 30.1364 88.8457 29.5029C88.2761 28.8665 87.5263 28.5497 86.5877 28.5497H81.2724V35.4372Z" fill="#074D31"/>
<path d="M6.59405 40.2439C4.7661 40.2439 3.21714 39.5871 1.94717 38.2707C0.653945 37.0239 0.00879205 35.475 0.00879205 33.6238V28.2068L4.75739 26.7014V33.6238C4.75739 34.1382 4.93466 34.5712 5.29211 34.9286C5.64956 35.3093 6.08257 35.4982 6.59695 35.4982H19.7704C20.3051 35.4982 20.741 35.3093 21.0752 34.9286C21.4094 34.5712 21.578 34.1382 21.578 33.6238L21.6448 25.4983L26.3934 23.6936V33.6238C26.3934 35.475 25.7454 37.0239 24.4551 38.2707C23.1386 39.5871 21.578 40.2439 19.7733 40.2439H6.59986H6.59405ZM9.56992 26.8351L5.95761 23.1908L9.56992 19.5465L13.1473 23.1908L9.56992 26.8351ZM16.7596 26.8351L13.1473 23.1908L16.7596 19.5465L20.4039 23.1908L16.7596 26.8351Z" fill="#074D31"/>
<path d="M34.272 40.2526H29.4565V19.9737L34.2051 18.201L34.272 40.2526Z" fill="#074D31"/>
<path fill-rule="evenodd" clip-rule="evenodd" d="M52.6124 5.92558H55.4924C55.7423 5.92558 55.9458 6.12901 55.9458 6.37894V7.7884C55.9458 8.03833 55.7423 8.24175 55.4924 8.24175H52.6124C52.3625 8.24175 52.1591 8.03833 52.1591 7.7884V6.37894C52.1591 6.12901 52.3625 5.92558 52.6124 5.92558ZM54.0539 3.09211L54.792 3.93198L55.5302 4.77185H52.5776L53.3157 3.93198L54.0539 3.09211ZM50.0754 12.5399H58.0323C58.2183 12.5399 58.3724 12.3859 58.3724 12.1999V11.8599H49.7354V12.1999C49.7354 12.3859 49.8894 12.5399 50.0754 12.5399ZM49.9998 8.8811H50.9705C51.1158 8.8811 51.2378 9.00025 51.2378 9.14847V10.9561H52.1126V9.14847C52.1126 9.00316 52.2317 8.8811 52.38 8.8811H53.3506C53.4959 8.8811 53.618 9.00025 53.618 9.14847V10.9561H54.4956V9.14847C54.4956 9.00316 54.6147 8.8811 54.763 8.8811H55.7336C55.8789 8.8811 56.001 9.00025 56.001 9.14847V10.9561H56.8786V9.14847C56.8786 9.00316 56.9978 8.8811 57.146 8.8811H58.1166C58.2619 8.8811 58.384 9.00025 58.384 9.14847V11.6361H49.747V9.14847C49.747 9.00316 49.8662 8.8811 50.0115 8.8811H49.9998Z" fill="#074D31"/>
<path fill-rule="evenodd" clip-rule="evenodd" d="M30.8369 2.25806L49.5552 7.30018L32.5805 5.40539L30.8369 2.25806Z" fill="#62B846"/>
<path fill-rule="evenodd" clip-rule="evenodd" d="M32.6385 12.8392L49.3836 7.86977L34.7629 9.55823L32.6385 12.8392Z" fill="#62B846"/>
<path fill-rule="evenodd" clip-rule="evenodd" d="M74.0566 3.98138L76.2565 0L58.166 6.33534L74.0566 3.98138Z" fill="#62B846"/>
<path fill-rule="evenodd" clip-rule="evenodd" d="M59.0173 7.35829L71.1562 7.56753L68.6511 5.95463L59.0173 7.35829Z" fill="#62B846"/>
<path fill-rule="evenodd" clip-rule="evenodd" d="M71.4411 12.8567L84.3734 13.0485L58.5438 8.72417L71.4411 12.8567Z" fill="#62B846"/>
<path d="M0.430018 49.2877C0.688663 49.4534 1.05775 49.5784 1.45298 49.5784C2.04001 49.5784 2.38584 49.2674 2.38584 48.817C2.38584 48.4072 2.14753 48.1631 1.54597 47.9393C0.819437 47.6748 0.368992 47.2912 0.368992 46.6693C0.368992 45.9748 0.944401 45.4604 1.81042 45.4604C2.26087 45.4604 2.59799 45.565 2.78688 45.6783L2.62995 46.1462C2.49046 46.059 2.19403 45.9341 1.79008 45.9341C1.1827 45.9341 0.950216 46.2973 0.950216 46.6025C0.950216 47.0181 1.22048 47.2244 1.83658 47.4627C2.58926 47.7533 2.96706 48.1166 2.96706 48.7705C2.96706 49.4563 2.4643 50.0579 1.4152 50.0579C0.985091 50.0579 0.517205 49.9242 0.278903 49.7672L0.430018 49.2848V49.2877Z" fill="#231F20"/>
<path d="M6.86423 49.8486C6.6608 49.9532 6.23069 50.0608 5.68724 50.0608C4.4318 50.0608 3.49313 49.2674 3.49313 47.7998C3.49313 46.3322 4.43762 45.4604 5.81802 45.4604C6.36728 45.4604 6.72182 45.5795 6.87584 45.658L6.73054 46.1259C6.51839 46.0213 6.20744 45.9399 5.83837 45.9399C4.79507 45.9399 4.10051 46.6083 4.10051 47.7766C4.10051 48.8722 4.72823 49.5667 5.8064 49.5667C6.16385 49.5667 6.5213 49.4941 6.75088 49.3807L6.86423 49.8428V49.8486Z" fill="#231F20"/>
<path d="M8.34057 48.5874L7.8785 49.9881H7.28274L8.80264 45.5359H9.48849L11.0084 49.9881H10.3952L9.91859 48.5874H8.34057ZM9.80525 48.1369L9.36352 46.8553C9.26471 46.5647 9.19787 46.3002 9.13103 46.0416H9.1165C9.04966 46.3002 8.98572 46.5763 8.89273 46.8466L8.45681 48.134H9.80525V48.1369Z" fill="#231F20"/>
<path d="M11.6827 45.4168L11.5694 47.0035H11.2119L11.1073 45.4168H11.6827Z" fill="#231F20"/>
<path d="M12.4179 49.4011C12.5951 49.5057 12.9003 49.6248 13.1909 49.6248C13.6065 49.6248 13.8041 49.4185 13.8041 49.1482C13.8041 48.878 13.6384 48.7239 13.217 48.567C12.6358 48.3549 12.3655 48.0439 12.3655 47.6603C12.3655 47.1459 12.7898 46.7216 13.4699 46.7216C13.7924 46.7216 14.0773 46.8088 14.2487 46.9193L14.1092 47.3435C13.9843 47.2651 13.7518 47.1517 13.4553 47.1517C13.1124 47.1517 12.9264 47.3494 12.9264 47.5877C12.9264 47.8521 13.1124 47.9713 13.528 48.1369C14.0772 48.3433 14.3679 48.6193 14.3679 49.0959C14.3679 49.6655 13.9261 50.0608 13.1793 50.0608C12.8276 50.0608 12.505 49.9678 12.2813 49.837L12.4208 49.4011H12.4179Z" fill="#231F20"/>
<path d="M17.8609 47.9916V48.4159H16.2277V47.9916H17.8609Z" fill="#231F20"/>
<path d="M23.0687 49.8486C22.8653 49.9532 22.4352 50.0608 21.8917 50.0608C20.6363 50.0608 19.6976 49.2674 19.6976 47.7998C19.6976 46.3322 20.6421 45.4604 22.0225 45.4604C22.5718 45.4604 22.9263 45.5795 23.0803 45.658L22.935 46.1259C22.7229 46.0213 22.4119 45.9399 22.0428 45.9399C20.9995 45.9399 20.305 46.6083 20.305 47.7766C20.305 48.8722 20.9327 49.5667 22.0109 49.5667C22.3683 49.5667 22.7258 49.4941 22.9554 49.3807L23.0687 49.8428V49.8486Z" fill="#231F20"/>
<path d="M26.5969 48.3636C26.5969 49.5464 25.7715 50.0608 25.0043 50.0608C24.1441 50.0608 23.4728 49.4272 23.4728 48.4159C23.4728 47.3523 24.179 46.7245 25.0595 46.7245C25.9401 46.7245 26.5998 47.393 26.5998 48.3636H26.5969ZM24.0686 48.3956C24.0686 49.0959 24.4638 49.6248 25.0334 49.6248C25.603 49.6248 26.004 49.1017 26.004 48.3839C26.004 47.8434 25.7338 47.1605 25.045 47.1605C24.3563 47.1605 24.0657 47.794 24.0657 48.3956H24.0686Z" fill="#231F20"/>
<path d="M27.3321 47.6574C27.3321 47.3203 27.3262 47.0558 27.3059 46.7914H27.8203L27.8522 47.3203H27.8668C28.0237 47.0239 28.3957 46.7245 28.9246 46.7245C29.3663 46.7245 30.0551 46.989 30.0551 48.0846V49.9881H29.4739V48.1456C29.4739 47.6313 29.2821 47.2011 28.7328 47.2011C28.355 47.2011 28.0586 47.4714 27.954 47.7969C27.9278 47.8696 27.9133 47.9684 27.9133 48.0672V49.991H27.3321V47.6574Z" fill="#231F20"/>
<path d="M31.6739 46.0242V46.7914H32.505V47.2331H31.6739V48.9564C31.6739 49.3517 31.7872 49.5783 32.1098 49.5783C32.2696 49.5783 32.3597 49.5638 32.4469 49.5377L32.4731 49.9794C32.3597 50.0201 32.1824 50.0579 31.9587 50.0579C31.6884 50.0579 31.4705 49.9649 31.331 49.8137C31.1711 49.6365 31.1072 49.3517 31.1072 48.9739V47.2302H30.6102V46.7885H31.1072V46.1927L31.6768 46.0213L31.6739 46.0242Z" fill="#231F20"/>
<path d="M33.1617 47.7882C33.1617 47.4104 33.1559 47.0878 33.1355 46.7914H33.6441L33.6702 47.4249H33.6906C33.8359 46.9948 34.1933 46.7245 34.5828 46.7245C34.6409 46.7245 34.6874 46.7304 34.7426 46.7391V47.2883C34.6816 47.2738 34.6234 47.2738 34.545 47.2738C34.1352 47.2738 33.8446 47.5789 33.7661 48.0149C33.7516 48.0933 33.7458 48.1921 33.7458 48.2851V49.991H33.1646V47.7911L33.1617 47.7882Z" fill="#231F20"/>
<path d="M37.5353 49.2209C37.5353 49.4999 37.5469 49.7702 37.5818 49.9881H37.0587L37.0122 49.5842H36.9919C36.8146 49.8341 36.4688 50.0608 36.0125 50.0608C35.3644 50.0608 35.0361 49.6045 35.0361 49.1424C35.0361 48.3694 35.7219 47.9451 36.9599 47.9538V47.887C36.9599 47.6283 36.8873 47.1459 36.2334 47.1546C35.9282 47.1546 35.6173 47.2418 35.3935 47.393L35.2598 47.0035C35.5243 46.8379 35.9137 46.7245 36.3176 46.7245C37.297 46.7245 37.5324 47.393 37.5324 48.0265V49.2238L37.5353 49.2209ZM36.9744 48.3578C36.3409 48.3432 35.6202 48.4566 35.6202 49.0785C35.6202 49.4621 35.8701 49.6336 36.1607 49.6336C36.585 49.6336 36.8553 49.3691 36.9483 49.0988C36.9686 49.032 36.9744 48.9652 36.9744 48.9128V48.3578Z" fill="#231F20"/>
<path d="M40.7524 49.8748C40.6013 49.9474 40.2641 50.0608 39.834 50.0608C38.8692 50.0608 38.2415 49.4069 38.2415 48.4275C38.2415 47.4482 38.9157 46.7216 39.959 46.7216C40.3019 46.7216 40.6071 46.8088 40.764 46.8931L40.6303 47.3348C40.4908 47.2622 40.2729 47.1837 39.9561 47.1837C39.2238 47.1837 38.8256 47.733 38.8256 48.3927C38.8256 49.1337 39.3022 49.59 39.9358 49.59C40.2671 49.59 40.485 49.5115 40.6507 49.4389L40.7495 49.8748H40.7524Z" fill="#231F20"/>
<path d="M42.2199 46.0242V46.7914H43.0511V47.2331H42.2199V48.9564C42.2199 49.3517 42.3333 49.5783 42.6559 49.5783C42.8157 49.5783 42.9058 49.5638 42.993 49.5377L43.0191 49.9794C42.9058 50.0201 42.7285 50.0579 42.5047 50.0579C42.2345 50.0579 42.0165 49.9649 41.877 49.8137C41.7172 49.6365 41.6532 49.3517 41.6532 48.9739V47.2302H41.1563V46.7885H41.6532V46.1927L42.2228 46.0213L42.2199 46.0242Z" fill="#231F20"/>
<path d="M44.3561 45.8934C44.3561 46.091 44.2166 46.2508 43.987 46.2508C43.7749 46.2508 43.6354 46.091 43.6354 45.8934C43.6354 45.6958 43.7807 45.5301 43.9987 45.5301C44.2166 45.5301 44.3561 45.69 44.3561 45.8934ZM43.7081 49.9881V46.7914H44.2893V49.9881H43.7081Z" fill="#231F20"/>
<path d="M45.2539 47.6574C45.2539 47.3203 45.2481 47.0558 45.2277 46.7914H45.7421L45.7741 47.3203H45.7857C45.9456 47.0239 46.3146 46.7245 46.8435 46.7245C47.2853 46.7245 47.974 46.989 47.974 48.0846V49.9881H47.3928V48.1456C47.3928 47.6313 47.201 47.2011 46.6518 47.2011C46.274 47.2011 45.9775 47.4714 45.8729 47.7969C45.8468 47.8696 45.8322 47.9684 45.8322 48.0672V49.991H45.251V47.6574H45.2539Z" fill="#231F20"/>
<path d="M51.6563 49.5202C51.6563 50.2613 51.5052 50.703 51.2001 50.9878C50.8833 51.2726 50.4328 51.3714 50.0318 51.3714C49.6308 51.3714 49.2268 51.2784 48.9682 51.107L49.1135 50.6565C49.3256 50.796 49.654 50.9152 50.0521 50.9152C50.6479 50.9152 51.0838 50.6042 51.0838 49.7934V49.4418H51.0722C50.9007 49.7382 50.5491 49.9765 50.0551 49.9765C49.2617 49.9765 48.695 49.3023 48.695 48.4159C48.695 47.3319 49.4012 46.7245 50.1422 46.7245C50.6973 46.7245 50.9937 47.0093 51.139 47.2738H51.1507L51.171 46.7914H51.6854C51.665 47.0152 51.6592 47.2796 51.6592 47.6632V49.5202H51.6563ZM51.0751 48.0526C51.0751 47.9538 51.0693 47.8666 51.0431 47.794C50.9385 47.4511 50.6595 47.1721 50.2294 47.1721C49.6744 47.1721 49.2791 47.64 49.2791 48.381C49.2791 49.0088 49.6017 49.5319 50.2236 49.5319C50.5869 49.5319 50.9095 49.3081 51.0286 48.9361C51.0606 48.8373 51.0751 48.724 51.0751 48.6251V48.0497V48.0526Z" fill="#231F20"/>
<path d="M54.6118 45.5359V49.9881H54.0305V45.5359H54.6118Z" fill="#231F20"/>
<path d="M55.6637 47.6574C55.6637 47.3203 55.6579 47.0558 55.6375 46.7914H56.1519L56.1839 47.3203H56.1955C56.3553 47.0239 56.7244 46.7245 57.2533 46.7245C57.6951 46.7245 58.3838 46.989 58.3838 48.0846V49.9881H57.8026V48.1456C57.8026 47.6313 57.6108 47.2011 57.0615 47.2011C56.6837 47.2011 56.3873 47.4714 56.2827 47.7969C56.2565 47.8696 56.242 47.9684 56.242 48.0672V49.991H55.6608V47.6574H55.6637Z" fill="#231F20"/>
<path d="M59.3312 47.6574C59.3312 47.3203 59.3254 47.0558 59.305 46.7914H59.8194L59.8514 47.3203H59.863C60.0229 47.0239 60.3919 46.7245 60.9208 46.7245C61.3626 46.7245 62.0513 46.989 62.0513 48.0846V49.9881H61.4701V48.1456C61.4701 47.6313 61.2783 47.2011 60.729 47.2011C60.3512 47.2011 60.0548 47.4714 59.9502 47.7969C59.924 47.8696 59.9095 47.9684 59.9095 48.0672V49.991H59.3283V47.6574H59.3312Z" fill="#231F20"/>
<path d="M65.8934 48.3636C65.8934 49.5464 65.0681 50.0608 64.3009 50.0608C63.4407 50.0608 62.7693 49.4272 62.7693 48.4159C62.7693 47.3523 63.4755 46.7245 64.3561 46.7245C65.2366 46.7245 65.8963 47.393 65.8963 48.3636H65.8934ZM63.3622 48.3956C63.3622 49.0959 63.7574 49.6248 64.327 49.6248C64.8966 49.6248 65.2977 49.1017 65.2977 48.3839C65.2977 47.8434 65.0274 47.1605 64.3386 47.1605C63.6499 47.1605 63.3593 47.794 63.3593 48.3956H63.3622Z" fill="#231F20"/>
<path d="M66.8028 46.7914L67.4306 48.5816C67.5352 48.878 67.6224 49.1424 67.6892 49.4069H67.7095C67.7822 49.1424 67.8752 48.878 67.9798 48.5816L68.6017 46.7914H69.2091L67.9537 49.9881H67.3986L66.1838 46.7914H66.8057H66.8028Z" fill="#231F20"/>
<path d="M71.9786 49.2209C71.9786 49.4999 71.9932 49.7702 72.0251 49.9881H71.502L71.4555 49.5842H71.4352C71.2579 49.8341 70.9121 50.0608 70.4558 50.0608C69.8078 50.0608 69.4794 49.6045 69.4794 49.1424C69.4794 48.3694 70.1652 47.9451 71.4032 47.9538V47.887C71.4032 47.6283 71.3306 47.1459 70.6767 47.1546C70.3716 47.1546 70.0635 47.2418 69.8368 47.393L69.7032 47.0035C69.9676 46.8379 70.357 46.7245 70.761 46.7245C71.7403 46.7245 71.9757 47.393 71.9757 48.0265V49.2238L71.9786 49.2209ZM71.4178 48.3578C70.7842 48.3432 70.0635 48.4566 70.0635 49.0785C70.0635 49.4621 70.3134 49.6336 70.6041 49.6336C71.0283 49.6336 71.2986 49.3691 71.3916 49.0988C71.4119 49.032 71.4178 48.9652 71.4178 48.9128V48.3578Z" fill="#231F20"/>
<path d="M73.5917 46.0242V46.7914H74.4257V47.2331H73.5917V48.9564C73.5917 49.3517 73.705 49.5783 74.0276 49.5783C74.1874 49.5783 74.2775 49.5638 74.3647 49.5377L74.3909 49.9794C74.2775 50.0201 74.1002 50.0579 73.8765 50.0579C73.6062 50.0579 73.3882 49.9649 73.2487 49.8137C73.0889 49.6365 73.025 49.3517 73.025 48.9739V47.2302H72.528V46.7885H73.025V46.1927L73.5946 46.0213L73.5917 46.0242Z" fill="#231F20"/>
<path d="M75.7247 45.8934C75.7247 46.091 75.5852 46.2508 75.3556 46.2508C75.1435 46.2508 75.004 46.091 75.004 45.8934C75.004 45.6958 75.1493 45.5301 75.3672 45.5301C75.5852 45.5301 75.7247 45.69 75.7247 45.8934ZM75.0795 49.9881V46.7914H75.6608V49.9881H75.0795Z" fill="#231F20"/>
<path d="M79.5172 48.3636C79.5172 49.5464 78.6919 50.0608 77.9246 50.0608C77.0644 50.0608 76.3931 49.4272 76.3931 48.4159C76.3931 47.3523 77.0993 46.7245 77.9798 46.7245C78.8604 46.7245 79.5201 47.393 79.5201 48.3636H79.5172ZM76.9889 48.3956C76.9889 49.0959 77.3841 49.6248 77.9537 49.6248C78.5233 49.6248 78.9243 49.1017 78.9243 48.3839C78.9243 47.8434 78.6541 47.1605 77.9653 47.1605C77.2766 47.1605 76.986 47.794 76.986 48.3956H76.9889Z" fill="#231F20"/>
<path d="M80.2523 47.6574C80.2523 47.3203 80.2465 47.0558 80.2262 46.7914H80.7406L80.7725 47.3203H80.7842C80.944 47.0239 81.3131 46.7245 81.842 46.7245C82.2837 46.7245 82.9725 46.989 82.9725 48.0846V49.9881H82.3913V48.1456C82.3913 47.6313 82.1994 47.2011 81.6502 47.2011C81.2724 47.2011 80.976 47.4714 80.8713 47.7969C80.8452 47.8696 80.8307 47.9684 80.8307 48.0672V49.991H80.2495V47.6574H80.2523Z" fill="#231F20"/>
<path d="M85.3351 45.5359H85.9163V49.5057H87.8198V49.9881H85.3351V45.5359Z" fill="#231F20"/>
<path d="M90.6884 49.2209C90.6884 49.4999 90.7029 49.7702 90.7349 49.9881H90.2118L90.1653 49.5842H90.1449C89.9677 49.8341 89.6218 50.0608 89.1656 50.0608C88.5175 50.0608 88.1891 49.6045 88.1891 49.1424C88.1891 48.3694 88.8749 47.9451 90.113 47.9538V47.887C90.113 47.6283 90.0403 47.1459 89.3864 47.1546C89.0813 47.1546 88.7732 47.2418 88.5466 47.393L88.4129 47.0035C88.6773 46.8379 89.0668 46.7245 89.4707 46.7245C90.4501 46.7245 90.6855 47.393 90.6855 48.0265V49.2238L90.6884 49.2209ZM90.1246 48.3578C89.4911 48.3432 88.7703 48.4566 88.7703 49.0785C88.7703 49.4621 89.0203 49.6336 89.3109 49.6336C89.7352 49.6336 90.0054 49.3691 90.0984 49.0988C90.1188 49.032 90.1246 48.9652 90.1246 48.9128V48.3578Z" fill="#231F20"/>
<path d="M91.6271 45.2976H92.2025V47.3058H92.217C92.4204 46.9483 92.7924 46.7245 93.3068 46.7245C94.106 46.7245 94.661 47.3842 94.661 48.3491C94.661 49.4912 93.9345 50.0608 93.2196 50.0608C92.7575 50.0608 92.3885 49.8835 92.1414 49.465H92.1298L92.0978 49.9881H91.6009C91.6154 49.7702 91.6271 49.4476 91.6271 49.1628V45.2976ZM92.1996 48.7065C92.1996 48.7792 92.2054 48.8518 92.2257 48.9187C92.3303 49.3226 92.6762 49.5987 93.0975 49.5987C93.7107 49.5987 94.0682 49.1017 94.0682 48.3694C94.0682 47.7272 93.7369 47.1808 93.1092 47.1808C92.7198 47.1808 92.3478 47.4598 92.2315 47.8957C92.2112 47.9684 92.1996 48.0468 92.1996 48.1398V48.7094V48.7065Z" fill="#231F20"/>
<path d="M1.3775 53.5597H0V53.0628H3.35365V53.5597H1.96744V57.5934H1.37459V53.5597H1.3775Z" fill="#231F20"/>
<path d="M6.25971 56.6983C6.25971 57.0413 6.26552 57.3377 6.28586 57.5934H5.76276L5.72789 57.0616H5.71335C5.56514 57.3231 5.21641 57.6661 4.6381 57.6661C4.12662 57.6661 3.51633 57.3755 3.51633 56.2421V54.3386H4.10918V56.1345C4.10918 56.7535 4.30389 57.1749 4.83571 57.1749C5.23385 57.1749 5.50702 56.8989 5.61455 56.6315C5.64942 56.5501 5.66686 56.4426 5.66686 56.3293V54.3386H6.25971V56.6983Z" fill="#231F20"/>
<path d="M7.23905 55.3557C7.23905 54.9721 7.23324 54.6437 7.2129 54.3415H7.73019L7.75634 54.9866H7.77668C7.9249 54.5507 8.28816 54.2746 8.68339 54.2746C8.74442 54.2746 8.79092 54.2805 8.84323 54.2892V54.8471C8.7822 54.8326 8.72118 54.8326 8.64271 54.8326C8.22714 54.8326 7.93071 55.1407 7.84934 55.5853C7.83481 55.6667 7.82899 55.7655 7.82899 55.8614V57.5963H7.23615V55.3586L7.23905 55.3557Z" fill="#231F20"/>
<path d="M9.46515 55.2191C9.46515 54.8762 9.45934 54.6088 9.43899 54.3386H9.9621L9.99697 54.8762H10.0115C10.1742 54.574 10.5491 54.2717 11.0868 54.2717C11.5372 54.2717 12.2376 54.542 12.2376 55.6579V57.5934H11.6447V55.719C11.6447 55.1959 11.45 54.7571 10.8921 54.7571C10.5084 54.7571 10.2062 55.0331 10.0987 55.3615C10.0725 55.4342 10.058 55.5359 10.058 55.6376V57.5934H9.46515V55.2191Z" fill="#231F20"/>
<path d="M15.2279 53.0628V57.5934H14.6351V53.0628H15.2279Z" fill="#231F20"/>
<path d="M19.0321 52.8216V56.7535C19.0321 57.0442 19.0466 57.3725 19.0583 57.5934H18.5352L18.509 57.0296H18.4887C18.3143 57.3929 17.9249 57.669 17.3931 57.669C16.6055 57.669 15.9952 57.0035 15.9952 56.0154C15.9894 54.9343 16.6665 54.2746 17.4541 54.2746C17.9598 54.2746 18.2881 54.51 18.4363 54.7658H18.4509V52.8216H19.035H19.0321ZM18.448 55.6638C18.448 55.5911 18.4422 55.4894 18.4218 55.4138C18.3346 55.0447 18.0121 54.7338 17.5674 54.7338C16.9542 54.7338 16.5939 55.2714 16.5939 55.9834C16.5939 56.6431 16.9223 57.1866 17.5558 57.1866C17.9539 57.1866 18.3143 56.9163 18.4218 56.4804C18.4422 56.399 18.448 56.3176 18.448 56.2246V55.6608V55.6638Z" fill="#231F20"/>
<path d="M20.3515 56.0735C20.366 56.8727 20.8688 57.204 21.4674 57.204C21.8917 57.204 22.1533 57.1314 22.3683 57.0355L22.4759 57.4597C22.2666 57.5527 21.9034 57.669 21.3861 57.669C20.3835 57.669 19.7848 57.0035 19.7848 56.0212C19.7848 55.039 20.3631 54.2746 21.3105 54.2746C22.38 54.2746 22.656 55.2017 22.656 55.8004C22.656 55.9224 22.6502 56.0096 22.6357 56.0764H20.3486L20.3515 56.0735ZM22.0864 55.6521C22.0923 55.2831 21.9324 54.6989 21.2669 54.6989C20.6624 54.6989 20.4067 55.2424 20.3602 55.6521H22.0864Z" fill="#231F20"/>
<path d="M25.6755 56.8146C25.6755 57.0965 25.69 57.3726 25.722 57.5934H25.1902L25.1437 57.1837H25.1233C24.9431 57.4394 24.5915 57.669 24.1294 57.669C23.4697 57.669 23.1355 57.204 23.1355 56.7332C23.1355 55.9457 23.8359 55.5155 25.0914 55.5243V55.4574C25.0914 55.1959 25.0187 54.7047 24.3532 54.7106C24.0452 54.7106 23.7284 54.7977 23.4988 54.9518L23.3651 54.5536C23.6354 54.3851 24.0306 54.2717 24.4404 54.2717C25.4343 54.2717 25.6784 54.9518 25.6784 55.5969V56.8146H25.6755ZM25.103 55.934C24.4578 55.9195 23.7255 56.0357 23.7255 56.6664C23.7255 57.0558 23.9812 57.2302 24.2776 57.2302C24.7077 57.2302 24.9838 56.9599 25.0768 56.6867C25.0972 56.6199 25.103 56.553 25.103 56.4978V55.934Z" fill="#231F20"/>
<path d="M26.5503 56.9948C26.7305 57.1023 27.0414 57.2243 27.3378 57.2243C27.7621 57.2243 27.9627 57.0151 27.9627 56.739C27.9627 56.4629 27.7941 56.3089 27.364 56.1462C26.7711 55.9311 26.498 55.6143 26.498 55.2249C26.498 54.7018 26.9281 54.2688 27.6197 54.2688C27.9481 54.2688 28.2387 54.356 28.4131 54.4693L28.2707 54.8994C28.1428 54.8181 27.9074 54.7047 27.6052 54.7047C27.2565 54.7047 27.0676 54.9053 27.0676 55.1494C27.0676 55.4196 27.2565 55.5388 27.6779 55.7073C28.2358 55.9166 28.5323 56.1985 28.5323 56.6809C28.5323 57.2592 28.0818 57.6632 27.3233 57.6632C26.9659 57.6632 26.6375 57.5702 26.4079 57.4336L26.5503 56.9889V56.9948Z" fill="#231F20"/>
<path d="M31.3772 53.426C31.3772 53.6266 31.2348 53.7893 30.9994 53.7893C30.7844 53.7893 30.642 53.6266 30.642 53.426C30.642 53.2255 30.7902 53.057 31.0111 53.057C31.2319 53.057 31.3743 53.2168 31.3743 53.426H31.3772ZM30.7176 57.5934V54.3386H31.3104V57.5934H30.7176Z" fill="#231F20"/>
<path d="M32.2927 55.2191C32.2927 54.8762 32.2869 54.6088 32.2666 54.3386H32.7897L32.8245 54.8762H32.8391C33.0018 54.574 33.3767 54.2717 33.9143 54.2717C34.3648 54.2717 35.0651 54.542 35.0651 55.6579V57.5934H34.4723V55.719C34.4723 55.1959 34.2776 54.7571 33.7196 54.7571C33.336 54.7571 33.0338 55.0331 32.9262 55.3615C32.9001 55.4342 32.8856 55.5359 32.8856 55.6376V57.5934H32.2927V55.2191Z" fill="#231F20"/>
<path d="M36.7101 53.5597V54.3386H37.5587V54.789H36.7101V56.5443C36.7101 56.9483 36.8234 57.1749 37.1547 57.1749C37.3146 57.1749 37.4105 57.1604 37.4977 57.1343L37.5238 57.5847C37.4105 57.6254 37.2274 57.6661 37.0007 57.6661C36.7246 57.6661 36.5038 57.5731 36.3614 57.4161C36.1986 57.236 36.1318 56.9454 36.1318 56.5617V54.7861H35.629V54.3357H36.1318V53.7312L36.7101 53.5568V53.5597Z" fill="#231F20"/>
<path d="M41.1245 55.9398C41.1245 57.143 40.2846 57.669 39.5029 57.669C38.6282 57.669 37.9423 57.0238 37.9423 55.9951C37.9423 54.914 38.6601 54.2746 39.5552 54.2746C40.4503 54.2746 41.1216 54.9547 41.1216 55.9428L41.1245 55.9398ZM38.5526 55.9747C38.5526 56.6867 38.9565 57.2243 39.5349 57.2243C40.1132 57.2243 40.5229 56.6925 40.5229 55.9602C40.5229 55.408 40.2469 54.7164 39.5494 54.7164C38.8519 54.7164 38.5555 55.3615 38.5555 55.9747H38.5526Z" fill="#231F20"/>
<path d="M43.9027 53.5597H42.5252V53.0628H45.8788V53.5597H44.4926V57.5934H43.8998V53.5597H43.9027Z" fill="#231F20"/>
<path d="M48.2183 56.8146C48.2183 57.0965 48.2328 57.3726 48.2648 57.5934H47.733L47.6865 57.1837H47.6661C47.4859 57.4394 47.1343 57.669 46.6722 57.669C46.0125 57.669 45.6783 57.204 45.6783 56.7332C45.6783 55.9457 46.3787 55.5155 47.6342 55.5243V55.4574C47.6342 55.1959 47.5615 54.7047 46.896 54.7106C46.588 54.7106 46.2712 54.7977 46.0416 54.9518L45.9079 54.5536C46.1782 54.3851 46.5734 54.2717 46.9832 54.2717C47.9771 54.2717 48.2212 54.9518 48.2212 55.5969V56.8146H48.2183ZM47.6487 55.934C47.0035 55.9195 46.2712 56.0357 46.2712 56.6664C46.2712 57.0558 46.5269 57.2302 46.8234 57.2302C47.2535 57.2302 47.5295 56.9599 47.6225 56.6867C47.6429 56.6199 47.6487 56.553 47.6487 56.4978V55.934Z" fill="#231F20"/>
<path d="M49.1744 55.2191C49.1744 54.8762 49.1686 54.6088 49.1483 54.3386H49.6714L49.7062 54.8762H49.7208C49.8806 54.574 50.2584 54.2717 50.796 54.2717C51.2465 54.2717 51.9469 54.542 51.9469 55.6579V57.5934H51.354V55.719C51.354 55.1959 51.1593 54.7571 50.6013 54.7571C50.2177 54.7571 49.9155 55.0331 49.808 55.3615C49.7818 55.4342 49.7673 55.5359 49.7673 55.6376V57.5934H49.1744V55.2191Z" fill="#231F20"/>
<path d="M55.6899 57.1168C55.6899 57.8695 55.5359 58.3199 55.225 58.6106C54.9024 58.8983 54.4461 59 54.0364 59C53.6266 59 53.2168 58.907 52.9553 58.7297L53.1035 58.2735C53.3185 58.4159 53.6557 58.535 54.0567 58.535C54.6612 58.535 55.1058 58.2182 55.1058 57.3929V57.0354H55.0913C54.9169 57.3377 54.5595 57.5789 54.0567 57.5789C53.2488 57.5789 52.6734 56.893 52.6734 55.9922C52.6734 54.8907 53.3912 54.2717 54.1468 54.2717C54.7106 54.2717 55.0128 54.5623 55.161 54.8297H55.1756L55.1959 54.3386H55.719C55.6987 54.5682 55.6928 54.8355 55.6928 55.2249V57.1139L55.6899 57.1168ZM55.0971 55.6231C55.0971 55.5214 55.0913 55.4342 55.0622 55.3615C54.9547 55.0128 54.6728 54.7309 54.234 54.7309C53.6702 54.7309 53.2662 55.2075 53.2662 55.9602C53.2662 56.5995 53.5946 57.1313 54.2282 57.1313C54.5972 57.1313 54.9285 56.9018 55.0477 56.5269C55.0826 56.4252 55.0942 56.3118 55.0942 56.2101V55.626L55.0971 55.6231Z" fill="#231F20"/>
<path d="M57.2825 53.426C57.2825 53.6266 57.1401 53.7893 56.9076 53.7893C56.6926 53.7893 56.5502 53.6266 56.5502 53.426C56.5502 53.2255 56.6984 53.057 56.9193 53.057C57.1401 53.057 57.2825 53.2168 57.2825 53.426ZM56.6228 57.5934V54.3386H57.2157V57.5934H56.6228Z" fill="#231F20"/>
<path d="M58.198 52.8216H58.7821V54.8646H58.7966C59.0059 54.5013 59.3808 54.2717 59.9068 54.2717C60.7205 54.2717 61.2843 54.943 61.2843 55.9253C61.2843 57.0878 60.5461 57.6661 59.8196 57.6661C59.3488 57.6661 58.971 57.4859 58.724 57.0616H58.7094L58.6746 57.5934H58.1689C58.1834 57.3725 58.1951 57.0413 58.1951 56.7535V52.8216H58.198ZM58.7821 56.2886C58.7821 56.3612 58.7879 56.4368 58.8083 56.5036C58.9158 56.9134 59.2645 57.1953 59.6946 57.1953C60.3194 57.1953 60.6827 56.6925 60.6827 55.9456C60.6827 55.2947 60.3456 54.7367 59.7092 54.7367C59.311 54.7367 58.9361 55.0186 58.8141 55.4632C58.7937 55.5359 58.7792 55.6173 58.7792 55.7132V56.2915L58.7821 56.2886Z" fill="#231F20"/>
<path d="M62.0223 52.8216H62.6151V57.5934H62.0223V52.8216Z" fill="#231F20"/>
<path d="M63.9376 56.0735C63.9521 56.8727 64.4548 57.204 65.0535 57.204C65.4778 57.204 65.7393 57.1314 65.9544 57.0355L66.0619 57.4597C65.8527 57.5527 65.4894 57.669 64.9721 57.669C63.9695 57.669 63.3709 57.0035 63.3709 56.0212C63.3709 55.039 63.9492 54.2746 64.8966 54.2746C65.966 54.2746 66.2421 55.2017 66.2421 55.8004C66.2421 55.9224 66.2363 56.0096 66.2218 56.0764H63.9347L63.9376 56.0735ZM65.6725 55.6521C65.6783 55.2831 65.5185 54.6989 64.853 54.6989C64.2485 54.6989 63.9928 55.2424 63.9463 55.6521H65.6725Z" fill="#231F20"/>
<path d="M68.349 56.8814C68.6105 57.05 68.9883 57.1778 69.3894 57.1778C69.988 57.1778 70.3368 56.8611 70.3368 56.4048C70.3368 55.9892 70.0956 55.7393 69.4824 55.5097C68.7442 55.2395 68.2851 54.8501 68.2851 54.2194C68.2851 53.5132 68.8692 52.9901 69.7497 52.9901C70.206 52.9901 70.5489 53.0977 70.7436 53.211L70.5838 53.6876C70.4414 53.6004 70.1392 53.4725 69.7294 53.4725C69.1104 53.4725 68.875 53.8416 68.875 54.1526C68.875 54.5769 69.1511 54.7832 69.7759 55.0273C70.5431 55.3237 70.9267 55.6928 70.9267 56.3583C70.9267 57.0587 70.4152 57.669 69.3458 57.669C68.9099 57.669 68.4304 57.5353 68.1892 57.3726L68.3432 56.8814H68.349Z" fill="#231F20"/>
<path d="M74.7016 55.9398C74.7016 57.143 73.8617 57.669 73.0829 57.669C72.2082 57.669 71.5223 57.0238 71.5223 55.9951C71.5223 54.914 72.243 54.2746 73.1352 54.2746C74.0274 54.2746 74.7016 54.9547 74.7016 55.9428V55.9398ZM72.1268 55.9747C72.1268 56.6867 72.5307 57.2243 73.1091 57.2243C73.6874 57.2243 74.0971 56.6925 74.0971 55.9602C74.0971 55.408 73.8211 54.7164 73.1236 54.7164C72.4261 54.7164 72.1297 55.3615 72.1297 55.9747H72.1268Z" fill="#231F20"/>
<path d="M75.4487 52.8216H76.0415V57.5934H75.4487V52.8216Z" fill="#231F20"/>
<path d="M79.7583 56.6983C79.7583 57.0413 79.7641 57.3377 79.7844 57.5934H79.2613L79.2265 57.0616H79.2119C79.0637 57.3231 78.715 57.6661 78.1367 57.6661C77.6252 57.6661 77.0149 57.3755 77.0149 56.2421V54.3386H77.6077V56.1345C77.6077 56.7535 77.8025 57.1749 78.3343 57.1749C78.7295 57.1749 79.0056 56.8989 79.1131 56.6315C79.148 56.5501 79.1654 56.4426 79.1654 56.3293V54.3386H79.7583V56.6983Z" fill="#231F20"/>
<path d="M81.4526 53.5597V54.3386H82.3012V54.789H81.4526V56.5443C81.4526 56.9483 81.5659 57.1749 81.8972 57.1749C82.0599 57.1749 82.1529 57.1604 82.2401 57.1343L82.2663 57.5847C82.1529 57.6254 81.9698 57.6661 81.7432 57.6661C81.4671 57.6661 81.2462 57.5731 81.1038 57.4161C80.944 57.236 80.8742 56.9454 80.8742 56.5617V54.7861H80.3686V54.3357H80.8742V53.7312L81.4526 53.5568V53.5597Z" fill="#231F20"/>
<path d="M83.6235 53.426C83.6235 53.6266 83.4811 53.7893 83.2457 53.7893C83.0306 53.7893 82.8882 53.6266 82.8882 53.426C82.8882 53.2255 83.0365 53.057 83.2573 53.057C83.4782 53.057 83.6206 53.2168 83.6206 53.426H83.6235ZM82.9667 57.5934V54.3386H83.5595V57.5934H82.9667Z" fill="#231F20"/>
<path d="M87.4828 55.9398C87.4828 57.143 86.6429 57.669 85.8641 57.669C84.9894 57.669 84.3035 57.0238 84.3035 55.9951C84.3035 54.914 85.0242 54.2746 85.9164 54.2746C86.8086 54.2746 87.4828 54.9547 87.4828 55.9428V55.9398ZM84.908 55.9747C84.908 56.6867 85.3119 57.2243 85.8903 57.2243C86.4686 57.2243 86.8783 56.6925 86.8783 55.9602C86.8783 55.408 86.6022 54.7164 85.9048 54.7164C85.2073 54.7164 84.9109 55.3615 84.9109 55.9747H84.908Z" fill="#231F20"/>
<path d="M88.2297 55.2191C88.2297 54.8762 88.2239 54.6088 88.2035 54.3386H88.7266L88.7615 54.8762H88.776C88.9358 54.574 89.3136 54.2717 89.8513 54.2717C90.3017 54.2717 91.0021 54.542 91.0021 55.6579V57.5934H90.4092V55.719C90.4092 55.1959 90.2145 54.7571 89.6566 54.7571C89.273 54.7571 88.9707 55.0331 88.8632 55.3615C88.837 55.4342 88.8225 55.5359 88.8225 55.6376V57.5934H88.2297V55.2191Z" fill="#231F20"/>
<path d="M91.8798 56.9948C92.06 57.1023 92.371 57.2243 92.6674 57.2243C93.0917 57.2243 93.2922 57.0151 93.2922 56.739C93.2922 56.4629 93.1236 56.3089 92.6935 56.1462C92.1007 55.9311 91.8275 55.6143 91.8275 55.2249C91.8275 54.7018 92.2576 54.2688 92.9493 54.2688C93.2777 54.2688 93.5683 54.356 93.7427 54.4693L93.6002 54.8994C93.4724 54.8181 93.237 54.7047 92.9347 54.7047C92.586 54.7047 92.3971 54.9053 92.3971 55.1494C92.3971 55.4196 92.586 55.5388 93.0074 55.7073C93.5654 55.9166 93.8618 56.1985 93.8618 56.6809C93.8618 57.2592 93.4114 57.6632 92.6529 57.6632C92.2954 57.6632 91.967 57.5702 91.7374 57.4336L91.8798 56.9889V56.9948Z" fill="#231F20"/>
</svg>
