<svg width="105" height="42" viewBox="0 0 105 42" fill="none" xmlns="http://www.w3.org/2000/svg">
<path d="M12.0177 10.8019C11.9796 9.90122 12.1323 9.00254 12.4661 8.162C12.8 7.32146 13.3079 6.55712 13.9581 5.91671C14.6082 5.2763 15.3868 4.77359 16.245 4.43997C17.1033 4.10634 18.0228 3.94898 18.9461 3.97769C20.0704 3.95241 21.1784 4.24329 22.1379 4.81564C23.0974 5.38798 23.8679 6.21762 24.3574 7.20554L21.9806 8.39375C21.7008 7.83637 21.2703 7.3642 20.7355 7.02824C20.2006 6.69229 19.5819 6.50532 18.9461 6.48754C16.5694 6.48754 14.8568 8.33021 14.8568 10.8273C14.8568 13.3245 16.5694 15.1608 18.9461 15.1608C19.5818 15.1423 20.2002 14.9551 20.7349 14.6192C21.2695 14.2833 21.7002 13.8115 21.9806 13.2546L24.3574 14.4237C23.8633 15.4091 23.0922 16.237 22.1341 16.8108C21.1759 17.3846 20.0702 17.6806 18.9461 17.6643C18.0199 17.6914 17.0978 17.5317 16.2377 17.1951C15.3776 16.8585 14.5979 16.3523 13.9476 15.7081C13.2972 15.0639 12.7901 14.2957 12.458 13.4515C12.1259 12.6073 11.976 11.7053 12.0177 10.8019Z" fill="#0C574F"/>
<path d="M33.0505 4.1936H29.5797L25.0345 17.3973H27.7109L31.3184 7.00845L33.3435 12.689H30.9016L30.0421 15.1607H34.0989L34.9193 17.3973H37.5761L33.0505 4.1936Z" fill="#0C574F"/>
<path d="M1.35125 13.3435C1.87319 13.9077 2.50986 14.3595 3.22067 14.6702C3.93148 14.9808 4.70083 15.1436 5.47968 15.1481C7.01645 15.1481 7.73925 14.4555 7.73925 13.6803C7.73925 11.3801 0.263794 12.9814 0.263794 8.0125C0.263794 5.82035 2.13266 3.99674 5.2127 3.99674C6.79609 3.95299 8.35083 4.41482 9.64067 5.31203L8.73554 7.93625C7.71502 6.9964 6.36198 6.47739 4.95874 6.48753C3.79315 6.48753 3.12895 7.00221 3.12895 7.79646C3.12895 9.87424 10.5849 8.46999 10.5849 13.4007C10.5849 15.8153 8.87229 17.6325 5.37549 17.6325C3.58751 17.6973 1.83392 17.1412 0.426587 16.0631L1.35125 13.3435Z" fill="#0C574F"/>
<path d="M1.37089 26.4327C1.36959 26.4125 1.37302 26.3923 1.38092 26.3736C1.38882 26.3549 1.40097 26.3382 1.41647 26.3247C1.42926 26.3101 1.44528 26.2985 1.46332 26.2908C1.48137 26.2831 1.50097 26.2795 1.52066 26.2803H1.80717C1.82591 26.2795 1.84456 26.2831 1.86156 26.2909C1.87856 26.2986 1.8934 26.3102 1.90485 26.3247C1.92153 26.3375 1.93492 26.354 1.94396 26.3727C1.95301 26.3915 1.95745 26.412 1.95694 26.4327V26.7949C1.95771 26.8132 1.95398 26.8314 1.94604 26.848C1.93811 26.8646 1.92622 26.8791 1.91136 26.8902C1.8989 26.9052 1.88294 26.9171 1.86481 26.9248C1.84668 26.9326 1.82692 26.936 1.80717 26.9347H1.52066C1.50001 26.9355 1.47942 26.932 1.46032 26.9243C1.44121 26.9166 1.42403 26.905 1.40996 26.8902C1.39701 26.8779 1.38685 26.863 1.38012 26.8466C1.37339 26.8302 1.37025 26.8126 1.37089 26.7949V26.4327ZM0.491804 28.2309C0.565603 28.2309 0.598162 28.2754 0.58948 28.3643C0.58948 28.4152 0.58948 28.4724 0.58948 28.5359C0.586279 28.5952 0.586279 28.6545 0.58948 28.7138C0.586458 28.771 0.586458 28.8282 0.58948 28.8854C0.586522 28.9298 0.586522 28.9744 0.58948 29.0188C0.58978 29.2316 0.607198 29.4441 0.641573 29.6542C0.669024 29.8392 0.740377 30.0155 0.849949 30.1689C0.968611 30.3227 1.12864 30.4415 1.31228 30.512C1.56823 30.6048 1.84031 30.648 2.11322 30.6391H2.42578C2.5289 30.6327 2.63128 30.6178 2.73184 30.5946C2.73184 30.4739 2.73184 30.3658 2.73184 30.2705V27.4939C2.73233 27.4603 2.74637 27.4284 2.77091 27.4049C2.78159 27.3932 2.79462 27.3838 2.80918 27.3773C2.82374 27.3707 2.83953 27.3671 2.85556 27.3668H3.17463C3.19088 27.3657 3.20714 27.3687 3.22192 27.3753C3.23671 27.382 3.24955 27.3922 3.25928 27.4049C3.26876 27.4338 3.26876 27.4649 3.25928 27.4939V29.5017H3.8779V30.0799H3.25928V30.7915C3.25928 30.8678 3.25928 30.9313 3.25928 30.9885C3.25928 31.0457 3.2137 31.1029 3.12254 31.1283C3.03137 31.1537 2.78393 31.1855 2.60811 31.2046C2.4323 31.2236 2.25648 31.2046 2.08066 31.2046C1.75405 31.2127 1.42833 31.1676 1.11693 31.0711C0.869349 30.9987 0.645081 30.8652 0.465757 30.6835C0.301271 30.5011 0.183051 30.2834 0.120636 30.0481C0.0451062 29.7811 0.00570163 29.5055 0.00342489 29.2285C0.00342489 29.1904 0.00342489 29.1332 0.00342489 29.0569V28.8218V28.5677C-0.00114163 28.4957 -0.00114163 28.4236 0.00342489 28.3516C0.0076402 28.3151 0.0210637 28.2802 0.0424952 28.25C0.0718908 28.2393 0.104264 28.2393 0.133659 28.25L0.491804 28.2309Z" fill="#0C574F"/>
<path d="M3.82581 30.0802C3.77211 30.091 3.71672 30.091 3.66302 30.0802C3.61744 30.0802 3.5979 30.042 3.5979 30.0103V29.6163C3.5979 29.6163 3.5979 29.5655 3.66302 29.5528C3.71672 29.542 3.77211 29.542 3.82581 29.5528H5.27793V30.131L3.82581 30.0802Z" fill="#0C574F"/>
<path d="M5.21273 30.08C5.16115 30.0901 5.10803 30.0901 5.05645 30.08C5.01087 30.08 4.99133 30.0419 4.99133 30.0102V29.6163C4.99133 29.6163 4.99133 29.5654 5.05645 29.5527C5.10803 29.5426 5.16115 29.5426 5.21273 29.5527H6.67135V30.1309L5.21273 30.08Z" fill="#0C574F"/>
<path d="M7.85665 30.8489C7.85611 30.8291 7.86059 30.8094 7.86967 30.7917C7.87876 30.774 7.89218 30.7587 7.90875 30.7472C7.92307 30.7328 7.9403 30.7214 7.95934 30.7137C7.97839 30.7061 7.99885 30.7023 8.01945 30.7027H8.2734C8.294 30.7023 8.31446 30.7061 8.3335 30.7137C8.35255 30.7214 8.36978 30.7328 8.3841 30.7472C8.39841 30.7602 8.40983 30.776 8.41767 30.7934C8.42551 30.8109 8.4296 30.8298 8.42968 30.8489V31.2111C8.42696 31.2491 8.41085 31.285 8.3841 31.3127C8.35338 31.3393 8.31438 31.3549 8.2734 31.3572H8.01945C7.97847 31.3549 7.93946 31.3393 7.90875 31.3127C7.89354 31.3 7.8811 31.2845 7.87216 31.267C7.86321 31.2496 7.85794 31.2305 7.85665 31.2111V30.8489ZM6.78222 30.8489C6.7823 30.8298 6.78639 30.8109 6.79423 30.7934C6.80207 30.776 6.81349 30.7602 6.8278 30.7472C6.84159 30.7321 6.85872 30.7202 6.8779 30.7125C6.89708 30.7048 6.9178 30.7015 6.9385 30.7027H7.16641C7.20676 30.7027 7.24555 30.7179 7.27468 30.7451C7.30381 30.7724 7.32101 30.8095 7.32269 30.8489V31.2111C7.32141 31.2305 7.31614 31.2496 7.30719 31.267C7.29824 31.2845 7.2858 31.3 7.2706 31.3127C7.24283 31.3398 7.20563 31.3557 7.16641 31.3572H6.91245C6.89191 31.3572 6.87156 31.3533 6.85257 31.3457C6.83357 31.3381 6.81631 31.3269 6.80176 31.3127C6.775 31.285 6.7589 31.2491 6.75617 31.2111L6.78222 30.8489ZM6.4371 29.5781C6.4371 29.5781 6.4371 29.5272 6.50222 29.5145C6.5538 29.5044 6.60692 29.5044 6.6585 29.5145H7.10129C7.15247 29.5107 7.20287 29.5 7.25106 29.4828C7.29818 29.4712 7.34103 29.447 7.37479 29.4129C7.39781 29.3884 7.41455 29.3589 7.4236 29.3269C7.43266 29.2948 7.43378 29.2611 7.42688 29.2286V27.494C7.41782 27.465 7.41782 27.434 7.42688 27.405C7.43829 27.3925 7.45237 27.3827 7.46813 27.3761C7.48388 27.3695 7.50092 27.3663 7.51804 27.3669H7.82409C7.84027 27.3664 7.85634 27.3696 7.87103 27.3762C7.88573 27.3828 7.89864 27.3927 7.90875 27.405C7.93328 27.4285 7.94733 27.4604 7.94782 27.494V29.343C7.95567 29.3615 7.96719 29.3783 7.98172 29.3925C7.99624 29.4067 8.01349 29.4179 8.03247 29.4256C8.07511 29.4479 8.12136 29.463 8.16921 29.4701H8.31898H8.55341V30.0483H8.47527C8.3265 30.0483 8.17812 30.0334 8.03247 30.0038C7.88959 29.9816 7.75624 29.9199 7.64828 29.8259C7.53629 29.9176 7.40155 29.979 7.25758 30.0038C7.1207 30.0332 6.98098 30.0481 6.84083 30.0483H6.62594C6.57436 30.0584 6.52124 30.0584 6.46966 30.0483C6.42408 30.0483 6.40454 30.0101 6.40454 29.9784L6.4371 29.5781Z" fill="#0C574F"/>
<path d="M8.54676 30.0802C8.4953 30.0914 8.44193 30.0914 8.39048 30.0802C8.34489 30.0802 8.31885 30.0421 8.31885 30.0103V29.6163C8.31885 29.6163 8.31885 29.5654 8.39048 29.5527C8.44193 29.5415 8.4953 29.5415 8.54676 29.5527H10.0054V30.131L8.54676 30.0802Z" fill="#0C574F"/>
<path d="M9.96656 30.0802C9.91286 30.091 9.85747 30.091 9.80377 30.0802C9.78689 30.0764 9.7716 30.0677 9.75996 30.0552C9.74831 30.0427 9.74088 30.027 9.73865 30.0103V29.6163C9.73865 29.6163 9.73865 29.5655 9.80377 29.5528C9.85747 29.542 9.91286 29.542 9.96656 29.5528H11.4252V30.131L9.96656 30.0802Z" fill="#0C574F"/>
<path d="M11.158 29.5908C11.158 29.5908 11.158 29.54 11.2231 29.5273C11.2747 29.5172 11.3278 29.5172 11.3794 29.5273H11.9133C11.9928 29.543 12.0748 29.543 12.1543 29.5273C12.1868 29.5273 12.1998 29.432 12.1998 29.3176V25.1683C12.2003 25.1348 12.2144 25.1028 12.2389 25.0793C12.249 25.067 12.2619 25.0571 12.2766 25.0505C12.2913 25.0439 12.3074 25.0407 12.3236 25.0412H12.6491C12.6653 25.0407 12.6814 25.0439 12.6961 25.0505C12.7108 25.0571 12.7237 25.067 12.7338 25.0793C12.7451 25.0912 12.7538 25.1053 12.7594 25.1206C12.765 25.1358 12.7673 25.1521 12.7664 25.1683V29.432C12.7664 29.5019 12.7664 29.5718 12.7664 29.6353C12.7735 29.6965 12.7735 29.7584 12.7664 29.8196C12.7613 29.8599 12.748 29.8988 12.7273 29.934C12.7025 29.9703 12.6657 29.9972 12.6231 30.0102C12.5758 30.0302 12.5249 30.041 12.4733 30.042H12.2519H12.0045H11.4119C11.3603 30.0521 11.3072 30.0521 11.2556 30.042C11.2388 30.0382 11.2235 30.0295 11.2118 30.017C11.2002 30.0045 11.1927 29.9888 11.1905 29.9721L11.158 29.5908Z" fill="#0C574F"/>
<path d="M15.768 27.5449C15.6834 27.5389 15.5986 27.5389 15.514 27.5449H15.2145C15.0883 27.5387 14.962 27.5575 14.8434 27.6001C14.7248 27.6426 14.6162 27.7082 14.5242 27.7928C14.4349 27.8885 14.3663 28.0009 14.3227 28.1232C14.279 28.2455 14.2612 28.3752 14.2703 28.5044V28.5934C14.2459 28.8388 14.3181 29.0841 14.4721 29.2796C14.5592 29.3581 14.6621 29.4179 14.7742 29.4551C14.8864 29.4923 15.0053 29.5061 15.1233 29.4957C15.2716 29.4994 15.42 29.4888 15.5661 29.4639C15.6898 29.4639 15.7484 29.3813 15.7484 29.2796L15.768 27.5449ZM13.9512 31.2113C13.9512 31.1541 13.9512 31.1223 14.0554 31.1223H14.6154C14.7744 31.1223 14.9332 31.1117 15.0908 31.0905C15.2169 31.0766 15.3388 31.0377 15.4489 30.9762C15.5468 30.9192 15.6276 30.8381 15.6833 30.7411C15.7398 30.6173 15.7665 30.4825 15.7615 30.3471V29.9468C15.7247 29.9791 15.6797 30.001 15.6312 30.0103C15.5647 30.0267 15.4973 30.0394 15.4294 30.0485H15.2145H15.0322C14.8567 30.0562 14.6814 30.0292 14.5169 29.9692C14.3524 29.9091 14.2021 29.8172 14.0749 29.699C13.9461 29.5554 13.8481 29.3881 13.7865 29.2069C13.725 29.0258 13.7013 28.8344 13.7168 28.6442V28.479C13.6988 28.2738 13.7272 28.0672 13.7998 27.8738C13.8724 27.6804 13.9875 27.5048 14.1371 27.3595C14.2867 27.2141 14.467 27.1025 14.6655 27.0325C14.864 26.9624 15.0759 26.9356 15.2861 26.954C15.4574 26.9444 15.6292 26.9444 15.8005 26.954C15.9422 26.9624 16.0822 26.988 16.2173 27.0303C16.2499 27.0351 16.2798 27.0508 16.3019 27.0747C16.3114 27.0993 16.3114 27.1264 16.3019 27.151V30.2454C16.3101 30.4795 16.2702 30.7128 16.1847 30.9317C16.1155 31.1003 16.0008 31.2474 15.8526 31.3574C15.705 31.4677 15.5335 31.5438 15.3512 31.5798C15.1375 31.6262 14.9189 31.6475 14.7001 31.6433H14.5308H14.3289H14.1401H14.0228C13.9773 31.6433 13.9512 31.6433 13.9382 31.6052C13.9297 31.5826 13.9297 31.5579 13.9382 31.5353L13.9512 31.2113Z" fill="#0C574F"/>
<path d="M17.4484 25.1684C17.4473 25.1339 17.4589 25.1001 17.4809 25.0731C17.4937 25.0588 17.5099 25.0479 17.5281 25.0412C17.5463 25.0346 17.5659 25.0324 17.5851 25.035H17.9042C17.9213 25.0345 17.9384 25.0376 17.9541 25.0442C17.9699 25.0508 17.9839 25.0606 17.9954 25.0731C18.0148 25.1015 18.026 25.1344 18.0279 25.1684V29.108C18.016 29.1774 18.016 29.2483 18.0279 29.3177C18.0452 29.3643 18.0743 29.4058 18.1126 29.4384C18.1553 29.4666 18.2045 29.4841 18.2558 29.4892H18.4447H18.6075V30.0675H18.2949C18.1722 30.0691 18.0498 30.0563 17.9302 30.0293C17.8295 30.0067 17.7358 29.9609 17.6568 29.8959C17.5792 29.824 17.5211 29.7345 17.4874 29.6354C17.4469 29.5014 17.4293 29.3619 17.4354 29.2224L17.4484 25.1684Z" fill="#0C574F"/>
<path d="M18.5814 30.0802C18.53 30.0914 18.4766 30.0914 18.4251 30.0802C18.3796 30.0802 18.3535 30.0421 18.3535 30.0103V29.6163C18.3535 29.6163 18.3535 29.5654 18.4251 29.5527C18.4766 29.5415 18.53 29.5415 18.5814 29.5527H20.0401V30.131L18.5814 30.0802Z" fill="#0C574F"/>
<path d="M20.0011 30.0802C19.9474 30.091 19.892 30.091 19.8383 30.0802C19.8214 30.0764 19.8061 30.0677 19.7945 30.0552C19.7829 30.0427 19.7754 30.027 19.7732 30.0103V29.6163C19.7732 29.6163 19.7732 29.5655 19.8383 29.5528C19.892 29.542 19.9474 29.542 20.0011 29.5528H21.4923V30.131L20.0011 30.0802Z" fill="#0C574F"/>
<path d="M23.5825 25.7212C23.5813 25.701 23.5847 25.6808 23.5926 25.6621C23.6005 25.6434 23.6126 25.6267 23.6281 25.6132C23.6588 25.5866 23.6979 25.571 23.7388 25.5687H23.9928C24.034 25.5699 24.0734 25.5857 24.1035 25.6132C24.119 25.6267 24.1311 25.6434 24.139 25.6621C24.1469 25.6808 24.1504 25.701 24.1491 25.7212V26.0834C24.1494 26.1025 24.1455 26.1215 24.1376 26.1391C24.1298 26.1566 24.1181 26.1723 24.1035 26.1851C24.0727 26.2108 24.0333 26.2244 23.9928 26.2232H23.7388C23.6985 26.2232 23.6595 26.2098 23.6281 26.1851C23.6135 26.1723 23.6019 26.1566 23.594 26.1391C23.5861 26.1215 23.5822 26.1025 23.5825 26.0834V25.7212ZM22.5016 25.7212C22.5016 25.6808 22.5181 25.642 22.5474 25.6134C22.5767 25.5848 22.6164 25.5687 22.6579 25.5687H22.9118C22.9533 25.5687 22.993 25.5848 23.0223 25.6134C23.0517 25.642 23.0681 25.6808 23.0681 25.7212V26.0834C23.0654 26.1214 23.0493 26.1573 23.0225 26.1851C22.9912 26.2098 22.9521 26.2232 22.9118 26.2232H22.6579C22.6173 26.225 22.5776 26.2113 22.5472 26.1851C22.5204 26.1573 22.5043 26.1214 22.5016 26.0834V25.7212ZM23.9863 29.5336V27.5258H23.7193H23.4458C23.3205 27.5182 23.1949 27.5351 23.0764 27.5755C22.9579 27.6159 22.8488 27.6789 22.7556 27.7609C22.6706 27.8551 22.6056 27.9649 22.5643 28.0837C22.523 28.2026 22.5061 28.3282 22.5146 28.4535V28.5932C22.4982 28.8468 22.5718 29.0981 22.723 29.3049C22.8053 29.3915 22.9066 29.4588 23.0194 29.5018C23.1322 29.5447 23.2535 29.5621 23.3742 29.5527L23.9863 29.5336ZM21.1927 29.6099C21.1927 29.6099 21.1927 29.5591 21.2579 29.5464C21.3094 29.5363 21.3626 29.5363 21.4141 29.5464H22.2867C22.1663 29.4471 22.0762 29.3174 22.0262 29.1715C21.9564 28.9887 21.9232 28.7946 21.9286 28.5996V28.4407C21.9081 28.2364 21.9343 28.0301 22.0053 27.8367C22.0762 27.6434 22.1901 27.4678 22.3388 27.3224C22.6463 27.0673 23.0428 26.9376 23.4458 26.9603C23.6237 26.9506 23.8019 26.9506 23.9798 26.9603C24.1299 26.969 24.2785 26.9945 24.4226 27.0365C24.4681 27.0365 24.5007 27.0365 24.5072 27.0746C24.5184 27.1011 24.5184 27.1308 24.5072 27.1572V29.4765H25.0737V30.0547H21.4141C21.3626 30.0648 21.3094 30.0648 21.2579 30.0547C21.2123 30.0547 21.1927 30.0165 21.1927 29.9848V29.6099Z" fill="#0C574F"/>
<path d="M25.0737 30.0802C25.02 30.091 24.9646 30.091 24.9109 30.0802C24.8941 30.0764 24.8788 30.0677 24.8671 30.0552C24.8555 30.0427 24.8481 30.027 24.8458 30.0103V29.6163C24.8458 29.6163 24.8458 29.5655 24.9109 29.5528C24.9646 29.542 25.02 29.542 25.0737 29.5528H26.5324V30.131L25.0737 30.0802Z" fill="#0C574F"/>
<path d="M26.4929 30.0802C26.4392 30.091 26.3838 30.091 26.3301 30.0802C26.3133 30.0764 26.298 30.0677 26.2863 30.0552C26.2747 30.0427 26.2672 30.027 26.265 30.0103V29.6163C26.265 29.6163 26.265 29.5655 26.3301 29.5528C26.3838 29.542 26.4392 29.542 26.4929 29.5528H27.945V30.131L26.4929 30.0802Z" fill="#0C574F"/>
<path d="M29.1629 28.5234V28.8348C29.1516 28.9595 29.1516 29.0849 29.1629 29.2096C29.1903 29.3722 29.2814 29.518 29.4169 29.6163C29.5715 29.7079 29.7507 29.7521 29.9313 29.7434C30.0502 29.7611 30.1717 29.75 30.2852 29.7113C30.3988 29.6725 30.5008 29.6072 30.5825 29.521C30.7143 29.3163 30.7759 29.0759 30.7583 28.8348V28.5234C30.7747 28.2783 30.7133 28.0343 30.5825 27.8245C30.5091 27.734 30.413 27.6635 30.3034 27.6201C30.1938 27.5767 30.0746 27.5617 29.9573 27.5767C29.8368 27.5607 29.714 27.5745 29.6003 27.6166C29.4866 27.6588 29.3854 27.7281 29.3062 27.8181C29.1638 28.0258 29.0973 28.2743 29.1173 28.5234H29.1629ZM27.6392 29.5909C27.6392 29.5909 27.6392 29.5401 27.7043 29.5273C27.7559 29.5172 27.809 29.5172 27.8606 29.5273H28.1992H28.3424C28.389 29.5161 28.4331 29.4967 28.4727 29.4702C28.5091 29.4466 28.5348 29.4101 28.5443 29.3685C28.5517 29.303 28.5517 29.237 28.5443 29.1715V28.5361C28.5173 28.1515 28.6433 27.7715 28.8959 27.475C29.0278 27.3297 29.192 27.2157 29.376 27.1419C29.56 27.0681 29.7588 27.0364 29.9573 27.0493C30.1402 27.0379 30.3234 27.0643 30.4951 27.1267C30.6668 27.1891 30.823 27.2861 30.9536 27.4115C31.2009 27.7127 31.3219 28.0941 31.2922 28.4789V29.0254C31.2922 29.0889 31.2922 29.1461 31.2922 29.1969C31.2959 29.2534 31.3189 29.3071 31.3574 29.3494C31.3974 29.3882 31.4435 29.4204 31.4941 29.4447C31.5443 29.4654 31.5967 29.4803 31.6504 29.4892C31.6936 29.4949 31.7374 29.4949 31.7806 29.4892H31.8653V30.0674H31.7806C31.6369 30.0686 31.494 30.0472 31.3574 30.0039C31.2287 29.9684 31.112 29.9004 31.0187 29.8069C30.8992 29.9665 30.7389 30.0927 30.5538 30.1729C30.3687 30.2532 30.1653 30.2847 29.9638 30.2644C29.7412 30.2681 29.52 30.2293 29.3127 30.15C29.1324 30.086 28.9775 29.9682 28.8699 29.8133C28.7833 29.9159 28.6642 29.9875 28.5313 30.0166C28.3818 30.0502 28.2289 30.0673 28.0754 30.0674H27.9127C27.8611 30.0775 27.808 30.0775 27.7564 30.0674C27.7108 30.0674 27.6913 30.0293 27.6913 29.9975L27.6392 29.5909Z" fill="#0C574F"/>
<path d="M31.8197 30.08C31.7681 30.0901 31.715 30.0901 31.6634 30.08C31.6178 30.08 31.5983 30.0419 31.5983 30.0102V29.6163C31.5983 29.6163 31.5983 29.5654 31.6634 29.5527C31.715 29.5426 31.7681 29.5426 31.8197 29.5527H33.2783V30.1309L31.8197 30.08Z" fill="#0C574F"/>
<path d="M33.213 30.0802C33.1616 30.0914 33.1082 30.0914 33.0567 30.0802C33.0112 30.0802 32.9851 30.0421 32.9851 30.0103V29.6163C32.9851 29.6163 32.9851 29.5654 33.0567 29.5527C33.1082 29.5415 33.1616 29.5415 33.213 29.5527H34.6716V30.131L33.213 30.0802Z" fill="#0C574F"/>
<path d="M34.4309 29.5909C34.4309 29.5909 34.4309 29.5401 34.496 29.5273C34.5497 29.5166 34.6051 29.5166 34.6588 29.5273H35.1667C35.2179 29.5235 35.2683 29.5128 35.3165 29.4956C35.363 29.4826 35.4055 29.4586 35.4402 29.4257C35.4727 29.3862 35.489 29.3364 35.4858 29.2859V25.1684C35.4863 25.1349 35.5003 25.1029 35.5249 25.0795C35.5363 25.067 35.5504 25.0571 35.5661 25.0505C35.5819 25.0439 35.5989 25.0408 35.616 25.0413H35.9351C35.9514 25.0403 35.9676 25.0433 35.9824 25.0499C35.9972 25.0566 36.01 25.0667 36.0198 25.0795C36.0443 25.1029 36.0584 25.1349 36.0588 25.1684V29.3431C36.0653 29.3614 36.0756 29.3782 36.089 29.3924C36.1025 29.4066 36.1188 29.4179 36.137 29.4257C36.1804 29.4462 36.2264 29.4611 36.2737 29.4702H36.43H36.6644V30.0484H36.5798H36.3714C36.2977 30.0545 36.2237 30.0545 36.15 30.0484C36.0786 30.034 36.0088 30.0127 35.9416 29.9848C35.8713 29.9568 35.8072 29.9158 35.7528 29.8641C35.6408 29.9558 35.5061 30.0172 35.3621 30.042C35.2251 30.0708 35.0855 30.0857 34.9453 30.0865H34.6588C34.6051 30.0973 34.5497 30.0973 34.496 30.0865C34.4792 30.0828 34.4639 30.074 34.4522 30.0615C34.4406 30.049 34.4331 30.0334 34.4309 30.0166V29.5909Z" fill="#0C574F"/>
<path d="M36.3845 29.5908C36.3845 29.5908 36.3845 29.5399 36.4496 29.5272C36.5033 29.5164 36.5587 29.5164 36.6124 29.5272H37.1203C37.1998 29.543 37.2818 29.543 37.3613 29.5272C37.3938 29.5272 37.4069 29.4319 37.4069 29.3175V25.1684C37.4073 25.1349 37.4214 25.1029 37.4459 25.0795C37.457 25.0666 37.4711 25.0565 37.4869 25.0499C37.5027 25.0433 37.5199 25.0403 37.5371 25.0413H37.8562C37.8723 25.0408 37.8884 25.044 37.9031 25.0506C37.9178 25.0573 37.9307 25.0671 37.9408 25.0795C37.9521 25.0914 37.9608 25.1054 37.9664 25.1207C37.972 25.136 37.9744 25.1522 37.9734 25.1684V29.4319C37.9734 29.5018 37.9734 29.5717 37.9734 29.6352C37.9805 29.6965 37.9805 29.7583 37.9734 29.8195C37.9683 29.8598 37.955 29.8987 37.9343 29.9339C37.923 29.9527 37.9079 29.9691 37.89 29.9822C37.8721 29.9952 37.8518 30.0047 37.8301 30.0101C37.7828 30.0301 37.7319 30.0409 37.6804 30.0419H37.459H37.2115H36.6255C36.5718 30.0527 36.5164 30.0527 36.4627 30.0419C36.4458 30.0381 36.4305 30.0294 36.4189 30.0169C36.4072 30.0044 36.3998 29.9887 36.3975 29.972L36.3845 29.5908Z" fill="#0C574F"/>
<path d="M42.2126 25.7338C42.2113 25.7136 42.2147 25.6934 42.2226 25.6747C42.2305 25.656 42.2426 25.6393 42.2581 25.6258C42.2895 25.6011 42.3285 25.5876 42.3688 25.5877H42.6228C42.6633 25.5865 42.7027 25.6001 42.7335 25.6258C42.748 25.64 42.7595 25.6569 42.7673 25.6754C42.7751 25.6939 42.7791 25.7138 42.7791 25.7338V26.096C42.7775 26.1343 42.7612 26.1706 42.7335 26.1977C42.7027 26.2234 42.6633 26.237 42.6228 26.2358H42.3688C42.3285 26.2358 42.2895 26.2224 42.2581 26.1977C42.2432 26.1852 42.2313 26.1696 42.2234 26.1519C42.2155 26.1343 42.2118 26.1152 42.2126 26.096V25.7338ZM41.1381 25.7338C41.1363 25.6942 41.1503 25.6555 41.1772 25.6258C41.2079 25.6001 41.2474 25.5865 41.2879 25.5877H41.5418C41.5824 25.5859 41.6221 25.5995 41.6525 25.6258C41.667 25.64 41.6785 25.6569 41.6864 25.6754C41.6942 25.6939 41.6982 25.7138 41.6981 25.7338V26.096C41.6966 26.1343 41.6803 26.1706 41.6525 26.1977C41.6212 26.2224 41.5821 26.2358 41.5418 26.2358H41.2879C41.2474 26.237 41.2079 26.2234 41.1772 26.1977C41.1513 26.1699 41.1373 26.1335 41.1381 26.096V25.7338ZM41.1381 28.5613C41.1258 28.7869 41.1899 29.0102 41.3204 29.1967C41.3961 29.278 41.4905 29.3405 41.5958 29.3792C41.7011 29.4179 41.8143 29.4315 41.926 29.4191H42.0498C42.1191 29.4253 42.1888 29.4253 42.2581 29.4191C42.3236 29.4128 42.3874 29.3956 42.447 29.3683C42.5035 29.3448 42.5512 29.3048 42.5837 29.2539C42.6251 29.2037 42.646 29.1404 42.6423 29.076V27.5511H42.4079H42.2256C42.0792 27.5497 41.9331 27.5624 41.7893 27.5892C41.6663 27.6117 41.5504 27.6617 41.4507 27.7353C41.3527 27.8092 41.2745 27.9052 41.2228 28.0149C41.1636 28.1582 41.1348 28.3116 41.1381 28.466V28.5613ZM40.5846 28.4533C40.5793 28.2224 40.6237 27.993 40.7149 27.7798C40.7774 27.6038 40.885 27.4463 41.0274 27.3223C41.1865 27.1974 41.3706 27.1065 41.5679 27.0555C41.7936 27.0002 42.0254 26.9725 42.2581 26.9729H42.4535H42.6749H42.8833L43.0526 27.011C43.0691 27.0121 43.0852 27.0167 43.0998 27.0244C43.1144 27.032 43.1271 27.0426 43.1372 27.0555C43.1454 27.0824 43.1454 27.1111 43.1372 27.1381V29.0442C43.1372 29.2222 43.1763 29.3365 43.2609 29.3874C43.3646 29.4422 43.4817 29.4686 43.5995 29.4636H43.7493V30.0418H43.5214C43.3519 30.0459 43.1834 30.0156 43.0265 29.9529C42.8906 29.893 42.7818 29.7868 42.7205 29.6542C42.6313 29.7583 42.5104 29.8318 42.3753 29.8639C42.2078 29.9085 42.0346 29.9299 41.8609 29.9275H41.8023C41.629 29.9385 41.4553 29.9136 41.2926 29.8545C41.1298 29.7954 40.9818 29.7033 40.8581 29.5843C40.6199 29.3084 40.5008 28.953 40.526 28.5931L40.5846 28.4533Z" fill="#0C574F"/>
<path d="M43.7494 30.0802C43.6957 30.091 43.6403 30.091 43.5866 30.0802C43.5697 30.0764 43.5544 30.0677 43.5428 30.0552C43.5311 30.0427 43.5237 30.027 43.5215 30.0103V29.6163C43.5215 29.6163 43.5215 29.5655 43.5866 29.5528C43.6403 29.542 43.6957 29.542 43.7494 29.5528H45.208V30.131L43.7494 30.0802Z" fill="#0C574F"/>
<path d="M45.1688 30.0802C45.1151 30.091 45.0597 30.091 45.006 30.0802C44.9892 30.0764 44.9739 30.0677 44.9622 30.0552C44.9506 30.0427 44.9431 30.027 44.9409 30.0103V29.6163C44.9409 29.6163 44.9409 29.5655 45.006 29.5528C45.0597 29.542 45.1151 29.542 45.1688 29.5528H46.6209V30.131L45.1688 30.0802Z" fill="#0C574F"/>
<path d="M47.4607 30.849C47.4602 30.8292 47.4647 30.8095 47.4738 30.7918C47.4829 30.7741 47.4963 30.7588 47.5128 30.7473C47.5259 30.7331 47.542 30.7217 47.56 30.714C47.578 30.7063 47.5974 30.7025 47.617 30.7029H47.8775C47.8971 30.7025 47.9166 30.7063 47.9346 30.714C47.9525 30.7217 47.9686 30.7331 47.9817 30.7473C47.9971 30.7595 48.0092 30.7751 48.0172 30.7928C48.0251 30.8104 48.0286 30.8297 48.0273 30.849V31.2112C48.0276 31.2303 48.0237 31.2493 48.0158 31.2669C48.008 31.2844 47.9963 31.3001 47.9817 31.3129C47.9533 31.339 47.9164 31.3547 47.8775 31.3573H47.617C47.5781 31.3547 47.5413 31.339 47.5128 31.3129C47.4976 31.3002 47.4852 31.2846 47.4763 31.2672C47.4673 31.2497 47.462 31.2307 47.4607 31.2112V30.849ZM46.3863 30.849C46.3879 30.8107 46.4042 30.7745 46.432 30.7474C46.4597 30.7203 46.4969 30.7044 46.5361 30.7029H46.7966C46.8162 30.7021 46.8358 30.7057 46.8539 30.7134C46.8719 30.7211 46.888 30.7327 46.9007 30.7473C46.9161 30.7595 46.9283 30.7751 46.9362 30.7928C46.9441 30.8104 46.9476 30.8297 46.9463 30.849V31.2112C46.9466 31.2303 46.9427 31.2493 46.9349 31.2669C46.927 31.2844 46.9154 31.3001 46.9007 31.3129C46.8723 31.339 46.8355 31.3547 46.7966 31.3573H46.5361C46.5165 31.3573 46.4972 31.3533 46.4793 31.3456C46.4614 31.338 46.4452 31.3268 46.4319 31.3129C46.4173 31.3001 46.4056 31.2844 46.3978 31.2669C46.3899 31.2493 46.386 31.2303 46.3863 31.2112V30.849ZM46.3863 29.5782C46.3863 29.5782 46.3863 29.5273 46.4514 29.5146C46.503 29.5045 46.5561 29.5045 46.6077 29.5146H47.07C47.1518 29.53 47.2358 29.53 47.3175 29.5146C47.3175 29.5146 47.3696 29.4193 47.3696 29.3049V28.4026C47.3696 28.2628 47.3696 28.123 47.3696 27.9705C47.3696 27.818 47.3696 27.6655 47.3696 27.4876C47.3601 27.4587 47.3601 27.4276 47.3696 27.3987C47.3797 27.3863 47.3926 27.3765 47.4073 27.3698C47.422 27.3632 47.4381 27.36 47.4542 27.3605H47.7733C47.7904 27.36 47.8075 27.3631 47.8232 27.3697C47.839 27.3763 47.8531 27.3862 47.8645 27.3987C47.8735 27.4276 47.8735 27.4586 47.8645 27.4876C47.8645 27.6401 47.8645 27.7736 47.8645 27.8752C47.8645 27.9769 47.8645 28.0722 47.8645 28.1675V28.8029C47.8645 29.019 47.8645 29.216 47.8645 29.4002C47.873 29.5441 47.873 29.6884 47.8645 29.8323C47.8574 29.8731 47.8419 29.912 47.8189 29.9467C47.7941 29.983 47.7574 30.0099 47.7147 30.023C47.6671 30.0422 47.6164 30.053 47.5649 30.0547H47.3566H47.1156H46.5752C46.5236 30.0648 46.4705 30.0648 46.4189 30.0547C46.3733 30.0547 46.3538 30.0166 46.3538 29.9848L46.3863 29.5782Z" fill="#0C574F"/>
<path d="M48.7436 29.6226C48.7441 29.5891 48.7582 29.5571 48.7827 29.5337C48.8123 29.524 48.8443 29.524 48.8739 29.5337H50.6711V28.7076C50.6894 28.3899 50.5848 28.0769 50.3781 27.8308C50.2602 27.7221 50.1209 27.6379 49.9687 27.5833C49.8164 27.5287 49.6544 27.5048 49.4925 27.5131H49.2906C49.2125 27.5088 49.1343 27.5088 49.0562 27.5131C48.9715 27.5131 48.9259 27.5131 48.9259 27.4178V27.1445C48.9238 27.1273 48.9258 27.1099 48.9316 27.0936C48.9374 27.0772 48.9469 27.0624 48.9595 27.0501C48.972 27.0379 48.9872 27.0286 49.004 27.0229C49.0207 27.0173 49.0386 27.0154 49.0562 27.0174L49.3818 26.9793H49.6097C49.8669 26.9741 50.1229 27.0151 50.365 27.1C50.5577 27.1739 50.7296 27.2915 50.8664 27.4432C50.9969 27.5968 51.0903 27.777 51.1399 27.9706C51.1984 28.178 51.2333 28.3911 51.2441 28.606V28.7394C51.2441 28.8093 51.2441 28.8919 51.2441 28.9745C51.2441 29.0571 51.2441 29.1397 51.2441 29.216V29.4892C51.2441 29.5337 51.2441 29.5845 51.2441 29.6353C51.2441 29.6862 51.2441 29.737 51.2441 29.7878C51.2441 29.8387 51.2441 29.8768 51.2441 29.9086C51.2441 29.9403 51.192 30.042 51.0943 30.042H48.8739C48.8406 30.0421 48.8084 30.0308 48.7827 30.0102C48.7696 30.0007 48.7592 29.9882 48.7524 29.9738C48.7456 29.9593 48.7426 29.9435 48.7436 29.9276V29.6226Z" fill="#0C574F"/>
<path d="M52.6114 28.5933C52.5917 28.8403 52.6633 29.0861 52.8133 29.2859C52.9001 29.3643 53.0032 29.4236 53.1156 29.4597C53.2279 29.4959 53.3469 29.5081 53.4645 29.4956H54.1156V27.5259C54.0311 27.5196 53.9462 27.5196 53.8617 27.5259H53.5687C53.4424 27.5197 53.3162 27.5384 53.1976 27.581C53.079 27.6236 52.9704 27.6891 52.8784 27.7737C52.789 27.8694 52.7205 27.9819 52.6768 28.1042C52.6332 28.2265 52.6154 28.3561 52.6245 28.4853L52.6114 28.5933ZM52.2924 31.1921C52.2924 31.1286 52.2924 31.1032 52.3965 31.1032H52.9566C53.1134 31.1035 53.2701 31.0928 53.4254 31.0714C53.5515 31.0575 53.6734 31.0186 53.7835 30.957C53.8814 30.902 53.9606 30.8203 54.0114 30.7219C54.0709 30.5967 54.0999 30.4597 54.0961 30.3216V30.0548H53.4449C53.2591 30.0675 53.0726 30.0431 52.8968 29.983C52.721 29.9229 52.5596 29.8284 52.4226 29.7053C52.1649 29.4138 52.0361 29.0345 52.0644 28.6505V28.4853C52.0465 28.2801 52.0748 28.0735 52.1474 27.8801C52.22 27.6867 52.3352 27.5112 52.4847 27.3658C52.6343 27.2205 52.8147 27.1089 53.0132 27.0388C53.2117 26.9688 53.4235 26.942 53.6338 26.9604C53.8051 26.9505 53.9769 26.9505 54.1482 26.9604C54.2898 26.9687 54.4298 26.9943 54.5649 27.0366C54.5952 27.0428 54.6226 27.0584 54.6431 27.0811C54.6526 27.1057 54.6526 27.1328 54.6431 27.1573V29.4511H55.2226V30.0294H54.6366V30.2835C54.6373 30.5017 54.593 30.7178 54.5063 30.9189C54.4334 31.0748 54.3241 31.2119 54.1873 31.3192C54.0397 31.4243 53.871 31.4979 53.6924 31.5353C53.4787 31.5819 53.2601 31.6032 53.0412 31.5988H52.67H52.4812H52.364C52.3184 31.5988 52.2924 31.5988 52.2793 31.5607C52.2709 31.5381 52.2709 31.5134 52.2793 31.4908L52.2924 31.1921Z" fill="#0C574F"/>
<path d="M55.1903 30.08C55.1387 30.0901 55.0856 30.0901 55.034 30.08C54.9884 30.08 54.9689 30.0419 54.9689 30.0102V29.6163C54.9689 29.6163 54.9689 29.5654 55.034 29.5527C55.0856 29.5426 55.1387 29.5426 55.1903 29.5527H56.6554V30.1309L55.1903 30.08Z" fill="#0C574F"/>
<path d="M56.6101 30.08C56.5585 30.0901 56.5054 30.0901 56.4538 30.08C56.4082 30.08 56.3887 30.0419 56.3887 30.0102V29.6163C56.3887 29.6163 56.3887 29.5654 56.4538 29.5527C56.5054 29.5426 56.5585 29.5426 56.6101 29.5527H58.0687V30.1309L56.6101 30.08Z" fill="#0C574F"/>
<path d="M60.1583 29.5081C60.2712 29.4839 60.3776 29.4369 60.4707 29.3701C60.5638 29.3034 60.6415 29.2183 60.6988 29.1205C60.8323 28.904 60.9 28.655 60.8942 28.4025V28.3262C60.9058 28.2083 60.8889 28.0894 60.8448 27.979C60.8007 27.8687 60.7306 27.7699 60.6402 27.6909C60.4438 27.547 60.2018 27.4751 59.9565 27.4875C59.8077 27.4923 59.6596 27.5093 59.5137 27.5384C59.3275 27.5711 59.1516 27.645 58.9993 27.7544L59.6504 29.5081H60.1583ZM57.8076 29.5907C57.8076 29.5907 57.8076 29.5398 57.8727 29.5271C57.9243 29.517 57.9774 29.517 58.029 29.5271H59.0904L58.4718 27.9196C58.4699 27.9006 58.4699 27.8814 58.4718 27.8624V27.6083C58.4776 27.5739 58.4903 27.541 58.5094 27.5115C58.5284 27.4821 58.5532 27.4566 58.5825 27.4367C58.6638 27.3653 58.7534 27.3034 58.8495 27.2524C58.9571 27.1945 59.0706 27.1476 59.1881 27.1126C59.3143 27.0742 59.4426 27.0424 59.5723 27.0173C59.7045 27.0079 59.8373 27.0079 59.9695 27.0173C60.1719 27.0156 60.3735 27.0413 60.5686 27.0936C60.74 27.1359 60.8999 27.2139 61.0374 27.3223C61.1711 27.4322 61.276 27.5716 61.3435 27.729C61.4205 27.9167 61.4581 28.1177 61.4542 28.3199V28.447C61.4635 28.5569 61.4635 28.6674 61.4542 28.7774C61.4307 28.885 61.4003 28.9912 61.363 29.0951C61.3245 29.1905 61.2765 29.282 61.2198 29.3683C61.171 29.4418 61.1092 29.5063 61.0374 29.5589H61.8709V30.1371H58.029C57.9774 30.1472 57.9243 30.1472 57.8727 30.1371C57.8272 30.1371 57.8076 30.099 57.8076 30.0672V29.5907Z" fill="#0C574F"/>
<path d="M61.7867 30.0802C61.733 30.091 61.6777 30.091 61.624 30.0802C61.5784 30.0802 61.5588 30.042 61.5588 30.0103V29.6163C61.5588 29.6163 61.5588 29.5655 61.624 29.5528C61.6777 29.542 61.733 29.542 61.7867 29.5528H63.2389V30.131L61.7867 30.0802Z" fill="#0C574F"/>
<path d="M63.1996 30.08C63.148 30.0901 63.0948 30.0901 63.0433 30.08C62.9977 30.08 62.9781 30.0419 62.9781 30.0102V29.6163C62.9781 29.6163 62.9781 29.5654 63.0433 29.5527C63.0948 29.5426 63.148 29.5426 63.1996 29.5527H64.6582V30.1309L63.1996 30.08Z" fill="#0C574F"/>
<path d="M64.3977 29.5908C64.3977 29.5908 64.3977 29.54 64.4629 29.5273C64.5144 29.5172 64.5676 29.5172 64.6191 29.5273H65.0164C65.0675 29.5234 65.1179 29.5127 65.1661 29.4955C65.2107 29.4823 65.251 29.4583 65.2833 29.4256C65.3158 29.3862 65.3321 29.3363 65.3289 29.2858V27.8053C65.3303 27.7701 65.3441 27.7364 65.368 27.71C65.3777 27.6973 65.3906 27.6871 65.4054 27.6805C65.4201 27.6738 65.4364 27.6709 65.4527 27.6719H65.7717C65.7889 27.6714 65.8059 27.6745 65.8216 27.6811C65.8374 27.6877 65.8515 27.6976 65.8629 27.71C65.8712 27.7413 65.8712 27.7741 65.8629 27.8053V29.3557C65.8693 29.374 65.8796 29.3908 65.8931 29.405C65.9065 29.4192 65.9229 29.4306 65.941 29.4383L66.0843 29.4891C66.1341 29.4926 66.1842 29.4926 66.2341 29.4891H66.6508C66.6981 29.4832 66.7442 29.4703 66.7876 29.451C66.8321 29.4378 66.8724 29.4138 66.9048 29.3811C66.9211 29.3643 66.9336 29.3442 66.9414 29.3223C66.9493 29.3004 66.9523 29.2772 66.9503 29.254V27.5766C66.9413 27.5476 66.9413 27.5166 66.9503 27.4876C66.9744 27.4637 67.0072 27.45 67.0415 27.4495H67.3476C67.3636 27.4499 67.3794 27.4535 67.3939 27.46C67.4085 27.4666 67.4215 27.476 67.4322 27.4876C67.4413 27.5166 67.4413 27.5476 67.4322 27.5766V29.3557C67.449 29.3934 67.4761 29.4258 67.5106 29.4493C67.5451 29.4729 67.5856 29.4867 67.6276 29.4891C67.738 29.4988 67.8492 29.4988 67.9597 29.4891H68.1876C68.2393 29.498 68.2922 29.498 68.3439 29.4891C68.3884 29.476 68.4287 29.4519 68.4611 29.4192C68.4784 29.4015 68.492 29.3806 68.5009 29.3577C68.5098 29.3347 68.514 29.3103 68.5132 29.2858V27.3224C68.5126 27.3057 68.5158 27.2891 68.5226 27.2737C68.5293 27.2584 68.5394 27.2446 68.5522 27.2335C68.5623 27.2212 68.5752 27.2113 68.5899 27.2047C68.6046 27.1981 68.6207 27.1949 68.6369 27.1954H69.0276C69.0438 27.1949 69.0598 27.1981 69.0745 27.2047C69.0892 27.2113 69.1021 27.2212 69.1122 27.2335C69.1333 27.2586 69.1449 27.29 69.1448 27.3224V29.343C69.1622 29.3793 69.1922 29.4086 69.2294 29.4256C69.2767 29.4479 69.3272 29.4629 69.3792 29.4701H69.5355H69.796V30.0483H69.6788C69.5408 30.0472 69.4034 30.0323 69.2685 30.0038C69.1226 29.9789 68.9858 29.9176 68.8713 29.8259C68.769 29.917 68.6427 29.9786 68.5066 30.0038C68.3742 30.0336 68.2388 30.0485 68.1029 30.0483H67.9987C67.8606 30.0514 67.7226 30.0364 67.5885 30.0038C67.4553 29.9707 67.3309 29.9101 67.2238 29.8259C67.0052 29.9864 66.735 30.0653 66.462 30.0483H66.3513C66.2219 30.0477 66.093 30.0328 65.9671 30.0038C65.8334 29.9772 65.7097 29.9157 65.6089 29.8259C65.5577 29.8769 65.4954 29.916 65.4266 29.9403L65.2182 30.0102C65.1489 30.0163 65.0792 30.0163 65.0099 30.0102H64.6126C64.5611 30.0203 64.5079 30.0203 64.4564 30.0102C64.4108 30.0102 64.3912 29.972 64.3912 29.9403L64.3977 29.5908Z" fill="#0C574F"/>
<path d="M69.7572 30.08C69.7056 30.0901 69.6525 30.0901 69.6009 30.08C69.5553 30.08 69.5358 30.0419 69.5358 30.0102V29.6163C69.5358 29.6163 69.5358 29.5654 69.6009 29.5527C69.6525 29.5426 69.7056 29.5426 69.7572 29.5527H71.2158V30.1309L69.7572 30.08Z" fill="#0C574F"/>
<path d="M71.1768 30.08C71.1253 30.0901 71.0721 30.0901 71.0206 30.08C70.975 30.08 70.9554 30.0419 70.9554 30.0102V29.6163C70.9554 29.6163 70.9554 29.5654 71.0206 29.5527C71.0721 29.5426 71.1253 29.5426 71.1768 29.5527H72.6355V30.1309L71.1768 30.08Z" fill="#0C574F"/>
<path d="M72.3745 29.5907C72.3745 29.5907 72.3745 29.5399 72.4396 29.5272C72.4911 29.5164 72.5444 29.5164 72.5959 29.5272H73.1234C73.2027 29.5441 73.2849 29.5441 73.3643 29.5272C73.3643 29.5272 73.4164 29.4319 73.4164 29.3175V25.1683C73.4154 25.1521 73.4178 25.1358 73.4234 25.1206C73.429 25.1053 73.4377 25.0913 73.4489 25.0793C73.4604 25.0669 73.4744 25.057 73.4902 25.0504C73.5059 25.0438 73.523 25.0407 73.5401 25.0412H73.8657C73.8817 25.0416 73.8975 25.0451 73.9121 25.0517C73.9266 25.0582 73.9397 25.0677 73.9503 25.0793C73.9594 25.1083 73.9594 25.1393 73.9503 25.1683V29.2286C73.9503 29.2921 73.9503 29.362 73.9503 29.4382C73.9503 29.5145 73.9503 29.578 73.9503 29.6416C73.9503 29.7051 73.9503 29.7687 73.9503 29.8258C73.9393 29.8646 73.9263 29.9028 73.9113 29.9402C73.8841 29.977 73.8452 30.0038 73.8006 30.0165C73.7532 30.0365 73.7024 30.0472 73.6508 30.0482H73.4359H73.1885H72.5959C72.5444 30.0591 72.4911 30.0591 72.4396 30.0482C72.394 30.0482 72.3745 30.0101 72.3745 29.9783V29.5907Z" fill="#0C574F"/>
<path d="M75.1033 25.1684C75.1046 25.1332 75.1184 25.0995 75.1423 25.0731C75.1524 25.0608 75.1654 25.0509 75.1801 25.0443C75.1947 25.0377 75.2108 25.0345 75.227 25.035H75.5526C75.5688 25.0345 75.5848 25.0377 75.5995 25.0443C75.6142 25.0509 75.6271 25.0608 75.6372 25.0731C75.6455 25.1043 75.6455 25.1371 75.6372 25.1684V29.9466C75.6465 29.9778 75.6465 30.0108 75.6372 30.042C75.6271 30.0543 75.6142 30.0642 75.5995 30.0708C75.5848 30.0774 75.5688 30.0806 75.5526 30.0801H75.227C75.2108 30.0806 75.1947 30.0774 75.1801 30.0708C75.1654 30.0642 75.1524 30.0543 75.1423 30.042C75.1174 30.0162 75.1034 29.9821 75.1033 29.9466V25.1684Z" fill="#0C574F"/>
<path d="M79.9546 25.734C79.9533 25.7138 79.9567 25.6936 79.9646 25.6748C79.9725 25.6561 79.9846 25.6394 80.0001 25.626C80.0315 25.6012 80.0706 25.5878 80.1108 25.5878H80.3648C80.4053 25.5867 80.4447 25.6003 80.4755 25.626C80.49 25.6402 80.5015 25.657 80.5093 25.6755C80.5171 25.6941 80.5211 25.7139 80.5211 25.734V26.0961C80.5195 26.1344 80.5032 26.1707 80.4755 26.1978C80.4447 26.2235 80.4053 26.2371 80.3648 26.2359H80.0978C80.0575 26.236 80.0185 26.2225 79.9871 26.1978C79.9721 26.1853 79.9603 26.1697 79.9524 26.1521C79.9445 26.1345 79.9408 26.1154 79.9415 26.0961L79.9546 25.734ZM78.8801 25.734C78.8781 25.7143 78.8806 25.6944 78.8874 25.6758C78.8942 25.6572 78.9052 25.6402 78.9195 25.6262C78.9338 25.6123 78.9512 25.6015 78.9703 25.5949C78.9894 25.5883 79.0097 25.5858 79.0299 25.5878H79.2839C79.3244 25.586 79.3641 25.5997 79.3946 25.626C79.4091 25.6402 79.4205 25.657 79.4284 25.6755C79.4362 25.6941 79.4402 25.7139 79.4401 25.734V26.0961C79.4397 26.1158 79.4347 26.1351 79.4257 26.1527C79.4167 26.1702 79.4039 26.1857 79.388 26.1978C79.3596 26.2231 79.3223 26.2368 79.2839 26.2359H79.0299C78.9893 26.2377 78.9496 26.2241 78.9192 26.1978C78.8933 26.1701 78.8793 26.1337 78.8801 26.0961V25.734ZM78.8801 28.5615C78.8678 28.7871 78.9319 29.0104 79.0625 29.1969C79.1381 29.2781 79.2325 29.3407 79.3378 29.3793C79.4431 29.418 79.5563 29.4317 79.668 29.4193H79.7918C79.8611 29.4254 79.9308 29.4254 80.0001 29.4193C80.0654 29.4117 80.129 29.3946 80.189 29.3685C80.2455 29.3449 80.2933 29.305 80.3257 29.2541C80.3648 29.203 80.3834 29.1397 80.3778 29.0762V27.5512H80.1499H79.9676C79.8212 27.5498 79.6751 27.5626 79.5313 27.5893C79.4086 27.6102 79.2929 27.6598 79.1942 27.734C79.0955 27.8081 79.0168 27.9046 78.9648 28.0151C78.9056 28.1583 78.8768 28.3118 78.8801 28.4662V28.5615ZM78.3266 28.4535C78.3213 28.2226 78.3657 27.9931 78.4569 27.78C78.5245 27.6 78.6416 27.4417 78.7955 27.3225C78.9545 27.1976 79.1386 27.1067 79.336 27.0556C79.5617 27.0004 79.7935 26.9726 80.0262 26.973H80.2215H80.4429H80.6513L80.8206 27.0111C80.8372 27.0123 80.8532 27.0168 80.8678 27.0245C80.8824 27.0322 80.8952 27.0428 80.9053 27.0556C80.9134 27.0826 80.9134 27.1112 80.9053 27.1382V29.0444C80.9053 29.2223 80.9443 29.3367 81.029 29.3875C81.1308 29.4413 81.2454 29.4676 81.3611 29.4638H81.5174V30.042H81.2895C81.12 30.0461 80.9514 30.0158 80.7946 29.953C80.6587 29.8932 80.5499 29.787 80.4885 29.6544C80.3977 29.7596 80.2743 29.8332 80.1369 29.8641C79.9716 29.909 79.8005 29.9305 79.629 29.9276H79.5704C79.3971 29.9386 79.2234 29.9138 79.0606 29.8546C78.8979 29.7955 78.7498 29.7034 78.6262 29.5845C78.388 29.3086 78.2689 28.9532 78.2941 28.5933L78.3266 28.4535Z" fill="#0C574F"/>
<path d="M81.4911 30.0802C81.4374 30.091 81.382 30.091 81.3283 30.0802C81.3114 30.0764 81.2961 30.0677 81.2845 30.0552C81.2728 30.0427 81.2654 30.027 81.2632 30.0103V29.6163C81.2632 29.6163 81.2632 29.5655 81.3283 29.5528C81.382 29.542 81.4374 29.542 81.4911 29.5528H82.9497V30.131L81.4911 30.0802Z" fill="#0C574F"/>
<path d="M82.9106 30.0802C82.8569 30.091 82.8016 30.091 82.7479 30.0802C82.7023 30.0802 82.6827 30.042 82.6827 30.0103V29.6163C82.6827 29.6163 82.6827 29.5655 82.7479 29.5528C82.8016 29.542 82.8569 29.542 82.9106 29.5528H84.3628V30.131L82.9106 30.0802Z" fill="#0C574F"/>
<path d="M84.8579 26.5345C84.7798 26.5345 84.7407 26.5091 84.7407 26.4583V26.3439C84.7407 26.2994 84.7798 26.274 84.8579 26.274H84.9686C84.9277 26.2213 84.8988 26.1606 84.884 26.0961C84.8776 26.0284 84.8776 25.9604 84.884 25.8927C84.8788 25.8165 84.8907 25.7401 84.9188 25.6688C84.9469 25.5975 84.9906 25.533 85.0467 25.4797C85.1819 25.3881 85.3447 25.3434 85.5091 25.3527H85.6263C85.6695 25.3465 85.7133 25.3465 85.7565 25.3527C85.8021 25.3527 85.8281 25.3971 85.8281 25.4353V25.5242C85.8281 25.575 85.8281 25.6005 85.7435 25.6005H85.5416C85.3072 25.6005 85.19 25.7021 85.19 25.8991C85.1863 25.9799 85.2019 26.0604 85.2356 26.1342C85.2577 26.1798 85.2913 26.2191 85.3333 26.2486H85.7761C85.8477 26.2486 85.8867 26.2486 85.8867 26.3312V26.4392C85.8867 26.4773 85.8867 26.4964 85.8867 26.5027C85.859 26.51 85.8298 26.51 85.8021 26.5027L84.8579 26.5345ZM84.1025 29.5908C84.1025 29.5908 84.1025 29.54 84.1677 29.5273C84.2192 29.5172 84.2724 29.5172 84.3239 29.5273H84.7667C84.8179 29.5235 84.8683 29.5128 84.9165 29.4955C84.9636 29.4839 85.0065 29.4597 85.0402 29.4256C85.0745 29.3868 85.093 29.3371 85.0923 29.2858V27.494C85.0933 27.4617 85.1047 27.4306 85.1249 27.405C85.1363 27.3926 85.1504 27.3827 85.1661 27.3761C85.1819 27.3695 85.1989 27.3664 85.216 27.3669H85.5221C85.5383 27.3664 85.5543 27.3696 85.569 27.3762C85.5837 27.3828 85.5966 27.3927 85.6068 27.405C85.6313 27.4285 85.6453 27.4605 85.6458 27.494V29.343C85.6537 29.3616 85.6652 29.3784 85.6797 29.3926C85.6942 29.4067 85.7115 29.418 85.7305 29.4256C85.7731 29.448 85.8194 29.463 85.8672 29.4701H86.0235H86.2514V30.0483H86.1733C86.0266 30.0486 85.8804 30.0337 85.737 30.0039C85.5922 29.9815 85.4568 29.9198 85.3463 29.8259C85.2343 29.9177 85.0996 29.979 84.9556 30.0039C84.8208 30.0328 84.6833 30.0477 84.5453 30.0483H84.3239C84.2724 30.0584 84.2192 30.0584 84.1677 30.0483C84.1221 30.0483 84.1025 30.0102 84.1025 29.9784V29.5908Z" fill="#0C574F"/>
<path d="M86.2122 30.0802C86.1607 30.091 86.1074 30.091 86.0559 30.0802C86.0103 30.0802 85.9843 30.042 85.9843 30.0103V29.6163C85.9843 29.6163 85.9843 29.5655 86.0559 29.5528C86.1074 29.542 86.1607 29.542 86.2122 29.5528H87.6708V30.131L86.2122 30.0802Z" fill="#0C574F"/>
<path d="M87.632 30.0802C87.5805 30.0914 87.5271 30.0914 87.4757 30.0802C87.4301 30.0802 87.4041 30.0421 87.4041 30.0103V29.6163C87.4041 29.6163 87.4041 29.5654 87.4757 29.5527C87.5271 29.5415 87.5805 29.5415 87.632 29.5527H89.0906V30.131L87.632 30.0802Z" fill="#0C574F"/>
<path d="M90.2495 30.8489C90.249 30.8291 90.2535 30.8094 90.2626 30.7917C90.2716 30.774 90.2851 30.7587 90.3016 30.7472C90.3147 30.7329 90.3308 30.7216 90.3488 30.7139C90.3667 30.7062 90.3862 30.7024 90.4058 30.7027H90.6663C90.6859 30.7024 90.7054 30.7062 90.7234 30.7139C90.7413 30.7216 90.7574 30.7329 90.7705 30.7472C90.7859 30.7594 90.798 30.7749 90.8059 30.7926C90.8139 30.8103 90.8174 30.8296 90.8161 30.8489V31.2111C90.8164 31.2302 90.8125 31.2492 90.8046 31.2667C90.7968 31.2843 90.7851 31.3 90.7705 31.3127C90.742 31.3388 90.7052 31.3545 90.6663 31.3572H90.4058C90.3669 31.3545 90.3301 31.3388 90.3016 31.3127C90.2864 31.3 90.274 31.2845 90.265 31.267C90.2561 31.2496 90.2508 31.2305 90.2495 31.2111V30.8489ZM89.1751 30.8489C89.174 30.8302 89.1768 30.8115 89.1836 30.794C89.1903 30.7765 89.2007 30.7605 89.2142 30.7472C89.2283 30.7324 89.2454 30.7208 89.2645 30.7131C89.2837 30.7055 89.3042 30.7019 89.3249 30.7027H89.5854C89.605 30.702 89.6246 30.7056 89.6427 30.7133C89.6607 30.721 89.6768 30.7326 89.6895 30.7472C89.7049 30.7594 89.7171 30.7749 89.725 30.7926C89.7329 30.8103 89.7364 30.8296 89.7351 30.8489V31.2111C89.7354 31.2302 89.7315 31.2492 89.7237 31.2667C89.7158 31.2843 89.7042 31.3 89.6895 31.3127C89.6611 31.3388 89.6243 31.3545 89.5854 31.3572H89.3249C89.2837 31.356 89.2443 31.3402 89.2142 31.3127C89.1893 31.2844 89.1755 31.2484 89.1751 31.2111V30.8489ZM88.8235 29.5781C88.8235 29.5781 88.8235 29.5272 88.8886 29.5145C88.9423 29.5037 88.9977 29.5037 89.0514 29.5145H89.4942C89.5452 29.5097 89.5955 29.4991 89.644 29.4828C89.6898 29.4683 89.732 29.4445 89.7677 29.4129C89.8002 29.3734 89.8164 29.3236 89.8133 29.2731V27.494C89.8138 27.4604 89.8278 27.4285 89.8523 27.405C89.8624 27.3927 89.8754 27.3828 89.89 27.3762C89.9047 27.3696 89.9208 27.3664 89.937 27.3669H90.243C90.2774 27.3673 90.3102 27.3811 90.3342 27.405C90.3544 27.4305 90.3658 27.4617 90.3668 27.494V29.343C90.3842 29.3793 90.4142 29.4086 90.4514 29.4256C90.494 29.4479 90.5403 29.463 90.5882 29.4701H90.7444H90.9723V30.0483H90.8942C90.7476 30.0482 90.6014 30.0333 90.4579 30.0038C90.3146 29.983 90.1808 29.9211 90.0737 29.8259C89.9601 29.9189 89.8229 29.9803 89.6765 30.0038C89.5418 30.0327 89.4043 30.0476 89.2663 30.0483H89.0514C88.9977 30.0591 88.9423 30.0591 88.8886 30.0483C88.8717 30.0445 88.8564 30.0358 88.8448 30.0233C88.8332 30.0108 88.8257 29.9951 88.8235 29.9784V29.5781Z" fill="#0C574F"/>
<path d="M90.9331 30.08C90.8815 30.0901 90.8284 30.0901 90.7768 30.08C90.7312 30.08 90.7117 30.0419 90.7117 30.0102V29.6163C90.7117 29.6163 90.7117 29.5654 90.7768 29.5527C90.8284 29.5426 90.8815 29.5426 90.9331 29.5527H92.3917V30.1309L90.9331 30.08Z" fill="#0C574F"/>
<path d="M92.3526 30.08C92.3011 30.0901 92.2479 30.0901 92.1963 30.08C92.1508 30.08 92.1312 30.0419 92.1312 30.0102V29.6163C92.1312 29.6163 92.1312 29.5654 92.1963 29.5527C92.2479 29.5426 92.3011 29.5426 92.3526 29.5527H93.8112V30.1309L92.3526 30.08Z" fill="#0C574F"/>
<path d="M95.6085 29.5019C95.7496 29.5179 95.8925 29.5015 96.0259 29.4541C96.1593 29.4066 96.2795 29.3295 96.3769 29.2287C96.5423 29.0109 96.6231 28.743 96.6048 28.4725V28.3518C96.6084 28.213 96.5841 28.0748 96.5332 27.9452C96.493 27.8464 96.4281 27.759 96.3444 27.691C96.2586 27.6199 96.1554 27.5718 96.0448 27.5512C95.9164 27.5247 95.7854 27.5119 95.6541 27.5131H95.3546C95.2722 27.5072 95.1895 27.5072 95.1071 27.5131V29.4638L95.6085 29.5019ZM93.7722 30.0801C93.7206 30.0902 93.6675 30.0902 93.6159 30.0801C93.5704 30.0801 93.5443 30.042 93.5443 30.0102V29.6163C93.5443 29.6163 93.5443 29.5654 93.6159 29.5527C93.6675 29.5426 93.7206 29.5426 93.7722 29.5527H94.5276V27.2653C94.5239 27.2224 94.5375 27.1799 94.5655 27.1467C94.5934 27.1135 94.6336 27.0922 94.6774 27.0874C94.8239 27.0453 94.9744 27.0176 95.1267 27.0048C95.2829 27.0048 95.4457 27.0048 95.6215 27.0048C96.0148 26.9845 96.4033 27.0967 96.722 27.3225C96.8671 27.4488 96.9798 27.6066 97.051 27.7832C97.1223 27.9598 97.1501 28.1502 97.1323 28.3391V28.4408C97.1425 28.7914 97.0619 29.1389 96.8978 29.4511C96.8214 29.5857 96.7181 29.704 96.5939 29.799C96.4697 29.8939 96.3273 29.9636 96.175 30.0039C96.0971 30.0302 96.0162 30.0472 95.9341 30.0547H95.6476H95.3546H95.0746V30.2199C95.0572 30.479 95.1111 30.7378 95.2309 30.9697C95.2997 31.0586 95.3912 31.1283 95.4964 31.1718C95.6015 31.2153 95.7166 31.2311 95.8299 31.2175C95.9384 31.2299 96.0484 31.2154 96.1497 31.1754C96.2509 31.1354 96.3403 31.0712 96.4095 30.9887C96.5295 30.7658 96.5878 30.5161 96.5788 30.2644V30.1818C96.5788 30.1437 96.5788 30.1119 96.5788 30.0738C96.5756 30.0357 96.5756 29.9974 96.5788 29.9594C96.5739 29.9363 96.5739 29.9125 96.5788 29.8895C96.5916 29.818 96.6212 29.7505 96.6653 29.6921C96.7093 29.6336 96.7666 29.5859 96.8327 29.5527C96.9026 29.5203 96.9774 29.4989 97.0541 29.4892H97.3276H97.6793V30.0674H97.1518V30.3152C97.166 30.6924 97.0565 31.0641 96.8392 31.3763C96.7208 31.5071 96.5724 31.6087 96.406 31.6728C96.2396 31.7368 96.0601 31.7615 95.882 31.7449C95.6602 31.754 95.4387 31.7194 95.2309 31.6432C95.0717 31.5832 94.9322 31.4822 94.8271 31.3509C94.725 31.2139 94.6519 31.0584 94.6122 30.8934C94.5699 30.6842 94.5503 30.4712 94.5536 30.258V30.0356L93.7722 30.0801Z" fill="#0C574F"/>
<path d="M97.6076 30.0802C97.5539 30.091 97.4985 30.091 97.4448 30.0802C97.4279 30.0764 97.4126 30.0677 97.401 30.0552C97.3893 30.0427 97.3819 30.027 97.3796 30.0103V29.6163C97.3796 29.6163 97.3796 29.5655 97.4448 29.5528C97.4985 29.542 97.5539 29.542 97.6076 29.5528H99.0662V30.131L97.6076 30.0802Z" fill="#0C574F"/>
<path d="M99.0274 30.0802C98.9737 30.091 98.9183 30.091 98.8646 30.0802C98.819 30.0802 98.7994 30.042 98.7994 30.0103V29.6163C98.7994 29.6163 98.7994 29.5655 98.8646 29.5528C98.9183 29.542 98.9737 29.542 99.0274 29.5528H100.479V30.131L99.0274 30.0802Z" fill="#0C574F"/>
<path d="M100.219 29.5908C100.219 29.5908 100.219 29.5399 100.284 29.5272C100.335 29.5171 100.389 29.5171 100.44 29.5272H100.968C101.047 29.5441 101.129 29.5441 101.209 29.5272C101.241 29.5272 101.261 29.4319 101.261 29.3175V25.1683C101.262 25.136 101.273 25.1049 101.293 25.0793C101.317 25.0554 101.35 25.0417 101.384 25.0412H101.71C101.726 25.0407 101.742 25.0439 101.757 25.0505C101.772 25.0571 101.784 25.067 101.795 25.0793C101.815 25.1049 101.826 25.136 101.827 25.1683V29.2286C101.827 29.2921 101.827 29.362 101.827 29.4383C101.827 29.5145 101.827 29.5781 101.827 29.6416C101.827 29.7051 101.827 29.7687 101.827 29.8259C101.819 29.8654 101.806 29.9039 101.788 29.9403C101.763 29.9765 101.727 30.0035 101.684 30.0165C101.634 30.0357 101.581 30.0465 101.528 30.0483H101.313H101.065H100.473C100.421 30.0584 100.368 30.0584 100.316 30.0483C100.271 30.0483 100.251 30.0101 100.251 29.9784L100.219 29.5908Z" fill="#0C574F"/>
<path d="M102.948 25.1684C102.949 25.1332 102.963 25.0995 102.987 25.0731C102.997 25.0608 103.01 25.0509 103.024 25.0443C103.039 25.0377 103.055 25.0345 103.071 25.035H103.397C103.413 25.0345 103.429 25.0377 103.444 25.0443C103.458 25.0509 103.471 25.0608 103.481 25.0731C103.504 25.1001 103.515 25.1339 103.514 25.1684V29.9466C103.516 29.9813 103.505 30.0155 103.481 30.042C103.471 30.0543 103.458 30.0642 103.444 30.0708C103.429 30.0774 103.413 30.0806 103.397 30.0801H103.071C103.055 30.0806 103.039 30.0774 103.024 30.0708C103.01 30.0642 102.997 30.0543 102.987 30.042C102.962 30.0162 102.948 29.9821 102.948 29.9466V25.1684Z" fill="#0C574F"/>
<path d="M0.0032959 39.4586L0.32237 39.0837C0.539799 39.3449 0.813603 39.556 1.12426 39.7021C1.43492 39.8482 1.77478 39.9256 2.11961 39.9288C3.29823 39.9288 3.63033 39.2616 3.63033 38.766C3.63033 37.0441 0.179112 37.94 0.179112 35.9003C0.192136 34.9472 1.03866 34.3118 2.08054 34.3118C2.44912 34.2952 2.81672 34.361 3.15528 34.5042C3.49384 34.6474 3.79441 34.8641 4.03405 35.1379L3.70195 35.5064C3.50623 35.2672 3.25592 35.076 2.97101 34.9481C2.6861 34.8201 2.37447 34.7589 2.061 34.7693C1.89963 34.75 1.73591 34.7627 1.57971 34.8067C1.42351 34.8507 1.27806 34.9251 1.15212 35.0255C1.02617 35.1258 0.922349 35.25 0.846895 35.3905C0.771441 35.531 0.72592 35.685 0.713074 35.8432C0.713074 37.3427 4.16429 36.523 4.16429 38.7025C4.16429 39.4586 3.6694 40.3609 2.11961 40.3609C1.7195 40.3794 1.32041 40.3076 0.953366 40.1511C0.586318 39.9946 0.261203 39.7577 0.0032959 39.4586" fill="#0C574F"/>
<path d="M8.09087 40.2844V39.7825C7.92044 39.9863 7.70455 40.1496 7.45968 40.2597C7.2148 40.3698 6.94738 40.4239 6.67782 40.4179C6.48026 40.4308 6.28208 40.4041 6.09556 40.3392C5.90904 40.2743 5.73817 40.1728 5.59354 40.0408C5.44891 39.9088 5.3336 39.7493 5.25477 39.5721C5.17593 39.3948 5.13525 39.2037 5.13525 39.0105C5.13525 38.8173 5.17593 38.6261 5.25477 38.4489C5.3336 38.2716 5.44891 38.1121 5.59354 37.9801C5.73817 37.8482 5.90904 37.7466 6.09556 37.6817C6.28208 37.6169 6.48026 37.5901 6.67782 37.6031C6.94476 37.5932 7.21052 37.6424 7.45523 37.7469C7.69993 37.8514 7.91723 38.0086 8.09087 38.2067V37.3171C8.09174 37.1798 8.0628 37.0439 8.00596 36.9183C7.94912 36.7928 7.86566 36.6803 7.76108 36.5885C7.6565 36.4967 7.53317 36.4275 7.39921 36.3855C7.26525 36.3435 7.1237 36.3297 6.98388 36.345C6.73097 36.344 6.48136 36.4009 6.25515 36.5113C6.02894 36.6217 5.83246 36.7823 5.68153 36.9804L5.43409 36.6627C5.62774 36.4331 5.87295 36.25 6.15073 36.1277C6.42851 36.0054 6.7314 35.9471 7.03597 35.9574C7.2304 35.931 7.42841 35.9468 7.61588 36.0036C7.80335 36.0604 7.97567 36.1569 8.12056 36.2861C8.26545 36.4154 8.37934 36.5742 8.45412 36.7513C8.5289 36.9284 8.56273 37.1194 8.5532 37.3108V40.2971L8.09087 40.2844ZM8.09087 39.4457V38.518C7.94479 38.3294 7.75434 38.1778 7.53561 38.0761C7.31688 37.9743 7.07628 37.9254 6.83411 37.9335C6.54915 37.9335 6.27586 38.0439 6.07437 38.2405C5.87287 38.4371 5.75967 38.7038 5.75967 38.9819C5.75967 39.2599 5.87287 39.5266 6.07437 39.7232C6.27586 39.9198 6.54915 40.0303 6.83411 40.0303C7.07612 40.0373 7.31635 39.9879 7.53491 39.8862C7.75347 39.7846 7.94405 39.6336 8.09087 39.4457Z" fill="#0C574F"/>
<path d="M12.8708 40.2845V39.6491C12.6849 39.8646 12.4553 40.0403 12.1964 40.165C11.9375 40.2896 11.655 40.3606 11.3666 40.3734C10.5265 40.3734 10.0642 39.9731 10.0642 39.0137V36.0463H10.5135V38.9247C10.5135 39.7444 10.9172 39.9731 11.5228 39.9731C11.7876 39.9621 12.0466 39.8936 12.2809 39.7727C12.5151 39.6518 12.7189 39.4815 12.8773 39.2742V36.0463H13.3266V40.2845H12.8708Z" fill="#0C574F"/>
<path d="M17.9042 40.2844V39.6046C17.7478 39.8409 17.534 40.0358 17.2818 40.1721C17.0296 40.3085 16.7469 40.382 16.4586 40.3861C15.3516 40.3861 14.6028 39.5283 14.6028 38.1686C14.6028 36.8089 15.3516 35.9447 16.4586 35.9447C16.7478 35.9478 17.0316 36.0216 17.2842 36.1592C17.5367 36.2968 17.7498 36.494 17.9042 36.7326V34.4325H18.36V40.2844H17.9042ZM17.9042 39.2233V37.1266C17.7612 36.8958 17.561 36.7038 17.3221 36.5684C17.0831 36.4329 16.813 36.3583 16.5368 36.3514C15.6121 36.3514 15.0781 37.1456 15.0781 38.1686C15.0781 39.1916 15.6121 39.9731 16.5368 39.9731C16.8105 39.9683 17.0787 39.8973 17.3174 39.7665C17.556 39.6356 17.7577 39.449 17.9042 39.2233Z" fill="#0C574F"/>
<path d="M19.7603 35.0299C19.7602 34.94 19.7964 34.8537 19.8609 34.7895C19.9255 34.7253 20.0133 34.6884 20.1054 34.6868C20.1975 34.6884 20.2853 34.7253 20.3498 34.7895C20.4144 34.8537 20.4505 34.94 20.4505 35.0299C20.4514 35.0749 20.4431 35.1197 20.4262 35.1617C20.4094 35.2036 20.3842 35.2419 20.3521 35.2744C20.3201 35.3068 20.2818 35.3328 20.2395 35.3508C20.1971 35.3688 20.1516 35.3785 20.1054 35.3794C20.0127 35.3761 19.9249 35.3378 19.8605 35.2726C19.7961 35.2074 19.7602 35.1204 19.7603 35.0299ZM19.8775 36.0465H20.3268V40.2847H19.8775V36.0465Z" fill="#0C574F"/>
<path d="M23.9989 37.3618C23.9712 36.9714 24.0261 36.5796 24.1602 36.2109C24.2943 35.8421 24.5047 35.5042 24.7783 35.2181C25.0519 34.9321 25.3829 34.704 25.7507 34.5481C26.1184 34.3921 26.5152 34.3117 26.9162 34.3118C27.3251 34.3079 27.7291 34.3999 28.094 34.5802C28.4589 34.7604 28.774 35.0236 29.0129 35.3475L28.5962 35.6207C28.4061 35.3583 28.1544 35.1441 27.8621 34.996C27.5698 34.8479 27.2455 34.7701 26.9162 34.7693C26.2636 34.8327 25.6585 35.1305 25.2184 35.6049C24.7782 36.0793 24.5345 36.6964 24.5345 37.3363C24.5345 37.9763 24.7782 38.5934 25.2184 39.0677C25.6585 39.5421 26.2636 39.84 26.9162 39.9034C27.245 39.9038 27.5692 39.8273 27.8615 39.6802C28.1538 39.5332 28.4057 39.3199 28.5962 39.0583L29.0195 39.3188C28.7799 39.644 28.4638 39.9084 28.0978 40.0897C27.7318 40.2711 27.3266 40.3641 26.9162 40.3609C26.5175 40.3608 26.1231 40.281 25.7572 40.1267C25.3912 39.9723 25.0615 39.7465 24.7883 39.4633C24.5151 39.18 24.3041 38.8452 24.1684 38.4794C24.0326 38.1136 23.9749 37.7247 23.9989 37.3363" fill="#0C574F"/>
<path d="M29.8725 38.1625C29.8725 36.8917 30.6474 35.9449 31.8651 35.9449C33.0828 35.9449 33.8642 36.9235 33.8642 38.1625C33.8642 39.4015 33.0893 40.3864 31.8585 40.3864C30.6278 40.3864 29.866 39.3952 29.866 38.1625H29.8725ZM33.3823 38.1625C33.3823 37.2221 32.8418 36.3516 31.8585 36.3516C30.8753 36.3516 30.3413 37.2221 30.3413 38.1625C30.3413 39.1029 30.8948 39.9734 31.8585 39.9734C32.8223 39.9734 33.3823 39.1093 33.3823 38.1625Z" fill="#0C574F"/>
<path d="M37.96 40.2846V37.4124C37.96 36.5991 37.5563 36.3513 36.9507 36.3513C36.6829 36.3646 36.4217 36.4374 36.187 36.564C35.9523 36.6906 35.7503 36.8678 35.5963 37.082V40.2592H35.1665V36.0463H35.6158V36.6817C35.8002 36.4629 36.029 36.2839 36.288 36.1559C36.5469 36.0279 36.8302 35.9538 37.12 35.9382C37.96 35.9382 38.4224 36.364 38.4224 37.3171V40.2846H37.96Z" fill="#0C574F"/>
<path d="M40.0118 39.4649V36.4467H39.3215V36.0464H40.0118V34.89H40.4676V36.0464H41.3141V36.4467H40.4676V39.395C40.4676 39.7381 40.6109 39.9732 40.9039 39.9732C40.9905 39.972 41.076 39.954 41.1554 39.9202C41.2348 39.8864 41.3064 39.8374 41.3662 39.7762L41.542 40.1257C41.4493 40.2156 41.3381 40.2853 41.2158 40.3302C41.0934 40.3751 40.9627 40.3942 40.8322 40.3862C40.2788 40.3862 40.0118 40.0431 40.0118 39.4649Z" fill="#0C574F"/>
<path d="M42.4208 40.2846V36.0465H42.8701V36.7772C43.0198 36.5389 43.2266 36.3398 43.4728 36.197C43.719 36.0542 43.9971 35.972 44.2831 35.9575V36.4595C44.2097 36.4498 44.1352 36.4498 44.0617 36.4595C43.8186 36.4875 43.5855 36.5704 43.3809 36.7017C43.1763 36.8329 43.0059 37.0089 42.8831 37.2156V40.2846H42.4208Z" fill="#0C574F"/>
<path d="M47.9167 40.2844V39.7825C47.7462 39.9863 47.5304 40.1496 47.2855 40.2597C47.0406 40.3698 46.7732 40.4239 46.5036 40.4179C46.3061 40.4308 46.1079 40.4041 45.9214 40.3392C45.7349 40.2743 45.564 40.1728 45.4193 40.0408C45.2747 39.9088 45.1594 39.7493 45.0806 39.5721C45.0017 39.3948 44.9611 39.2037 44.9611 39.0105C44.9611 38.8173 45.0017 38.6261 45.0806 38.4489C45.1594 38.2716 45.2747 38.1121 45.4193 37.9801C45.564 37.8482 45.7349 37.7466 45.9214 37.6817C46.1079 37.6169 46.3061 37.5901 46.5036 37.6031C46.7706 37.5932 47.0363 37.6424 47.281 37.7469C47.5257 37.8514 47.743 38.0086 47.9167 38.2067V37.3171C47.9175 37.1798 47.8886 37.0439 47.8318 36.9183C47.7749 36.7928 47.6915 36.6803 47.5869 36.5885C47.4823 36.4967 47.359 36.4275 47.225 36.3855C47.0911 36.3435 46.9495 36.3297 46.8097 36.345C46.5568 36.344 46.3072 36.4009 46.081 36.5113C45.8547 36.6217 45.6583 36.7823 45.5073 36.9804L45.2599 36.6627C45.4536 36.4331 45.6988 36.25 45.9765 36.1277C46.2543 36.0054 46.5572 35.9471 46.8618 35.9574C47.0562 35.931 47.2542 35.9468 47.4417 36.0036C47.6292 36.0604 47.8015 36.1569 47.9464 36.2861C48.0913 36.4154 48.2051 36.5742 48.2799 36.7513C48.3547 36.9284 48.3885 37.1194 48.379 37.3108V40.2971L47.9167 40.2844ZM47.9167 39.4457V38.518C47.7706 38.3294 47.5801 38.1778 47.3614 38.0761C47.1427 37.9743 46.9021 37.9254 46.6599 37.9335C46.375 37.9335 46.1017 38.0439 45.9002 38.2405C45.6987 38.4371 45.5855 38.7038 45.5855 38.9819C45.5855 39.2599 45.6987 39.5266 45.9002 39.7232C46.1017 39.9198 46.375 40.0303 46.6599 40.0303C46.9019 40.0373 47.1422 39.9879 47.3607 39.8862C47.5793 39.7846 47.7699 39.6336 47.9167 39.4457Z" fill="#0C574F"/>
<path d="M49.6554 38.1623C49.6285 37.8858 49.6602 37.6069 49.7484 37.3429C49.8366 37.0788 49.9794 36.8352 50.1681 36.6273C50.3568 36.4194 50.5872 36.2515 50.8452 36.1341C51.1031 36.0166 51.383 35.9522 51.6675 35.9447C51.9562 35.9313 52.2436 35.9903 52.5024 36.116C52.7611 36.2417 52.9826 36.4299 53.1457 36.6628L52.8331 36.9423C52.7121 36.7557 52.5434 36.6031 52.3436 36.4995C52.1438 36.3958 51.9197 36.3448 51.6936 36.3514C50.7233 36.3514 50.1242 37.1457 50.1242 38.1623C50.1242 39.179 50.7233 39.9733 51.6936 39.9733C51.9185 39.9812 52.1417 39.9321 52.3415 39.8308C52.5412 39.7294 52.7106 39.5793 52.8331 39.395L53.1457 39.681C52.9842 39.9159 52.7633 40.106 52.5043 40.233C52.2453 40.3599 51.957 40.4193 51.6675 40.4053C51.3827 40.397 51.1027 40.3318 50.8447 40.2137C50.5868 40.0956 50.3564 39.9271 50.1678 39.7186C49.9792 39.5102 49.8364 39.2663 49.7483 39.0018C49.6602 38.7374 49.6286 38.4582 49.6554 38.1814" fill="#0C574F"/>
<path d="M54.35 39.4649V36.4468H53.6598V36.0464H54.35V34.89H54.8059V36.0464H55.6524V36.4468H54.8059V39.395C54.8059 39.7381 54.9491 39.9732 55.2421 39.9732C55.3288 39.9721 55.4143 39.954 55.4936 39.9202C55.573 39.8864 55.6447 39.8374 55.7045 39.7763L55.8803 40.1257C55.7878 40.216 55.6767 40.2859 55.5542 40.3308C55.4318 40.3758 55.301 40.3947 55.1705 40.3862C54.617 40.3862 54.35 40.0431 54.35 39.4649Z" fill="#0C574F"/>
<path d="M56.5251 38.1625C56.5251 36.8917 57.3 35.9449 58.5177 35.9449C59.7354 35.9449 60.5233 36.9235 60.5233 38.1625C60.5233 39.4015 59.7484 40.3864 58.5177 40.3864C57.287 40.3864 56.5251 39.3952 56.5251 38.1625ZM60.0415 38.1625C60.0415 37.2221 59.501 36.3516 58.5177 36.3516C57.5345 36.3516 57.0005 37.2221 57.0005 38.1625C57.0005 39.1029 57.5475 39.9734 58.5177 39.9734C59.488 39.9734 60.0415 39.1093 60.0415 38.1625Z" fill="#0C574F"/>
<path d="M61.7997 40.2846V36.0465H62.249V36.7772C62.3985 36.5401 62.6044 36.3418 62.8493 36.1991C63.0942 36.0564 63.3708 35.9735 63.6555 35.9575V36.4595C63.5799 36.4495 63.5032 36.4495 63.4276 36.4595C63.1848 36.4885 62.952 36.5718 62.7476 36.7029C62.5432 36.8341 62.3725 37.0095 62.249 37.2156V40.2846H61.7997Z" fill="#0C574F"/>
<path d="M64.2936 39.7129L64.5606 39.3761C64.7206 39.5754 64.9253 39.7363 65.159 39.8464C65.3926 39.9566 65.649 40.013 65.9085 40.0115C66.6052 40.0115 67.0155 39.643 67.0155 39.1537C67.0155 37.9973 64.4108 38.6581 64.4108 37.1267C64.4108 36.4913 64.9578 35.9576 65.8955 35.9576C66.1768 35.9483 66.4568 36.0006 66.7148 36.1105C66.9728 36.2205 67.2024 36.3853 67.3866 36.593L67.1392 36.9234C66.9938 36.7385 66.8048 36.5905 66.5883 36.492C66.3718 36.3936 66.1341 36.3476 65.8955 36.3579C65.2443 36.3579 64.8601 36.6947 64.8601 37.1331C64.8601 38.1942 67.4648 37.5461 67.4648 39.1728C67.4648 39.859 66.9438 40.4436 65.902 40.4436C65.5997 40.4601 65.2977 40.4078 65.0197 40.291C64.7417 40.1741 64.4954 39.9957 64.3001 39.77" fill="#0C574F"/>
<path d="M75.2724 40.2846L74.6994 38.8422H71.6324L71.0593 40.2846H70.4928L72.8435 34.4325H73.4556L75.8129 40.2846H75.2724ZM73.1821 34.9472L71.8212 38.372H74.5366L73.1821 34.9472Z" fill="#0C574F"/>
<path d="M79.5049 40.2845V39.6491C79.319 39.8646 79.0894 40.0403 78.8305 40.165C78.5717 40.2896 78.2891 40.3606 78.0007 40.3734C77.1542 40.3734 76.6984 39.9731 76.6984 39.0137V36.0463H77.1477V38.9247C77.1477 39.7444 77.5514 39.9731 78.157 39.9731C78.4217 39.9617 78.6805 39.893 78.9147 39.7721C79.1489 39.6513 79.3527 39.4812 79.5114 39.2742V36.0463H79.9542V40.2845H79.5049Z" fill="#0C574F"/>
<path d="M81.5563 39.4649V36.4467H80.8661V36.0464H81.5563V34.89H82.0122V36.0464H82.8587V36.4467H82.0122V39.395C82.0122 39.7381 82.1489 39.9732 82.4419 39.9732C82.5296 39.9729 82.6164 39.9553 82.697 39.9214C82.7775 39.8876 82.8502 39.8382 82.9108 39.7762L83.0801 40.1257C82.9891 40.2161 82.8791 40.2862 82.7577 40.3312C82.6363 40.3762 82.5064 40.3949 82.3768 40.3862C81.8233 40.3862 81.5563 40.0431 81.5563 39.4649Z" fill="#0C574F"/>
<path d="M86.7719 40.2846V37.3998C86.7719 36.5802 86.3682 36.3514 85.7626 36.3514C85.4948 36.3648 85.2336 36.4375 84.9989 36.5642C84.7642 36.6908 84.5622 36.8679 84.4082 37.0821V40.2592H83.9589V34.4325H84.4082V36.6882C84.5919 36.4683 84.8205 36.288 85.0795 36.159C85.3384 36.0299 85.6221 35.9548 85.9124 35.9384C86.7524 35.9384 87.2147 36.3451 87.2147 37.2982V40.2846H86.7719Z" fill="#0C574F"/>
<path d="M88.5039 38.1625C88.5039 36.8917 89.2788 35.9449 90.4965 35.9449C91.7142 35.9449 92.5021 36.9235 92.5021 38.1625C92.5021 39.4015 91.7272 40.3864 90.4965 40.3864C89.2658 40.3864 88.5039 39.3952 88.5039 38.1625ZM92.0202 38.1625C92.0202 37.2221 91.4798 36.3516 90.4965 36.3516C89.5132 36.3516 88.9793 37.2221 88.9793 38.1625C88.9793 39.1029 89.5328 39.9734 90.4965 39.9734C91.4602 39.9734 92.0202 39.1093 92.0202 38.1625Z" fill="#0C574F"/>
<path d="M93.7723 40.2846V36.0465H94.2217V36.7772C94.3715 36.5405 94.5776 36.3425 94.8224 36.1998C95.0672 36.0572 95.3436 35.9741 95.6282 35.9575V36.4595C95.5547 36.4498 95.4803 36.4498 95.4068 36.4595C95.1628 36.4875 94.9288 36.5704 94.7231 36.7016C94.5175 36.8328 94.3458 37.0087 94.2217 37.2156V40.2846H93.7723Z" fill="#0C574F"/>
<path d="M96.5137 35.0299C96.5137 34.94 96.5498 34.8537 96.6143 34.7895C96.6789 34.7253 96.7667 34.6884 96.8588 34.6868C96.9509 34.6884 97.0387 34.7253 97.1032 34.7895C97.1678 34.8537 97.2039 34.94 97.2039 35.0299C97.2048 35.0749 97.1965 35.1197 97.1797 35.1617C97.1628 35.2036 97.1376 35.2419 97.1056 35.2744C97.0735 35.3068 97.0352 35.3328 96.9929 35.3508C96.9505 35.3688 96.905 35.3785 96.8588 35.3794C96.7661 35.3761 96.6783 35.3378 96.6139 35.2726C96.5495 35.2074 96.5136 35.1204 96.5137 35.0299ZM96.6374 36.0465H97.0867V40.2847H96.6374V36.0465Z" fill="#0C574F"/>
<path d="M98.6888 39.4649V36.4467H97.9985V36.0464H98.6888V34.89H99.1446V36.0464H99.9911V36.4467H99.1446V39.395C99.1446 39.7381 99.2813 39.9732 99.5744 39.9732C99.6621 39.9729 99.7488 39.9553 99.8294 39.9214C99.91 39.8876 99.9827 39.8382 100.043 39.7762L100.213 40.1257C100.122 40.2161 100.012 40.2862 99.8902 40.3312C99.7688 40.3762 99.6388 40.3949 99.5093 40.3862C98.9558 40.3862 98.6888 40.0431 98.6888 39.4649Z" fill="#0C574F"/>
<path d="M100.896 41.5171C101.012 41.5628 101.136 41.5865 101.261 41.587C101.534 41.587 101.723 41.4726 101.912 41.0723L102.244 40.3162L100.473 36.0463H100.935L102.452 39.7443L103.957 36.0463H104.464L102.309 41.2121C102.243 41.4376 102.104 41.6362 101.913 41.7782C101.721 41.9202 101.488 41.998 101.248 42C101.096 42.0003 100.944 41.9789 100.798 41.9364L100.896 41.5171Z" fill="#0C574F"/>
<path d="M103.24 21.1147H0.237671V21.4133H103.24V21.1147Z" fill="#0C574F"/>
<path d="M40.0051 8.89539C40.1066 8.89158 40.2069 8.91755 40.2931 8.96993C40.3793 9.02232 40.4475 9.09872 40.4887 9.18927C40.53 9.27982 40.5425 9.38036 40.5246 9.47792C40.5068 9.57547 40.4593 9.66556 40.3885 9.73655C40.3176 9.80755 40.2266 9.85618 40.1271 9.87618C40.0277 9.89618 39.9244 9.88662 39.8305 9.84875C39.7367 9.81087 39.6566 9.74642 39.6007 9.6637C39.5448 9.58098 39.5155 9.4838 39.5168 9.38471C39.5159 9.32128 39.5279 9.25831 39.5519 9.19939C39.576 9.14048 39.6117 9.08676 39.6571 9.04132C39.7025 8.99589 39.7565 8.95961 39.8162 8.93457C39.876 8.90953 39.9402 8.89621 40.0051 8.89539Z" fill="#3EB562"/>
<path d="M41.4701 7.42155C41.5715 7.41647 41.6721 7.44116 41.759 7.49244C41.8459 7.54372 41.915 7.61924 41.9575 7.70924C42 7.79923 42.0138 7.89959 41.9973 7.99734C41.9807 8.0951 41.9345 8.18577 41.8646 8.25765C41.7947 8.32953 41.7044 8.37932 41.6052 8.40059C41.506 8.42187 41.4026 8.41365 41.3083 8.377C41.2139 8.34035 41.133 8.27696 41.076 8.19499C41.0189 8.11303 40.9883 8.01626 40.9882 7.91718C40.9865 7.85375 40.9976 7.79062 41.0209 7.73138C41.0441 7.67214 41.0792 7.61796 41.1239 7.57193C41.1687 7.52591 41.2223 7.48893 41.2817 7.46313C41.3411 7.43733 41.4051 7.4232 41.4701 7.42155Z" fill="#3EB562"/>
<path d="M40.0047 7.42127C40.1059 7.41746 40.2059 7.44327 40.292 7.49538C40.378 7.54748 40.4462 7.6235 40.4876 7.71367C40.5291 7.80385 40.542 7.90405 40.5246 8.00143C40.5073 8.0988 40.4605 8.18889 40.3903 8.26014C40.3201 8.33138 40.2297 8.38052 40.1307 8.40124C40.0317 8.42196 39.9286 8.41332 39.8346 8.37643C39.7407 8.33954 39.6602 8.27608 39.6034 8.19421C39.5467 8.11233 39.5164 8.01578 39.5163 7.91694C39.5146 7.85299 39.5259 7.78934 39.5495 7.72968C39.5732 7.67003 39.6088 7.61556 39.6543 7.56944C39.6997 7.52333 39.7541 7.48648 39.8142 7.46104C39.8744 7.43561 39.9391 7.42208 40.0047 7.42127Z" fill="#3EB562"/>
<path d="M41.47 5.92822C41.5352 5.9282 41.5998 5.94093 41.6599 5.96567C41.7201 5.99041 41.7745 6.02666 41.82 6.07226C41.8655 6.11787 41.9012 6.17191 41.925 6.2312C41.9488 6.2905 41.9601 6.35383 41.9584 6.41747C41.9663 6.48424 41.9597 6.5519 41.9389 6.61599C41.9182 6.68008 41.8838 6.73917 41.8379 6.78936C41.7921 6.83955 41.7359 6.87972 41.6731 6.90723C41.6102 6.93473 41.5421 6.94895 41.4732 6.94895C41.4044 6.94895 41.3363 6.93473 41.2734 6.90723C41.2105 6.87972 41.1544 6.83955 41.1085 6.78936C41.0627 6.73917 41.0283 6.68008 41.0076 6.61599C40.9868 6.5519 40.9802 6.48424 40.9881 6.41747C40.9864 6.35436 40.9975 6.29155 41.0209 6.23267C41.0442 6.1738 41.0794 6.12004 41.1242 6.07452C41.169 6.029 41.2227 5.99263 41.282 5.96751C41.3414 5.9424 41.4053 5.92904 41.47 5.92822Z" fill="#3EB562"/>
<path d="M42.9158 5.92822C42.9805 5.92904 43.0444 5.9424 43.1037 5.96752C43.1631 5.99263 43.2167 6.02901 43.2616 6.07454C43.3064 6.12006 43.3415 6.17383 43.3649 6.23271C43.3882 6.29159 43.3994 6.35441 43.3977 6.41753C43.3994 6.48096 43.3883 6.5441 43.365 6.60334C43.3417 6.66258 43.3067 6.71677 43.262 6.7628C43.2172 6.80883 43.1636 6.8458 43.1042 6.87161C43.0448 6.89741 42.9808 6.91154 42.9158 6.91319C42.7839 6.90986 42.6588 6.85597 42.5673 6.76319C42.4759 6.67041 42.4257 6.54623 42.4274 6.41753C42.4266 6.35411 42.4385 6.29114 42.4626 6.23222C42.4867 6.17331 42.5224 6.1196 42.5677 6.07416C42.6131 6.02872 42.6672 5.99245 42.7269 5.96741C42.7866 5.94237 42.8508 5.92905 42.9158 5.92822Z" fill="#3EB562"/>
<path d="M40.0047 5.92826C40.0694 5.92908 40.1333 5.94244 40.1927 5.96755C40.252 5.99267 40.3057 6.02904 40.3505 6.07456C40.3954 6.12009 40.4305 6.17385 40.4538 6.23272C40.4772 6.2916 40.4883 6.35442 40.4866 6.41753C40.484 6.51147 40.453 6.60258 40.3975 6.67938C40.3421 6.75619 40.2645 6.81527 40.1747 6.8492C40.0849 6.88313 39.9868 6.89039 39.8928 6.87007C39.7988 6.84975 39.713 6.80276 39.6463 6.735C39.5795 6.66725 39.5348 6.58175 39.5177 6.48926C39.5007 6.39677 39.512 6.30143 39.5503 6.21521C39.5886 6.12899 39.6522 6.05575 39.7331 6.00469C39.8139 5.95363 39.9084 5.92704 40.0047 5.92826Z" fill="#3EB562"/>
<path d="M41.47 4.44775C41.5356 4.44857 41.6003 4.46209 41.6605 4.48753C41.7206 4.51296 41.775 4.54981 41.8204 4.59592C41.8659 4.64203 41.9015 4.69649 41.9252 4.75614C41.9488 4.81578 41.9602 4.87943 41.9584 4.94338C41.9546 5.03673 41.9227 5.12692 41.8668 5.20275C41.8109 5.27857 41.7333 5.33667 41.6438 5.36984C41.5543 5.403 41.4568 5.40976 41.3634 5.38928C41.2699 5.36879 41.1848 5.32197 41.1184 5.25462C41.052 5.18728 41.0074 5.10238 40.9901 5.0105C40.9728 4.91861 40.9835 4.82379 41.021 4.73781C41.0585 4.65184 41.121 4.5785 41.2009 4.52693C41.2807 4.47536 41.3743 4.44783 41.47 4.44775Z" fill="#3EB562"/>
<path d="M42.9158 4.44775C42.9808 4.4494 43.0448 4.46353 43.1042 4.48933C43.1636 4.51513 43.2172 4.55209 43.262 4.59811C43.3067 4.64414 43.3417 4.69831 43.365 4.75754C43.3883 4.81677 43.3994 4.8799 43.3977 4.94331C43.3994 5.00642 43.3882 5.06923 43.3649 5.1281C43.3415 5.18696 43.3064 5.24072 43.2616 5.28623C43.2167 5.33175 43.1631 5.36812 43.1037 5.39323C43.0444 5.41834 42.9805 5.4317 42.9158 5.43252C42.8508 5.43169 42.7866 5.41837 42.7269 5.39334C42.6672 5.36831 42.6131 5.33204 42.5677 5.28661C42.5224 5.24118 42.4867 5.18748 42.4626 5.12858C42.4385 5.06968 42.4266 5.00672 42.4274 4.94331C42.4257 4.81464 42.4759 4.69048 42.5673 4.59772C42.6588 4.50497 42.7839 4.45108 42.9158 4.44775Z" fill="#3EB562"/>
<path d="M40.0047 4.44775C40.0697 4.4494 40.1337 4.46353 40.1931 4.48933C40.2525 4.51513 40.3061 4.5521 40.3509 4.59812C40.3956 4.64414 40.4306 4.69832 40.4539 4.75755C40.4772 4.81678 40.4883 4.87991 40.4866 4.94333C40.4945 5.01009 40.4879 5.07774 40.4671 5.14183C40.4464 5.20592 40.4119 5.265 40.3661 5.31519C40.3203 5.36538 40.2641 5.40555 40.2013 5.43305C40.1384 5.46055 40.0703 5.47477 40.0014 5.47477C39.9326 5.47477 39.8644 5.46055 39.8016 5.43305C39.7387 5.40555 39.6826 5.36538 39.6367 5.31519C39.5909 5.265 39.5565 5.20592 39.5358 5.14183C39.515 5.07774 39.5084 5.01009 39.5163 4.94333C39.5146 4.87939 39.5259 4.81575 39.5496 4.75611C39.5733 4.69646 39.6089 4.64201 39.6543 4.5959C39.6997 4.54979 39.7541 4.51296 39.8143 4.48752C39.8744 4.46209 39.9391 4.44857 40.0047 4.44775Z" fill="#3EB562"/>
<path d="M41.4701 2.99284C41.5715 2.98776 41.6721 3.01245 41.759 3.06373C41.8459 3.11501 41.915 3.19053 41.9575 3.28052C42 3.37052 42.0138 3.47088 41.9973 3.56863C41.9807 3.66639 41.9345 3.75706 41.8646 3.82894C41.7947 3.90082 41.7044 3.95061 41.6052 3.97188C41.506 3.99316 41.4026 3.98494 41.3083 3.94829C41.2139 3.91164 41.133 3.84824 41.076 3.76628C41.0189 3.68432 40.9883 3.58755 40.9882 3.48847C40.9865 3.42504 40.9976 3.36191 41.0209 3.30267C41.0441 3.24343 41.0792 3.18925 41.1239 3.14322C41.1687 3.09719 41.2223 3.06022 41.2817 3.03442C41.3411 3.00862 41.4051 2.99449 41.4701 2.99284Z" fill="#3EB562"/>
<path d="M42.9156 2.99268C43.0503 2.99268 43.1795 3.04489 43.2748 3.13784C43.37 3.23079 43.4235 3.35685 43.4235 3.4883C43.4235 3.61975 43.37 3.74582 43.2748 3.83876C43.1795 3.93171 43.0503 3.98393 42.9156 3.98393C42.7809 3.98393 42.6517 3.93171 42.5565 3.83876C42.4612 3.74582 42.4077 3.61975 42.4077 3.4883C42.4077 3.35685 42.4612 3.23079 42.5565 3.13784C42.6517 3.04489 42.7809 2.99268 42.9156 2.99268Z" fill="#3EB562"/>
<path d="M44.3547 4.44775C44.4866 4.45108 44.6118 4.50497 44.7032 4.59772C44.7946 4.69048 44.8449 4.81464 44.8431 4.94331C44.844 5.00672 44.832 5.06968 44.8079 5.12858C44.7839 5.18748 44.7481 5.24118 44.7028 5.28661C44.6574 5.33204 44.6033 5.36831 44.5436 5.39334C44.4839 5.41837 44.4197 5.43169 44.3547 5.43252C44.29 5.4317 44.2261 5.41834 44.1668 5.39323C44.1074 5.36812 44.0538 5.33175 44.0089 5.28623C43.9641 5.24072 43.929 5.18696 43.9056 5.1281C43.8823 5.06923 43.8711 5.00642 43.8729 4.94331C43.8711 4.8799 43.8822 4.81677 43.9055 4.75754C43.9288 4.69831 43.9638 4.64414 44.0085 4.59811C44.0533 4.55209 44.1069 4.51513 44.1663 4.48933C44.2257 4.46353 44.2897 4.4494 44.3547 4.44775Z" fill="#3EB562"/>
<path d="M44.3548 2.99268C44.4895 2.99268 44.6187 3.04489 44.714 3.13784C44.8092 3.23079 44.8628 3.35685 44.8628 3.4883C44.8628 3.61975 44.8092 3.74582 44.714 3.83876C44.6187 3.93171 44.4895 3.98393 44.3548 3.98393C44.2201 3.98393 44.0909 3.93171 43.9957 3.83876C43.9004 3.74582 43.8469 3.61975 43.8469 3.4883C43.8469 3.35685 43.9004 3.23079 43.9957 3.13784C44.0909 3.04489 44.2201 2.99268 44.3548 2.99268Z" fill="#3EB562"/>
<path d="M45.8262 5.92822C45.8909 5.92904 45.9548 5.9424 46.0141 5.96752C46.0735 5.99263 46.1271 6.02901 46.172 6.07454C46.2168 6.12006 46.2519 6.17383 46.2753 6.23271C46.2986 6.29159 46.3098 6.35441 46.3081 6.41753C46.3098 6.48096 46.2987 6.5441 46.2754 6.60334C46.2521 6.66258 46.2171 6.71677 46.1724 6.7628C46.1276 6.80883 46.074 6.8458 46.0146 6.87161C45.9552 6.89741 45.8912 6.91154 45.8262 6.91319C45.6943 6.90986 45.5692 6.85597 45.4777 6.76319C45.3863 6.67041 45.3361 6.54623 45.3378 6.41753C45.337 6.35411 45.3489 6.29114 45.373 6.23222C45.3971 6.17331 45.4328 6.1196 45.4781 6.07416C45.5235 6.02872 45.5776 5.99245 45.6373 5.96741C45.697 5.94237 45.7612 5.92905 45.8262 5.92822Z" fill="#3EB562"/>
<path d="M45.8262 4.44775C45.8912 4.4494 45.9552 4.46353 46.0146 4.48933C46.074 4.51513 46.1276 4.55209 46.1724 4.59811C46.2171 4.64414 46.2521 4.69831 46.2754 4.75754C46.2987 4.81677 46.3098 4.8799 46.3081 4.94331C46.3098 5.00642 46.2986 5.06923 46.2753 5.1281C46.2519 5.18696 46.2168 5.24072 46.172 5.28623C46.1271 5.33175 46.0735 5.36812 46.0141 5.39323C45.9548 5.41834 45.8909 5.4317 45.8262 5.43252C45.7612 5.43169 45.697 5.41837 45.6373 5.39334C45.5776 5.36831 45.5235 5.33204 45.4781 5.28661C45.4328 5.24118 45.3971 5.18748 45.373 5.12858C45.3489 5.06968 45.337 5.00672 45.3378 4.94331C45.3361 4.81464 45.3863 4.69048 45.4777 4.59772C45.5692 4.50497 45.6943 4.45108 45.8262 4.44775Z" fill="#3EB562"/>
<path d="M45.8264 2.99268C45.9611 2.99268 46.0903 3.04489 46.1856 3.13784C46.2808 3.23079 46.3343 3.35685 46.3343 3.4883C46.3343 3.61975 46.2808 3.74582 46.1856 3.83876C46.0903 3.93171 45.9611 3.98393 45.8264 3.98393C45.6917 3.98393 45.5625 3.93171 45.4673 3.83876C45.372 3.74582 45.3185 3.61975 45.3185 3.4883C45.3185 3.35685 45.372 3.23079 45.4673 3.13784C45.5625 3.04489 45.6917 2.99268 45.8264 2.99268Z" fill="#3EB562"/>
<path d="M47.2719 7.42127C47.3731 7.41746 47.4731 7.44327 47.5592 7.49538C47.6452 7.54748 47.7134 7.6235 47.7548 7.71367C47.7963 7.80385 47.8092 7.90405 47.7918 8.00143C47.7745 8.0988 47.7277 8.18889 47.6575 8.26014C47.5873 8.33138 47.4969 8.38052 47.3979 8.40124C47.2989 8.42196 47.1958 8.41332 47.1018 8.37643C47.0079 8.33954 46.9274 8.27608 46.8706 8.19421C46.8139 8.11233 46.7836 8.01578 46.7835 7.91694C46.7818 7.85299 46.7931 7.78934 46.8168 7.72968C46.8405 7.67003 46.876 7.61556 46.9215 7.56944C46.9669 7.52333 47.0213 7.48648 47.0814 7.46104C47.1416 7.43561 47.2063 7.42208 47.2719 7.42127Z" fill="#3EB562"/>
<path d="M47.2719 5.92826C47.3366 5.92908 47.4005 5.94244 47.4599 5.96755C47.5192 5.99267 47.5729 6.02904 47.6177 6.07456C47.6626 6.12009 47.6977 6.17385 47.721 6.23272C47.7444 6.2916 47.7555 6.35442 47.7538 6.41753C47.7512 6.51147 47.7202 6.60258 47.6648 6.67938C47.6093 6.75619 47.5317 6.81527 47.4419 6.8492C47.3521 6.88313 47.254 6.89039 47.16 6.87007C47.066 6.84975 46.9802 6.80276 46.9135 6.735C46.8467 6.66725 46.802 6.58175 46.785 6.48926C46.7679 6.39677 46.7792 6.30143 46.8175 6.21521C46.8558 6.12899 46.9194 6.05575 47.0003 6.00469C47.0811 5.95363 47.1756 5.92704 47.2719 5.92826Z" fill="#3EB562"/>
<path d="M47.2719 4.44775C47.3369 4.4494 47.4009 4.46353 47.4603 4.48933C47.5197 4.51513 47.5733 4.5521 47.6181 4.59812C47.6628 4.64414 47.6979 4.69832 47.7211 4.75755C47.7444 4.81678 47.7555 4.87991 47.7538 4.94333C47.7617 5.01009 47.7551 5.07774 47.7343 5.14183C47.7136 5.20592 47.6792 5.265 47.6334 5.31519C47.5875 5.36538 47.5314 5.40555 47.4685 5.43305C47.4056 5.46055 47.3375 5.47477 47.2687 5.47477C47.1998 5.47477 47.1317 5.46055 47.0688 5.43305C47.006 5.40555 46.9498 5.36538 46.904 5.31519C46.8581 5.265 46.8237 5.20592 46.803 5.14183C46.7822 5.07774 46.7756 5.01009 46.7835 4.94333C46.7818 4.87939 46.7931 4.81575 46.8168 4.75611C46.8405 4.69646 46.8761 4.64201 46.9215 4.5959C46.967 4.54979 47.0213 4.51296 47.0815 4.48752C47.1416 4.46209 47.2064 4.44857 47.2719 4.44775Z" fill="#3EB562"/>
<path d="M47.2719 2.9928C47.3731 2.989 47.4731 3.0148 47.5592 3.0669C47.6452 3.119 47.7134 3.19501 47.7548 3.28518C47.7963 3.37534 47.8092 3.47554 47.7918 3.5729C47.7745 3.67026 47.7277 3.76035 47.6575 3.83158C47.5873 3.90282 47.4969 3.95195 47.3979 3.97267C47.2989 3.99339 47.1958 3.98475 47.1018 3.94786C47.0079 3.91098 46.9274 3.84753 46.8706 3.76566C46.8139 3.68379 46.7836 3.58725 46.7835 3.48843C46.7818 3.42448 46.7931 3.36083 46.8168 3.30118C46.8405 3.24154 46.876 3.18707 46.9215 3.14096C46.9669 3.09485 47.0213 3.05801 47.0814 3.03257C47.1416 3.00714 47.2063 2.99362 47.2719 2.9928Z" fill="#3EB562"/>
<path d="M42.9158 1.46753C42.9808 1.46918 43.0448 1.48331 43.1042 1.50911C43.1636 1.53492 43.2172 1.57189 43.262 1.61792C43.3067 1.66395 43.3417 1.71814 43.365 1.77738C43.3883 1.83662 43.3994 1.89976 43.3977 1.96319C43.3994 2.02631 43.3882 2.08913 43.3649 2.14801C43.3415 2.20689 43.3064 2.26066 43.2616 2.30618C43.2167 2.35171 43.1631 2.38809 43.1037 2.4132C43.0444 2.43832 42.9805 2.45168 42.9158 2.4525C42.8508 2.45167 42.7866 2.43835 42.7269 2.41331C42.6672 2.38827 42.6131 2.352 42.5677 2.30656C42.5224 2.26112 42.4867 2.20741 42.4626 2.1485C42.4385 2.08958 42.4266 2.02661 42.4274 1.96319C42.4257 1.83449 42.4759 1.71031 42.5673 1.61753C42.6588 1.52475 42.7839 1.47086 42.9158 1.46753Z" fill="#3EB562"/>
<path d="M44.3547 1.46753C44.4866 1.47086 44.6118 1.52475 44.7032 1.61753C44.7946 1.71031 44.8449 1.83449 44.8431 1.96319C44.844 2.02661 44.832 2.08958 44.8079 2.1485C44.7839 2.20741 44.7481 2.26112 44.7028 2.30656C44.6574 2.352 44.6033 2.38827 44.5436 2.41331C44.4839 2.43835 44.4197 2.45167 44.3547 2.4525C44.29 2.45168 44.2261 2.43832 44.1668 2.4132C44.1074 2.38809 44.0538 2.35171 44.0089 2.30618C43.9641 2.26066 43.929 2.20689 43.9056 2.14801C43.8823 2.08913 43.8711 2.02631 43.8729 1.96319C43.8711 1.89976 43.8822 1.83662 43.9055 1.77738C43.9288 1.71814 43.9638 1.66395 44.0085 1.61792C44.0533 1.57189 44.1069 1.53492 44.1663 1.50911C44.2257 1.48331 44.2897 1.46918 44.3547 1.46753Z" fill="#3EB562"/>
<path d="M45.8262 1.46753C45.8912 1.46918 45.9552 1.48331 46.0146 1.50911C46.074 1.53492 46.1276 1.57189 46.1724 1.61792C46.2171 1.66395 46.2521 1.71814 46.2754 1.77738C46.2987 1.83662 46.3098 1.89976 46.3081 1.96319C46.3098 2.02631 46.2986 2.08913 46.2753 2.14801C46.2519 2.20689 46.2168 2.26066 46.172 2.30618C46.1271 2.35171 46.0735 2.38809 46.0141 2.4132C45.9548 2.43832 45.8909 2.45168 45.8262 2.4525C45.7612 2.45167 45.697 2.43835 45.6373 2.41331C45.5776 2.38827 45.5235 2.352 45.4781 2.30656C45.4328 2.26112 45.3971 2.20741 45.373 2.1485C45.3489 2.08958 45.337 2.02661 45.3378 1.96319C45.3361 1.83449 45.3863 1.71031 45.4777 1.61753C45.5692 1.52475 45.6943 1.47086 45.8262 1.46753Z" fill="#3EB562"/>
<path d="M48.7697 8.89567C48.8714 8.89058 48.9723 8.91543 49.0593 8.96698C49.1464 9.01854 49.2155 9.09442 49.2578 9.18479C49.3001 9.27516 49.3135 9.37584 49.2965 9.47377C49.2794 9.5717 49.2325 9.66236 49.162 9.73399C49.0914 9.80562 49.0004 9.8549 48.9008 9.87545C48.8012 9.896 48.6976 9.88687 48.6034 9.84924C48.5091 9.8116 48.4287 9.74721 48.3724 9.66441C48.3162 9.58161 48.2867 9.48423 48.2879 9.38489C48.2861 9.2579 48.3357 9.13535 48.4259 9.04378C48.5161 8.95221 48.6396 8.899 48.7697 8.89567Z" fill="#3EB562"/>
<path d="M48.7695 7.42163C48.9042 7.42163 49.0334 7.47384 49.1287 7.56678C49.2239 7.65972 49.2774 7.78577 49.2774 7.91721C49.2774 8.04864 49.2239 8.17469 49.1287 8.26763C49.0334 8.36057 48.9042 8.41278 48.7695 8.41278C48.6348 8.41278 48.5056 8.36057 48.4104 8.26763C48.3151 8.17469 48.2616 8.04864 48.2616 7.91721C48.2616 7.78577 48.3151 7.65972 48.4104 7.56678C48.5056 7.47384 48.6348 7.42163 48.7695 7.42163Z" fill="#3EB562"/>
<path d="M48.7696 5.92822C48.8346 5.92905 48.8988 5.94237 48.9585 5.96741C49.0183 5.99245 49.0723 6.02872 49.1177 6.07416C49.163 6.1196 49.1988 6.17331 49.2228 6.23222C49.2469 6.29114 49.2589 6.35411 49.258 6.41753C49.2598 6.54623 49.2095 6.67041 49.1181 6.76319C49.0267 6.85597 48.9015 6.90986 48.7696 6.91319C48.7046 6.91154 48.6406 6.89741 48.5812 6.87161C48.5218 6.8458 48.4682 6.80883 48.4235 6.7628C48.3787 6.71677 48.3437 6.66258 48.3204 6.60334C48.2971 6.5441 48.286 6.48096 48.2878 6.41753C48.286 6.35441 48.2972 6.29159 48.3205 6.23271C48.3439 6.17383 48.379 6.12006 48.4238 6.07454C48.4687 6.02901 48.5223 5.99263 48.5817 5.96752C48.6411 5.9424 48.7049 5.92904 48.7696 5.92822Z" fill="#3EB562"/>
<path d="M48.7696 4.44775C48.9015 4.45108 49.0267 4.50497 49.1181 4.59772C49.2095 4.69048 49.2598 4.81464 49.258 4.94331C49.2589 5.00672 49.2469 5.06968 49.2228 5.12858C49.1988 5.18748 49.163 5.24118 49.1177 5.28661C49.0723 5.33204 49.0183 5.36831 48.9585 5.39334C48.8988 5.41837 48.8346 5.43169 48.7696 5.43252C48.7049 5.4317 48.6411 5.41834 48.5817 5.39323C48.5223 5.36812 48.4687 5.33175 48.4238 5.28623C48.379 5.24072 48.3439 5.18696 48.3205 5.1281C48.2972 5.06923 48.286 5.00642 48.2878 4.94331C48.286 4.8799 48.2971 4.81677 48.3204 4.75754C48.3437 4.69831 48.3787 4.64414 48.4235 4.59811C48.4682 4.55209 48.5218 4.51513 48.5812 4.48933C48.6406 4.46353 48.7046 4.4494 48.7696 4.44775Z" fill="#3EB562"/>
<path d="M44.3547 0C44.4866 0.00333127 44.6118 0.0572176 44.7032 0.149984C44.7946 0.242751 44.8449 0.366927 44.8431 0.495609C44.8431 0.623196 44.7921 0.745752 44.7009 0.837148C44.6096 0.928545 44.4854 0.981551 44.3547 0.984865C44.2246 0.981534 44.1011 0.928317 44.0109 0.836742C43.9207 0.745167 43.8711 0.622607 43.8729 0.495609C43.8711 0.432188 43.8822 0.369055 43.9055 0.309819C43.9288 0.250582 43.9638 0.196403 44.0085 0.150377C44.0533 0.104351 44.1069 0.0673801 44.1663 0.0415777C44.2257 0.0157754 44.2897 0.00164703 44.3547 0" fill="#3EB562"/>
<path d="M40.0051 8.89539C40.1066 8.89158 40.2069 8.91755 40.2931 8.96993C40.3793 9.02232 40.4475 9.09872 40.4887 9.18927C40.53 9.27982 40.5425 9.38036 40.5246 9.47792C40.5068 9.57547 40.4593 9.66556 40.3885 9.73655C40.3176 9.80755 40.2266 9.85618 40.1271 9.87618C40.0277 9.89618 39.9244 9.88662 39.8305 9.84875C39.7367 9.81087 39.6566 9.74642 39.6007 9.6637C39.5448 9.58098 39.5155 9.4838 39.5168 9.38471C39.5159 9.32128 39.5279 9.25831 39.5519 9.19939C39.576 9.14048 39.6117 9.08676 39.6571 9.04132C39.7025 8.99589 39.7565 8.95961 39.8162 8.93457C39.876 8.90953 39.9402 8.89621 40.0051 8.89539Z" fill="#3EB562"/>
<path d="M41.4701 7.42155C41.5715 7.41647 41.6721 7.44116 41.759 7.49244C41.8459 7.54372 41.915 7.61924 41.9575 7.70924C42 7.79923 42.0138 7.89959 41.9973 7.99734C41.9807 8.0951 41.9345 8.18577 41.8646 8.25765C41.7947 8.32953 41.7044 8.37932 41.6052 8.40059C41.506 8.42187 41.4026 8.41365 41.3083 8.377C41.2139 8.34035 41.133 8.27696 41.076 8.19499C41.0189 8.11303 40.9883 8.01626 40.9882 7.91718C40.9865 7.85375 40.9976 7.79062 41.0209 7.73138C41.0441 7.67214 41.0792 7.61796 41.1239 7.57193C41.1687 7.52591 41.2223 7.48893 41.2817 7.46313C41.3411 7.43733 41.4051 7.4232 41.4701 7.42155Z" fill="#3EB562"/>
<path d="M40.0047 7.42127C40.1059 7.41746 40.2059 7.44327 40.292 7.49538C40.378 7.54748 40.4462 7.6235 40.4876 7.71367C40.5291 7.80385 40.542 7.90405 40.5246 8.00143C40.5073 8.0988 40.4605 8.18889 40.3903 8.26014C40.3201 8.33138 40.2297 8.38052 40.1307 8.40124C40.0317 8.42196 39.9286 8.41332 39.8346 8.37643C39.7407 8.33954 39.6602 8.27608 39.6034 8.19421C39.5467 8.11233 39.5164 8.01578 39.5163 7.91694C39.5146 7.85299 39.5259 7.78934 39.5495 7.72968C39.5732 7.67003 39.6088 7.61556 39.6543 7.56944C39.6997 7.52333 39.7541 7.48648 39.8142 7.46104C39.8744 7.43561 39.9391 7.42208 40.0047 7.42127Z" fill="#3EB562"/>
<path d="M41.47 5.92822C41.5352 5.9282 41.5998 5.94093 41.6599 5.96567C41.7201 5.99041 41.7745 6.02666 41.82 6.07226C41.8655 6.11787 41.9012 6.17191 41.925 6.2312C41.9488 6.2905 41.9601 6.35383 41.9584 6.41747C41.9663 6.48424 41.9597 6.5519 41.9389 6.61599C41.9182 6.68008 41.8838 6.73917 41.8379 6.78936C41.7921 6.83955 41.7359 6.87972 41.6731 6.90723C41.6102 6.93473 41.5421 6.94895 41.4732 6.94895C41.4044 6.94895 41.3363 6.93473 41.2734 6.90723C41.2105 6.87972 41.1544 6.83955 41.1085 6.78936C41.0627 6.73917 41.0283 6.68008 41.0076 6.61599C40.9868 6.5519 40.9802 6.48424 40.9881 6.41747C40.9864 6.35436 40.9975 6.29155 41.0209 6.23267C41.0442 6.1738 41.0794 6.12004 41.1242 6.07452C41.169 6.029 41.2227 5.99263 41.282 5.96751C41.3414 5.9424 41.4053 5.92904 41.47 5.92822Z" fill="#3EB562"/>
<path d="M42.9158 5.92822C42.9805 5.92904 43.0444 5.9424 43.1037 5.96752C43.1631 5.99263 43.2167 6.02901 43.2616 6.07454C43.3064 6.12006 43.3415 6.17383 43.3649 6.23271C43.3882 6.29159 43.3994 6.35441 43.3977 6.41753C43.3994 6.48096 43.3883 6.5441 43.365 6.60334C43.3417 6.66258 43.3067 6.71677 43.262 6.7628C43.2172 6.80883 43.1636 6.8458 43.1042 6.87161C43.0448 6.89741 42.9808 6.91154 42.9158 6.91319C42.7839 6.90986 42.6588 6.85597 42.5673 6.76319C42.4759 6.67041 42.4257 6.54623 42.4274 6.41753C42.4266 6.35411 42.4385 6.29114 42.4626 6.23222C42.4867 6.17331 42.5224 6.1196 42.5677 6.07416C42.6131 6.02872 42.6672 5.99245 42.7269 5.96741C42.7866 5.94237 42.8508 5.92905 42.9158 5.92822Z" fill="#3EB562"/>
<path d="M40.0047 5.92826C40.0694 5.92908 40.1333 5.94244 40.1927 5.96755C40.252 5.99267 40.3057 6.02904 40.3505 6.07456C40.3954 6.12009 40.4305 6.17385 40.4538 6.23272C40.4772 6.2916 40.4883 6.35442 40.4866 6.41753C40.484 6.51147 40.453 6.60258 40.3975 6.67938C40.3421 6.75619 40.2645 6.81527 40.1747 6.8492C40.0849 6.88313 39.9868 6.89039 39.8928 6.87007C39.7988 6.84975 39.713 6.80276 39.6463 6.735C39.5795 6.66725 39.5348 6.58175 39.5177 6.48926C39.5007 6.39677 39.512 6.30143 39.5503 6.21521C39.5886 6.12899 39.6522 6.05575 39.7331 6.00469C39.8139 5.95363 39.9084 5.92704 40.0047 5.92826Z" fill="#3EB562"/>
<path d="M41.47 4.44775C41.5356 4.44857 41.6003 4.46209 41.6605 4.48753C41.7206 4.51296 41.775 4.54981 41.8204 4.59592C41.8659 4.64203 41.9015 4.69649 41.9252 4.75614C41.9488 4.81578 41.9602 4.87943 41.9584 4.94338C41.9546 5.03673 41.9227 5.12692 41.8668 5.20275C41.8109 5.27857 41.7333 5.33667 41.6438 5.36984C41.5543 5.403 41.4568 5.40976 41.3634 5.38928C41.2699 5.36879 41.1848 5.32197 41.1184 5.25462C41.052 5.18728 41.0074 5.10238 40.9901 5.0105C40.9728 4.91861 40.9835 4.82379 41.021 4.73781C41.0585 4.65184 41.121 4.5785 41.2009 4.52693C41.2807 4.47536 41.3743 4.44783 41.47 4.44775Z" fill="#3EB562"/>
<path d="M42.9158 4.44775C42.9808 4.4494 43.0448 4.46353 43.1042 4.48933C43.1636 4.51513 43.2172 4.55209 43.262 4.59811C43.3067 4.64414 43.3417 4.69831 43.365 4.75754C43.3883 4.81677 43.3994 4.8799 43.3977 4.94331C43.3994 5.00642 43.3882 5.06923 43.3649 5.1281C43.3415 5.18696 43.3064 5.24072 43.2616 5.28623C43.2167 5.33175 43.1631 5.36812 43.1037 5.39323C43.0444 5.41834 42.9805 5.4317 42.9158 5.43252C42.8508 5.43169 42.7866 5.41837 42.7269 5.39334C42.6672 5.36831 42.6131 5.33204 42.5677 5.28661C42.5224 5.24118 42.4867 5.18748 42.4626 5.12858C42.4385 5.06968 42.4266 5.00672 42.4274 4.94331C42.4257 4.81464 42.4759 4.69048 42.5673 4.59772C42.6588 4.50497 42.7839 4.45108 42.9158 4.44775Z" fill="#3EB562"/>
<path d="M40.0047 4.44775C40.0697 4.4494 40.1337 4.46353 40.1931 4.48933C40.2525 4.51513 40.3061 4.5521 40.3509 4.59812C40.3956 4.64414 40.4306 4.69832 40.4539 4.75755C40.4772 4.81678 40.4883 4.87991 40.4866 4.94333C40.4945 5.01009 40.4879 5.07774 40.4671 5.14183C40.4464 5.20592 40.4119 5.265 40.3661 5.31519C40.3203 5.36538 40.2641 5.40555 40.2013 5.43305C40.1384 5.46055 40.0703 5.47477 40.0014 5.47477C39.9326 5.47477 39.8644 5.46055 39.8016 5.43305C39.7387 5.40555 39.6826 5.36538 39.6367 5.31519C39.5909 5.265 39.5565 5.20592 39.5358 5.14183C39.515 5.07774 39.5084 5.01009 39.5163 4.94333C39.5146 4.87939 39.5259 4.81575 39.5496 4.75611C39.5733 4.69646 39.6089 4.64201 39.6543 4.5959C39.6997 4.54979 39.7541 4.51296 39.8143 4.48752C39.8744 4.46209 39.9391 4.44857 40.0047 4.44775Z" fill="#3EB562"/>
<path d="M41.4701 2.99284C41.5715 2.98776 41.6721 3.01245 41.759 3.06373C41.8459 3.11501 41.915 3.19053 41.9575 3.28052C42 3.37052 42.0138 3.47088 41.9973 3.56863C41.9807 3.66639 41.9345 3.75706 41.8646 3.82894C41.7947 3.90082 41.7044 3.95061 41.6052 3.97188C41.506 3.99316 41.4026 3.98494 41.3083 3.94829C41.2139 3.91164 41.133 3.84824 41.076 3.76628C41.0189 3.68432 40.9883 3.58755 40.9882 3.48847C40.9865 3.42504 40.9976 3.36191 41.0209 3.30267C41.0441 3.24343 41.0792 3.18925 41.1239 3.14322C41.1687 3.09719 41.2223 3.06022 41.2817 3.03442C41.3411 3.00862 41.4051 2.99449 41.4701 2.99284Z" fill="#3EB562"/>
<path d="M42.9156 2.99268C43.0503 2.99268 43.1795 3.04489 43.2748 3.13784C43.37 3.23079 43.4235 3.35685 43.4235 3.4883C43.4235 3.61975 43.37 3.74582 43.2748 3.83876C43.1795 3.93171 43.0503 3.98393 42.9156 3.98393C42.7809 3.98393 42.6517 3.93171 42.5565 3.83876C42.4612 3.74582 42.4077 3.61975 42.4077 3.4883C42.4077 3.35685 42.4612 3.23079 42.5565 3.13784C42.6517 3.04489 42.7809 2.99268 42.9156 2.99268Z" fill="#3EB562"/>
<path d="M44.3547 4.44775C44.4866 4.45108 44.6118 4.50497 44.7032 4.59772C44.7946 4.69048 44.8449 4.81464 44.8431 4.94331C44.844 5.00672 44.832 5.06968 44.8079 5.12858C44.7839 5.18748 44.7481 5.24118 44.7028 5.28661C44.6574 5.33204 44.6033 5.36831 44.5436 5.39334C44.4839 5.41837 44.4197 5.43169 44.3547 5.43252C44.29 5.4317 44.2261 5.41834 44.1668 5.39323C44.1074 5.36812 44.0538 5.33175 44.0089 5.28623C43.9641 5.24072 43.929 5.18696 43.9056 5.1281C43.8823 5.06923 43.8711 5.00642 43.8729 4.94331C43.8711 4.8799 43.8822 4.81677 43.9055 4.75754C43.9288 4.69831 43.9638 4.64414 44.0085 4.59811C44.0533 4.55209 44.1069 4.51513 44.1663 4.48933C44.2257 4.46353 44.2897 4.4494 44.3547 4.44775Z" fill="#3EB562"/>
<path d="M44.3548 2.99268C44.4895 2.99268 44.6187 3.04489 44.714 3.13784C44.8092 3.23079 44.8628 3.35685 44.8628 3.4883C44.8628 3.61975 44.8092 3.74582 44.714 3.83876C44.6187 3.93171 44.4895 3.98393 44.3548 3.98393C44.2201 3.98393 44.0909 3.93171 43.9957 3.83876C43.9004 3.74582 43.8469 3.61975 43.8469 3.4883C43.8469 3.35685 43.9004 3.23079 43.9957 3.13784C44.0909 3.04489 44.2201 2.99268 44.3548 2.99268Z" fill="#3EB562"/>
<path d="M45.8262 5.92822C45.8909 5.92904 45.9548 5.9424 46.0141 5.96752C46.0735 5.99263 46.1271 6.02901 46.172 6.07454C46.2168 6.12006 46.2519 6.17383 46.2753 6.23271C46.2986 6.29159 46.3098 6.35441 46.3081 6.41753C46.3098 6.48096 46.2987 6.5441 46.2754 6.60334C46.2521 6.66258 46.2171 6.71677 46.1724 6.7628C46.1276 6.80883 46.074 6.8458 46.0146 6.87161C45.9552 6.89741 45.8912 6.91154 45.8262 6.91319C45.6943 6.90986 45.5692 6.85597 45.4777 6.76319C45.3863 6.67041 45.3361 6.54623 45.3378 6.41753C45.337 6.35411 45.3489 6.29114 45.373 6.23222C45.3971 6.17331 45.4328 6.1196 45.4781 6.07416C45.5235 6.02872 45.5776 5.99245 45.6373 5.96741C45.697 5.94237 45.7612 5.92905 45.8262 5.92822Z" fill="#3EB562"/>
<path d="M45.8262 4.44775C45.8912 4.4494 45.9552 4.46353 46.0146 4.48933C46.074 4.51513 46.1276 4.55209 46.1724 4.59811C46.2171 4.64414 46.2521 4.69831 46.2754 4.75754C46.2987 4.81677 46.3098 4.8799 46.3081 4.94331C46.3098 5.00642 46.2986 5.06923 46.2753 5.1281C46.2519 5.18696 46.2168 5.24072 46.172 5.28623C46.1271 5.33175 46.0735 5.36812 46.0141 5.39323C45.9548 5.41834 45.8909 5.4317 45.8262 5.43252C45.7612 5.43169 45.697 5.41837 45.6373 5.39334C45.5776 5.36831 45.5235 5.33204 45.4781 5.28661C45.4328 5.24118 45.3971 5.18748 45.373 5.12858C45.3489 5.06968 45.337 5.00672 45.3378 4.94331C45.3361 4.81464 45.3863 4.69048 45.4777 4.59772C45.5692 4.50497 45.6943 4.45108 45.8262 4.44775Z" fill="#3EB562"/>
<path d="M45.8264 2.99268C45.9611 2.99268 46.0903 3.04489 46.1856 3.13784C46.2808 3.23079 46.3343 3.35685 46.3343 3.4883C46.3343 3.61975 46.2808 3.74582 46.1856 3.83876C46.0903 3.93171 45.9611 3.98393 45.8264 3.98393C45.6917 3.98393 45.5625 3.93171 45.4673 3.83876C45.372 3.74582 45.3185 3.61975 45.3185 3.4883C45.3185 3.35685 45.372 3.23079 45.4673 3.13784C45.5625 3.04489 45.6917 2.99268 45.8264 2.99268Z" fill="#3EB562"/>
<path d="M47.2719 7.42127C47.3731 7.41746 47.4731 7.44327 47.5592 7.49538C47.6452 7.54748 47.7134 7.6235 47.7548 7.71367C47.7963 7.80385 47.8092 7.90405 47.7918 8.00143C47.7745 8.0988 47.7277 8.18889 47.6575 8.26014C47.5873 8.33138 47.4969 8.38052 47.3979 8.40124C47.2989 8.42196 47.1958 8.41332 47.1018 8.37643C47.0079 8.33954 46.9274 8.27608 46.8706 8.19421C46.8139 8.11233 46.7836 8.01578 46.7835 7.91694C46.7818 7.85299 46.7931 7.78934 46.8168 7.72968C46.8405 7.67003 46.876 7.61556 46.9215 7.56944C46.9669 7.52333 47.0213 7.48648 47.0814 7.46104C47.1416 7.43561 47.2063 7.42208 47.2719 7.42127Z" fill="#3EB562"/>
<path d="M47.2719 5.92826C47.3366 5.92908 47.4005 5.94244 47.4599 5.96755C47.5192 5.99267 47.5729 6.02904 47.6177 6.07456C47.6626 6.12009 47.6977 6.17385 47.721 6.23272C47.7444 6.2916 47.7555 6.35442 47.7538 6.41753C47.7512 6.51147 47.7202 6.60258 47.6648 6.67938C47.6093 6.75619 47.5317 6.81527 47.4419 6.8492C47.3521 6.88313 47.254 6.89039 47.16 6.87007C47.066 6.84975 46.9802 6.80276 46.9135 6.735C46.8467 6.66725 46.802 6.58175 46.785 6.48926C46.7679 6.39677 46.7792 6.30143 46.8175 6.21521C46.8558 6.12899 46.9194 6.05575 47.0003 6.00469C47.0811 5.95363 47.1756 5.92704 47.2719 5.92826Z" fill="#3EB562"/>
<path d="M47.2719 4.44775C47.3369 4.4494 47.4009 4.46353 47.4603 4.48933C47.5197 4.51513 47.5733 4.5521 47.6181 4.59812C47.6628 4.64414 47.6979 4.69832 47.7211 4.75755C47.7444 4.81678 47.7555 4.87991 47.7538 4.94333C47.7617 5.01009 47.7551 5.07774 47.7343 5.14183C47.7136 5.20592 47.6792 5.265 47.6334 5.31519C47.5875 5.36538 47.5314 5.40555 47.4685 5.43305C47.4056 5.46055 47.3375 5.47477 47.2687 5.47477C47.1998 5.47477 47.1317 5.46055 47.0688 5.43305C47.006 5.40555 46.9498 5.36538 46.904 5.31519C46.8581 5.265 46.8237 5.20592 46.803 5.14183C46.7822 5.07774 46.7756 5.01009 46.7835 4.94333C46.7818 4.87939 46.7931 4.81575 46.8168 4.75611C46.8405 4.69646 46.8761 4.64201 46.9215 4.5959C46.967 4.54979 47.0213 4.51296 47.0815 4.48752C47.1416 4.46209 47.2064 4.44857 47.2719 4.44775Z" fill="#3EB562"/>
<path d="M47.2719 2.9928C47.3731 2.989 47.4731 3.0148 47.5592 3.0669C47.6452 3.119 47.7134 3.19501 47.7548 3.28518C47.7963 3.37534 47.8092 3.47554 47.7918 3.5729C47.7745 3.67026 47.7277 3.76035 47.6575 3.83158C47.5873 3.90282 47.4969 3.95195 47.3979 3.97267C47.2989 3.99339 47.1958 3.98475 47.1018 3.94786C47.0079 3.91098 46.9274 3.84753 46.8706 3.76566C46.8139 3.68379 46.7836 3.58725 46.7835 3.48843C46.7818 3.42448 46.7931 3.36083 46.8168 3.30118C46.8405 3.24154 46.876 3.18707 46.9215 3.14096C46.9669 3.09485 47.0213 3.05801 47.0814 3.03257C47.1416 3.00714 47.2063 2.99362 47.2719 2.9928Z" fill="#3EB562"/>
<path d="M42.9158 1.46753C42.9808 1.46918 43.0448 1.48331 43.1042 1.50911C43.1636 1.53492 43.2172 1.57189 43.262 1.61792C43.3067 1.66395 43.3417 1.71814 43.365 1.77738C43.3883 1.83662 43.3994 1.89976 43.3977 1.96319C43.3994 2.02631 43.3882 2.08913 43.3649 2.14801C43.3415 2.20689 43.3064 2.26066 43.2616 2.30618C43.2167 2.35171 43.1631 2.38809 43.1037 2.4132C43.0444 2.43832 42.9805 2.45168 42.9158 2.4525C42.8508 2.45167 42.7866 2.43835 42.7269 2.41331C42.6672 2.38827 42.6131 2.352 42.5677 2.30656C42.5224 2.26112 42.4867 2.20741 42.4626 2.1485C42.4385 2.08958 42.4266 2.02661 42.4274 1.96319C42.4257 1.83449 42.4759 1.71031 42.5673 1.61753C42.6588 1.52475 42.7839 1.47086 42.9158 1.46753Z" fill="#3EB562"/>
<path d="M44.3547 1.46753C44.4866 1.47086 44.6118 1.52475 44.7032 1.61753C44.7946 1.71031 44.8449 1.83449 44.8431 1.96319C44.844 2.02661 44.832 2.08958 44.8079 2.1485C44.7839 2.20741 44.7481 2.26112 44.7028 2.30656C44.6574 2.352 44.6033 2.38827 44.5436 2.41331C44.4839 2.43835 44.4197 2.45167 44.3547 2.4525C44.29 2.45168 44.2261 2.43832 44.1668 2.4132C44.1074 2.38809 44.0538 2.35171 44.0089 2.30618C43.9641 2.26066 43.929 2.20689 43.9056 2.14801C43.8823 2.08913 43.8711 2.02631 43.8729 1.96319C43.8711 1.89976 43.8822 1.83662 43.9055 1.77738C43.9288 1.71814 43.9638 1.66395 44.0085 1.61792C44.0533 1.57189 44.1069 1.53492 44.1663 1.50911C44.2257 1.48331 44.2897 1.46918 44.3547 1.46753Z" fill="#3EB562"/>
<path d="M45.8262 1.46753C45.8912 1.46918 45.9552 1.48331 46.0146 1.50911C46.074 1.53492 46.1276 1.57189 46.1724 1.61792C46.2171 1.66395 46.2521 1.71814 46.2754 1.77738C46.2987 1.83662 46.3098 1.89976 46.3081 1.96319C46.3098 2.02631 46.2986 2.08913 46.2753 2.14801C46.2519 2.20689 46.2168 2.26066 46.172 2.30618C46.1271 2.35171 46.0735 2.38809 46.0141 2.4132C45.9548 2.43832 45.8909 2.45168 45.8262 2.4525C45.7612 2.45167 45.697 2.43835 45.6373 2.41331C45.5776 2.38827 45.5235 2.352 45.4781 2.30656C45.4328 2.26112 45.3971 2.20741 45.373 2.1485C45.3489 2.08958 45.337 2.02661 45.3378 1.96319C45.3361 1.83449 45.3863 1.71031 45.4777 1.61753C45.5692 1.52475 45.6943 1.47086 45.8262 1.46753Z" fill="#3EB562"/>
<path d="M48.7697 8.89567C48.8714 8.89058 48.9723 8.91543 49.0593 8.96698C49.1464 9.01854 49.2155 9.09442 49.2578 9.18479C49.3001 9.27516 49.3135 9.37584 49.2965 9.47377C49.2794 9.5717 49.2325 9.66236 49.162 9.73399C49.0914 9.80562 49.0004 9.8549 48.9008 9.87545C48.8012 9.896 48.6976 9.88687 48.6034 9.84924C48.5091 9.8116 48.4287 9.74721 48.3724 9.66441C48.3162 9.58161 48.2867 9.48423 48.2879 9.38489C48.2861 9.2579 48.3357 9.13535 48.4259 9.04378C48.5161 8.95221 48.6396 8.899 48.7697 8.89567Z" fill="#3EB562"/>
<path d="M48.7695 7.42163C48.9042 7.42163 49.0334 7.47384 49.1287 7.56678C49.2239 7.65972 49.2774 7.78577 49.2774 7.91721C49.2774 8.04864 49.2239 8.17469 49.1287 8.26763C49.0334 8.36057 48.9042 8.41278 48.7695 8.41278C48.6348 8.41278 48.5056 8.36057 48.4104 8.26763C48.3151 8.17469 48.2616 8.04864 48.2616 7.91721C48.2616 7.78577 48.3151 7.65972 48.4104 7.56678C48.5056 7.47384 48.6348 7.42163 48.7695 7.42163Z" fill="#3EB562"/>
<path d="M48.7696 5.92822C48.8346 5.92905 48.8988 5.94237 48.9585 5.96741C49.0183 5.99245 49.0723 6.02872 49.1177 6.07416C49.163 6.1196 49.1988 6.17331 49.2228 6.23222C49.2469 6.29114 49.2589 6.35411 49.258 6.41753C49.2598 6.54623 49.2095 6.67041 49.1181 6.76319C49.0267 6.85597 48.9015 6.90986 48.7696 6.91319C48.7046 6.91154 48.6406 6.89741 48.5812 6.87161C48.5218 6.8458 48.4682 6.80883 48.4235 6.7628C48.3787 6.71677 48.3437 6.66258 48.3204 6.60334C48.2971 6.5441 48.286 6.48096 48.2878 6.41753C48.286 6.35441 48.2972 6.29159 48.3205 6.23271C48.3439 6.17383 48.379 6.12006 48.4238 6.07454C48.4687 6.02901 48.5223 5.99263 48.5817 5.96752C48.6411 5.9424 48.7049 5.92904 48.7696 5.92822Z" fill="#3EB562"/>
<path d="M48.7696 4.44775C48.9015 4.45108 49.0267 4.50497 49.1181 4.59772C49.2095 4.69048 49.2598 4.81464 49.258 4.94331C49.2589 5.00672 49.2469 5.06968 49.2228 5.12858C49.1988 5.18748 49.163 5.24118 49.1177 5.28661C49.0723 5.33204 49.0183 5.36831 48.9585 5.39334C48.8988 5.41837 48.8346 5.43169 48.7696 5.43252C48.7049 5.4317 48.6411 5.41834 48.5817 5.39323C48.5223 5.36812 48.4687 5.33175 48.4238 5.28623C48.379 5.24072 48.3439 5.18696 48.3205 5.1281C48.2972 5.06923 48.286 5.00642 48.2878 4.94331C48.286 4.8799 48.2971 4.81677 48.3204 4.75754C48.3437 4.69831 48.3787 4.64414 48.4235 4.59811C48.4682 4.55209 48.5218 4.51513 48.5812 4.48933C48.6406 4.46353 48.7046 4.4494 48.7696 4.44775Z" fill="#3EB562"/>
<path d="M44.3547 0C44.4866 0.00333127 44.6118 0.0572176 44.7032 0.149984C44.7946 0.242751 44.8449 0.366927 44.8431 0.495609C44.8431 0.623196 44.7921 0.745752 44.7009 0.837148C44.6096 0.928545 44.4854 0.981551 44.3547 0.984865C44.2246 0.981534 44.1011 0.928317 44.0109 0.836742C43.9207 0.745167 43.8711 0.622607 43.8729 0.495609C43.8711 0.432188 43.8822 0.369055 43.9055 0.309819C43.9288 0.250582 43.9638 0.196403 44.0085 0.150377C44.0533 0.104351 44.1069 0.0673801 44.1663 0.0415777C44.2257 0.0157754 44.2897 0.00164703 44.3547 0" fill="#3EB562"/>
</svg>
