<?xml version="1.0" encoding="utf-8"?>
<!-- Generator: Adobe Illustrator 16.0.0, SVG Export Plug-In . SVG Version: 6.00 Build 0)  -->
<!DOCTYPE svg PUBLIC "-//W3C//DTD SVG 1.1//EN" "http://www.w3.org/Graphics/SVG/1.1/DTD/svg11.dtd">
<svg version="1.1" id="Layer_1" xmlns="http://www.w3.org/2000/svg" xmlns:xlink="http://www.w3.org/1999/xlink" x="0px" y="0px"
	 width="60px" height="60px" viewBox="0 0 60 60" enable-background="new 0 0 60 60" xml:space="preserve">
<rect fill="none" width="60" height="60"/>
<g>
	<path fill="#FFFFFF" d="M48.25,40.3c-0.733-1.541-1.559-3.037-2.471-4.479c2.681-8.94-4.619-18-5.399-18.94l2.931,2.92
		C43.311,19.8,52.5,30.4,48.25,40.3z"/>
	<path fill="#FFFFFF" d="M21.384,23.336c0.392,0.388,1.023,0.388,1.415,0l2.828-2.829l-1.414-1.414l-2.829,2.828
		C20.996,22.313,20.996,22.944,21.384,23.336z"/>
	<path fill="#FFFFFF" d="M0.883,42.423L2.3,43.837l14.842-14.845c0.379-0.393,0.374-1.016-0.012-1.402s-1.009-0.391-1.402-0.012
		L0.883,42.423z"/>
	<path fill="#FFFFFF" d="M19.97,26.164c0.185-0.189,0.292-0.442,0.3-0.707l-0.021-0.191c-0.012-0.066-0.034-0.13-0.063-0.191
		c-0.02-0.061-0.049-0.118-0.086-0.17c-0.039-0.055-0.081-0.106-0.127-0.155c-0.189-0.186-0.442-0.293-0.707-0.3
		c-0.337-0.007-0.654,0.159-0.84,0.44s-0.216,0.637-0.079,0.945c0.048,0.122,0.12,0.232,0.212,0.326
		c0.186,0.19,0.441,0.297,0.707,0.297s0.521-0.107,0.707-0.297L19.97,26.164z"/>
	<path fill="#FFFFFF" d="M5.829,50.37c-0.794,0.001-1.557-0.312-2.121-0.87l-2.827-2.834c-0.566-0.563-0.885-1.327-0.884-2.125
		c0.001-0.799,0.322-1.563,0.89-2.123c0.398-0.347,0.998-0.323,1.369,0.053c0.371,0.377,0.384,0.978,0.031,1.37
		c-0.189,0.186-0.295,0.438-0.295,0.704c0,0.264,0.106,0.518,0.295,0.703l2.827,2.836c0.39,0.391,1.023,0.391,1.414,0l22.637-22.633
		l-4.952-4.944c-0.26-0.251-0.364-0.623-0.273-0.972c0.091-0.35,0.364-0.623,0.714-0.715s0.722,0.012,0.973,0.272l5.661,5.651
		c0.391,0.39,0.391,1.023,0,1.414L7.947,49.5C7.385,50.061,6.623,50.373,5.829,50.37z"/>
	<path fill="#FFFFFF" d="M48.25,41.3c-0.393,0.001-0.749-0.229-0.911-0.587c-2.542-5.126-5.851-9.834-9.812-13.962
		c-0.191-0.193-0.451-0.301-0.723-0.3H30.58c-0.265,0-0.519-0.105-0.706-0.292l-5.661-5.651c-0.188-0.188-0.293-0.441-0.293-0.707
		v-6.226c0.002-0.271-0.106-0.532-0.3-0.722c-4.126-3.967-8.836-7.279-13.964-9.822C9.295,2.867,9.065,2.506,9.069,2.109
		c0.004-0.396,0.242-0.752,0.606-0.908c10.355-4.434,21.106,4.721,21.559,5.113l12.783,12.779c0.44,0.5,9.6,11.244,5.151,21.601
		c-0.157,0.361-0.513,0.596-0.907,0.6L48.25,41.3z M30.994,24.45H36.8c0.813,0,1.593,0.328,2.161,0.911
		c3.551,3.701,6.604,7.849,9.083,12.339c1.917-8.543-5.409-17.155-5.489-17.249L29.873,7.777c-0.045-0.035-8.655-7.36-17.2-5.449
		c4.492,2.479,8.641,5.535,12.342,9.088c0.581,0.568,0.908,1.346,0.909,2.159v5.81L30.994,24.45z"/>
	<path fill="#FFFFFF" d="M40.48,17.97c-0.266,0-0.52-0.105-0.707-0.293l-7.07-7.07c-0.391-0.391-0.391-1.023,0-1.414l2.12-2.12
		c0.556-0.566,1.315-0.885,2.108-0.885h0.01c0.798-0.001,1.563,0.317,2.125,0.884l4.24,4.241c1.17,1.173,1.17,3.071,0,4.244
		l-2.119,2.12C41,17.865,40.745,17.97,40.48,17.97z M34.824,9.9l5.656,5.656l1.412-1.413c0.188-0.188,0.295-0.442,0.295-0.708
		s-0.106-0.521-0.295-0.708l-4.24-4.24c-0.188-0.192-0.445-0.3-0.715-0.3c-0.264,0-0.516,0.105-0.699,0.294L34.824,9.9z"/>
	<path fill="#FFFFFF" d="M58,60H29c-1.104,0-2-0.896-2-2v-1.76c-0.003-1.061,0.418-2.077,1.17-2.824l2.243-2.243
		c0.749-0.753,1.769-1.176,2.832-1.173H36v-2c0-2.209,1.791-4,4-4h0.54l1.981-2.311C42.83,41.326,43,40.866,43,40.391V38.27
		c0.002-1.08,0.439-2.115,1.214-2.869l0.66-0.641c0.257-0.248,0.628-0.341,0.972-0.242c0.344,0.098,0.609,0.373,0.695,0.72
		c0.088,0.347-0.018,0.714-0.275,0.963l-0.66,0.64c-0.386,0.376-0.604,0.892-0.605,1.43v2.121c-0.001,0.952-0.341,1.874-0.959,2.6
		l-2.282,2.662C41.568,45.873,41.291,46,41,46h-1c-1.104,0-2,0.896-2,2v3c0,0.553-0.447,1-1,1h-3.755
		c-0.532-0.002-1.043,0.21-1.418,0.587l-2.243,2.243c-0.375,0.373-0.585,0.881-0.584,1.41V58h29V30h-4.529
		c-0.52-0.003-1.02,0.2-1.39,0.563l-2.245,2.176c-0.396,0.385-1.031,0.374-1.415-0.023c-0.384-0.396-0.374-1.03,0.022-1.415
		l2.24-2.17c0.744-0.729,1.745-1.135,2.787-1.13H58c1.104,0,2,0.896,2,2v28C60,59.104,59.104,60,58,60z"/>
	<path fill="#FFFFFF" d="M43.5,54.5c-0.266,0-0.52-0.105-0.707-0.293l-1.329-1.329C40.9,52.317,40.139,52.002,39.343,52H37
		c-0.553,0-1-0.447-1-1s0.447-1,1-1h2.343c1.327-0.004,2.6,0.523,3.535,1.464l1.329,1.329c0.285,0.286,0.371,0.716,0.217,1.09
		C44.27,54.256,43.904,54.5,43.5,54.5z"/>
	<path fill="#FFFFFF" d="M45,46h-4c-0.553,0-1-0.447-1-1s0.447-1,1-1h4c0.553,0,1,0.447,1,1S45.553,46,45,46z"/>
	<path fill="#FFFFFF" d="M52,49c-0.553,0-1-0.447-1-1v-2c0-0.553,0.447-1,1-1s1,0.447,1,1v2C53,48.553,52.553,49,52,49z"/>
	<path fill="#FFFFFF" d="M52,55c-0.553,0-1-0.447-1-1v-2c0-0.553,0.447-1,1-1s1,0.447,1,1v2C53,54.553,52.553,55,52,55z"/>
	<path fill="#FFFFFF" d="M50,51h-2c-0.553,0-1-0.447-1-1s0.447-1,1-1h2c0.553,0,1,0.447,1,1S50.553,51,50,51z"/>
	<path fill="#FFFFFF" d="M56,51h-2c-0.553,0-1-0.447-1-1s0.447-1,1-1h2c0.553,0,1,0.447,1,1S56.553,51,56,51z"/>
	<path fill="#FFFFFF" d="M55,38c-0.553,0-1-0.447-1-1v-1c0-0.553,0.447-1,1-1s1,0.447,1,1v1C56,37.553,55.553,38,55,38z"/>
	<path fill="#FFFFFF" d="M55,43c-0.553,0-1-0.447-1-1v-1c0-0.553,0.447-1,1-1s1,0.447,1,1v1C56,42.553,55.553,43,55,43z"/>
	<path fill="#FFFFFF" d="M53,40h-1c-0.553,0-1-0.447-1-1s0.447-1,1-1h1c0.553,0,1,0.447,1,1S53.553,40,53,40z"/>
	<path fill="#FFFFFF" d="M33,56c-0.266-0.002-0.52-0.105-0.71-0.29c-0.387-0.394-0.387-1.026,0-1.42
		c0.288-0.284,0.718-0.366,1.09-0.21c0.121,0.051,0.233,0.121,0.33,0.21c0.387,0.394,0.387,1.026,0,1.42
		c-0.097,0.089-0.209,0.159-0.33,0.21C33.26,55.971,33.131,55.998,33,56z"/>
	<path fill="#FFFFFF" d="M39,56h-2c-0.553,0-1-0.447-1-1s0.447-1,1-1h2c0.553,0,1,0.447,1,1S39.553,56,39,56z"/>
	<path fill="#FFFFFF" d="M10.02,47.02c-0.265,0-0.52-0.105-0.707-0.293l-2.02-2.02c-0.26-0.251-0.364-0.623-0.272-0.973
		c0.091-0.35,0.364-0.623,0.714-0.714c0.35-0.092,0.722,0.013,0.973,0.272l2.02,2.02c0.286,0.287,0.372,0.717,0.217,1.09
		C10.789,46.776,10.424,47.02,10.02,47.02z"/>
	<path fill="#FFFFFF" d="M13.52,43.52c-0.265,0-0.52-0.105-0.707-0.293l-3.52-3.52c-0.379-0.393-0.374-1.016,0.012-1.402
		c0.386-0.385,1.009-0.391,1.402-0.012l3.52,3.52c0.286,0.287,0.372,0.717,0.217,1.09C14.289,43.276,13.924,43.52,13.52,43.52z"/>
	<path fill="#FFFFFF" d="M18.02,39.02c-0.265,0-0.52-0.105-0.707-0.293l-2.02-2.02c-0.379-0.393-0.374-1.016,0.012-1.402
		c0.386-0.385,1.009-0.391,1.402-0.012l2.02,2.02c0.286,0.287,0.372,0.717,0.217,1.09C18.789,38.776,18.424,39.02,18.02,39.02z"/>
</g>
</svg>
