<?xml version="1.0" encoding="utf-8"?>
<!-- Generator: Adobe Illustrator 16.0.0, SVG Export Plug-In . SVG Version: 6.00 Build 0)  -->
<!DOCTYPE svg PUBLIC "-//W3C//DTD SVG 1.1//EN" "http://www.w3.org/Graphics/SVG/1.1/DTD/svg11.dtd">
<svg version="1.1" id="Layer_1" xmlns="http://www.w3.org/2000/svg" xmlns:xlink="http://www.w3.org/1999/xlink" x="0px" y="0px"
	 width="60px" height="60px" viewBox="0 0 60 60" enable-background="new 0 0 60 60" xml:space="preserve">
<rect fill="none" width="60" height="60"/>
<g>
	<path fill="#FFFFFF" d="M57.512,24.753l-3.182-0.521c-0.611-2.6-1.643-5.082-3.052-7.35l1.882-2.626
		c0.739-1.011,0.717-2.39-0.055-3.377c-0.591-0.732-1.225-1.429-1.899-2.086c-0.667-0.676-1.37-1.315-2.106-1.917
		c-0.983-0.758-2.35-0.773-3.351-0.038l-2.631,1.884c-2.269-1.41-4.751-2.441-7.351-3.052l-0.521-3.184
		c-0.193-1.235-1.185-2.191-2.426-2.341c-1.884-0.194-3.782-0.194-5.666,0c-1.232,0.159-2.21,1.114-2.4,2.342L24.232,5.67
		c-2.6,0.611-5.082,1.642-7.35,3.052L14.256,6.84c-1.011-0.739-2.39-0.717-3.377,0.054c-0.724,0.592-1.416,1.222-2.074,1.887
		c-0.682,0.664-1.322,1.368-1.919,2.109c-0.763,0.985-0.782,2.356-0.048,3.363l1.884,2.629c-1.41,2.268-2.441,4.75-3.052,7.35
		l-3.184,0.522c-1.227,0.197-2.176,1.181-2.33,2.414c-0.209,1.885-0.209,3.787,0,5.671c0.056,0.443,0.219,0.866,0.476,1.231
		C-0.139,35.104-0.2,36.504,0.477,37.6c0.421,0.684,1.103,1.166,1.887,1.336s1.604,0.013,2.271-0.436L6,37.594V49
		c0,0.553,0.448,1,1,1s1-0.447,1-1V36.271l22-14.542l22,14.542V57c0,0.553-0.447,1-1,1H27V44c0-1.656-1.343-3-3-3h-8
		c-1.657,0-3,1.344-3,3v14H9c-0.552,0-1-0.447-1-1s-0.448-1-1-1s-1,0.447-1,1c0,1.656,1.343,3,3,3h42c1.656,0,3-1.344,3-3V37.593
		l1.355,0.9c0.652,0.449,1.461,0.612,2.236,0.45c0.799-0.166,1.496-0.651,1.928-1.344l0.006-0.01
		c0.674-1.096,0.61-2.491-0.159-3.521c0.259-0.369,0.423-0.794,0.478-1.24c0.209-1.882,0.209-3.781,0-5.663
		C59.688,25.933,58.738,24.95,57.512,24.753z M15,58V44c0-0.553,0.448-1,1-1h8c0.552,0,1,0.447,1,1v14H15z M2.145,27.392
		c0.05-0.345,0.322-0.616,0.667-0.664l3.849-0.63c0.409-0.067,0.734-0.38,0.818-0.786c0.581-2.823,1.697-5.508,3.286-7.912
		c0.228-0.346,0.218-0.796-0.023-1.133l-2.281-3.183c-0.209-0.277-0.215-0.659-0.015-0.943c0.548-0.679,1.136-1.325,1.761-1.934
		c0.607-0.612,1.245-1.194,1.91-1.743c0.286-0.218,0.684-0.218,0.97,0l3.18,2.279c0.336,0.241,0.787,0.25,1.133,0.023
		c2.404-1.589,5.089-2.705,7.912-3.286c0.406-0.083,0.719-0.409,0.786-0.818l0.629-3.847c0.045-0.345,0.311-0.621,0.654-0.679
		c1.733-0.177,3.48-0.177,5.215,0c0.352,0.051,0.627,0.328,0.676,0.68l0.631,3.849c0.066,0.409,0.379,0.735,0.785,0.818
		c2.822,0.58,5.508,1.694,7.912,3.282c0.346,0.228,0.797,0.218,1.133-0.023l3.184-2.281c0.275-0.215,0.66-0.221,0.943-0.015
		c0.678,0.558,1.328,1.149,1.945,1.773c0.617,0.603,1.199,1.241,1.741,1.911c0.208,0.287,0.204,0.675-0.009,0.957l-2.279,3.18
		c-0.241,0.336-0.25,0.787-0.022,1.133c1.589,2.404,2.704,5.089,3.286,7.912c0.083,0.406,0.408,0.719,0.817,0.786l3.847,0.629
		c0.347,0.048,0.619,0.32,0.67,0.666c0.192,1.73,0.192,3.478,0,5.208c-0.014,0.069-0.039,0.137-0.073,0.199l-7.959-5.266
		C48.592,17.522,40.086,10,29.999,10c-10.088,0-18.592,7.522-19.825,17.535L2.219,32.8c-0.035-0.06-0.06-0.123-0.074-0.19
		c-0.193-1.732-0.193-3.481,0-5.214V27.392z M47.538,26.019L31.646,15.5c-0.992-0.672-2.293-0.672-3.286,0L12.454,26.025
		c1.851-8.199,9.134-14.023,17.54-14.024S45.685,17.82,47.538,26.019z M57.832,36.529c-0.145,0.232-0.377,0.395-0.643,0.451
		c-0.251,0.051-0.512-0.004-0.721-0.152L30.552,19.7c-0.334-0.218-0.766-0.218-1.1,0L3.521,36.835
		c-0.217,0.146-0.484,0.196-0.739,0.14c-0.255-0.057-0.476-0.215-0.611-0.439c-0.316-0.494-0.193-1.148,0.281-1.494l27.021-17.879
		C29.628,17.057,29.812,17,30,17c0.192,0.001,0.379,0.059,0.537,0.167L57.54,35.036C58.018,35.378,58.146,36.033,57.832,36.529z"/>
	<path fill="#FFFFFF" d="M7,54c0.552,0,1-0.447,1-1s-0.448-1-1-1s-1,0.447-1,1S6.448,54,7,54z"/>
	<path fill="#FFFFFF" d="M30,27c-3.313,0-6,2.687-6,6s2.687,6,6,6c3.314,0,6-2.687,6-6C35.996,29.688,33.313,27.003,30,27z M30,37
		c-2.209,0-4-1.791-4-4s1.791-4,4-4s4,1.791,4,4S32.209,37,30,37z"/>
	<path fill="#FFFFFF" d="M18,51c0.552,0,1-0.447,1-1s-0.448-1-1-1s-1,0.447-1,1S17.448,51,18,51z"/>
	<path fill="#FFFFFF" d="M31,44v6c0,1.656,1.344,3,3,3h10c1.656,0,3-1.344,3-3v-6c0-1.656-1.344-3-3-3H34C32.344,41,31,42.344,31,44
		z M45,44v6c0,0.553-0.447,1-1,1H34c-0.553,0-1-0.447-1-1v-6c0-0.553,0.447-1,1-1h10C44.553,43,45,43.447,45,44z"/>
</g>
</svg>
