<?xml version="1.0" encoding="utf-8"?>
<!-- Generator: Adobe Illustrator 16.0.0, SVG Export Plug-In . SVG Version: 6.00 Build 0)  -->
<!DOCTYPE svg PUBLIC "-//W3C//DTD SVG 1.1//EN" "http://www.w3.org/Graphics/SVG/1.1/DTD/svg11.dtd">
<svg version="1.1" id="Layer_1" xmlns="http://www.w3.org/2000/svg" xmlns:xlink="http://www.w3.org/1999/xlink" x="0px" y="0px"
	 width="60px" height="60px" viewBox="0 0 60 60" enable-background="new 0 0 60 60" xml:space="preserve">
<rect fill="none" width="60" height="60"/>
<g>
	<path fill="#FFFFFF" d="M10.109,48.255c-0.357,0.002-0.688-0.188-0.868-0.496c-0.18-0.309-0.182-0.689-0.004-1
		c0.177-0.31,0.506-0.502,0.864-0.504h0.009c0.552,0,1,0.448,1,1S10.661,48.255,10.109,48.255z"/>
	<path fill="#FFFFFF" d="M59.359,52.971l-2.869-2.66c-0.896-0.83-2.076-1.289-3.299-1.283c-2.984-3.248-6.761-5.666-10.959-7.02
		c0.238-1.023,0.492-2.013,0.772-2.916c0.619-2.144,1.571-4.178,2.821-6.025l9.055,7.699c0.265,0.225,0.627,0.297,0.957,0.189
		c0.329-0.107,0.58-0.378,0.662-0.715c0.055-0.223,1.3-5.475-2.9-9.043c-0.193-0.164-0.39-0.301-0.586-0.444l6.116-0.811
		c0.335-0.044,0.624-0.255,0.771-0.56c0.145-0.305,0.127-0.662-0.049-0.951c-1.836-2.823-5.129-4.343-8.47-3.909
		c-1.513,0.2-2.95,0.782-4.176,1.691c0.058-1.529-0.276-3.047-0.972-4.411c-1.525-3.001-4.633-4.866-8-4.8
		c-0.338,0.017-0.645,0.203-0.814,0.495c-0.171,0.292-0.182,0.651-0.03,0.954l2.86,5.69c-0.312-0.116-0.629-0.214-0.951-0.294
		c-5.343-1.338-8.914,2.715-9.064,2.888c-0.226,0.263-0.3,0.624-0.195,0.955s0.374,0.583,0.71,0.667l10.289,2.582
		c-1.51,1.408-2.838,2.999-3.954,4.736c-0.944,1.465-1.764,3.007-2.448,4.61c-0.984-0.117-1.98-0.2-2.988-0.247
		c-1.061-4.014-2.744-7.836-4.99-11.327c-1.364-2.104-2.998-4.021-4.861-5.7l12.437-3.087c0.338-0.083,0.607-0.337,0.713-0.669
		c0.104-0.332,0.029-0.695-0.199-0.958c-0.174-0.2-4.3-4.847-10.5-3.314c-0.526,0.134-1.041,0.309-1.539,0.525L26.3,8.455
		c0.155-0.303,0.146-0.664-0.025-0.958c-0.171-0.294-0.48-0.481-0.82-0.497c-2.865-0.059-5.623,1.093-7.595,3.173
		c-1.972,2.079-2.977,4.893-2.768,7.751c-1.491-1.165-3.268-1.907-5.145-2.15c-3.853-0.493-7.651,1.243-9.8,4.478
		C-0.03,20.541-0.05,20.9,0.096,21.207s0.438,0.518,0.774,0.562l7.632,1c-0.355,0.23-0.696,0.481-1.02,0.752
		c-4.871,4.1-3.422,10.131-3.358,10.387c0.084,0.334,0.334,0.602,0.662,0.708c0.099,0.032,0.203,0.048,0.308,0.049
		c0.235-0.001,0.463-0.083,0.643-0.235l10.825-9.105c1.545,2.201,2.713,4.643,3.455,7.228c0.831,2.722,1.444,5.505,1.834,8.324
		c-3.12,0.651-6.127,1.761-8.923,3.29c-0.237,0.127-0.411,0.345-0.483,0.604c-0.071,0.26-0.034,0.536,0.104,0.767
		c0.279,0.467,0.876,0.632,1.355,0.375C18.857,43.279,24.392,41.934,30,42c8.52,0,16.391,2.876,20.988,7.579
		c-0.393,0.192-0.756,0.438-1.08,0.731l-0.576,0.535c-1.092,1.004-2.771,1.004-3.864,0l-0.575-0.535
		c-1.861-1.711-4.723-1.711-6.584,0l-0.576,0.535c-1.093,1.004-2.772,1.004-3.865,0l-0.576-0.533c-1.861-1.711-4.722-1.711-6.582,0
		l-0.577,0.535c-1.092,1.004-2.771,1.004-3.864,0l-0.577-0.535c-1.861-1.711-4.722-1.711-6.583,0l-0.576,0.535
		c-1.092,1.004-2.772,1.004-3.864,0l-0.576-0.535c-1.86-1.711-4.723-1.711-6.583,0L0.64,52.971C0.232,53.35,0,53.881,0,54.438V58
		c0,1.104,0.896,2,2,2h56c1.104,0,2-0.896,2-2v-3.563C59.999,53.881,59.768,53.35,59.359,52.971L59.359,52.971z M54.715,38
		L46.8,31.27c1.962-0.375,3.987,0.158,5.509,1.453C53.844,34.045,54.723,35.973,54.715,38z M51.646,26.505
		c1.964-0.28,3.949,0.345,5.399,1.7l-7.847,1.036c-0.768-0.097-1.545-0.097-2.313,0C48.055,27.742,49.764,26.76,51.646,26.505z
		 M44.445,22.705c0.859,1.724,1,3.717,0.392,5.544c-0.313-0.597-0.69-1.158-1.124-1.673l-3.7-7.372
		c1.933,0.434,3.563,1.719,4.437,3.496L44.445,22.705z M38.814,25.792c1.938,0.479,3.551,1.813,4.385,3.624l-10.084-2.53
		c1.651-1.176,3.732-1.577,5.703-1.099L38.814,25.792z M44.268,31.752l0.025,0.021c-1.264,1.813-2.249,3.805-2.923,5.91
		c-0.917-0.124-1.74-0.625-2.271-1.384c1.201-1.796,2.665-3.401,4.342-4.765L44.268,31.752z M37.979,38.122
		c0.767,0.76,1.741,1.274,2.801,1.479c-0.164,0.586-0.318,1.188-0.465,1.81c-1.186-0.333-2.388-0.605-3.601-0.817
		c0.391-0.857,0.813-1.683,1.269-2.477L37.979,38.122z M24.739,16.923c2.498-0.604,5.135-0.047,7.175,1.516l-12.59,3.126
		C20.298,19.252,22.304,17.533,24.739,16.923z M17.986,13.412c1.125-2.242,3.244-3.82,5.714-4.254l-4.531,8.922
		c-0.604,0.709-1.114,1.493-1.516,2.334C16.773,18.137,16.895,15.595,17.986,13.412z M2.928,20.021
		c1.773-1.774,4.276-2.612,6.76-2.264c2.406,0.324,4.575,1.62,6,3.586c-1.039-0.172-2.097-0.193-3.142-0.061L2.928,20.021z
		 M5.872,31.7c-0.107-2.545,0.962-4.999,2.9-6.652c1.954-1.596,4.53-2.211,6.994-1.669L5.872,31.7z M18.094,24.032l0.175-0.147
		l1.133-0.281c2.042,1.629,3.82,3.564,5.271,5.737c-0.682,1.029-1.792,1.695-3.021,1.812c-0.802-2.545-2.003-4.948-3.558-7.117
		V24.032z M22.248,33.072c1.375-0.224,2.636-0.905,3.576-1.934c1.616,2.788,2.875,5.77,3.748,8.871
		c-1.927,0.025-3.851,0.189-5.755,0.491c-0.358-2.507-0.883-4.987-1.569-7.426V33.072z M58,58H2v-3.563l2.868-2.66
		c1.092-1.005,2.772-1.005,3.864,0l0.577,0.535c1.861,1.71,4.722,1.71,6.583,0l0.576-0.535c1.092-1.004,2.771-1.004,3.864,0
		l0.576,0.535c1.861,1.711,4.722,1.711,6.583,0l0.577-0.535c1.092-1.006,2.772-1.006,3.864,0l0.577,0.533
		c1.86,1.711,4.723,1.711,6.583,0l0.576-0.535c1.092-1.004,2.771-1.004,3.863,0l0.576,0.535c1.861,1.71,4.723,1.71,6.584,0
		l0.576-0.535c1.092-1.006,2.772-1.006,3.864,0L58,54.438V58z"/>
	<path fill="#FFFFFF" d="M52,0c-4.418,0-8,3.582-8,8s3.582,8,8,8s8-3.582,8-8C59.995,3.584,56.416,0.005,52,0z M52,14
		c-3.314,0-6-2.687-6-6s2.686-6,6-6c3.313,0,6,2.687,6,6C57.996,11.313,55.313,13.997,52,14z"/>
</g>
</svg>
