<?xml version="1.0" encoding="utf-8"?>
<!-- Generator: Adobe Illustrator 16.0.0, SVG Export Plug-In . SVG Version: 6.00 Build 0)  -->
<!DOCTYPE svg PUBLIC "-//W3C//DTD SVG 1.1//EN" "http://www.w3.org/Graphics/SVG/1.1/DTD/svg11.dtd">
<svg version="1.1" id="Layer_1" xmlns="http://www.w3.org/2000/svg" xmlns:xlink="http://www.w3.org/1999/xlink" x="0px" y="0px"
	 width="60px" height="60px" viewBox="0 0 60 60" enable-background="new 0 0 60 60" xml:space="preserve">
<g>
	<path fill="#FFFFFF" d="M1,17c0.552,0,1-0.448,1-1s-0.448-1-1-1s-1,0.448-1,1S0.448,17,1,17z"/>
	<path fill="#FFFFFF" d="M58,49h-5v-5c0-1.104-0.896-2-2-2h-5v-5c0-1.104-0.896-2-2-2h-4V7c-0.004-2.76-2.24-4.997-5-5H10
		C9.737,2.009,9.486,2.113,9.293,2.293l-9,9c-0.279,0.289-0.36,0.715-0.207,1.085S0.599,12.993,1,13h5c2.76-0.003,4.997-2.24,5-5V4
		h24c1.656,0,3,1.343,3,3v28h-6c-1.104,0-2,0.896-2,2v5h-5c-1.104,0-2,0.896-2,2v5h-5c-1.104,0-2,0.896-2,2v1H5
		c-1.657,0-3-1.344-3-3V20c0-0.552-0.448-1-1-1s-1,0.448-1,1v29c0.003,2.76,2.24,4.996,5,5h11v2c0,1.104,0.896,2,2,2h12
		c0.352-0.002,0.697-0.098,1-0.277c0.303,0.18,0.648,0.275,1,0.277h12c0.352-0.002,0.697-0.098,1-0.277
		c0.303,0.18,0.648,0.275,1,0.277h12c1.104,0,2-0.896,2-2v-5C60,49.896,59.104,49,58,49z M9,8c0,1.657-1.343,3-3,3H3.414L9,5.414V8z
		 M32,37h12v5H32V37z M30,56H18v-5h12V56z M25,49v-5h12v5H25z M44,56H32v-5h12V56z M39,49v-5h12v5H39z M46,56v-5h12v5H46z"/>
	<path fill="#FFFFFF" d="M28,10h-2c-1.104,0-2,0.896-2,2v0.223l-2.731-2.208c-0.743-0.592-1.796-0.592-2.539,0L7.741,18.9
		c-0.414,0.336-0.676,0.823-0.729,1.353c-0.053,0.53,0.107,1.06,0.446,1.471L8.74,23.27c0.318,0.382,0.768,0.631,1.26,0.7V33
		c0,1.656,1.343,3,3,3h14c1.657,0,3-1.344,3-3v-9.03c0.492-0.069,0.941-0.318,1.26-0.7l1.282-1.548
		c0.34-0.411,0.501-0.94,0.448-1.471c-0.054-0.53-0.317-1.017-0.732-1.352L30,17.075V12C30,10.896,29.104,10,28,10z M26,12h2v3.458
		l-2-1.618V12z M22,34h-4v-5c0-0.552,0.448-1,1-1h2c0.552,0,1,0.448,1,1V34z M28,33c0,0.553-0.448,1-1,1h-3v-5c0-1.657-1.343-3-3-3
		h-2c-1.657,0-3,1.343-3,3v5h-3c-0.552,0-1-0.447-1-1v-9.8l8-6.344l8,6.345V33z M31,20.447L29.719,22
		c-0.006,0.004-0.014,0.004-0.021,0c-0.007-0.007-0.017-0.009-0.024-0.016L20.621,14.8c-0.364-0.288-0.878-0.288-1.242,0L10.281,22
		L9,20.455l11.012-8.885L31,20.447z"/>
	<path fill="#FFFFFF" d="M5,40c0,0.553,0.448,1,1,1h13c0.552,0,1-0.447,1-1s-0.448-1-1-1H6C5.448,39,5,39.447,5,40z"/>
	<path fill="#FFFFFF" d="M6,45h13c0.552,0,1-0.447,1-1s-0.448-1-1-1H6c-0.552,0-1,0.447-1,1S5.448,45,6,45z"/>
</g>
</svg>
