<?xml version="1.0" encoding="utf-8"?>
<!-- Generator: Adobe Illustrator 16.0.0, SVG Export Plug-In . SVG Version: 6.00 Build 0)  -->
<!DOCTYPE svg PUBLIC "-//W3C//DTD SVG 1.1//EN" "http://www.w3.org/Graphics/SVG/1.1/DTD/svg11.dtd">
<svg version="1.1" id="Layer_1" xmlns="http://www.w3.org/2000/svg" xmlns:xlink="http://www.w3.org/1999/xlink" x="0px" y="0px"
	 width="60px" height="60px" viewBox="0 0 60 60" enable-background="new 0 0 60 60" xml:space="preserve">
<rect fill="none" width="60" height="60"/>
<g>
	<path fill="#FFFFFF" d="M3,19h5c0.849-0.002,1.656-0.367,2.22-1H12v40c0.001,0.434,0.145,0.855,0.409,1.2
		c0.016,0.021,0.033,0.042,0.051,0.062C12.835,59.727,13.401,59.998,14,60h4c1.104,0,2-0.896,2-2V18h35v16.183
		c-1.198,0.418-2.002,1.548-2.002,2.816c0,1.27,0.804,2.398,2.002,2.816V41c0,0.553,0.447,1,1,1c0.552,0,1,0.448,1,1
		c0,0.553-0.448,1-1,1c-0.553,0-1-0.447-1-1c0-0.552-0.448-1-1-1c-0.553,0-1,0.448-1,1c0,1.525,1.146,2.809,2.661,2.98
		s2.919-0.82,3.262-2.307c0.343-1.487-0.485-2.994-1.923-3.502v-0.355c1.197-0.418,2.001-1.547,2.001-2.816
		c0-1.269-0.804-2.398-2.001-2.816V18h2c0.44,0,0.83-0.289,0.957-0.71c0.128-0.422-0.035-0.877-0.402-1.122L51.06,10.5
		c-0.122-0.082-0.25-0.154-0.383-0.217c-0.231-0.225-0.559-0.321-0.875-0.257C49.668,10.009,49.534,10,49.4,10H39.162L18.844,3.228
		C18.533,2.484,17.806,2.001,17,2V1c0-0.552-0.448-1-1-1s-1,0.448-1,1v1c-1.104,0-2,0.896-2,2v6h-2.78C9.656,9.367,8.849,9.003,8,9
		H3c-1.657,0-3,1.343-3,3v4C0,17.657,1.343,19,3,19z M56,38c-0.553,0-1-0.447-1-1c0-0.552,0.447-1,1-1c0.552,0,1,0.448,1,1
		C57,37.553,56.552,38,56,38z M26.39,12L20,15.834L13.61,12H26.39z M46.391,12L40,15.834L33.609,12H46.391z M17.848,27.024
		L14,34.078V20.61L17.848,27.024z M18,44.391l-3.849-6.414L18,30.922V44.391z M14,41.61l3.848,6.413L14,55.074V41.61z M18,23.391
		L14.766,18H18V23.391z M36.39,16H23.61L30,12.167L36.39,16z M11,12.767L16.39,16H11V12.767z M14.682,58L18,51.919V58H14.682z
		 M55.699,16h-12.09l6.362-3.817L55.699,16z M19,10V5.389L32.837,10H19z M15,4.001h2v6h-2V4.001z M2,12c0-0.552,0.448-1,1-1h5
		c0.552,0,1,0.448,1,1v4c0,0.552-0.448,1-1,1H3c-0.552,0-1-0.447-1-1V12z"/>
	<path fill="#FFFFFF" d="M26,60h23c1.104,0,2-0.896,2-2V26c1.104,0,2-0.895,2-2v-2c0-1.104-0.896-2-2-2H24c-1.104,0-2,0.896-2,2v2
		c0,1.104,0.896,2,2,2v32C24,59.104,24.896,60,26,60z M24,22h27v2H24V22z M49,26v32H26V26H49z"/>
	<path fill="#FFFFFF" d="M0.62,51.92c0.057,0.029,0.117,0.05,0.18,0.061C0.866,51.991,0.933,51.998,1,52
		c0.265-0.004,0.519-0.107,0.71-0.289c0.09-0.096,0.162-0.209,0.21-0.33c0.151-0.373,0.068-0.801-0.21-1.09
		c-0.095-0.092-0.208-0.162-0.33-0.211C1.26,50.029,1.131,50.002,1,50c-0.265,0.004-0.518,0.107-0.71,0.291
		c-0.387,0.394-0.387,1.025,0,1.42l0.15,0.119C0.496,51.867,0.556,51.898,0.62,51.92z"/>
	<path fill="#FFFFFF" d="M1,60h8c0.552,0,1-0.447,1-1V25c0-1.104-0.896-2-2-2H2c-1.104,0-2,0.896-2,2v22c0,0.553,0.448,1,1,1
		s1-0.447,1-1V29h6v29H6v-2c0-0.552-0.448-1-1-1s-1,0.448-1,1v2H2v-3c0-0.553-0.448-1-1-1s-1,0.447-1,1v4C0,59.553,0.448,60,1,60z
		 M2,27v-2h6v2H2z"/>
	<path fill="#FFFFFF" d="M30,36h4c1.104,0,2-0.896,2-2v-4c0-1.104-0.896-2-2-2h-4c-1.104,0-2,0.896-2,2v4C28,35.104,28.896,36,30,36
		z M30,30h4v4h-4V30z"/>
	<path fill="#FFFFFF" d="M41,36h4c1.104,0,2-0.896,2-2v-4c0-1.104-0.896-2-2-2h-4c-1.105,0-2,0.896-2,2v4C39,35.104,39.895,36,41,36
		z M41,30h4v4h-4V30z"/>
	<path fill="#FFFFFF" d="M30,46h4c1.104,0,2-0.895,2-2v-4c0-1.104-0.896-2-2-2h-4c-1.104,0-2,0.896-2,2v4C28,45.105,28.896,46,30,46
		z M30,40h4v4h-4V40z"/>
	<path fill="#FFFFFF" d="M41,46h4c1.104,0,2-0.895,2-2v-4c0-1.104-0.896-2-2-2h-4c-1.105,0-2,0.896-2,2v4C39,45.105,39.895,46,41,46
		z M41,40h4v4h-4V40z"/>
	<path fill="#FFFFFF" d="M30,56h4c1.104,0,2-0.896,2-2v-4c0-1.104-0.896-2-2-2h-4c-1.104,0-2,0.896-2,2v4C28,55.104,28.896,56,30,56
		z M30,50h4v4h-4V50z"/>
	<path fill="#FFFFFF" d="M41,56h4c1.104,0,2-0.896,2-2v-4c0-1.104-0.896-2-2-2h-4c-1.105,0-2,0.896-2,2v4C39,55.104,39.895,56,41,56
		z M41,50h4v4h-4V50z"/>
	<path fill="#FFFFFF" d="M5,35c0.552,0,1-0.447,1-1v-2c0-0.552-0.448-1-1-1s-1,0.448-1,1v2C4,34.553,4.448,35,5,35z"/>
	<path fill="#FFFFFF" d="M4,40c0,0.553,0.448,1,1,1s1-0.447,1-1v-2c0-0.552-0.448-1-1-1s-1,0.448-1,1V40z"/>
	<path fill="#FFFFFF" d="M4,46c0,0.553,0.448,1,1,1s1-0.447,1-1v-2c0-0.553-0.448-1-1-1s-1,0.447-1,1V46z"/>
	<path fill="#FFFFFF" d="M4,52c0,0.553,0.448,1,1,1s1-0.447,1-1v-2c0-0.552-0.448-1-1-1s-1,0.448-1,1V52z"/>
</g>
</svg>
