<svg width="166" height="69" viewBox="0 0 166 69" fill="none" xmlns="http://www.w3.org/2000/svg">
<path d="M19.0881 17.5946C19.0881 10.9553 23.8822 6.47482 30.0979 6.47482C34.6127 6.47482 37.2414 9.022 38.6952 11.7285L34.9222 13.6622C34.0557 11.9222 32.1998 10.5366 30.0979 10.5366C26.3242 10.5366 23.6029 13.5335 23.6029 17.5946C23.6029 21.6557 26.3242 24.6536 30.0979 24.6536C32.1998 24.6536 34.0557 23.2673 34.9222 21.5273L38.6952 23.4289C37.2414 26.1045 34.6127 28.7147 30.0979 28.7147C23.8822 28.7147 19.0881 24.2017 19.0881 17.5946Z" fill="white"/>
<path d="M52.5023 6.82947H46.9974L39.7661 28.3275H44.0275L49.7497 11.4066L52.9667 20.6561H49.0905L47.7293 24.6851H54.1719L55.4708 28.3275H59.6956L52.5023 6.82947Z" fill="white"/>
<path d="M2.1436 21.7201C3.59738 23.2993 5.85424 24.6528 8.6991 24.6528C11.143 24.6528 12.2869 23.5255 12.2869 22.2683C12.2869 18.5296 0.411298 21.1399 0.411298 13.0509C0.411298 9.47269 3.38011 6.5072 8.23652 6.5072C11.0028 6.5072 13.3733 7.24239 15.272 8.65412L13.8329 12.9214C12.1641 11.3101 9.93635 10.5683 7.83443 10.5683C5.97856 10.5683 4.92612 11.4068 4.92612 12.6957C4.92612 16.0802 16.7715 13.7909 16.7715 21.8168C16.7715 25.7491 14.0502 28.715 8.51392 28.715C5.11314 28.715 2.54347 27.7072 0.652921 26.1523C0.914094 25.3799 2.1436 21.7201 2.1436 21.7201Z" fill="white"/>
<path d="M2.16869 43.0357C2.16869 42.9637 2.19304 42.9032 2.24173 42.8604C2.29043 42.8158 2.34502 42.7951 2.40736 42.7951H2.86515C2.92565 42.7951 2.97988 42.8154 3.02488 42.8604C3.06952 42.9032 3.09312 42.9637 3.09312 43.0357V43.6248C3.09312 43.6919 3.06989 43.7454 3.02488 43.7893C2.98025 43.8332 2.92381 43.8546 2.85335 43.8546H2.40736C2.33912 43.8546 2.28268 43.8332 2.23583 43.7893C2.19119 43.7454 2.16869 43.6919 2.16869 43.6248V43.0357ZM0.774296 45.9635C0.887175 45.9635 0.93882 46.0355 0.93218 46.1815C0.926278 46.269 0.916687 46.3616 0.905989 46.46C0.895292 46.5593 0.887544 46.6567 0.879797 46.7552C0.873895 46.8544 0.867993 46.9459 0.866149 47.0337C0.861353 47.1204 0.858402 47.1934 0.858402 47.2528C0.858402 47.6305 0.8857 47.9821 0.937344 48.3063C0.990095 48.6306 1.10297 48.912 1.27414 49.1474C1.44456 49.3839 1.68988 49.5701 2.00712 49.7052C2.32436 49.8394 2.74895 49.9066 3.28052 49.9066C3.46164 49.9066 3.62801 49.9025 3.77815 49.8959C3.92903 49.887 4.09171 49.8667 4.26582 49.8298C4.26582 49.6343 4.26693 49.4569 4.27172 49.3012C4.27467 49.1433 4.27652 48.9965 4.27652 48.8582V48.4543V48.0289V44.7713C4.27652 44.7148 4.29496 44.6661 4.33296 44.6252C4.37206 44.5865 4.41559 44.5658 4.46539 44.5658H4.97851C5.03384 44.5658 5.07774 44.5861 5.10984 44.6252C5.14009 44.6661 5.15558 44.7148 5.15558 44.7713V48.0396H6.13129V48.9781H5.15558V49.3433V49.7483C5.15558 49.8837 5.15447 50.0113 5.15152 50.1367C5.14673 50.2603 5.14267 50.3655 5.13381 50.4533C5.13381 50.5691 5.06188 50.6462 4.91469 50.682C4.64873 50.7414 4.37722 50.7834 4.09871 50.8085C3.81725 50.834 3.538 50.8465 3.25839 50.8465C2.65083 50.8465 2.13881 50.7746 1.72307 50.6322C1.30734 50.492 0.971282 50.2817 0.717487 50.0043C0.462217 49.7277 0.279248 49.389 0.167475 48.984C0.0545949 48.5789 0 48.1182 0 47.6025C0 47.5365 0.00295076 47.4439 0.00959074 47.3221C0.0162307 47.2034 0.0261912 47.075 0.0368889 46.9355C0.04648 46.7972 0.0582842 46.66 0.071933 46.5264C0.0866886 46.3911 0.10292 46.2741 0.124684 46.1712C0.138333 46.0904 0.160835 46.0358 0.188133 46.0078C0.216537 45.9775 0.26523 45.9639 0.334213 45.9639H0.774296V45.9635Z" fill="white"/>
<path d="M6.06891 48.9778C5.97042 48.9778 5.88668 48.9653 5.8177 48.9398C5.7465 48.9144 5.71072 48.8757 5.71072 48.824V48.1803C5.71072 48.1364 5.74687 48.1014 5.8177 48.0763C5.88668 48.0508 5.97042 48.0375 6.06891 48.0375H8.38516V48.9778H6.06891Z" fill="white"/>
<path d="M8.32284 48.9778C8.22434 48.9778 8.14061 48.9653 8.07162 48.9398C8.00153 48.9144 7.96465 48.8757 7.96465 48.824V48.1803C7.96465 48.1364 8.00153 48.1014 8.07162 48.0763C8.14061 48.0508 8.22434 48.0375 8.32284 48.0375H10.6391V48.9778H8.32284Z" fill="white"/>
<path d="M12.4824 50.2333C12.4824 50.1613 12.5097 50.1027 12.5621 50.0599C12.6138 50.016 12.672 49.9939 12.7336 49.9939H13.1435C13.2058 49.9939 13.2612 50.0164 13.311 50.0599C13.3608 50.1027 13.3851 50.1613 13.3851 50.2333V50.8242C13.3851 50.8818 13.3608 50.9342 13.311 50.9828C13.2612 51.0286 13.2058 51.0529 13.1435 51.0529H12.7336C12.6724 51.0529 12.6138 51.0286 12.5621 50.9828C12.5094 50.9342 12.4824 50.8814 12.4824 50.8242V50.2333ZM10.7745 50.2333C10.7745 50.1613 10.797 50.1027 10.8416 50.0599C10.8885 50.016 10.9449 49.9939 11.0157 49.9939H11.4248C11.4938 49.9939 11.5514 50.0164 11.5964 50.0599C11.6432 50.1027 11.6665 50.1613 11.6665 50.2333V50.8242C11.6665 50.8818 11.641 50.9342 11.5923 50.9828C11.5436 51.0286 11.4861 51.0529 11.4248 51.0529H11.0157C10.9445 51.0529 10.8881 51.0286 10.8416 50.9828C10.797 50.9342 10.7745 50.8814 10.7745 50.8242V50.2333ZM10.2186 48.1797C10.2186 48.1358 10.2536 48.1018 10.3237 48.0764C10.3938 48.0502 10.4775 48.0384 10.5768 48.0384H11.0471C11.1172 48.0384 11.195 48.0336 11.2788 48.0277C11.3614 48.0199 11.4414 48.0033 11.5193 47.9779C11.5953 47.9524 11.6594 47.9119 11.714 47.858C11.7646 47.8027 11.7911 47.7285 11.7911 47.633V44.7715C11.7911 44.7132 11.8107 44.6645 11.8487 44.6236C11.8867 44.5845 11.9343 44.5642 11.9907 44.5642H12.4725C12.5278 44.5642 12.5765 44.5845 12.6138 44.6236C12.6529 44.6645 12.672 44.7132 12.672 44.7715V47.7754C12.6923 47.8329 12.7362 47.8794 12.8034 47.9119C12.8676 47.9458 12.9417 47.9712 13.0232 47.9886C13.1022 48.007 13.1841 48.0199 13.2674 48.0277C13.3523 48.0336 13.4261 48.0384 13.4884 48.0384H13.6356V48.9779H13.5091C13.2918 48.9779 13.0612 48.9547 12.813 48.906C12.5636 48.8592 12.3603 48.7618 12.2006 48.6168C12.0254 48.7618 11.817 48.8592 11.5757 48.906C11.3352 48.9547 11.1172 48.9779 10.9206 48.9779H10.5768C10.4775 48.9779 10.3938 48.9654 10.3237 48.9399C10.2536 48.9138 10.2186 48.8747 10.2186 48.8241V48.1797Z" fill="white"/>
<path d="M13.5739 48.9778C13.4754 48.9778 13.3917 48.9653 13.3227 48.9398C13.2526 48.9144 13.2158 48.8757 13.2158 48.824V48.1803C13.2158 48.1364 13.2526 48.1014 13.3227 48.0763C13.3917 48.0508 13.4754 48.0375 13.5739 48.0375H15.8902V48.9778H13.5739Z" fill="white"/>
<path d="M15.8268 48.9778C15.7283 48.9778 15.6445 48.9653 15.5755 48.9398C15.5055 48.9144 15.4704 48.8757 15.4704 48.824V48.1803C15.4704 48.1364 15.5055 48.1014 15.5755 48.0763C15.6445 48.0508 15.7283 48.0375 15.8268 48.0375H18.143V48.9778H15.8268Z" fill="white"/>
<path d="M17.7236 48.18C17.7236 48.1361 17.7598 48.1022 17.8287 48.076C17.8999 48.0505 17.9826 48.038 18.0799 48.038H18.9192C19.1217 48.038 19.2482 48.0207 19.3017 47.9845C19.3533 47.9465 19.3795 47.8336 19.3795 47.6437V40.9819C19.3795 40.9236 19.3991 40.8727 19.4378 40.834C19.4747 40.7941 19.5234 40.7735 19.5791 40.7735H20.0922C20.1476 40.7735 20.1944 40.7938 20.2287 40.834C20.2638 40.8731 20.2822 40.9236 20.2822 40.9819V47.2851V47.578C20.2822 47.6879 20.2793 47.8008 20.2756 47.9177C20.2726 48.0336 20.2667 48.1487 20.2601 48.2567C20.2542 48.3648 20.2424 48.4641 20.2291 48.5519C20.2143 48.6249 20.1952 48.6861 20.1667 48.7367C20.1383 48.7883 20.0819 48.8311 19.9982 48.8673C19.9428 48.8905 19.8628 48.9052 19.7577 48.917C19.6536 48.9289 19.5367 48.9396 19.412 48.9503C19.2855 48.961 19.1549 48.9687 19.0188 48.9728C18.8823 48.9757 18.755 48.9775 18.6362 48.9775H18.0803C17.9829 48.9775 17.9003 48.9657 17.8291 48.9396C17.7601 48.9141 17.724 48.8754 17.724 48.8248L17.7236 48.18Z" fill="white"/>
<path d="M25.0497 44.8483C24.9107 44.8339 24.7731 44.8229 24.6417 44.8151C24.5093 44.8092 24.3514 44.8044 24.1707 44.8044C23.7092 44.8044 23.3433 44.9398 23.0743 45.2084C22.8047 45.478 22.6722 45.8646 22.6722 46.3659V46.5851C22.6722 47.1022 22.7763 47.4778 22.9869 47.7098C23.1953 47.9433 23.5524 48.0602 24.0541 48.0602C24.3278 48.0602 24.5624 48.0425 24.7572 48.0049C24.952 47.9688 25.0501 47.8677 25.0501 47.7002L25.0497 44.8483ZM22.158 50.8229C22.158 50.7218 22.2126 50.6709 22.3255 50.6709C22.4443 50.6709 22.594 50.6738 22.7763 50.6768C22.9574 50.6797 23.1053 50.6816 23.2164 50.6816C23.4956 50.6816 23.7468 50.6661 23.97 50.6329C24.195 50.5997 24.3846 50.5373 24.5414 50.4458C24.6993 50.3533 24.8206 50.2256 24.9096 50.0604C24.9962 49.8958 25.0401 49.6815 25.0401 49.4189V48.7696C24.9914 48.8143 24.9195 48.8493 24.8258 48.8736C24.7314 48.8991 24.6251 48.9212 24.5112 48.9397C24.3953 48.9581 24.2824 48.9688 24.1703 48.9729C24.0582 48.9758 23.96 48.9777 23.8763 48.9777C23.2414 48.9777 22.7331 48.7877 22.3565 48.4092C21.9798 48.0304 21.7899 47.459 21.7899 46.6957V46.422C21.7899 45.6577 22.0071 45.0531 22.4402 44.6089C22.8737 44.1641 23.4879 43.942 24.2854 43.942C24.5639 43.942 24.8354 43.9545 25.0973 43.98C25.3603 44.0062 25.582 44.0471 25.7632 44.1065C25.8321 44.1279 25.8779 44.1504 25.8985 44.1755C25.921 44.2017 25.9306 44.2437 25.9306 44.302V49.2499C25.9306 49.7025 25.8683 50.0725 25.7418 50.364C25.6171 50.655 25.4419 50.8878 25.2179 51.0571C24.994 51.2305 24.7292 51.3481 24.4215 51.4193C24.1139 51.4876 23.7749 51.5226 23.4041 51.5226C23.3351 51.5226 23.2455 51.5215 23.1374 51.5178C23.0282 51.513 22.9212 51.5101 22.8132 51.5071C22.704 51.5023 22.6047 51.4975 22.5144 51.4905C22.4229 51.4846 22.3594 51.4769 22.3255 51.4691C22.2554 51.4555 22.2108 51.4352 22.1883 51.4098C22.168 51.3843 22.158 51.3456 22.158 51.2958V50.8229Z" fill="white"/>
<path d="M27.7131 40.9813C27.7131 40.9238 27.7315 40.8732 27.7706 40.8293C27.8086 40.7854 27.8555 40.7622 27.9119 40.7622H28.4262C28.4815 40.7622 28.5276 40.7854 28.5627 40.8293C28.5966 40.8732 28.6143 40.9238 28.6143 40.9813V47.3926C28.6143 47.5405 28.6298 47.6545 28.6619 47.7382C28.6929 47.822 28.7379 47.8862 28.7962 47.929C28.8567 47.9729 28.9304 48.002 29.0171 48.0164C29.1049 48.03 29.2049 48.0378 29.317 48.0378H29.5778V48.9784H29.0861C28.8611 48.9784 28.6656 48.9582 28.4988 48.9172C28.3314 48.8774 28.1882 48.8054 28.0694 48.6992C27.9507 48.593 27.861 48.4539 27.8027 48.2776C27.7433 48.1042 27.7131 47.8784 27.7131 47.6018V40.9813Z" fill="white"/>
<path d="M29.5155 48.9778C29.417 48.9778 29.3333 48.9653 29.2643 48.9398C29.1942 48.9144 29.1573 48.8757 29.1573 48.824V48.1803C29.1573 48.1364 29.1942 48.1014 29.2643 48.0763C29.3333 48.0508 29.417 48.0375 29.5155 48.0375H31.8317V48.9778H29.5155Z" fill="white"/>
<path d="M31.7694 48.9778C31.6709 48.9778 31.5872 48.9653 31.5182 48.9398C31.447 48.9144 31.4131 48.8757 31.4131 48.824V48.1803C31.4131 48.1364 31.447 48.1014 31.5182 48.0763C31.5872 48.0508 31.6709 48.0375 31.7694 48.0375H34.0857V48.9778H31.7694Z" fill="white"/>
<path d="M37.4598 41.8776C37.4598 41.8056 37.486 41.7462 37.5387 41.7023C37.5915 41.6584 37.6487 41.6363 37.711 41.6363H38.119C38.1832 41.6363 38.2389 41.6588 38.2883 41.7023C38.3381 41.7462 38.3602 41.8056 38.3602 41.8776V42.4667C38.3602 42.5327 38.3377 42.5873 38.2883 42.6312C38.2385 42.6751 38.1832 42.6972 38.119 42.6972H37.711C37.6487 42.6972 37.5911 42.6747 37.5387 42.6312C37.486 42.5873 37.4598 42.5327 37.4598 42.4667V41.8776ZM35.7507 41.8776C35.7507 41.8056 35.7732 41.7462 35.819 41.7023C35.8636 41.6584 35.9223 41.6363 35.9923 41.6363H36.4014C36.4704 41.6363 36.5291 41.6588 36.5737 41.7023C36.6184 41.7462 36.642 41.8056 36.642 41.8776V42.4667C36.642 42.5327 36.6176 42.5873 36.5689 42.6312C36.5191 42.6751 36.4627 42.6972 36.4014 42.6972H35.9923C35.9223 42.6972 35.864 42.6747 35.819 42.6312C35.7732 42.5873 35.7507 42.5327 35.7507 42.4667V41.8776ZM38.109 48.0601V44.815C37.9707 44.7947 37.8287 44.7789 37.6844 44.7722C37.5413 44.7656 37.3786 44.7615 37.1975 44.7615C36.7146 44.7615 36.3483 44.8881 36.0964 45.1382C35.8452 45.3894 35.7186 45.766 35.7186 46.2684V46.4971C35.7186 46.9996 35.8297 47.3869 36.0495 47.6558C36.2694 47.9255 36.6143 48.0598 37.0824 48.0598L38.109 48.0601ZM33.6654 48.1796C33.6654 48.1357 33.7004 48.1018 33.7705 48.0764C33.8406 48.0502 33.9244 48.0384 34.0217 48.0384H35.4043C35.2232 47.8845 35.083 47.6809 34.9868 47.4267C34.8883 47.1715 34.8396 46.862 34.8396 46.4968V46.236C34.8396 45.493 35.0539 44.9176 35.484 44.5088C35.9134 44.102 36.5092 43.8983 37.2705 43.8983C37.5579 43.8983 37.839 43.9109 38.1146 43.9363C38.3901 43.9618 38.6266 44.0035 38.8225 44.0621C38.8925 44.0776 38.9372 44.0983 38.9578 44.1274C38.9803 44.1566 38.9899 44.2005 38.9899 44.258V48.0387H39.8915V48.9783H34.0214C33.924 48.9783 33.8403 48.9657 33.7702 48.9403C33.7001 48.9141 33.665 48.875 33.665 48.8245L33.6654 48.1796Z" fill="white"/>
<path d="M39.8292 48.9778C39.7307 48.9778 39.647 48.9653 39.578 48.9398C39.5079 48.9144 39.471 48.8757 39.471 48.824V48.1803C39.471 48.1364 39.5079 48.1014 39.578 48.0763C39.647 48.0508 39.7307 48.0375 39.8292 48.0375H42.1455V48.9778H39.8292Z" fill="white"/>
<path d="M42.0831 48.9778C41.9847 48.9778 41.9009 48.9653 41.8319 48.9398C41.763 48.9144 41.7268 48.8757 41.7268 48.824V48.1803C41.7268 48.1364 41.763 48.1014 41.8319 48.0763C41.9009 48.0508 41.9847 48.0375 42.0831 48.0375H44.3994V48.9778H42.0831Z" fill="white"/>
<path d="M46.3264 46.4433V46.9468C46.3264 47.1862 46.3411 47.3909 46.3692 47.5584C46.4326 47.8642 46.5676 48.0863 46.7771 48.2243C46.9874 48.3626 47.26 48.4316 47.5961 48.4316C48.0576 48.4316 48.3818 48.3109 48.5707 48.0653C48.7596 47.8211 48.854 47.4489 48.854 46.9464V46.4429C48.854 45.9482 48.7607 45.5675 48.5766 45.3019C48.3907 45.0363 48.0705 44.9028 47.6167 44.9028C47.1553 44.9028 46.8251 45.0341 46.6266 45.296C46.4267 45.5583 46.3264 45.9408 46.3264 46.4433ZM43.9788 48.1804C43.9788 48.1365 44.0138 48.1014 44.0839 48.0763C44.154 48.0509 44.2377 48.0383 44.337 48.0383H44.6708C44.7195 48.0383 44.7848 48.0372 44.8656 48.0335C44.9445 48.0295 45.0235 48.0181 45.1002 47.9944C45.1773 47.973 45.2452 47.9417 45.3057 47.9019C45.3639 47.862 45.4019 47.8063 45.4148 47.7314C45.4362 47.644 45.4458 47.5407 45.4458 47.416V46.3665C45.4458 45.6177 45.6329 45.0415 46.0076 44.6401C46.3817 44.241 46.9181 44.0403 47.616 44.0403C48.3139 44.0403 48.8429 44.2369 49.1982 44.6294C49.5556 45.0238 49.7327 45.6022 49.7327 46.3665V46.9789C49.7327 47.0663 49.7308 47.1619 49.7286 47.2633C49.7246 47.3647 49.7161 47.4551 49.7013 47.537C49.708 47.6392 49.7423 47.7211 49.8065 47.7871C49.8688 47.8532 49.9407 47.9041 50.0215 47.9409C50.1012 47.9771 50.1831 48.0022 50.2668 48.0177C50.3506 48.0313 50.4207 48.038 50.476 48.038H50.6132V48.9775H50.476C50.2462 48.9775 50.0211 48.9425 49.8024 48.8735C49.5814 48.8045 49.4044 48.6972 49.2719 48.5522C48.9429 49.0469 48.384 49.2951 47.5953 49.2951C47.204 49.2951 46.8565 49.2346 46.5525 49.1151C46.2478 48.9934 46.015 48.8104 45.8546 48.5629C45.7155 48.7304 45.5333 48.8425 45.3104 48.8949C45.0865 48.9502 44.846 48.9775 44.586 48.9775H44.3366C44.2374 48.9775 44.1536 48.9657 44.0835 48.9395C44.0134 48.9141 43.9784 48.8753 43.9784 48.8237L43.9788 48.1804Z" fill="white"/>
<path d="M50.5524 48.9778C50.4539 48.9778 50.3702 48.9653 50.3012 48.9398C50.2322 48.9144 50.1942 48.8757 50.1942 48.824V48.1803C50.1942 48.1364 50.2322 48.1014 50.3012 48.0763C50.3702 48.0508 50.4539 48.0375 50.5524 48.0375H52.8687V48.9778H50.5524Z" fill="white"/>
<path d="M52.8056 48.9778C52.7071 48.9778 52.6234 48.9653 52.5533 48.9398C52.4843 48.9144 52.4493 48.8757 52.4493 48.824V48.1803C52.4493 48.1364 52.4843 48.1014 52.5533 48.0763C52.6234 48.0508 52.7071 48.0375 52.8056 48.0375H55.1218V48.9778H52.8056Z" fill="white"/>
<path d="M54.7021 48.18C54.7021 48.1361 54.7371 48.1022 54.8072 48.076C54.8773 48.0505 54.961 48.038 55.0603 48.038H55.6143C55.6833 48.038 55.7623 48.0343 55.846 48.0284C55.9286 48.0207 56.0087 48.0041 56.0865 47.9786C56.1614 47.9524 56.2267 47.9126 56.2802 47.8587C56.3318 47.8034 56.358 47.7292 56.358 47.6337V40.9819C56.358 40.9236 56.3776 40.8727 56.4163 40.834C56.4532 40.7941 56.5011 40.7735 56.5576 40.7735H57.0707C57.126 40.7735 57.1718 40.7938 57.2079 40.834C57.2419 40.8731 57.2607 40.9236 57.2607 40.9819V47.7761C57.2802 47.8336 57.3249 47.8801 57.3902 47.9126C57.4584 47.9465 57.5303 47.972 57.6111 47.9893C57.6908 48.0077 57.7745 48.0207 57.8575 48.0284C57.9424 48.0343 58.0154 48.038 58.0767 48.038H58.2239V48.9775H58.0984C57.9933 48.9775 57.8823 48.9728 57.7624 48.961C57.6436 48.9503 57.5278 48.9318 57.4119 48.9056C57.2972 48.8802 57.1851 48.8444 57.077 48.7986C56.9689 48.7499 56.8756 48.6917 56.7974 48.6175C56.624 48.7625 56.4167 48.8599 56.1751 48.9056C55.9334 48.9554 55.7147 48.9775 55.5199 48.9775H55.0603C54.961 48.9775 54.8773 48.9657 54.8072 48.9396C54.7371 48.9141 54.7021 48.8754 54.7021 48.8248V48.18Z" fill="white"/>
<path d="M57.8047 48.18C57.8047 48.1361 57.8398 48.1022 57.9098 48.076C57.9788 48.0505 58.0637 48.038 58.1611 48.038H58.9995C59.2032 48.038 59.3297 48.0207 59.3832 47.9845C59.4348 47.9465 59.461 47.8336 59.461 47.6437V40.9819C59.461 40.9236 59.4806 40.8727 59.5193 40.834C59.5562 40.7941 59.6042 40.7735 59.6613 40.7735H60.1733C60.2287 40.7735 60.2755 40.7938 60.3106 40.834C60.3445 40.8731 60.3633 40.9236 60.3633 40.9819V47.2851V47.578C60.3633 47.6879 60.3604 47.8008 60.3567 47.9177C60.3537 48.0336 60.3478 48.1487 60.3412 48.2567C60.3353 48.3648 60.3235 48.4641 60.3109 48.5519C60.2954 48.6249 60.2759 48.6861 60.2468 48.7367C60.2195 48.7883 60.163 48.8311 60.0793 48.8673C60.024 48.8905 59.9439 48.9052 59.8388 48.917C59.7347 48.9289 59.6178 48.9396 59.4931 48.9503C59.3666 48.961 59.236 48.9687 59.0999 48.9728C58.9634 48.9757 58.8361 48.9775 58.7173 48.9775H58.1614C58.064 48.9775 57.9792 48.9657 57.9102 48.9396C57.8401 48.9141 57.8051 48.8754 57.8051 48.8248L57.8047 48.18Z" fill="white"/>
<path d="M67.0605 41.8983C67.0605 41.8271 67.0859 41.7688 67.1383 41.7242C67.1911 41.6795 67.2483 41.6589 67.3124 41.6589H67.7193C67.7828 41.6589 67.8381 41.6792 67.8879 41.7242C67.9366 41.7688 67.9621 41.8275 67.9621 41.8983V42.4885C67.9621 42.5556 67.9366 42.6102 67.8879 42.653C67.8381 42.6969 67.7828 42.7183 67.7193 42.7183H67.3124C67.2483 42.7183 67.1907 42.6969 67.1383 42.653C67.0856 42.6102 67.0605 42.5556 67.0605 42.4885V41.8983ZM65.3518 41.8983C65.3518 41.8271 65.3743 41.7688 65.4189 41.7242C65.4647 41.6795 65.5222 41.6589 65.5931 41.6589H66.0022C66.0711 41.6589 66.1287 41.6792 66.1755 41.7242C66.2194 41.7688 66.2416 41.8275 66.2416 41.8983V42.4885C66.2416 42.5556 66.2172 42.6102 66.1685 42.653C66.1198 42.6969 66.0634 42.7183 66.0022 42.7183H65.5931C65.5219 42.7183 65.4647 42.6969 65.4189 42.653C65.3743 42.6102 65.3518 42.5556 65.3518 42.4885V41.8983ZM65.3293 46.5046C65.3293 46.9428 65.4248 47.2844 65.6137 47.529C65.8015 47.7732 66.1239 47.896 66.5776 47.896H66.7761C66.8812 47.896 66.9893 47.8894 67.1022 47.8757C67.2132 47.8602 67.3154 47.8311 67.4058 47.7861C67.4954 47.7433 67.5692 47.6828 67.6249 47.6061C67.6802 47.5294 67.7097 47.4327 67.7097 47.315V44.8273C67.5696 44.8125 67.4478 44.8018 67.3416 44.794C67.2383 44.787 67.1391 44.7833 67.0494 44.7833C66.7971 44.7833 66.5666 44.8047 66.3581 44.8486C66.1479 44.8925 65.9679 44.9722 65.817 45.0851C65.6691 45.198 65.5484 45.3518 65.4617 45.5466C65.3739 45.7373 65.3293 45.9819 65.3293 46.274V46.5046ZM64.4502 46.3342C64.4502 45.9048 64.5174 45.5359 64.6487 45.2301C64.7811 44.9261 64.9682 44.6753 65.2105 44.4834C65.4499 44.2898 65.7384 44.1474 66.0682 44.057C66.4002 43.9666 66.7661 43.9209 67.1645 43.9209C67.256 43.9209 67.3604 43.9246 67.4792 43.9305C67.5969 43.9393 67.7149 43.95 67.8307 43.9644C67.9466 43.9792 68.0558 43.9947 68.1609 44.0131C68.2642 44.0308 68.3557 44.0519 68.4324 44.0736C68.5025 44.0884 68.5464 44.1116 68.5637 44.1448C68.5814 44.1769 68.5899 44.2226 68.5899 44.282V47.3508C68.5899 47.6419 68.6559 47.83 68.7884 47.9115C68.9219 47.9971 69.099 48.038 69.324 48.038H69.5645V48.9787H69.2082C68.8935 48.9787 68.6297 48.9311 68.4176 48.8356C68.2044 48.7423 68.0417 48.5777 67.93 48.3439C67.8123 48.5043 67.6271 48.6194 67.3788 48.6877C67.1317 48.7566 66.8598 48.7917 66.5669 48.7917H66.4725C65.824 48.7917 65.3227 48.6069 64.9741 48.2358C64.6255 47.8628 64.4502 47.3254 64.4502 46.6186V46.3342Z" fill="white"/>
<path d="M69.5022 48.9778C69.4037 48.9778 69.32 48.9653 69.251 48.9398C69.1809 48.9144 69.144 48.8757 69.144 48.824V48.1803C69.144 48.1364 69.1809 48.1014 69.251 48.0763C69.32 48.0508 69.4037 48.0375 69.5022 48.0375H71.8184V48.9778H69.5022Z" fill="white"/>
<path d="M71.7561 48.9778C71.6576 48.9778 71.5739 48.9653 71.5049 48.9398C71.4359 48.9144 71.3979 48.8757 71.3979 48.824V48.1803C71.3979 48.1364 71.4359 48.1014 71.5049 48.0763C71.5739 48.0508 71.6576 48.0375 71.7561 48.0375H74.0724V48.9778H71.7561Z" fill="white"/>
<path d="M75.4032 50.2334C75.4032 50.1615 75.4287 50.1028 75.481 50.06C75.5338 50.0161 75.591 49.994 75.6544 49.994H76.0643C76.1255 49.994 76.1819 50.0165 76.2299 50.06C76.2797 50.1028 76.304 50.1615 76.304 50.2334V50.8244C76.304 50.8819 76.2797 50.9343 76.2299 50.983C76.1823 51.0287 76.1259 51.0531 76.0643 51.0531H75.6544C75.591 51.0531 75.5338 51.0287 75.481 50.983C75.4283 50.9343 75.4032 50.8816 75.4032 50.8244V50.2334ZM73.6945 50.2334C73.6945 50.1615 73.7178 50.1028 73.7628 50.06C73.8074 50.0161 73.8649 49.994 73.9361 49.994H74.3441C74.4131 49.994 74.4718 50.0165 74.5175 50.06C74.5633 50.1028 74.5858 50.1615 74.5858 50.2334V50.8244C74.5858 50.8819 74.5614 50.9343 74.5116 50.983C74.4618 51.0287 74.4083 51.0531 74.3441 51.0531H73.9361C73.8649 51.0531 73.8078 51.0287 73.7628 50.983C73.7181 50.9343 73.6945 50.8816 73.6945 50.8244V50.2334ZM73.6517 48.1798C73.6517 48.1359 73.6879 48.102 73.7569 48.0765C73.8281 48.0503 73.9118 48.0385 74.0099 48.0385H74.7411C74.9447 48.0385 75.0749 48.0201 75.1306 47.9839C75.1859 47.947 75.2132 47.8331 75.2132 47.6431V46.9234V46.2468C75.2132 46.0211 75.2121 45.7872 75.2092 45.5467C75.2051 45.3062 75.1996 45.0443 75.1937 44.761C75.1937 44.7034 75.2092 44.6518 75.2405 44.613C75.2708 44.5721 75.3154 44.5537 75.3711 44.5537H75.8746C75.9381 44.5537 75.9857 44.5721 76.0207 44.613C76.0569 44.6518 76.0735 44.7038 76.0735 44.761C76.0812 45.0081 76.086 45.2165 76.089 45.3833C76.0938 45.5508 76.0949 45.7094 76.0949 45.8584V46.3169V46.8806C76.0949 47.2281 76.0938 47.5546 76.089 47.8522C76.086 48.151 76.0735 48.3831 76.0528 48.5513C76.0392 48.6243 76.0167 48.6867 75.9857 48.7361C75.9525 48.7866 75.896 48.8305 75.8123 48.8667C75.7548 48.8899 75.6788 48.9058 75.5814 48.9172C75.484 48.929 75.3711 48.9397 75.2464 48.9493C75.1199 48.96 74.9915 48.9678 74.8591 48.9718C74.7248 48.9759 74.599 48.9777 74.4803 48.9777H74.0099C73.9114 48.9777 73.8277 48.9652 73.7569 48.9397C73.6879 48.9135 73.6517 48.8744 73.6517 48.8239V48.1798Z" fill="white"/>
<path d="M77.4362 48.2343C77.4362 48.1768 77.4576 48.1292 77.4996 48.0923C77.5395 48.0562 77.5893 48.0388 77.6468 48.0388H80.5075L80.498 46.6953C80.4832 46.0546 80.3275 45.5765 80.0306 45.2633C79.7347 44.9516 79.2537 44.7941 78.5897 44.7941C78.513 44.7941 78.4038 44.7959 78.2654 44.8C78.1242 44.8037 78.0024 44.8125 77.8984 44.8284C77.7593 44.842 77.6881 44.7904 77.6881 44.6746V44.2256C77.6881 44.1681 77.7036 44.1216 77.735 44.0843C77.7682 44.0475 77.8206 44.0257 77.8984 44.0202C78.0795 43.9899 78.2529 43.9715 78.4163 43.9648C78.582 43.9582 78.7026 43.953 78.7775 43.953C79.2537 43.953 79.6536 44.0202 79.9778 44.1496C80.3039 44.281 80.5669 44.4669 80.7695 44.7074C80.972 44.9468 81.1192 45.2312 81.2095 45.5592C81.301 45.8875 81.3538 46.2464 81.3674 46.64C81.3674 46.6703 81.3704 46.7422 81.3722 46.8591C81.377 46.9761 81.38 47.1044 81.3829 47.2417C81.387 47.38 81.3888 47.5102 81.3888 47.6349V47.8861V48.0779C81.3888 48.1528 81.387 48.2336 81.3829 48.3173C81.38 48.4022 81.377 48.483 81.3722 48.5638C81.3704 48.6438 81.3645 48.708 81.3575 48.7593C81.3575 48.9053 81.2807 48.9773 81.1265 48.9773H77.6468C77.5893 48.9773 77.5398 48.9607 77.4996 48.9297C77.458 48.8965 77.4362 48.8496 77.4362 48.7925V48.2343Z" fill="white"/>
<path d="M83.5904 46.5851C83.5904 47.1022 83.6944 47.4789 83.9051 47.7105C84.1135 47.9433 84.4532 48.061 84.9206 48.061H85.9587V44.848C85.8196 44.8336 85.6831 44.8225 85.5496 44.8148C85.4171 44.8089 85.2633 44.8041 85.0892 44.8041C84.6277 44.8041 84.2618 44.9394 83.9929 45.208C83.7251 45.4788 83.5908 45.8642 83.5908 46.3667V46.5851H83.5904ZM83.0762 50.8225C83.0762 50.7214 83.1308 50.6705 83.2448 50.6705C83.3624 50.6705 83.5126 50.6734 83.6944 50.6764C83.8755 50.6793 84.0235 50.6812 84.1345 50.6812C84.4141 50.6812 84.6642 50.6657 84.8834 50.6325C85.1043 50.5993 85.2932 50.537 85.45 50.4455C85.6078 50.354 85.7274 50.2245 85.8111 50.06C85.8948 49.8955 85.9417 49.6811 85.9483 49.4174V48.9773H84.9007C84.1939 48.9773 83.6516 48.7873 83.2746 48.4096C82.8987 48.0307 82.708 47.4593 82.708 46.695V46.4224C82.708 45.658 82.9253 45.0523 83.3584 44.6086C83.7918 44.1637 84.406 43.9427 85.2035 43.9427C85.4821 43.9427 85.7536 43.9545 86.0155 43.9807C86.2785 44.0062 86.5002 44.0478 86.6813 44.1072C86.7448 44.1275 86.7864 44.1511 86.8067 44.1762C86.827 44.2017 86.8388 44.2434 86.8388 44.3028V48.0385H87.75V48.9769H86.827V49.3927C86.8145 49.8006 86.7444 50.1404 86.6186 50.4141C86.4921 50.6867 86.3205 50.9047 86.1044 51.0693C85.8871 51.2319 85.6274 51.3485 85.3234 51.419C85.0198 51.4872 84.6849 51.523 84.3226 51.523C84.2526 51.523 84.1629 51.5219 84.0548 51.5171C83.9456 51.513 83.8387 51.5093 83.7306 51.5075C83.6214 51.5027 83.5233 51.4968 83.4318 51.4898C83.3403 51.4839 83.278 51.4761 83.244 51.4695C83.1728 51.4547 83.1282 51.4356 83.1057 51.4101C83.0854 51.3839 83.0754 51.3459 83.0754 51.2954V50.8225H83.0762Z" fill="white"/>
<path d="M87.6876 48.9778C87.5891 48.9778 87.5054 48.9653 87.4364 48.9398C87.3663 48.9144 87.3313 48.8757 87.3313 48.824V48.1803C87.3313 48.1364 87.3663 48.1014 87.4364 48.0763C87.5054 48.0508 87.5891 48.0375 87.6876 48.0375H90.0039V48.9778H87.6876Z" fill="white"/>
<path d="M89.9415 48.9778C89.843 48.9778 89.7593 48.9653 89.6892 48.9398C89.6202 48.9144 89.583 48.8757 89.583 48.824V48.1803C89.583 48.1364 89.6199 48.1014 89.6892 48.0763C89.7593 48.0508 89.843 48.0375 89.9415 48.0375H92.2578V48.9778H89.9415Z" fill="white"/>
<path d="M95.5795 48.0488C95.9425 47.961 96.228 47.7518 96.4342 47.4158C96.6397 47.0808 96.743 46.6905 96.743 46.2475V46.1269C96.743 45.647 96.6106 45.2991 96.345 45.0833C96.079 44.8682 95.716 44.7609 95.2556 44.7609C95.0734 44.7609 94.8381 44.7871 94.5537 44.8376C94.2663 44.8882 93.9929 45.0051 93.7347 45.1862L94.8038 48.0488H95.5795ZM91.8368 48.1805C91.8368 48.1366 91.8729 48.1015 91.9419 48.0765C92.0131 48.051 92.0969 48.0385 92.1942 48.0385H93.8804L92.897 45.4175C92.8822 45.3943 92.8737 45.3659 92.8697 45.3308C92.8667 45.2939 92.8649 45.2607 92.8649 45.2316L92.8745 44.9151C92.8822 44.8207 92.9416 44.7251 93.0527 44.6299C93.1714 44.5219 93.3127 44.4226 93.478 44.3311C93.6407 44.2386 93.8218 44.1626 94.0173 44.1013C94.2121 44.0401 94.4146 43.9914 94.6248 43.9534C94.8351 43.9165 95.0435 43.8988 95.2549 43.8988C95.5965 43.8988 95.913 43.9398 96.2022 44.0187C96.4933 44.0995 96.7426 44.2249 96.9529 44.3964C97.1621 44.5676 97.324 44.7878 97.4406 45.0575C97.5546 45.326 97.6128 45.6473 97.6128 46.0184V46.2258C97.6128 46.4002 97.5951 46.578 97.5601 46.7603C97.525 46.9432 97.4764 47.1155 97.4129 47.2793C97.3506 47.4438 97.2746 47.5929 97.1879 47.7271C97.0993 47.8625 97.0049 47.9665 96.8976 48.0385H98.2197V48.978H92.1928C92.0954 48.978 92.0116 48.9655 91.9404 48.94C91.8715 48.9146 91.8353 48.8758 91.8353 48.8242V48.1805H91.8368Z" fill="white"/>
<path d="M98.1593 48.9778C98.0608 48.9778 97.9771 48.9653 97.9081 48.9398C97.8369 48.9144 97.8011 48.8757 97.8011 48.824V48.1803C97.8011 48.1364 97.8373 48.1014 97.9081 48.0763C97.9771 48.0508 98.0608 48.0375 98.1593 48.0375H100.476V48.9778H98.1593Z" fill="white"/>
<path d="M100.412 48.9778C100.313 48.9778 100.23 48.9653 100.16 48.9398C100.09 48.9144 100.053 48.8757 100.053 48.824V48.1803C100.053 48.1364 100.09 48.1014 100.16 48.0763C100.23 48.0508 100.313 48.0375 100.412 48.0375H102.728V48.9778H100.412Z" fill="white"/>
<path d="M102.308 48.1801C102.308 48.1362 102.345 48.1022 102.414 48.076C102.485 48.0506 102.567 48.038 102.667 48.038H103.064C103.134 48.038 103.211 48.0344 103.295 48.0285C103.379 48.0207 103.456 48.0041 103.529 47.9787C103.604 47.9525 103.666 47.9126 103.719 47.8588C103.771 47.8034 103.797 47.7293 103.797 47.6338V45.2736C103.797 45.2172 103.815 45.1655 103.851 45.1209C103.885 45.0788 103.93 45.0567 103.987 45.0567H104.469C104.524 45.0567 104.571 45.0792 104.606 45.1209C104.64 45.1655 104.656 45.2172 104.656 45.2736V47.7972C104.68 47.8577 104.722 47.9012 104.789 47.9344C104.855 47.9676 104.928 47.9927 105.008 48.0111C105.09 48.0288 105.171 48.0421 105.255 48.048C105.338 48.0558 105.411 48.0587 105.475 48.0587H105.695C105.759 48.0587 105.829 48.0528 105.91 48.0432C105.989 48.0336 106.065 48.0141 106.134 47.9886C106.205 47.9624 106.264 47.9244 106.313 47.8746C106.363 47.823 106.388 47.754 106.388 47.6673V44.9021C106.388 44.8446 106.405 44.7959 106.445 44.7542C106.484 44.7151 106.531 44.6959 106.585 44.6959H107.067C107.124 44.6959 107.169 44.7155 107.204 44.7542C107.24 44.7959 107.258 44.8446 107.258 44.9021V47.7968C107.298 47.9137 107.403 47.9868 107.572 48.0167C107.74 48.0451 107.913 48.0587 108.097 48.0587H108.232C108.294 48.0587 108.37 48.0558 108.458 48.048C108.545 48.0421 108.627 48.0248 108.703 47.9982C108.78 47.9728 108.845 47.934 108.897 47.8794C108.95 47.8241 108.976 47.754 108.976 47.6673V44.4875C108.976 44.43 108.994 44.3805 109.033 44.3403C109.072 44.2994 109.119 44.2809 109.176 44.2809H109.668C109.723 44.2809 109.769 44.2994 109.805 44.3403C109.839 44.3802 109.856 44.43 109.856 44.4875V47.7754C109.879 47.8329 109.923 47.8794 109.993 47.9119C110.062 47.9458 110.14 47.9713 110.224 47.9886C110.308 48.0071 110.391 48.02 110.475 48.0277C110.559 48.0336 110.632 48.0373 110.695 48.0373H110.894V48.9769H110.716C110.528 48.9769 110.311 48.9544 110.066 48.9049C109.822 48.8592 109.609 48.7618 109.427 48.6168C109.266 48.7618 109.075 48.8592 108.85 48.9049C108.628 48.9547 108.415 48.9769 108.212 48.9769H108.045C107.799 48.9769 107.58 48.9544 107.388 48.9049C107.197 48.8592 107.007 48.7618 106.818 48.6168C106.536 48.8562 106.132 48.9772 105.602 48.9772H105.423C105.241 48.9772 105.041 48.9547 104.821 48.9053C104.601 48.8596 104.411 48.7622 104.249 48.6172C104.167 48.6969 104.069 48.7592 103.961 48.8042C103.853 48.8459 103.743 48.8832 103.631 48.9112C103.518 48.9422 103.409 48.9599 103.301 48.9677C103.192 48.9736 103.092 48.9772 103.002 48.9772H102.668C102.569 48.9772 102.486 48.9654 102.415 48.9392C102.346 48.9138 102.31 48.8751 102.31 48.8245V48.1801H102.308Z" fill="white"/>
<path d="M113.084 48.9778C112.986 48.9778 112.902 48.9653 112.833 48.9398C112.763 48.9144 112.728 48.8757 112.728 48.824V48.1803C112.728 48.1364 112.763 48.1014 112.833 48.0763C112.902 48.0508 112.986 48.0375 113.084 48.0375H115.4V48.9778H113.084Z" fill="white"/>
<path d="M114.981 48.18C114.981 48.1361 115.016 48.1022 115.086 48.076C115.156 48.0505 115.24 48.038 115.339 48.038H116.175C116.379 48.038 116.506 48.0207 116.559 47.9845C116.611 47.9465 116.637 47.8336 116.637 47.6437V40.9819C116.637 40.9236 116.656 40.8727 116.695 40.834C116.733 40.7941 116.78 40.7735 116.836 40.7735H117.351C117.406 40.7735 117.451 40.7938 117.487 40.834C117.521 40.8731 117.54 40.9236 117.54 40.9819V47.2851V47.578C117.54 47.6879 117.537 47.8008 117.533 47.9177C117.53 48.0336 117.524 48.1487 117.517 48.2567C117.511 48.3648 117.5 48.4641 117.487 48.5519C117.472 48.6249 117.451 48.6861 117.424 48.7367C117.395 48.7883 117.339 48.8311 117.255 48.8673C117.2 48.8905 117.12 48.9052 117.015 48.917C116.911 48.9289 116.794 48.9396 116.669 48.9503C116.542 48.961 116.411 48.9687 116.276 48.9728C116.139 48.9757 116.012 48.9775 115.893 48.9775H115.339C115.24 48.9775 115.156 48.9657 115.086 48.9396C115.016 48.9141 114.981 48.8754 114.981 48.8248V48.18Z" fill="white"/>
<path d="M119.321 40.9813C119.321 40.9238 119.339 40.8732 119.378 40.8293C119.416 40.7854 119.463 40.7622 119.52 40.7622H120.034C120.089 40.7622 120.135 40.7854 120.17 40.8293C120.204 40.8732 120.223 40.9238 120.223 40.9813V48.759C120.223 48.8195 120.205 48.8689 120.17 48.9117C120.135 48.9563 120.09 48.9788 120.034 48.9788H119.52C119.463 48.9788 119.416 48.9563 119.378 48.9117C119.339 48.8689 119.321 48.8191 119.321 48.759V40.9813Z" fill="white"/>
<path d="M127.025 41.8983C127.025 41.8271 127.051 41.7688 127.103 41.7242C127.156 41.6795 127.212 41.6589 127.276 41.6589H127.684C127.748 41.6589 127.803 41.6792 127.852 41.7242C127.902 41.7688 127.926 41.8275 127.926 41.8983V42.4885C127.926 42.5556 127.902 42.6102 127.852 42.653C127.803 42.6969 127.748 42.7183 127.684 42.7183H127.276C127.212 42.7183 127.156 42.6969 127.103 42.653C127.05 42.6102 127.025 42.5556 127.025 42.4885V41.8983ZM125.316 41.8983C125.316 41.8271 125.339 41.7688 125.384 41.7242C125.429 41.6795 125.487 41.6589 125.557 41.6589H125.966C126.035 41.6589 126.093 41.6792 126.139 41.7242C126.184 41.7688 126.207 41.8275 126.207 41.8983V42.4885C126.207 42.5556 126.182 42.6102 126.132 42.653C126.084 42.6969 126.028 42.7183 125.966 42.7183H125.557C125.487 42.7183 125.429 42.6969 125.384 42.653C125.339 42.6102 125.316 42.5556 125.316 42.4885V41.8983ZM125.294 46.5046C125.294 46.9428 125.39 47.2844 125.578 47.529C125.766 47.7732 126.088 47.896 126.543 47.896H126.741C126.846 47.896 126.954 47.8894 127.066 47.8757C127.178 47.8602 127.28 47.8311 127.37 47.7861C127.46 47.7433 127.535 47.6828 127.59 47.6061C127.645 47.5294 127.675 47.4327 127.675 47.315V44.8273C127.535 44.8125 127.413 44.8018 127.307 44.794C127.203 44.787 127.104 44.7833 127.014 44.7833C126.761 44.7833 126.532 44.8047 126.323 44.8486C126.112 44.8925 125.933 44.9722 125.782 45.0851C125.633 45.198 125.513 45.3518 125.427 45.5466C125.339 45.7373 125.294 45.9819 125.294 46.274V46.5046ZM124.414 46.3342C124.414 45.9048 124.481 45.5359 124.615 45.2301C124.746 44.9261 124.933 44.6753 125.175 44.4834C125.416 44.2898 125.703 44.1474 126.034 44.057C126.366 43.9666 126.731 43.9209 127.129 43.9209C127.22 43.9209 127.325 43.9246 127.443 43.9305C127.561 43.9393 127.68 43.95 127.796 43.9644C127.91 43.9792 128.021 43.9947 128.125 44.0131C128.229 44.0308 128.321 44.0519 128.396 44.0736C128.467 44.0884 128.51 44.1116 128.529 44.1448C128.545 44.1769 128.555 44.2226 128.555 44.282V47.3508C128.555 47.6419 128.621 47.83 128.753 47.9115C128.887 47.9971 129.064 48.038 129.289 48.038H129.528V48.9787H129.172C128.858 48.9787 128.595 48.9311 128.382 48.8356C128.169 48.7423 128.006 48.5777 127.895 48.3439C127.776 48.5043 127.592 48.6194 127.343 48.6877C127.096 48.7566 126.824 48.7917 126.532 48.7917H126.437C125.788 48.7917 125.287 48.6069 124.939 48.2358C124.59 47.8628 124.414 47.3254 124.414 46.6186V46.3342H124.414Z" fill="white"/>
<path d="M129.467 48.9778C129.368 48.9778 129.285 48.9653 129.214 48.9398C129.145 48.9144 129.11 48.8757 129.11 48.824V48.1803C129.11 48.1364 129.145 48.1014 129.214 48.0763C129.285 48.0508 129.368 48.0375 129.467 48.0375H131.783V48.9778H129.467Z" fill="white"/>
<path d="M131.721 48.9778C131.622 48.9778 131.538 48.9653 131.469 48.9398C131.398 48.9144 131.363 48.8757 131.363 48.824V48.1803C131.363 48.1364 131.399 48.1014 131.469 48.0763C131.538 48.0508 131.622 48.0375 131.721 48.0375H134.037V48.9778H131.721Z" fill="white"/>
<path d="M134.823 43.2096C134.697 43.2096 134.633 43.1657 134.633 43.0783V42.8935C134.633 42.8204 134.697 42.7843 134.823 42.7843H135C134.938 42.7035 134.892 42.6072 134.864 42.4943C134.836 42.3822 134.823 42.2704 134.823 42.1612C134.823 41.8554 134.908 41.6304 135.079 41.4895C135.25 41.3482 135.493 41.2763 135.807 41.2763C135.862 41.2763 135.926 41.2799 135.997 41.2881C136.066 41.2958 136.135 41.3058 136.205 41.3213C136.282 41.3504 136.321 41.3932 136.321 41.4518V41.6046C136.321 41.6842 136.276 41.7245 136.184 41.7245C136.17 41.7245 136.122 41.7234 136.038 41.7186C135.954 41.7167 135.895 41.7138 135.86 41.7138C135.49 41.7138 135.305 41.8783 135.305 42.2055C135.305 42.3582 135.329 42.484 135.379 42.5821C135.427 42.6795 135.479 42.7448 135.535 42.7728H136.237C136.355 42.7728 136.415 42.8167 136.415 42.9042V43.0783C136.415 43.1377 136.4 43.1738 136.368 43.1882C136.337 43.2019 136.293 43.2096 136.237 43.2096H134.823ZM133.616 48.18C133.616 48.1361 133.651 48.1022 133.72 48.076C133.792 48.0505 133.875 48.038 133.974 48.038H134.445C134.515 48.038 134.591 48.0343 134.676 48.0273C134.759 48.0206 134.839 48.004 134.917 47.9786C134.992 47.9524 135.057 47.9114 135.111 47.8587C135.162 47.8034 135.189 47.7292 135.189 47.6337V44.7711C135.189 44.7136 135.208 44.6641 135.246 44.6239C135.284 44.5848 135.331 44.5645 135.387 44.5645H135.87C135.926 44.5645 135.974 44.5848 136.011 44.6239C136.05 44.6638 136.07 44.7136 136.07 44.7711V47.7757C136.09 47.8332 136.134 47.8797 136.2 47.9111C136.266 47.9461 136.34 47.9716 136.421 47.9878C136.5 48.0074 136.582 48.0199 136.666 48.0269C136.751 48.0339 136.824 48.0376 136.886 48.0376H137.033V48.9772H136.908C136.69 48.9772 136.458 48.9547 136.211 48.906C135.963 48.8591 135.758 48.7617 135.598 48.6168C135.423 48.7617 135.215 48.8591 134.974 48.906C134.733 48.9547 134.515 48.9772 134.318 48.9772H133.974C133.875 48.9772 133.792 48.9654 133.721 48.9392C133.652 48.9137 133.617 48.875 133.617 48.8233L133.616 48.18Z" fill="white"/>
<path d="M136.972 48.9778C136.873 48.9778 136.79 48.9653 136.721 48.9398C136.651 48.9144 136.614 48.8757 136.614 48.824V48.1803C136.614 48.1364 136.651 48.1014 136.721 48.0763C136.79 48.0508 136.873 48.0375 136.972 48.0375H139.288V48.9778H136.972Z" fill="white"/>
<path d="M139.226 48.9778C139.127 48.9778 139.044 48.9653 138.975 48.9398C138.904 48.9144 138.869 48.8757 138.869 48.824V48.1803C138.869 48.1364 138.904 48.1014 138.975 48.0763C139.044 48.0508 139.127 48.0375 139.226 48.0375H141.542V48.9778H139.226Z" fill="white"/>
<path d="M143.385 50.2333C143.385 50.1613 143.413 50.1027 143.465 50.0599C143.517 50.016 143.575 49.9939 143.637 49.9939H144.046C144.111 49.9939 144.164 50.0164 144.214 50.0599C144.264 50.1027 144.288 50.1613 144.288 50.2333V50.8242C144.288 50.8818 144.264 50.9342 144.214 50.9828C144.164 51.0286 144.111 51.0529 144.046 51.0529H143.637C143.575 51.0529 143.517 51.0286 143.465 50.9828C143.412 50.9342 143.385 50.8814 143.385 50.8242V50.2333ZM141.677 50.2333C141.677 50.1613 141.7 50.1027 141.745 50.0599C141.792 50.016 141.848 49.9939 141.919 49.9939H142.328C142.397 49.9939 142.455 50.0164 142.5 50.0599C142.546 50.1027 142.569 50.1613 142.569 50.2333V50.8242C142.569 50.8818 142.544 50.9342 142.495 50.9828C142.445 51.0286 142.389 51.0529 142.328 51.0529H141.919C141.847 51.0529 141.791 51.0286 141.745 50.9828C141.7 50.9342 141.676 50.8814 141.676 50.8242L141.677 50.2333ZM141.121 48.1797C141.121 48.1358 141.157 48.1018 141.227 48.0764C141.298 48.0502 141.38 48.0384 141.48 48.0384H141.95C142.02 48.0384 142.097 48.0336 142.182 48.0277C142.264 48.0199 142.344 48.0033 142.422 47.9779C142.499 47.9524 142.562 47.9119 142.617 47.858C142.667 47.8027 142.694 47.7285 142.694 47.633V44.7715C142.694 44.7132 142.714 44.6645 142.752 44.6236C142.789 44.5845 142.837 44.5642 142.894 44.5642H143.375C143.431 44.5642 143.479 44.5845 143.517 44.6236C143.556 44.6645 143.575 44.7132 143.575 44.7715V47.7754C143.595 47.8329 143.639 47.8794 143.706 47.9119C143.77 47.9458 143.845 47.9712 143.926 47.9886C144.005 48.007 144.087 48.0199 144.17 48.0277C144.256 48.0336 144.328 48.0384 144.39 48.0384H144.538V48.9779H144.413C144.194 48.9779 143.963 48.9547 143.716 48.906C143.467 48.8592 143.262 48.7618 143.103 48.6168C142.928 48.7618 142.719 48.8592 142.478 48.906C142.237 48.9547 142.019 48.9779 141.823 48.9779H141.479C141.38 48.9779 141.297 48.9654 141.226 48.9399C141.156 48.9138 141.121 48.8747 141.121 48.8241V48.1797H141.121Z" fill="white"/>
<path d="M144.477 48.9778C144.378 48.9778 144.295 48.9653 144.225 48.9398C144.156 48.9144 144.12 48.8757 144.12 48.824V48.1803C144.12 48.1364 144.156 48.1014 144.225 48.0763C144.295 48.0508 144.378 48.0375 144.477 48.0375H146.793V48.9778H144.477Z" fill="white"/>
<path d="M146.73 48.9778C146.631 48.9778 146.547 48.9653 146.478 48.9398C146.408 48.9144 146.373 48.8757 146.373 48.824V48.1803C146.373 48.1364 146.408 48.1014 146.478 48.0763C146.547 48.0508 146.631 48.0375 146.73 48.0375H149.046V48.9778H146.73Z" fill="white"/>
<path d="M151.897 48.0376C152.449 48.0376 152.845 47.8945 153.082 47.6064C153.319 47.319 153.438 46.9062 153.438 46.3669V46.1703C153.438 45.9073 153.403 45.6904 153.328 45.5152C153.255 45.3407 153.154 45.1998 153.024 45.0935C152.895 44.9895 152.737 44.9142 152.553 44.8707C152.367 44.8268 152.16 44.8047 151.929 44.8047C151.742 44.8047 151.583 44.8106 151.458 44.8154C151.331 44.8242 151.199 44.8386 151.06 44.86V48.038L151.897 48.0376ZM148.984 48.9779C148.885 48.9779 148.802 48.9654 148.732 48.9399C148.663 48.9137 148.626 48.8757 148.626 48.8241V48.1804C148.626 48.1365 148.663 48.1014 148.732 48.0764C148.802 48.0509 148.885 48.0373 148.984 48.0373H150.178V44.3889C150.178 44.244 150.259 44.1495 150.42 44.1056C150.644 44.0396 150.881 43.9957 151.133 43.9743C151.385 43.9529 151.647 43.9422 151.919 43.9422C152.659 43.9422 153.245 44.1138 153.674 44.4542C154.105 44.7969 154.319 45.351 154.319 46.1165V46.2791C154.319 46.9206 154.194 47.467 153.947 47.9177C153.699 48.3696 153.317 48.6725 152.799 48.8241C152.695 48.8621 152.568 48.8875 152.422 48.9067C152.274 48.9244 152.123 48.9399 151.966 48.9495C151.808 48.9602 151.652 48.9691 151.494 48.972C151.336 48.975 151.193 48.9779 151.06 48.9779V49.2505C151.06 49.7968 151.143 50.2019 151.312 50.4686C151.478 50.7353 151.797 50.8666 152.265 50.8666C152.719 50.8666 153.028 50.743 153.187 50.4955C153.349 50.2473 153.436 49.8548 153.45 49.3154C153.45 49.2882 153.452 49.2435 153.455 49.1849C153.458 49.1266 153.463 49.0661 153.465 49.0048C153.469 48.9425 153.474 48.8824 153.481 48.8237C153.486 48.7662 153.495 48.7252 153.502 48.7049C153.572 48.4353 153.707 48.2523 153.911 48.1586C154.009 48.107 154.124 48.073 154.256 48.0601C154.389 48.0454 154.536 48.0369 154.697 48.0369H155.138V48.9772H154.917C154.806 48.9772 154.684 48.9783 154.555 48.9831C154.426 48.9849 154.34 48.9908 154.299 48.9986L154.288 49.4025C154.268 50.1591 154.104 50.7375 153.796 51.1337C153.487 51.531 152.98 51.7295 152.275 51.7295C151.871 51.7295 151.533 51.6741 151.264 51.566C150.996 51.4568 150.78 51.2982 150.619 51.0909C150.458 50.8836 150.345 50.6313 150.278 50.3373C150.212 50.0422 150.179 49.7083 150.179 49.3372V48.9768H148.984V48.9779Z" fill="white"/>
<path d="M155.073 48.9778C154.975 48.9778 154.891 48.9653 154.822 48.9398C154.751 48.9144 154.715 48.8757 154.715 48.824V48.1803C154.715 48.1364 154.751 48.1014 154.822 48.0763C154.891 48.0508 154.975 48.0375 155.073 48.0375H157.389V48.9778H155.073Z" fill="white"/>
<path d="M157.327 48.9778C157.229 48.9778 157.145 48.9653 157.076 48.9398C157.006 48.9144 156.971 48.8757 156.971 48.824V48.1803C156.971 48.1364 157.006 48.1014 157.076 48.0763C157.145 48.0508 157.229 48.0375 157.327 48.0375H159.643V48.9778H157.327Z" fill="white"/>
<path d="M159.223 48.18C159.223 48.1361 159.258 48.1022 159.328 48.076C159.397 48.0505 159.482 48.038 159.579 48.038H160.418C160.621 48.038 160.747 48.0207 160.801 47.9845C160.853 47.9465 160.879 47.8336 160.879 47.6437V40.9819C160.879 40.9236 160.898 40.8727 160.937 40.834C160.974 40.7941 161.022 40.7735 161.079 40.7735H161.591C161.647 40.7735 161.692 40.7938 161.728 40.834C161.762 40.8731 161.781 40.9236 161.781 40.9819V47.2851V47.578C161.781 47.6879 161.778 47.8008 161.774 47.9177C161.771 48.0336 161.766 48.1487 161.759 48.2567C161.753 48.3648 161.741 48.4641 161.729 48.5519C161.713 48.6249 161.692 48.6861 161.664 48.7367C161.637 48.7883 161.581 48.8311 161.497 48.8673C161.442 48.8905 161.36 48.9052 161.256 48.917C161.152 48.9289 161.035 48.9396 160.911 48.9503C160.784 48.961 160.654 48.9687 160.518 48.9728C160.381 48.9757 160.254 48.9775 160.135 48.9775H159.579C159.482 48.9775 159.397 48.9657 159.328 48.9396C159.258 48.9141 159.223 48.8754 159.223 48.8248V48.18Z" fill="white"/>
<path d="M163.563 40.9813C163.563 40.9238 163.581 40.8732 163.62 40.8293C163.658 40.7854 163.705 40.7622 163.762 40.7622H164.275C164.331 40.7622 164.377 40.7854 164.412 40.8293C164.446 40.8732 164.465 40.9238 164.465 40.9813V48.759C164.465 48.8195 164.446 48.8689 164.412 48.9117C164.377 48.9563 164.331 48.9788 164.275 48.9788H163.762C163.705 48.9788 163.658 48.9563 163.62 48.9117C163.581 48.8689 163.563 48.8191 163.563 48.759V40.9813Z" fill="white"/>
<path d="M0.0177812 64.2473L0.525002 63.6339C1.11301 64.3329 2.07322 65.0183 3.38757 65.0183C5.25119 65.0183 5.78571 63.9327 5.78571 63.1197C5.78571 60.3205 0.305145 61.7769 0.305145 58.451C0.305145 56.8943 1.6479 55.9086 3.30605 55.9086C4.66245 55.9086 5.70308 56.4092 6.40213 57.2514L5.88126 57.8512C5.2239 57.0227 4.29245 56.6508 3.2651 56.6508C2.04519 56.6508 1.12813 57.379 1.12813 58.4071C1.12813 60.8491 6.60796 59.5075 6.60796 63.0621C6.60796 64.2898 5.82703 65.7602 3.36101 65.7602C1.85411 65.7605 0.716824 65.1179 0.0177812 64.2473Z" fill="white"/>
<path d="M12.8539 65.5898V64.7749C12.2647 65.4466 11.5248 65.7602 10.6077 65.7602C9.47042 65.7602 8.29145 64.9471 8.29145 63.4624C8.29145 61.9628 9.45603 61.1771 10.6077 61.1771C11.5248 61.1771 12.2784 61.4918 12.8539 62.1624V60.7632C12.8539 59.7351 12.0593 59.1792 11.0865 59.1792C10.2502 59.1792 9.60654 59.4791 9.00488 60.1918L8.60759 59.6787C9.29188 58.9073 10.0592 58.5219 11.1555 58.5219C12.4971 58.5219 13.5662 59.1929 13.5662 60.7348V65.5894H12.8539V65.5898ZM12.8539 64.2326V62.7194C12.3883 62.0768 11.6483 61.7622 10.8541 61.7622C9.77254 61.7622 9.0462 62.4903 9.0462 63.4756C9.0462 64.4466 9.77254 65.1748 10.8541 65.1748C11.6483 65.1751 12.3883 64.8616 12.8539 64.2326Z" fill="white"/>
<path d="M20.4434 65.5895V64.5762C19.9088 65.204 19.018 65.7611 18.0589 65.7611C16.7161 65.7611 15.9772 65.1048 15.9772 63.5481V58.6935H16.6899V63.3766C16.6899 64.7193 17.3336 65.0893 18.2924 65.0893C19.1416 65.0893 20.0051 64.5614 20.443 63.9472V58.6935H21.1546V65.5899H20.4434V65.5895Z" fill="white"/>
<path d="M28.4439 65.5893V64.4911C27.9783 65.2038 27.1284 65.7608 26.142 65.7608C24.3883 65.7608 23.1968 64.3616 23.1968 62.1487C23.1968 59.9649 24.3887 58.5229 26.142 58.5229C27.0863 58.5229 27.9226 59.0224 28.4439 59.807V56.0661H29.1691V65.5893H28.4439ZM28.4439 63.8618V60.4492C28.0602 59.7782 27.1966 59.1932 26.2659 59.1932C24.7996 59.1932 23.9497 60.4784 23.9497 62.1483C23.9497 63.8179 24.7996 65.0898 26.2659 65.0898C27.1966 65.0898 28.0602 64.518 28.4439 63.8618Z" fill="white"/>
<path d="M31.3887 57.0378C31.3887 56.7232 31.6495 56.4808 31.9368 56.4808C32.2386 56.4808 32.485 56.7232 32.485 57.0378C32.485 57.3514 32.2386 57.6085 31.9368 57.6085C31.6495 57.6081 31.3887 57.3514 31.3887 57.0378ZM31.5812 58.6938H32.2939V65.5901H31.5812V58.6938Z" fill="white"/>
<path d="M38.129 60.8351C38.129 57.9084 40.1697 55.9094 42.7596 55.9094C44.2123 55.9094 45.3212 56.58 46.0885 57.5948L45.4311 58.0356C44.8546 57.2082 43.8556 56.6512 42.7593 56.6512C40.6223 56.6512 38.9505 58.3503 38.9505 60.8348C38.9505 63.2904 40.6223 65.0187 42.7593 65.0187C43.8556 65.0187 44.8546 64.4609 45.4311 63.6331L46.1021 64.0614C45.2803 65.1032 44.2123 65.7605 42.7596 65.7605C40.1697 65.7609 38.129 63.7619 38.129 60.8351Z" fill="white"/>
<path d="M47.4582 62.1345C47.4582 60.1211 48.6918 58.5223 50.6237 58.5223C52.5825 58.5223 53.8153 60.1211 53.8153 62.1345C53.8153 64.1479 52.5828 65.7603 50.6237 65.7603C48.6918 65.7603 47.4582 64.1479 47.4582 62.1345ZM53.0476 62.1345C53.0476 60.6069 52.1848 59.193 50.6233 59.193C49.088 59.193 48.2115 60.6066 48.2115 62.1345C48.2115 63.6768 49.0876 65.0897 50.6233 65.0897C52.1852 65.0897 53.0476 63.6768 53.0476 62.1345Z" fill="white"/>
<path d="M60.3083 65.5894V60.9207C60.3083 59.5938 59.6646 59.1936 58.7047 59.1936C57.8556 59.1936 56.9794 59.7495 56.5549 60.3785V65.5894H55.8422V58.693H56.5549V59.7359C57.034 59.136 57.9791 58.5219 58.9382 58.5219C60.281 58.5219 61.021 59.2073 61.021 60.764V65.5894H60.3083Z" fill="white"/>
<path d="M63.5686 64.2617V59.3496H62.4722V58.6934H63.5686V56.8095H64.2949V58.6934H65.6366V59.3496H64.2949V64.1466C64.2949 64.7044 64.5129 65.0903 64.9792 65.0903C65.2946 65.0903 65.5683 64.9324 65.7192 64.7623L65.9929 65.333C65.7328 65.5901 65.4174 65.7613 64.8693 65.7613C63.9932 65.7609 63.5686 65.2042 63.5686 64.2617Z" fill="white"/>
<path d="M67.3903 65.5894V58.6931H68.103V59.8779C68.6648 59.107 69.4184 58.551 70.3355 58.551V59.3641C70.2119 59.3357 70.1164 59.3357 69.9791 59.3357C69.3081 59.3357 68.4036 59.9635 68.103 60.5644V65.5894H67.3903Z" fill="white"/>
<path d="M76.1303 65.5898V64.7749C75.5412 65.4466 74.8012 65.7602 73.8841 65.7602C72.7469 65.7602 71.5686 64.9471 71.5686 63.4624C71.5686 61.9628 72.7332 61.1771 73.8841 61.1771C74.8012 61.1771 75.5559 61.4918 76.1303 62.1624V60.7632C76.1303 59.7351 75.3357 59.1792 74.363 59.1792C73.5274 59.1792 72.883 59.4791 72.2813 60.1918L71.884 59.6787C72.5694 58.9073 73.3356 58.5219 74.4319 58.5219C75.7747 58.5219 76.8426 59.1929 76.8426 60.7348V65.5894H76.1303V65.5898ZM76.1303 64.2326V62.7194C75.6648 62.0768 74.9248 61.7622 74.1305 61.7622C73.049 61.7622 72.3226 62.4903 72.3226 63.4756C72.3226 64.4466 73.049 65.1748 74.1305 65.1748C74.9248 65.1751 75.6648 64.8616 76.1303 64.2326Z" fill="white"/>
<path d="M78.8844 62.1345C78.8844 60.1211 80.1442 58.5223 82.0908 58.5223C83.2406 58.5223 83.898 58.9934 84.4333 59.6936L83.9386 60.1502C83.4594 59.4649 82.857 59.193 82.1314 59.193C80.5824 59.193 79.637 60.4782 79.637 62.1345C79.637 63.7908 80.5824 65.0897 82.1314 65.0897C82.8566 65.0897 83.4594 64.8045 83.9386 64.1187L84.4333 64.5754C83.8976 65.29 83.2406 65.7603 82.0908 65.7603C80.1442 65.7603 78.8844 64.1479 78.8844 62.1345Z" fill="white"/>
<path d="M86.3504 64.2617V59.3496H85.2552V58.6934H86.3504V56.8095H87.0767V58.6934H88.4195V59.3496H87.0767V64.1466C87.0767 64.7044 87.2958 65.0903 87.761 65.0903C88.0764 65.0903 88.3501 64.9324 88.5021 64.7623L88.7747 65.333C88.5157 65.5901 88.1992 65.7613 87.6511 65.7613C86.7746 65.7609 86.3504 65.2042 86.3504 64.2617Z" fill="white"/>
<path d="M89.8018 62.1345C89.8018 60.1211 91.0353 58.5223 92.9672 58.5223C94.926 58.5223 96.1588 60.1211 96.1588 62.1345C96.1588 64.1479 94.9264 65.7603 92.9672 65.7603C91.0353 65.7603 89.8018 64.1479 89.8018 62.1345ZM95.3915 62.1345C95.3915 60.6069 94.5287 59.193 92.9672 59.193C91.4326 59.193 90.5565 60.6066 90.5565 62.1345C90.5565 63.6768 91.4326 65.0897 92.9672 65.0897C94.5287 65.0897 95.3915 63.6768 95.3915 62.1345Z" fill="white"/>
<path d="M98.1862 65.5894V58.6931H98.8989V59.8779C99.4607 59.107 100.214 58.551 101.131 58.551V59.3641C101.009 59.3357 100.912 59.3357 100.775 59.3357C100.104 59.3357 99.1995 59.9635 98.8989 60.5644V65.5894H98.1862Z" fill="white"/>
<path d="M102.145 64.6616L102.57 64.1194C102.995 64.6753 103.775 65.1327 104.708 65.1327C105.817 65.1327 106.474 64.5329 106.474 63.7335C106.474 61.8485 102.296 62.9194 102.296 60.4356C102.296 59.3792 103.159 58.5226 104.652 58.5226C105.79 58.5226 106.543 58.9793 107.022 59.5352L106.625 60.0638C106.242 59.5215 105.528 59.1504 104.652 59.1504C103.625 59.1504 103.008 59.692 103.008 60.4065C103.008 62.1348 107.173 61.0775 107.173 63.7335C107.173 64.8472 106.351 65.7605 104.693 65.7605C103.625 65.7609 102.802 65.4326 102.145 64.6616Z" fill="white"/>
<path d="M119.585 65.5898L118.681 63.2481H113.844L112.939 65.5898H112.036L115.777 56.0666H116.75L120.488 65.5898H119.585ZM116.269 56.9372L114.104 62.5063H118.42L116.269 56.9372Z" fill="white"/>
<path d="M126.311 65.5895V64.5762C125.778 65.204 124.887 65.7611 123.927 65.7611C122.584 65.7611 121.845 65.1048 121.845 63.5481V58.6935H122.558V63.3766C122.558 64.7193 123.202 65.0893 124.16 65.0893C125.01 65.0893 125.873 64.5614 126.311 63.9472V58.6935H127.022V65.5899H126.311V65.5895Z" fill="white"/>
<path d="M129.572 64.2617V59.3496H128.476V58.6934H129.572V56.8095H130.298V58.6934H131.641V59.3496H130.298V64.1466C130.298 64.7044 130.516 65.0903 130.983 65.0903C131.298 65.0903 131.572 64.9324 131.723 64.7623L131.996 65.333C131.736 65.5901 131.421 65.7613 130.873 65.7613C129.996 65.7609 129.572 65.2042 129.572 64.2617Z" fill="white"/>
<path d="M137.86 65.5893V60.8915C137.86 59.5642 137.217 59.1935 136.258 59.1935C135.408 59.1935 134.532 59.7494 134.107 60.3784V65.5893H133.395V56.0661H134.107V59.7358C134.587 59.136 135.532 58.5218 136.491 58.5218C137.834 58.5218 138.572 59.1791 138.572 60.7347V65.5893H137.86Z" fill="white"/>
<path d="M140.614 62.1345C140.614 60.1211 141.847 58.5223 143.779 58.5223C145.739 58.5223 146.971 60.1211 146.971 62.1345C146.971 64.1479 145.739 65.7603 143.779 65.7603C141.847 65.7603 140.614 64.1479 140.614 62.1345ZM146.203 62.1345C146.203 60.6069 145.34 59.193 143.779 59.193C142.244 59.193 141.368 60.6066 141.368 62.1345C141.368 63.6768 142.244 65.0897 143.779 65.0897C145.34 65.0897 146.203 63.6768 146.203 62.1345Z" fill="white"/>
<path d="M148.998 65.5894V58.6931H149.71V59.8779C150.272 59.107 151.026 58.551 151.943 58.551V59.3641C151.82 59.3357 151.724 59.3357 151.587 59.3357C150.916 59.3357 150.011 59.9635 149.71 60.5644V65.5894H148.998Z" fill="white"/>
<path d="M153.341 57.0378C153.341 56.7232 153.602 56.4808 153.889 56.4808C154.191 56.4808 154.438 56.7232 154.438 57.0378C154.438 57.3514 154.191 57.6085 153.889 57.6085C153.602 57.6081 153.341 57.3514 153.341 57.0378ZM153.533 58.6938H154.245V65.5901H153.533V58.6938Z" fill="white"/>
<path d="M156.793 64.2617V59.3496H155.696V58.6934H156.793V56.8095H157.519V58.6934H158.862V59.3496H157.519V64.1466C157.519 64.7044 157.738 65.0903 158.203 65.0903C158.519 65.0903 158.792 64.9324 158.944 64.7623L159.217 65.333C158.958 65.5901 158.643 65.7613 158.094 65.7613C157.217 65.7609 156.793 65.2042 156.793 64.2617Z" fill="white"/>
<path d="M160.3 67.6024C160.451 67.6736 160.711 67.7175 160.876 67.7175C161.314 67.7175 161.616 67.5316 161.889 66.8742L162.41 65.6466L159.601 58.6938H160.396L162.808 64.7188L165.192 58.6938H166L162.575 67.1022C162.218 67.9746 161.657 68.3885 160.889 68.3885C160.656 68.3885 160.355 68.3446 160.177 68.2882L160.3 67.6024Z" fill="white"/>
<path d="M164.019 34.383H0.37034V34.8677H164.019V34.383Z" fill="white"/>
<path d="M63.5513 14.471C63.9766 14.471 64.3215 14.8314 64.3215 15.2744C64.3215 15.7193 63.9769 16.0797 63.5513 16.0797C63.1259 16.0797 62.781 15.7193 62.781 15.2744C62.781 14.8314 63.1259 14.471 63.5513 14.471Z" fill="white"/>
<path d="M65.8878 12.0849C66.3132 12.0849 66.6588 12.4453 66.6588 12.8883C66.6588 13.3313 66.3132 13.6936 65.8878 13.6936C65.4625 13.6936 65.1176 13.3313 65.1176 12.8883C65.118 12.4449 65.4625 12.0849 65.8878 12.0849Z" fill="white"/>
<path d="M63.5513 12.0849C63.9766 12.0849 64.3215 12.4453 64.3215 12.8883C64.3215 13.3313 63.9769 13.6936 63.5513 13.6936C63.1259 13.6936 62.781 13.3313 62.781 12.8883C62.781 12.4449 63.1259 12.0849 63.5513 12.0849Z" fill="white"/>
<path d="M65.8878 9.64945C66.3132 9.64945 66.6588 10.0099 66.6588 10.4529C66.6588 10.897 66.3132 11.2582 65.8878 11.2582C65.4625 11.2582 65.1176 10.897 65.1176 10.4529C65.118 10.0099 65.4625 9.64945 65.8878 9.64945Z" fill="white"/>
<path d="M68.1778 9.64945C68.6031 9.64945 68.948 10.0099 68.948 10.4529C68.948 10.897 68.6035 11.2582 68.1778 11.2582C67.7525 11.2582 67.4068 10.897 67.4068 10.4529C67.4068 10.0099 67.7525 9.64945 68.1778 9.64945Z" fill="white"/>
<path d="M63.5513 9.64945C63.9766 9.64945 64.3215 10.0099 64.3215 10.4529C64.3215 10.897 63.9769 11.2582 63.5513 11.2582C63.1259 11.2582 62.781 10.897 62.781 10.4529C62.781 10.0099 63.1259 9.64945 63.5513 9.64945Z" fill="white"/>
<path d="M65.8878 7.26259C66.3132 7.26259 66.6588 7.623 66.6588 8.06603C66.6588 8.51091 66.3132 8.87132 65.8878 8.87132C65.4625 8.87132 65.1176 8.51091 65.1176 8.06603C65.118 7.623 65.4625 7.26259 65.8878 7.26259Z" fill="white"/>
<path d="M68.1778 7.26259C68.6031 7.26259 68.948 7.623 68.948 8.06603C68.948 8.51091 68.6035 8.87132 68.1778 8.87132C67.7525 8.87132 67.4068 8.51091 67.4068 8.06603C67.4068 7.623 67.7525 7.26259 68.1778 7.26259Z" fill="white"/>
<path d="M63.5513 7.26259C63.9766 7.26259 64.3215 7.623 64.3215 8.06603C64.3215 8.51091 63.9769 8.87132 63.5513 8.87132C63.1259 8.87132 62.781 8.51091 62.781 8.06603C62.781 7.623 63.1259 7.26259 63.5513 7.26259Z" fill="white"/>
<path d="M65.8878 4.87623C66.3132 4.87623 66.6588 5.23663 66.6588 5.6804C66.6588 6.12233 66.3132 6.48458 65.8878 6.48458C65.4625 6.48458 65.1176 6.12233 65.1176 5.6804C65.118 5.23626 65.4625 4.87623 65.8878 4.87623Z" fill="white"/>
<path d="M68.1778 4.87623C68.6031 4.87623 68.948 5.23663 68.948 5.6804C68.948 6.12233 68.6035 6.48458 68.1778 6.48458C67.7525 6.48458 67.4068 6.12233 67.4068 5.6804C67.4068 5.23626 67.7525 4.87623 68.1778 4.87623Z" fill="white"/>
<path d="M70.4679 7.26259C70.8932 7.26259 71.2382 7.623 71.2382 8.06603C71.2382 8.51091 70.8936 8.87132 70.4679 8.87132C70.0426 8.87132 69.6977 8.51091 69.6977 8.06603C69.6977 7.623 70.0422 7.26259 70.4679 7.26259Z" fill="white"/>
<path d="M70.4679 4.87623C70.8932 4.87623 71.2382 5.23663 71.2382 5.6804C71.2382 6.12233 70.8936 6.48458 70.4679 6.48458C70.0426 6.48458 69.6977 6.12233 69.6977 5.6804C69.6977 5.23626 70.0422 4.87623 70.4679 4.87623Z" fill="white"/>
<path d="M72.8045 9.64945C73.2298 9.64945 73.5747 10.0099 73.5747 10.4529C73.5747 10.8978 73.2302 11.2582 72.8045 11.2582C72.3792 11.2582 72.0342 10.8978 72.0342 10.4529C72.0342 10.0099 72.3788 9.64945 72.8045 9.64945Z" fill="white"/>
<path d="M72.8045 7.26259C73.2298 7.26259 73.5747 7.623 73.5747 8.06603C73.5747 8.51091 73.2302 8.87132 72.8045 8.87132C72.3792 8.87132 72.0342 8.51091 72.0342 8.06603C72.0342 7.623 72.3788 7.26259 72.8045 7.26259Z" fill="white"/>
<path d="M72.8045 4.87623C73.2298 4.87623 73.5747 5.23663 73.5747 5.6804C73.5747 6.12233 73.2302 6.48458 72.8045 6.48458C72.3792 6.48458 72.0342 6.12233 72.0342 5.6804C72.0342 5.23626 72.3788 4.87623 72.8045 4.87623Z" fill="white"/>
<path d="M75.0972 12.0849C75.5225 12.0849 75.8692 12.4453 75.8692 12.8883C75.8692 13.3313 75.5225 13.6936 75.0972 13.6936C74.6718 13.6936 74.3269 13.3313 74.3269 12.8883C74.3269 12.4449 74.6715 12.0849 75.0972 12.0849Z" fill="white"/>
<path d="M75.0972 9.64945C75.5225 9.64945 75.8692 10.0099 75.8692 10.4529C75.8692 10.897 75.5225 11.2582 75.0972 11.2582C74.6718 11.2582 74.3269 10.897 74.3269 10.4529C74.3269 10.0099 74.6715 9.64945 75.0972 9.64945Z" fill="white"/>
<path d="M75.0972 7.26259C75.5225 7.26259 75.8692 7.623 75.8692 8.06603C75.8692 8.51091 75.5225 8.87132 75.0972 8.87132C74.6718 8.87132 74.3269 8.51091 74.3269 8.06603C74.3269 7.623 74.6715 7.26259 75.0972 7.26259Z" fill="white"/>
<path d="M75.0972 4.87623C75.5225 4.87623 75.8692 5.23663 75.8692 5.6804C75.8692 6.12233 75.5225 6.48458 75.0972 6.48458C74.6718 6.48458 74.3269 6.12233 74.3269 5.6804C74.3269 5.23626 74.6715 4.87623 75.0972 4.87623Z" fill="white"/>
<path d="M68.1778 2.38931C68.6031 2.38931 68.948 2.74971 68.948 3.19349C68.948 3.63726 68.6035 3.99766 68.1778 3.99766C67.7525 3.99766 67.4068 3.63726 67.4068 3.19349C67.4068 2.74971 67.7525 2.38931 68.1778 2.38931Z" fill="white"/>
<path d="M70.4679 2.38931C70.8932 2.38931 71.2382 2.74971 71.2382 3.19349C71.2382 3.63726 70.8936 3.99766 70.4679 3.99766C70.0426 3.99766 69.6977 3.63726 69.6977 3.19349C69.6977 2.74971 70.0422 2.38931 70.4679 2.38931Z" fill="white"/>
<path d="M72.8045 2.38931C73.2298 2.38931 73.5747 2.74971 73.5747 3.19349C73.5747 3.63726 73.2302 3.99766 72.8045 3.99766C72.3792 3.99766 72.0342 3.63726 72.0342 3.19349C72.0342 2.74971 72.3788 2.38931 72.8045 2.38931Z" fill="white"/>
<path d="M77.4838 14.471C77.9091 14.471 78.254 14.8314 78.254 15.2744C78.254 15.7193 77.9095 16.0797 77.4838 16.0797C77.0585 16.0797 76.7135 15.7193 76.7135 15.2744C76.7135 14.8314 77.0581 14.471 77.4838 14.471Z" fill="white"/>
<path d="M77.4838 12.0849C77.9091 12.0849 78.254 12.4453 78.254 12.8883C78.254 13.3332 77.9095 13.6936 77.4838 13.6936C77.0585 13.6936 76.7135 13.3332 76.7135 12.8883C76.7135 12.4449 77.0581 12.0849 77.4838 12.0849Z" fill="white"/>
<path d="M77.4838 9.64945C77.9091 9.64945 78.254 10.0099 78.254 10.4529C78.254 10.8978 77.9095 11.2582 77.4838 11.2582C77.0585 11.2582 76.7135 10.8978 76.7135 10.4529C76.7135 10.0099 77.0581 9.64945 77.4838 9.64945Z" fill="white"/>
<path d="M77.4838 7.26259C77.9091 7.26259 78.254 7.623 78.254 8.06603C78.254 8.51091 77.9095 8.87132 77.4838 8.87132C77.0585 8.87132 76.7135 8.51091 76.7135 8.06603C76.7135 7.623 77.0581 7.26259 77.4838 7.26259Z" fill="white"/>
<path d="M70.4679 0C70.8932 0 71.2382 0.360407 71.2382 0.803441C71.2382 1.24648 70.8936 1.60872 70.4679 1.60872C70.0426 1.60872 69.6977 1.24648 69.6977 0.803441C69.6977 0.360038 70.0422 0 70.4679 0Z" fill="white"/>
<path d="M63.5513 14.471C63.9766 14.471 64.3215 14.8314 64.3215 15.2744C64.3215 15.7193 63.9769 16.0797 63.5513 16.0797C63.1259 16.0797 62.781 15.7193 62.781 15.2744C62.781 14.8314 63.1259 14.471 63.5513 14.471Z" fill="white"/>
<path d="M65.8878 12.0849C66.3132 12.0849 66.6588 12.4453 66.6588 12.8883C66.6588 13.3313 66.3132 13.6936 65.8878 13.6936C65.4625 13.6936 65.1176 13.3313 65.1176 12.8883C65.118 12.4449 65.4625 12.0849 65.8878 12.0849Z" fill="white"/>
<path d="M63.5513 12.0849C63.9766 12.0849 64.3215 12.4453 64.3215 12.8883C64.3215 13.3313 63.9769 13.6936 63.5513 13.6936C63.1259 13.6936 62.781 13.3313 62.781 12.8883C62.781 12.4449 63.1259 12.0849 63.5513 12.0849Z" fill="white"/>
<path d="M65.8878 9.64945C66.3132 9.64945 66.6588 10.0099 66.6588 10.4529C66.6588 10.897 66.3132 11.2582 65.8878 11.2582C65.4625 11.2582 65.1176 10.897 65.1176 10.4529C65.118 10.0099 65.4625 9.64945 65.8878 9.64945Z" fill="white"/>
<path d="M68.1778 9.64945C68.6031 9.64945 68.948 10.0099 68.948 10.4529C68.948 10.897 68.6035 11.2582 68.1778 11.2582C67.7525 11.2582 67.4068 10.897 67.4068 10.4529C67.4068 10.0099 67.7525 9.64945 68.1778 9.64945Z" fill="white"/>
<path d="M63.5513 9.64945C63.9766 9.64945 64.3215 10.0099 64.3215 10.4529C64.3215 10.897 63.9769 11.2582 63.5513 11.2582C63.1259 11.2582 62.781 10.897 62.781 10.4529C62.781 10.0099 63.1259 9.64945 63.5513 9.64945Z" fill="white"/>
<path d="M65.8878 7.26259C66.3132 7.26259 66.6588 7.623 66.6588 8.06603C66.6588 8.51091 66.3132 8.87132 65.8878 8.87132C65.4625 8.87132 65.1176 8.51091 65.1176 8.06603C65.118 7.623 65.4625 7.26259 65.8878 7.26259Z" fill="white"/>
<path d="M68.1778 7.26259C68.6031 7.26259 68.948 7.623 68.948 8.06603C68.948 8.51091 68.6035 8.87132 68.1778 8.87132C67.7525 8.87132 67.4068 8.51091 67.4068 8.06603C67.4068 7.623 67.7525 7.26259 68.1778 7.26259Z" fill="white"/>
<path d="M63.5513 7.26259C63.9766 7.26259 64.3215 7.623 64.3215 8.06603C64.3215 8.51091 63.9769 8.87132 63.5513 8.87132C63.1259 8.87132 62.781 8.51091 62.781 8.06603C62.781 7.623 63.1259 7.26259 63.5513 7.26259Z" fill="white"/>
<path d="M65.8878 4.87623C66.3132 4.87623 66.6588 5.23663 66.6588 5.6804C66.6588 6.12233 66.3132 6.48458 65.8878 6.48458C65.4625 6.48458 65.1176 6.12233 65.1176 5.6804C65.118 5.23626 65.4625 4.87623 65.8878 4.87623Z" fill="white"/>
<path d="M68.1778 4.87623C68.6031 4.87623 68.948 5.23663 68.948 5.6804C68.948 6.12233 68.6035 6.48458 68.1778 6.48458C67.7525 6.48458 67.4068 6.12233 67.4068 5.6804C67.4068 5.23626 67.7525 4.87623 68.1778 4.87623Z" fill="white"/>
<path d="M70.4679 7.26259C70.8932 7.26259 71.2382 7.623 71.2382 8.06603C71.2382 8.51091 70.8936 8.87132 70.4679 8.87132C70.0426 8.87132 69.6977 8.51091 69.6977 8.06603C69.6977 7.623 70.0422 7.26259 70.4679 7.26259Z" fill="white"/>
<path d="M70.4679 4.87623C70.8932 4.87623 71.2382 5.23663 71.2382 5.6804C71.2382 6.12233 70.8936 6.48458 70.4679 6.48458C70.0426 6.48458 69.6977 6.12233 69.6977 5.6804C69.6977 5.23626 70.0422 4.87623 70.4679 4.87623Z" fill="white"/>
<path d="M72.8045 9.64945C73.2298 9.64945 73.5747 10.0099 73.5747 10.4529C73.5747 10.8978 73.2302 11.2582 72.8045 11.2582C72.3792 11.2582 72.0342 10.8978 72.0342 10.4529C72.0342 10.0099 72.3788 9.64945 72.8045 9.64945Z" fill="white"/>
<path d="M72.8045 7.26259C73.2298 7.26259 73.5747 7.623 73.5747 8.06603C73.5747 8.51091 73.2302 8.87132 72.8045 8.87132C72.3792 8.87132 72.0342 8.51091 72.0342 8.06603C72.0342 7.623 72.3788 7.26259 72.8045 7.26259Z" fill="white"/>
<path d="M72.8045 4.87623C73.2298 4.87623 73.5747 5.23663 73.5747 5.6804C73.5747 6.12233 73.2302 6.48458 72.8045 6.48458C72.3792 6.48458 72.0342 6.12233 72.0342 5.6804C72.0342 5.23626 72.3788 4.87623 72.8045 4.87623Z" fill="white"/>
<path d="M75.0972 12.0849C75.5225 12.0849 75.8692 12.4453 75.8692 12.8883C75.8692 13.3313 75.5225 13.6936 75.0972 13.6936C74.6718 13.6936 74.3269 13.3313 74.3269 12.8883C74.3269 12.4449 74.6715 12.0849 75.0972 12.0849Z" fill="white"/>
<path d="M75.0972 9.64945C75.5225 9.64945 75.8692 10.0099 75.8692 10.4529C75.8692 10.897 75.5225 11.2582 75.0972 11.2582C74.6718 11.2582 74.3269 10.897 74.3269 10.4529C74.3269 10.0099 74.6715 9.64945 75.0972 9.64945Z" fill="white"/>
<path d="M75.0972 7.26259C75.5225 7.26259 75.8692 7.623 75.8692 8.06603C75.8692 8.51091 75.5225 8.87132 75.0972 8.87132C74.6718 8.87132 74.3269 8.51091 74.3269 8.06603C74.3269 7.623 74.6715 7.26259 75.0972 7.26259Z" fill="white"/>
<path d="M75.0972 4.87623C75.5225 4.87623 75.8692 5.23663 75.8692 5.6804C75.8692 6.12233 75.5225 6.48458 75.0972 6.48458C74.6718 6.48458 74.3269 6.12233 74.3269 5.6804C74.3269 5.23626 74.6715 4.87623 75.0972 4.87623Z" fill="white"/>
<path d="M68.1778 2.38931C68.6031 2.38931 68.948 2.74971 68.948 3.19349C68.948 3.63726 68.6035 3.99766 68.1778 3.99766C67.7525 3.99766 67.4068 3.63726 67.4068 3.19349C67.4068 2.74971 67.7525 2.38931 68.1778 2.38931Z" fill="white"/>
<path d="M70.4679 2.38931C70.8932 2.38931 71.2382 2.74971 71.2382 3.19349C71.2382 3.63726 70.8936 3.99766 70.4679 3.99766C70.0426 3.99766 69.6977 3.63726 69.6977 3.19349C69.6977 2.74971 70.0422 2.38931 70.4679 2.38931Z" fill="white"/>
<path d="M72.8045 2.38931C73.2298 2.38931 73.5747 2.74971 73.5747 3.19349C73.5747 3.63726 73.2302 3.99766 72.8045 3.99766C72.3792 3.99766 72.0342 3.63726 72.0342 3.19349C72.0342 2.74971 72.3788 2.38931 72.8045 2.38931Z" fill="white"/>
<path d="M77.4838 14.471C77.9091 14.471 78.254 14.8314 78.254 15.2744C78.254 15.7193 77.9095 16.0797 77.4838 16.0797C77.0585 16.0797 76.7135 15.7193 76.7135 15.2744C76.7135 14.8314 77.0581 14.471 77.4838 14.471Z" fill="white"/>
<path d="M77.4838 12.0849C77.9091 12.0849 78.254 12.4453 78.254 12.8883C78.254 13.3332 77.9095 13.6936 77.4838 13.6936C77.0585 13.6936 76.7135 13.3332 76.7135 12.8883C76.7135 12.4449 77.0581 12.0849 77.4838 12.0849Z" fill="white"/>
<path d="M77.4838 9.64945C77.9091 9.64945 78.254 10.0099 78.254 10.4529C78.254 10.8978 77.9095 11.2582 77.4838 11.2582C77.0585 11.2582 76.7135 10.8978 76.7135 10.4529C76.7135 10.0099 77.0581 9.64945 77.4838 9.64945Z" fill="white"/>
<path d="M77.4838 7.26259C77.9091 7.26259 78.254 7.623 78.254 8.06603C78.254 8.51091 77.9095 8.87132 77.4838 8.87132C77.0585 8.87132 76.7135 8.51091 76.7135 8.06603C76.7135 7.623 77.0581 7.26259 77.4838 7.26259Z" fill="white"/>
<path d="M70.4679 0C70.8932 0 71.2382 0.360407 71.2382 0.803441C71.2382 1.24648 70.8936 1.60872 70.4679 1.60872C70.0426 1.60872 69.6977 1.24648 69.6977 0.803441C69.6977 0.360038 70.0422 0 70.4679 0Z" fill="white"/>
</svg>
