<svg width="21" height="21" viewBox="0 0 21 21" fill="none" xmlns="http://www.w3.org/2000/svg">
<path d="M5.21973 14.2197C5.51262 13.9268 5.98738 13.9268 6.28027 14.2197C6.57317 14.5126 6.57317 14.9874 6.28027 15.2803L1.28027 20.2803C0.98738 20.5732 0.51262 20.5732 0.219727 20.2803C-0.0731666 19.9874 -0.0731666 19.5126 0.219727 19.2197L5.21973 14.2197ZM8.21973 17.2197C8.51262 16.9268 8.98738 16.9268 9.28027 17.2197C9.57317 17.5126 9.57317 17.9874 9.28027 18.2803L7.28027 20.2803C6.98738 20.5732 6.51262 20.5732 6.21973 20.2803C5.92683 19.9874 5.92683 19.5126 6.21973 19.2197L8.21973 17.2197ZM17.7314 0.0224609C18.138 0.00246973 18.5335 -0.0170757 18.8701 0.0253906C19.2686 0.0756942 19.6385 0.216599 19.9609 0.539062C20.2834 0.861514 20.4243 1.23144 20.4746 1.62988C20.5171 1.96653 20.4975 2.36198 20.4775 2.76855C20.4767 2.78537 20.4764 2.80249 20.4756 2.81934C20.3562 5.26023 19.6192 7.65026 17.7764 9.49316L16.291 10.9785C15.6427 11.6268 15.3569 11.9257 15.2158 12.2012C15.1181 12.3922 15.0701 12.6142 15.1787 13.1855C15.1805 13.1926 15.1828 13.1999 15.1846 13.207C15.3038 13.6834 15.4472 14.2585 15.4482 14.8154C15.4494 15.429 15.2795 16.068 14.7383 16.6094C14.2218 17.1258 13.6144 17.4999 12.9062 17.5C12.1979 17.5 11.5898 17.1259 11.0732 16.6094L3.89062 9.42578C3.37411 8.90926 3.00001 8.30208 3 7.59375C3.00008 6.88551 3.37414 6.2782 3.89062 5.76172C4.43196 5.2205 5.07104 5.05059 5.68457 5.05176C6.24155 5.05283 6.8166 5.1962 7.29297 5.31543C7.30015 5.31723 7.30732 5.3195 7.31445 5.32129C7.88588 5.4299 8.10784 5.38191 8.29883 5.28418C8.57427 5.14314 8.87231 4.85718 9.52051 4.20898L11.0068 2.72363C12.8497 0.880772 15.2398 0.143823 17.6807 0.0244141C17.6975 0.0235918 17.7147 0.0232857 17.7314 0.0224609ZM17.7539 1.52344C15.5597 1.63078 13.5699 2.28172 12.0674 3.78418L10.5078 5.34375C9.96466 5.88741 9.49527 6.35653 8.98242 6.61914C8.36424 6.93559 7.75154 6.93339 7.01074 6.79004C6.99753 6.78748 6.98376 6.78451 6.9707 6.78125C6.44157 6.64896 6.03659 6.55243 5.68164 6.55176C5.36686 6.55116 5.14683 6.62671 4.95117 6.82227C4.5738 7.19964 4.50007 7.44723 4.5 7.59375C4.5 7.74025 4.57362 7.98768 4.95117 8.36523L12.1348 15.5488C12.5123 15.9263 12.7598 16 12.9062 16C13.0528 15.9999 13.3004 15.9261 13.6777 15.5488C13.8733 15.3532 13.9488 15.1331 13.9482 14.8184C13.9476 14.4634 13.851 14.0584 13.7188 13.5293C13.7155 13.5162 13.7125 13.5025 13.71 13.4893C13.5666 12.7483 13.5642 12.1349 13.8809 11.5166C14.1435 11.0039 14.6127 10.5352 15.1562 9.99219L16.7158 8.43262C18.2183 6.93011 18.8692 4.94035 18.9766 2.74609C18.9999 2.26919 19.0104 2.00772 18.9863 1.81738C18.9683 1.67485 18.9393 1.63856 18.9004 1.59961C18.8614 1.56065 18.8251 1.53168 18.6826 1.51367C18.4923 1.48965 18.2307 1.50011 17.7539 1.52344ZM2.21973 11.2197C2.51262 10.9268 2.98738 10.9268 3.28027 11.2197C3.57317 11.5126 3.57317 11.9874 3.28027 12.2803L1.28027 14.2803C0.98738 14.5732 0.51262 14.5732 0.219727 14.2803C-0.0731666 13.9874 -0.0731666 13.5126 0.219727 13.2197L2.21973 11.2197ZM15.2549 4.25C15.8072 4.25 16.2549 4.69772 16.2549 5.25C16.2549 5.80228 15.8072 6.25 15.2549 6.25H15.2461C14.6938 6.25 14.2461 5.80228 14.2461 5.25C14.2461 4.69772 14.6938 4.25 15.2461 4.25H15.2549Z" fill="#067647"/>
</svg>
