<svg width="28" height="28" viewBox="0 0 28 28" fill="none" xmlns="http://www.w3.org/2000/svg">
<path d="M25.667 26.542C26.15 26.5418 26.5418 26.15 26.542 25.667C26.542 25.1839 26.1501 24.7922 25.667 24.792H23.4014L18.6758 9.04199H23.625V10.5C23.625 10.9832 24.0168 11.375 24.5 11.375C24.9832 11.375 25.375 10.9832 25.375 10.5V8.16699C25.375 7.90733 25.26 7.66038 25.0605 7.49414L18.0605 1.66113C18.0595 1.66028 18.0577 1.66002 18.0566 1.65918C18.0122 1.62245 17.9643 1.58998 17.9131 1.5625C17.8438 1.5253 17.7708 1.49955 17.6963 1.48242C17.6888 1.48069 17.6814 1.4781 17.6738 1.47656C17.6573 1.47323 17.6407 1.47112 17.624 1.46875C17.6075 1.4664 17.591 1.4643 17.5742 1.46289C17.5501 1.46086 17.5261 1.45903 17.502 1.45898L17.5 1.45801L10.5 1.45801L10.4971 1.45898C10.4729 1.45905 10.4489 1.46083 10.4248 1.46289C10.408 1.46432 10.3915 1.46639 10.375 1.46875C10.3584 1.47114 10.3417 1.47321 10.3252 1.47656C10.3179 1.47804 10.3109 1.48076 10.3037 1.48242C10.2289 1.49961 10.1554 1.52509 10.0859 1.5625C10.0348 1.59002 9.98676 1.62243 9.94238 1.65918C9.94156 1.65986 9.94028 1.66044 9.93945 1.66113L2.93945 7.49414C2.73999 7.66038 2.625 7.90733 2.625 8.16699L2.625 10.5C2.625 10.9832 3.01675 11.375 3.5 11.375C3.98325 11.375 4.375 10.9832 4.375 10.5L4.375 9.04199L9.32422 9.04199L4.59863 24.792H2.33301C1.84991 24.7922 1.45801 25.1839 1.45801 25.667C1.45818 26.15 1.85002 26.5418 2.33301 26.542L25.667 26.542ZM11.375 3.20801L16.625 3.20801V7.29199L11.375 7.29199L11.375 3.20801ZM9.625 4.20215L9.625 7.29199L5.91699 7.29199L9.625 4.20215ZM18.375 4.20215L22.083 7.29199H18.375V4.20215ZM10.7041 10.5322L11.1514 9.04199L16.8486 9.04199L17.2949 10.5322L14 12.4707L10.7041 10.5322ZM10.1865 12.2578L12.2734 13.4854L9.29199 15.2393L10.1865 12.2578ZM15.7256 13.4854L17.8125 12.2578L18.7061 15.2393L15.7256 13.4854ZM10.0273 16.8369L14 14.501L17.9727 16.8369L13.999 18.7373L10.0273 16.8369ZM8.45605 18.0254L11.9717 19.707L7.27734 21.9521L8.45605 18.0254ZM16.0273 19.707L19.543 18.0254L20.7217 21.9521L16.0273 19.707ZM6.60645 24.1875C6.66987 24.1734 6.73281 24.1522 6.79395 24.123L13.999 20.6768L21.2061 24.123C21.2669 24.1521 21.3295 24.1734 21.3926 24.1875L21.5742 24.792L6.42578 24.792L6.60645 24.1875Z" fill="#067647"/>
</svg>
