<svg width="28" height="28" viewBox="0 0 28 28" fill="none" xmlns="http://www.w3.org/2000/svg">
<path d="M9.39746 1.45801C10.9928 1.45798 12.2786 1.45878 13.29 1.59473C14.34 1.73589 15.2246 2.03725 15.9268 2.73926C16.6289 3.44142 16.9311 4.32599 17.0723 5.37598C17.1844 6.21 17.2036 7.23103 17.207 8.45801H21.0605C22.1087 8.45797 22.9829 8.45848 23.6768 8.55176C24.4092 8.65023 25.0702 8.86706 25.6016 9.39844C26.1329 9.92982 26.3498 10.5908 26.4482 11.3232C26.5415 12.0171 26.542 12.8913 26.542 13.9395V21.0605C26.542 22.1087 26.5415 22.9829 26.4482 23.6768C26.3498 24.4092 26.1329 25.0702 25.6016 25.6016C25.0702 26.1329 24.4092 26.3498 23.6768 26.4482C22.9829 26.5415 22.1087 26.542 21.0605 26.542H9.26953C7.67401 26.542 6.38744 26.5413 5.37598 26.4053C4.32601 26.2641 3.44141 25.9629 2.73926 25.2607C2.0371 24.5586 1.73593 23.674 1.59473 22.624C1.45874 21.6126 1.45798 20.326 1.45801 18.7305V9.26953C1.45798 7.67401 1.45874 6.38744 1.59473 5.37598C1.73593 4.32601 2.0371 3.44141 2.73926 2.73926C3.44141 2.0371 4.32601 1.73593 5.37598 1.59473C6.38744 1.45874 7.67401 1.45798 9.26953 1.45801H9.39746ZM9.33301 3.20801C7.65853 3.20801 6.49056 3.21063 5.60938 3.3291C4.7534 3.4442 4.30041 3.65467 3.97754 3.97754C3.65467 4.30041 3.4442 4.7534 3.3291 5.60938C3.21063 6.49056 3.20801 7.65853 3.20801 9.33301V18.667C3.20801 20.3415 3.21063 21.5094 3.3291 22.3906C3.4442 23.2466 3.65467 23.6996 3.97754 24.0225C4.30041 24.3453 4.7534 24.5558 5.60938 24.6709C6.49056 24.7894 7.65853 24.792 9.33301 24.792H15.458V9.33301C15.458 7.65853 15.4564 6.49056 15.3379 5.60938C15.2228 4.75352 15.0122 4.3004 14.6895 3.97754C14.3666 3.65471 13.9134 3.44421 13.0576 3.3291C12.1764 3.21062 11.0077 3.20801 9.33301 3.20801ZM17.208 24.792H21C22.1245 24.792 22.8799 24.7896 23.4434 24.7139C23.9817 24.6415 24.2122 24.5163 24.3643 24.3643C24.5163 24.2122 24.6415 23.9817 24.7139 23.4434C24.7896 22.8799 24.792 22.1245 24.792 21V14C24.792 12.8755 24.7896 12.1201 24.7139 11.5566C24.6415 11.0183 24.5163 10.7878 24.3643 10.6357C24.2122 10.4837 23.9817 10.3585 23.4434 10.2861C22.8799 10.2104 22.1245 10.208 21 10.208H17.208V24.792ZM7.58301 16.625C8.06626 16.625 8.45801 17.0168 8.45801 17.5C8.45801 17.9832 8.06626 18.375 7.58301 18.375H6.41699C5.93374 18.375 5.54199 17.9832 5.54199 17.5C5.54199 17.0168 5.93374 16.625 6.41699 16.625H7.58301ZM12.25 16.625C12.7332 16.625 13.125 17.0168 13.125 17.5C13.125 17.9832 12.7332 18.375 12.25 18.375H11.083C10.5999 18.3748 10.208 17.9831 10.208 17.5C10.208 17.0169 10.5999 16.6252 11.083 16.625H12.25ZM21.583 16.625C22.0663 16.625 22.458 17.0168 22.458 17.5C22.458 17.9832 22.0663 18.375 21.583 18.375H20.417C19.9337 18.375 19.542 17.9832 19.542 17.5C19.542 17.0168 19.9337 16.625 20.417 16.625H21.583ZM7.58301 11.958C8.06615 11.958 8.45783 12.3499 8.45801 12.833C8.45801 13.3163 8.06626 13.708 7.58301 13.708H6.41699C5.93374 13.708 5.54199 13.3163 5.54199 12.833C5.54217 12.3499 5.93385 11.958 6.41699 11.958H7.58301ZM12.25 11.958C12.7331 11.958 13.1248 12.3499 13.125 12.833C13.125 13.3163 12.7332 13.708 12.25 13.708H11.083C10.5999 13.7078 10.208 13.3161 10.208 12.833C10.2082 12.35 10.6 11.9582 11.083 11.958H12.25ZM21.583 11.958C22.0661 11.958 22.4578 12.3499 22.458 12.833C22.458 13.3163 22.0663 13.708 21.583 13.708H20.417C19.9337 13.708 19.542 13.3163 19.542 12.833C19.5422 12.3499 19.9339 11.958 20.417 11.958H21.583ZM7.58301 7.29199C8.06626 7.29199 8.45801 7.68374 8.45801 8.16699C8.45783 8.65009 8.06615 9.04199 7.58301 9.04199H6.41699C5.93385 9.04199 5.54217 8.65009 5.54199 8.16699C5.54199 7.68374 5.93374 7.29199 6.41699 7.29199H7.58301ZM12.25 7.29199C12.7332 7.29199 13.125 7.68374 13.125 8.16699C13.1248 8.65009 12.7331 9.04199 12.25 9.04199H11.083C10.6 9.04182 10.2082 8.64998 10.208 8.16699C10.208 7.68385 10.5999 7.29217 11.083 7.29199H12.25Z" fill="#067647"/>
</svg>
