<svg width="28" height="28" viewBox="0 0 28 28" fill="none" xmlns="http://www.w3.org/2000/svg">
<path d="M13.9834 2.625C14.3715 2.625 14.8465 2.71449 15.334 2.83887C15.837 2.96721 16.4135 3.14923 17.0273 3.36719C18.2558 3.80343 19.6725 4.39733 21.0146 5.04004C22.3529 5.68086 23.6441 6.38265 24.6133 7.03613C25.0946 7.36071 25.5265 7.69348 25.8477 8.01953C26.0082 8.18252 26.1615 8.36445 26.2793 8.5625C26.3938 8.75508 26.5087 9.02042 26.5088 9.33301C26.5088 9.64566 26.3938 9.91088 26.2793 10.1035C26.1614 10.3018 26.0083 10.4843 25.8477 10.6475C25.5599 10.9396 25.1821 11.2352 24.7607 11.5273V19.0342C25.6203 20.6745 26.1028 21.6767 26.4795 23.1113C26.4857 23.1349 26.4909 23.1586 26.4951 23.1826C26.55 23.4975 26.5784 23.8647 26.458 24.2285C26.3266 24.6254 26.0645 24.8883 25.7949 25.0742C25.4465 25.3145 25.0623 25.375 24.7637 25.375H22.9893C22.7102 25.3749 22.3464 25.3227 22.0088 25.1035C21.7142 24.9122 21.4397 24.6395 21.3076 24.2285C21.1895 23.8605 21.2239 23.4898 21.2754 23.1865C21.2804 23.157 21.2869 23.1275 21.2949 23.0986C21.7171 21.5811 22.1415 20.6276 23.0107 19.0273V12.5996C22.6418 12.8041 22.2545 13.0064 21.8584 13.207L21.5879 19.4395C21.5807 19.6034 21.5616 19.8177 21.4932 20.0439C21.333 20.5727 21.0209 21.1087 20.498 21.4834C19.7167 22.0432 18.6798 22.426 17.5781 22.6719C16.4648 22.9203 15.2269 23.042 14 23.042C12.7731 23.042 11.5352 22.9203 10.4219 22.6719C9.32021 22.426 8.28326 22.0432 7.50195 21.4834C6.9791 21.1087 6.66698 20.5727 6.50684 20.0439C6.43837 19.8177 6.41926 19.6034 6.41211 19.4395L6.14062 13.2236C5.10088 12.698 4.12519 12.1505 3.35449 11.6309C2.87311 11.3063 2.44132 10.9735 2.12012 10.6475C1.9594 10.4843 1.80539 10.3018 1.6875 10.1035C1.57306 9.9109 1.45801 9.64548 1.45801 9.33301C1.45809 9.02042 1.573 8.75508 1.6875 8.5625C1.80535 8.36427 1.95946 8.18264 2.12012 8.01953C2.44132 7.69347 2.87311 7.36072 3.35449 7.03613C4.32366 6.38264 5.61489 5.68086 6.95312 5.04004C8.29513 4.39741 9.71108 3.80341 10.9395 3.36719C11.5534 3.14919 12.1307 2.96723 12.6338 2.83887C13.1211 2.71456 13.5954 2.62506 13.9834 2.625ZM23.8779 21.1572C23.4913 21.9614 23.2446 22.6285 22.9941 23.5215C22.9878 23.563 22.9839 23.5973 22.9814 23.625H24.7637C24.7737 23.625 24.7824 23.6245 24.79 23.624C24.7878 23.5965 24.7833 23.5614 24.7764 23.5176C24.5541 22.681 24.2939 22.0155 23.8779 21.1572ZM20.0703 14.0635C19.0243 14.5353 17.9706 14.9648 17.0273 15.2998C16.4136 15.5178 15.837 15.6998 15.334 15.8281C14.8465 15.9525 14.3715 16.042 13.9834 16.042C13.5955 16.0419 13.1211 15.9524 12.6338 15.8281C12.1307 15.6998 11.5534 15.5178 10.9395 15.2998C10.0061 14.9684 8.96482 14.545 7.92969 14.0791L8.16016 19.3633C8.16447 19.4622 8.17389 19.5115 8.18164 19.5371C8.25742 19.7873 8.38092 19.9598 8.52148 20.0605C9.03771 20.4304 9.82227 20.7448 10.8037 20.9639C11.7738 21.1803 12.8816 21.292 14 21.292C15.1184 21.292 16.2262 21.1803 17.1963 20.9639C18.1777 20.7448 18.9623 20.4304 19.4785 20.0605C19.6191 19.9598 19.7426 19.7873 19.8184 19.5371C19.8261 19.5115 19.8355 19.4622 19.8398 19.3633L20.0703 14.0635ZM13.9834 4.375C13.8199 4.37507 13.5171 4.41922 13.0664 4.53418C12.6308 4.64533 12.1071 4.80906 11.5254 5.01562C10.3626 5.42854 9.00363 5.99919 7.70898 6.61914C6.41057 7.24091 5.20349 7.90035 4.33301 8.4873C3.89475 8.78282 3.57109 9.04016 3.36719 9.24707C3.33583 9.2789 3.30852 9.3075 3.28613 9.33301C3.30852 9.35852 3.33583 9.38711 3.36719 9.41895C3.57107 9.62591 3.89453 9.88402 4.33301 10.1797C5.20351 10.7666 6.41059 11.4261 7.70898 12.0479C9.00358 12.6678 10.3626 13.2375 11.5254 13.6504C12.1071 13.857 12.6307 14.0217 13.0664 14.1328C13.517 14.2478 13.8199 14.2919 13.9834 14.292C14.1468 14.292 14.4503 14.2479 14.9014 14.1328C15.337 14.0217 15.8606 13.857 16.4424 13.6504C17.6051 13.2375 18.9643 12.6677 20.2588 12.0479C21.5572 11.4261 22.7643 10.7666 23.6348 10.1797C24.0732 9.88402 24.3967 9.62591 24.6006 9.41895C24.6319 9.38717 24.6583 9.35848 24.6807 9.33301C24.6583 9.30759 24.6318 9.27875 24.6006 9.24707C24.3967 9.04015 24.0731 8.78285 23.6348 8.4873C22.7643 7.90037 21.5572 7.2409 20.2588 6.61914C18.9642 5.99921 17.6052 5.42854 16.4424 5.01562C15.8606 4.80905 15.337 4.64534 14.9014 4.53418C14.4502 4.41909 14.1468 4.375 13.9834 4.375Z" fill="#067647"/>
</svg>
