<svg width="28" height="28" viewBox="0 0 28 28" fill="none" xmlns="http://www.w3.org/2000/svg">
<path fill-rule="evenodd" clip-rule="evenodd" d="M22.163 5.88368C23.4475 6.56618 24.5173 7.58819 25.2558 8.83886C26.2576 10.5347 26.3453 12.6257 26.5203 16.7928C26.5707 18.0075 26.5982 18.6678 26.279 19.2852C26.0433 19.7414 25.6828 20.1147 25.2383 20.3667C24.6629 20.6928 24.0323 20.7078 22.9291 20.7085C22.5468 22.0529 21.3076 23.0407 19.8425 23.0407C18.377 23.0407 17.1374 22.0523 16.7555 20.7074L11.2628 20.7074C10.8809 22.0523 9.64126 23.0407 8.1758 23.0407C6.70941 23.0407 5.46917 22.051 5.08808 20.7048C3.72577 20.6902 2.89684 20.5928 2.24093 19.9409C1.51403 19.2151 1.47127 18.2805 1.46876 16.647L1.4686 11.8011C1.46186 11.7573 1.45834 11.7125 1.45834 11.6669C1.45834 11.6212 1.46186 11.5763 1.4686 11.5325L1.4686 9.33234C1.4686 7.50302 1.4686 6.49504 2.23977 5.72504C2.92021 5.04767 3.78776 4.96798 5.24314 4.95861L15.4012 4.9585C18.7621 4.96799 20.6067 5.05661 22.163 5.88368ZM8.1758 18.374C7.41545 18.374 6.78873 18.9596 6.72314 19.7033C6.72937 19.7454 6.7326 19.7885 6.7326 19.8324C6.7326 19.8762 6.72937 19.9193 6.72314 19.9614C6.78873 20.7051 7.41545 21.2907 8.1758 21.2907C8.97776 21.2907 9.63108 20.6392 9.63412 19.838C9.63108 19.0255 8.97776 18.374 8.1758 18.374ZM19.8425 18.374C19.0386 18.374 18.3841 19.0285 18.3841 19.8324C18.3841 20.6362 19.0386 21.2907 19.8425 21.2907C20.6448 21.2907 21.2982 20.6388 21.3008 19.837C21.2982 19.026 20.6448 18.374 19.8425 18.374ZM17.9745 12.5422L3.2186 12.5419L3.21867 16.5809C3.21974 17.7134 3.23579 18.4611 3.47644 18.7007C3.67844 18.9018 4.24063 18.9453 5.08953 18.9548C5.47233 17.6111 6.71127 16.624 8.1758 16.624C9.64126 16.624 10.8809 17.6124 11.2628 18.9574L16.7555 18.9574C17.1374 17.6124 18.377 16.624 19.8425 16.624C21.3079 16.624 22.5475 17.6124 22.9295 18.9574C23.6845 18.9569 24.1854 18.9497 24.375 18.8419C24.5243 18.7579 24.6445 18.633 24.7238 18.4802C24.8297 18.2753 24.8067 17.722 24.7719 16.8828C24.7407 16.142 24.7128 15.4781 24.6826 14.8745C24.3713 14.8788 23.9331 14.8834 23.4617 14.8834C22.5412 14.8834 21.4947 14.8659 21.0199 14.7947C20.1596 14.6666 19.5861 14.1053 18.9218 13.4549L18.7974 13.327C18.7463 13.2665 18.6982 13.2072 18.652 13.1502C18.6348 13.129 18.618 13.1083 18.6014 13.0879C18.1569 12.5419 18.1219 12.5419 17.9294 12.5419L17.9745 12.5422ZM19.5508 6.89219V11.5093C19.6949 11.6595 19.8264 11.821 19.9568 11.9809C20.0084 12.0449 20.0597 12.1079 20.1145 12.1732L20.1425 12.2C20.692 12.7379 20.9919 13.0202 21.28 13.0634C21.7644 13.1362 23.3834 13.1406 24.5705 13.1253C24.4374 11.5638 24.2218 10.5297 23.7485 9.72785C23.1733 8.75485 22.3415 7.95918 21.3416 7.42835C20.8463 7.16538 20.2711 6.99832 19.5508 6.89219ZM15.0704 6.70779L13.7175 6.70736L13.7175 10.7918H17.8008V6.74683C17.0271 6.71613 16.1286 6.70931 15.0704 6.70779ZM11.9675 6.70736L7.88413 6.70736L7.88413 10.7918L11.9675 10.7918L11.9675 6.70736ZM6.13413 6.70736L5.36959 6.70797C4.36408 6.71194 3.69973 6.74173 3.47527 6.96519C3.2186 7.22186 3.2186 8.06186 3.2186 9.33236L3.2186 10.7918H6.13413L6.13413 6.70736Z" fill="#067647"/>
</svg>
