<svg width="28" height="28" viewBox="0 0 28 28" fill="none" xmlns="http://www.w3.org/2000/svg">
<path d="M16.9066 23.9346C18.3414 25.3575 20.4411 25.731 22.2142 25.043C22.4824 24.938 22.6928 24.7045 22.7513 24.4131C22.8096 24.1214 22.7162 23.8174 22.5062 23.6074L21.1068 22.208V21.1113H22.2034L23.6028 22.5107C23.8127 22.7206 24.116 22.814 24.4075 22.7559C24.699 22.6976 24.9323 22.4878 25.0374 22.2197C25.7257 20.4465 25.3531 18.3461 23.93 16.9111C22.643 15.6346 20.8214 15.2059 19.18 15.627L16.3939 12.8398L20.9944 8.23926L21.5482 8.79199C21.7348 8.97864 22.0035 9.07208 22.2718 9.03711C22.5401 9.01378 22.7734 8.8505 22.9134 8.62891L24.6634 5.71191C24.8733 5.36197 24.8153 4.91865 24.5355 4.63867L23.9173 5.25684H23.9163L24.5355 4.63867L23.3685 3.47168L23.2562 3.37793C23.0185 3.20996 22.7071 3.16953 22.43 3.27734L22.2952 3.34375L19.3782 5.09375C19.1567 5.23376 18.9934 5.46709 18.97 5.73535C18.935 6.00368 19.0285 6.27232 19.2151 6.45898L19.7581 7.00293L15.1575 11.6035L12.3812 8.82813C12.8025 7.18651 12.3727 5.36435 11.096 4.07715C9.66102 2.6541 7.5606 2.28145 5.78741 2.96973C5.51935 3.07483 5.30957 3.30814 5.25128 3.59961C5.1931 3.89117 5.28648 4.19438 5.4964 4.4043L6.89581 5.80371V6.90039H5.79913L4.39972 5.50098L4.31671 5.42773C4.11409 5.27006 3.85012 5.20498 3.59503 5.25586C3.30337 5.31419 3.06917 5.52464 2.96417 5.79297C2.27617 7.56605 2.64967 9.66574 4.07257 11.1006C5.35689 12.3745 7.16432 12.8053 8.80109 12.3887L10.0159 13.6045L3.93488 19.6855C2.96655 20.6422 2.96658 22.1937 3.93488 23.1504L4.85577 24.0723C5.81244 25.0406 7.36493 25.0406 8.32159 24.0723L14.4026 17.9912L15.6185 19.2061C15.2018 20.8428 15.6327 22.6502 16.9066 23.9346ZM20.0345 23.6104C19.3468 23.526 18.6804 23.218 18.1546 22.6855C17.2215 21.7639 16.976 20.4108 17.4193 19.2676C17.5476 18.9409 17.4777 18.579 17.2327 18.334L9.67316 10.7744L9.5755 10.6904C9.33772 10.5149 9.02525 10.4757 8.73956 10.5879C7.59632 11.0311 6.24321 10.7857 5.32159 9.85254C4.78912 9.32672 4.48118 8.66035 4.39679 7.97266L4.81964 8.39453L4.88312 8.45215C5.03817 8.57953 5.23356 8.65037 5.43781 8.65039L7.77081 8.65039C8.24915 8.65039 8.64581 8.25372 8.64581 7.77539V5.44238C8.64577 5.20918 8.55316 4.9875 8.38995 4.82422L7.96613 4.40234C8.65444 4.48642 9.3217 4.79324 9.84796 5.32617C10.7811 6.24779 11.0265 7.60096 10.5716 8.75586C10.4549 9.07086 10.5248 9.44445 10.7698 9.68945L18.3177 17.2373L18.4153 17.3213C18.6552 17.4973 18.9756 17.5376 19.2513 17.4355C20.4062 16.9807 21.7593 17.226 22.681 18.1592C23.2139 18.6854 23.5207 19.3527 23.6048 20.041L23.1829 19.6172L23.1194 19.5596C22.9644 19.4322 22.769 19.3614 22.5648 19.3613H20.2318C19.7534 19.3613 19.3568 19.758 19.3568 20.2363L19.3568 22.5693C19.3568 22.8026 19.4494 23.0242 19.6126 23.1875L20.0345 23.6104ZM21.2435 6.01465L22.6136 5.19141L22.8157 5.39355L21.9925 6.76367L21.2435 6.01465ZM7.08429 22.8359C6.80434 23.1156 6.36136 23.1157 6.09308 22.8359L5.1712 21.9141C4.89128 21.6458 4.89143 21.2029 5.1712 20.9229L11.2523 14.8408L13.1663 16.7539L7.08429 22.8359Z" fill="#067647"/>
</svg>
