<svg width="28" height="28" viewBox="0 0 28 28" fill="none" xmlns="http://www.w3.org/2000/svg">
<path d="M21 22.458C21.4829 22.458 21.8748 22.8502 21.875 23.333C21.875 23.816 21.483 24.208 21 24.208H2.33301C1.85016 24.2078 1.45801 23.8159 1.45801 23.333C1.45819 22.8503 1.85027 22.4582 2.33301 22.458H21ZM16.0273 4.48828C18.2404 3.5644 20.5354 3.55998 22.6621 4.47461C24.3162 5.1851 25.422 6.25589 25.7871 6.73535C26.3657 7.45863 26.7074 7.95538 26.459 8.94922L26.4463 8.99414C26.1313 10.0216 25.2486 10.2809 24.916 10.3789L24.8691 10.3926C24.7291 10.4346 23.9698 10.6405 22.6387 11.001C21.3857 11.3405 19.829 11.7604 18.9844 11.9961C18.9309 12.0159 18.8961 12.0449 18.8682 12.0752C18.7562 12.2677 18.4393 12.9076 18.2246 13.3428C17.9096 13.9809 17.6986 14.4051 17.5645 14.6396C17.2926 15.2765 16.6429 16.0356 15.7588 16.3564L15.7471 16.3613C15.2864 16.5223 14.6332 16.6881 14.1572 16.8105C13.9451 16.8653 13.7035 16.926 13.6367 16.9482C13.0151 17.1558 12.6229 17.208 12.3779 17.208L12.375 17.207C12.2156 17.207 12.1177 17.1853 12.0605 17.1689C11.6907 17.0779 11.3683 16.8419 11.1758 16.5176C10.9717 16.1758 10.9254 15.7619 11.042 15.3525C11.1155 15.0948 11.2459 14.4599 11.3252 14.0586C11.19 14.0947 11.0443 14.131 10.8916 14.166C10.1998 14.3608 9.50882 14.5437 9.03516 14.6592C7.0627 15.2342 5.98588 15.3886 5.66016 15.3887C5.11766 15.3887 4.62967 15.3122 4.01367 14.9424L3.94922 14.8994C3.45705 14.5413 3.07198 14.0884 2.67773 12.9395C2.55169 12.5927 2.17742 11.2496 1.89746 10.1846C1.48692 8.62168 1.35527 8.00583 1.55469 7.53223C1.72735 7.08539 2.00042 6.77756 2.48926 6.47656C2.66076 6.37157 2.94638 6.23802 4.36133 5.88574L4.39746 5.87695C4.65523 5.8128 5.15333 5.72973 5.65137 5.87891C6.21594 6.01538 6.71082 6.56712 7.38965 7.37891C7.50508 7.51766 7.6606 7.70334 7.72949 7.77344L7.76367 7.7959L7.82422 7.85645C7.94788 7.98008 8.12913 8.09047 8.21777 8.09863C8.3519 8.11017 8.53522 8.0662 8.79395 7.95898C8.98107 7.87885 10.8987 6.95194 12.4414 6.20801C14.1237 5.39601 15.712 4.6289 16.0049 4.49707L16.0273 4.48828ZM24.3955 7.79883C24.3581 7.75057 21.3037 4.1916 16.7119 6.09961C16.4109 6.23611 14.7795 7.02332 13.2021 7.78516C10.7913 8.94918 9.6365 9.50483 9.46582 9.57617C9.10415 9.72667 8.61607 9.89294 8.05957 9.84277C7.39003 9.78202 6.86611 9.36129 6.63281 9.13965C6.47769 9.01482 6.31861 8.82734 6.04688 8.50195C5.82754 8.23945 5.38307 7.70679 5.17773 7.56445L5.15137 7.55566C5.10703 7.54166 4.97258 7.53689 4.82324 7.57422L4.78613 7.58301C3.74313 7.84317 3.45243 7.95247 3.38477 7.98047C3.287 8.04217 3.24108 8.0781 3.21777 8.1084C3.24811 8.43153 3.4691 9.2712 3.59277 9.74023C3.93344 11.0387 4.25889 12.1639 4.32422 12.3389L4.33203 12.3623C4.60838 13.1691 4.7976 13.3478 4.94922 13.4609C5.207 13.6102 5.3659 13.6387 5.66211 13.6387C5.80678 13.634 6.74174 13.5068 8.56641 12.9736L8.60547 12.9629C9.06514 12.8521 9.75191 12.6704 10.4414 12.4756L10.4854 12.4639C10.8529 12.381 11.1713 12.2858 11.4268 12.21C11.8443 12.0863 12.3052 11.95 12.6738 12.1562C12.8383 12.2321 12.9811 12.3513 13.085 12.5029C13.4139 12.9824 13.2464 13.5634 13.1367 13.9473C13.1274 13.9798 13.1201 14.008 13.1143 14.0312L13.1094 14.0342C13.0801 14.198 12.9553 14.8483 12.8398 15.3613C12.9191 15.3392 13.0018 15.3149 13.0811 15.2881C13.2012 15.2484 13.3833 15.2006 13.7217 15.1143C14.1662 15.0011 14.7732 14.8463 15.1641 14.7109C15.5629 14.5639 15.87 14.169 15.9609 13.9346L15.9873 13.8643L16.0254 13.8008C16.1292 13.627 16.4082 13.0633 16.6543 12.5664C17.108 11.6485 17.3211 11.2262 17.4541 11.0371L17.502 10.9688L17.5459 10.9258C17.6556 10.8044 17.9464 10.4928 18.4551 10.3271L18.4912 10.3164C19.337 10.0819 20.8475 9.67292 22.1807 9.3125C23.2395 9.02565 24.2405 8.75533 24.3662 8.71777L24.4238 8.70117C24.6999 8.62078 24.7386 8.58679 24.7666 8.50293C24.7937 8.39001 24.7921 8.35116 24.792 8.34668C24.7663 8.26152 24.5193 7.95314 24.4131 7.82129L24.3955 7.79883Z" fill="#067647"/>
</svg>
