<svg width="22" height="22" viewBox="0 0 22 22" fill="none" xmlns="http://www.w3.org/2000/svg">
<path d="M14.3213 14.6172C14.9959 14.6174 15.6354 15.1886 15.54 15.9668C15.4273 16.8869 15.0335 17.9997 13.9756 18.5684C13.8868 19.3789 13.6859 20.1052 13.2119 20.6396C12.6168 21.3107 11.7525 21.5112 10.7578 21.501C9.67233 21.5191 8.80252 21.2641 8.22363 20.5615C7.76749 20.0077 7.58563 19.2757 7.49512 18.5166C7.05245 18.2368 6.71474 17.9092 6.47168 17.5146C6.17138 17.0271 6.05464 16.5014 5.99316 15.9902C5.90126 15.2258 6.51765 14.6173 7.22559 14.6172H14.3213ZM9.05859 18.8076C9.13747 19.1921 9.24444 19.4417 9.38086 19.6074C9.55061 19.8135 9.87906 20.0169 10.7422 20.001C10.7496 20.0008 10.7572 20.0009 10.7646 20.001C11.5915 20.0107 11.9181 19.8368 12.0889 19.6445C12.2253 19.4907 12.3436 19.2383 12.4248 18.8076H9.05859ZM7.53027 16.1172C7.5801 16.3727 7.64924 16.5655 7.74902 16.7275C7.86372 16.9138 8.04863 17.1086 8.39258 17.3076H13.1348C13.5882 17.1203 13.8645 16.7062 13.9951 16.1172H7.53027ZM10.75 3.5C14.776 3.5 18 6.86049 18 10.9561C18 12.0597 17.7661 13.1096 17.3457 14.0547C17.1773 14.4331 16.7339 14.6039 16.3555 14.4355C15.9771 14.2671 15.8073 13.8237 15.9756 13.4453C16.3119 12.6893 16.5 11.8466 16.5 10.9561C16.5 7.64448 13.9038 5 10.75 5C7.59624 5 5 7.64448 5 10.9561C5.00002 11.8466 5.18809 12.6893 5.52441 13.4453C5.69272 13.8237 5.52287 14.2671 5.14453 14.4355C4.76608 14.6039 4.32266 14.4331 4.1543 14.0547C3.73386 13.1096 3.50002 12.0597 3.5 10.9561C3.5 6.86049 6.72406 3.5 10.75 3.5ZM1.75 10C2.16421 10 2.5 10.3358 2.5 10.75C2.5 11.1642 2.16421 11.5 1.75 11.5H0.75C0.335786 11.5 0 11.1642 0 10.75C0 10.3358 0.335786 10 0.75 10H1.75ZM20.75 10C21.1642 10 21.5 10.3358 21.5 10.75C21.5 11.1642 21.1642 11.5 20.75 11.5H19.75C19.3358 11.5 19 11.1642 19 10.75C19 10.3358 19.3358 10 19.75 10H20.75ZM3.14941 3.14941C3.44231 2.85652 3.91707 2.85652 4.20996 3.14941L4.91699 3.85645C5.20989 4.14934 5.20989 4.6241 4.91699 4.91699C4.6241 5.20989 4.14934 5.20989 3.85645 4.91699L3.14941 4.20996C2.85652 3.91707 2.85652 3.44231 3.14941 3.14941ZM17.29 3.14941C17.5829 2.85653 18.0577 2.85655 18.3506 3.14941C18.6435 3.44231 18.6435 3.91707 18.3506 4.20996L17.6436 4.91699C17.3507 5.20989 16.8759 5.20988 16.583 4.91699C16.2902 4.6241 16.2901 4.14933 16.583 3.85645L17.29 3.14941ZM10.75 0C11.1642 0 11.5 0.335786 11.5 0.75V1.75C11.5 2.16421 11.1642 2.5 10.75 2.5C10.3358 2.5 10 2.16421 10 1.75V0.75C10 0.335786 10.3358 0 10.75 0Z" fill="#067647"/>
</svg>
